<?xml version="1.0" encoding="UTF-8"?> <svg xmlns="http://www.w3.org/2000/svg" width="73" height="51" viewBox="0 0 73 51" fill="none"><path d="M36.2827 27.4562C44.5332 32.2196 52.3326 35.9558 58.2722 38.1462C61.2426 39.2417 63.7438 39.9489 65.6016 40.2059C66.531 40.3345 67.2939 40.3495 67.8718 40.2472C68.4508 40.1447 68.8284 39.9275 69.0139 39.6062C69.1994 39.2849 69.1986 38.8493 68.9979 38.2967C68.7976 37.745 68.4031 37.0919 67.8271 36.3513C66.6756 34.8708 64.8126 33.0584 62.3786 31.0336C57.5119 26.985 50.3765 22.0986 42.1261 17.3352C33.8757 12.5718 26.0762 8.8356 20.1367 6.64522C17.1662 5.54976 14.6651 4.84253 12.8072 4.58553C11.8778 4.45697 11.115 4.44192 10.537 4.54425C9.95807 4.64677 9.58046 4.86389 9.39495 5.18521C9.20943 5.50654 9.2102 5.94211 9.4109 6.49478C9.61123 7.04644 10.0057 7.69953 10.5817 8.44013C11.7332 9.92061 13.5963 11.733 16.0302 13.7578C20.8969 17.8064 28.0323 22.6928 36.2827 27.4562Z" stroke="#5A27E7" stroke-width="0.182605"></path><path d="M35.9175 27.8214C44.1679 32.5848 51.9674 36.3211 57.9069 38.5115C60.8774 39.6069 63.3785 40.3141 65.2364 40.5711C66.1658 40.6997 66.9286 40.7148 67.5065 40.6124C68.0855 40.5099 68.4631 40.2928 68.6486 39.9715C68.8342 39.6501 68.8334 39.2146 68.6327 38.6619C68.4324 38.1102 68.0379 37.4571 67.4619 36.7165C66.3104 35.2361 64.4473 33.4236 62.0134 31.3989C57.1467 27.3503 50.0113 22.4638 41.7609 17.7005C33.5104 12.9371 25.711 9.20084 19.7714 7.01045C16.8009 5.915 14.2998 5.20776 12.4419 4.95076C11.5125 4.8222 10.7497 4.80715 10.1718 4.90948C9.59283 5.01201 9.21523 5.22912 9.02971 5.55045C8.84419 5.87177 8.84497 6.30735 9.04567 6.86002C9.246 7.41167 9.64045 8.06477 10.2165 8.80537C11.368 10.2858 13.231 12.0983 15.665 14.123C20.5317 18.1716 27.6671 23.0581 35.9175 27.8214Z" stroke="#5A27E7" stroke-width="0.182605"></path><path d="M35.5523 28.1867C43.8027 32.95 51.6022 36.6863 57.5417 38.8767C60.5122 39.9721 63.0133 40.6793 64.8712 40.9363C65.8006 41.0649 66.5634 41.08 67.1413 40.9776C67.7203 40.8751 68.0979 40.658 68.2834 40.3367C68.4689 40.0153 68.4682 39.5798 68.2675 39.0271C68.0671 38.4754 67.6727 37.8223 67.0966 37.0817C65.9451 35.6013 64.0821 33.7889 61.6482 31.7641C56.7815 27.7155 49.646 22.829 41.3956 18.0657C33.1452 13.3023 25.3457 9.56604 19.4062 7.37566C16.4357 6.2802 13.9346 5.57297 12.0767 5.31597C11.1473 5.18741 10.3845 5.17235 9.80657 5.27469C9.2276 5.37721 8.84999 5.59433 8.66448 5.91565C8.47896 6.23698 8.47973 6.67255 8.68043 7.22522C8.88077 7.77688 9.27521 8.42997 9.85125 9.17057C11.0028 10.6511 12.8658 12.4635 15.2997 14.4882C20.1664 18.5368 27.3018 23.4233 35.5523 28.1867Z" stroke="#5A27E7" stroke-width="0.182605"></path><path d="M35.187 28.5518C43.4375 33.3152 51.2369 37.0514 57.1765 39.2418C60.1469 40.3373 62.6481 41.0445 64.5059 41.3015C65.4353 41.4301 66.1982 41.4451 66.7761 41.3428C67.3551 41.2403 67.7327 41.0232 67.9182 40.7018C68.1037 40.3805 68.1029 39.9449 67.9022 39.3923C67.7019 38.8406 67.3074 38.1875 66.7314 37.4469C65.5799 35.9664 63.7168 34.154 61.2829 32.1292C56.4162 28.0806 49.2808 23.1942 41.0304 18.4308C32.78 13.6675 24.9805 9.93121 19.0409 7.74083C16.0705 6.64538 13.5694 5.93814 11.7115 5.68114C10.7821 5.55258 10.0193 5.53753 9.44134 5.63986C8.86236 5.74238 8.48476 5.9595 8.29924 6.28083C8.11373 6.60215 8.1145 7.03773 8.3152 7.59039C8.51553 8.14205 8.90998 8.79515 9.48601 9.53574C10.6375 11.0162 12.5006 12.8286 14.9345 14.8534C19.8012 18.902 26.9366 23.7884 35.187 28.5518Z" stroke="#5A27E7" stroke-width="0.182605"></path><path d="M34.8218 28.917C43.0722 33.6804 50.8717 37.4166 56.8112 39.607C59.7817 40.7025 62.2828 41.4097 64.1407 41.6667C65.0701 41.7953 65.8329 41.8103 66.4108 41.708C66.9898 41.6055 67.3674 41.3884 67.5529 41.067C67.7385 40.7457 67.7377 40.3101 67.537 39.7575C67.3366 39.2058 66.9422 38.5527 66.3662 37.8121C65.2147 36.3316 63.3516 34.5192 60.9177 32.4944C56.051 28.4458 48.9156 23.5594 40.6652 18.796C32.4147 14.0327 24.6153 10.2964 18.6757 8.10603C15.7052 7.01058 13.2041 6.30334 11.3462 6.04634C10.4168 5.91778 9.65402 5.90273 9.07611 6.00507C8.49713 6.10759 8.11952 6.32471 7.93401 6.64603C7.74849 6.96735 7.74926 7.40293 7.94996 7.9556C8.1503 8.50725 8.54474 9.16035 9.12078 9.90095C10.2723 11.3814 12.1353 13.1938 14.5693 15.2186C19.436 19.2672 26.5714 24.1536 34.8218 28.917Z" stroke="#5A27E7" stroke-width="0.182605"></path><path d="M34.4566 29.2823C42.707 34.0456 50.5065 37.7819 56.446 39.9723C59.4165 41.0677 61.9176 41.775 63.7755 42.032C64.7049 42.1605 65.4677 42.1756 66.0456 42.0732C66.6246 41.9707 67.0022 41.7536 67.1877 41.4323C67.3732 41.1109 67.3724 40.6754 67.1718 40.1227C66.9714 39.571 66.577 38.918 66.0009 38.1774C64.8494 36.6969 62.9864 34.8845 60.5525 32.8597C55.6858 28.8111 48.5503 23.9247 40.2999 19.1613C32.0495 14.3979 24.25 10.6617 18.3105 8.47127C15.34 7.37581 12.8389 6.66858 10.981 6.41158C10.0516 6.28302 9.28878 6.26797 8.71087 6.3703C8.13189 6.47282 7.75429 6.68994 7.56877 7.01126C7.38326 7.33259 7.38403 7.76816 7.58473 8.32083C7.78506 8.87249 8.17951 9.52558 8.75554 10.2662C9.90706 11.7467 11.7701 13.5591 14.204 15.5839C19.0707 19.6325 26.2061 24.5189 34.4566 29.2823Z" stroke="#5A27E7" stroke-width="0.182605"></path><path d="M34.0913 29.6475C42.3418 34.4109 50.1412 38.1471 56.0808 40.3375C59.0512 41.4329 61.5524 42.1402 63.4102 42.3972C64.3396 42.5257 65.1025 42.5408 65.6804 42.4384C66.2593 42.3359 66.637 42.1188 66.8225 41.7975C67.008 41.4762 67.0072 41.0406 66.8065 40.4879C66.6062 39.9363 66.2117 39.2832 65.6357 38.5426C64.4842 37.0621 62.6211 35.2497 60.1872 33.2249C55.3205 29.1763 48.1851 24.2899 39.9347 19.5265C31.6843 14.7631 23.8848 11.0269 17.9452 8.83647C14.9748 7.74102 12.4737 7.03378 10.6158 6.77678C9.68637 6.64822 8.92355 6.63317 8.34564 6.7355C7.76666 6.83803 7.38906 7.05514 7.20354 7.37647C7.01802 7.69779 7.01879 8.13337 7.2195 8.68604C7.41983 9.23769 7.81428 9.89079 8.39031 10.6314C9.54182 12.1119 11.4049 13.9243 13.8388 15.9491C18.7055 19.9977 25.8409 24.8841 34.0913 29.6475Z" stroke="#5A27E7" stroke-width="0.182605"></path><path d="M33.7261 30.0127C41.9765 34.7761 49.776 38.5123 55.7155 40.7027C58.686 41.7982 61.1871 42.5054 63.045 42.7624C63.9744 42.891 64.7372 42.906 65.3151 42.8037C65.8941 42.7012 66.2717 42.484 66.4572 42.1627C66.6428 41.8414 66.642 41.4058 66.4413 40.8531C66.2409 40.3015 65.8465 39.6484 65.2705 38.9078C64.119 37.4273 62.2559 35.6149 59.822 33.5901C54.9553 29.5415 47.8199 24.6551 39.5694 19.8917C31.319 15.1283 23.5196 11.3921 17.58 9.20171C14.6095 8.10625 12.1084 7.39901 10.2505 7.14202C9.32114 7.01346 8.55832 6.9984 7.9804 7.10074C7.40143 7.20326 7.02382 7.42038 6.8383 7.7417C6.65279 8.06303 6.65356 8.4986 6.85426 9.05127C7.05459 9.60293 7.44904 10.256 8.02507 10.9966C9.17659 12.4771 11.0396 14.2895 13.4736 16.3143C18.3403 20.3629 25.4757 25.2493 33.7261 30.0127Z" stroke="#5A27E7" stroke-width="0.182605"></path><path d="M33.3609 30.3779C41.6113 35.1413 49.4108 38.8775 55.3503 41.0679C58.3208 42.1633 60.8219 42.8706 62.6798 43.1276C63.6092 43.2561 64.372 43.2712 64.9499 43.1688C65.5289 43.0663 65.9065 42.8492 66.092 42.5279C66.2775 42.2066 66.2767 41.771 66.076 41.2183C65.8757 40.6667 65.4813 40.0136 64.9052 39.273C63.7537 37.7925 61.8907 35.9801 59.4568 33.9553C54.59 29.9067 47.4546 25.0203 39.2042 20.2569C30.9538 15.4935 23.1543 11.7573 17.2148 9.56688C14.2443 8.47143 11.7432 7.76419 9.8853 7.50719C8.9559 7.37863 8.19308 7.36358 7.61517 7.46591C7.03619 7.56843 6.65859 7.78555 6.47307 8.10688C6.28755 8.4282 6.28833 8.86378 6.48903 9.41644C6.68936 9.9681 7.08381 10.6212 7.65984 11.3618C8.81135 12.8423 10.6744 14.6547 13.1083 16.6795C17.975 20.7281 25.1104 25.6145 33.3609 30.3779Z" stroke="#5A27E7" stroke-width="0.182605"></path><path d="M32.9976 30.7431C41.248 35.5065 49.0475 39.2427 54.987 41.4331C57.9575 42.5285 60.4586 43.2358 62.3165 43.4928C63.2459 43.6213 64.0087 43.6364 64.5866 43.5341C65.1656 43.4315 65.5432 43.2144 65.7287 42.8931C65.9142 42.5718 65.9135 42.1362 65.7128 41.5835C65.5124 41.0319 65.118 40.3788 64.542 39.6382C63.3904 38.1577 61.5274 36.3453 59.0935 34.3205C54.2268 30.2719 47.0914 25.3855 38.8409 20.6221C30.5905 15.8587 22.791 12.1225 16.8515 9.93208C13.881 8.83663 11.3799 8.12939 9.52202 7.87239C8.59262 7.74383 7.8298 7.72878 7.25189 7.83111C6.67291 7.93364 6.29531 8.15076 6.10979 8.47208C5.92427 8.7934 5.92504 9.22898 6.12575 9.78165C6.32608 10.3333 6.72053 10.9864 7.29656 11.727C8.44807 13.2075 10.3111 15.0199 12.745 17.0447C17.6117 21.0933 24.7472 25.9797 32.9976 30.7431Z" stroke="#5A27E7" stroke-width="0.182605"></path><path d="M32.6323 31.1083C40.8828 35.8717 48.6822 39.6079 54.6218 41.7983C57.5923 42.8938 60.0934 43.601 61.9513 43.858C62.8807 43.9866 63.6435 44.0016 64.2214 43.8993C64.8004 43.7968 65.178 43.5796 65.3635 43.2583C65.549 42.937 65.5482 42.5014 65.3475 41.9488C65.1472 41.3971 64.7528 40.744 64.1767 40.0034C63.0252 38.5229 61.1622 36.7105 58.7282 34.6857C53.8615 30.6371 46.7261 25.7507 38.4757 20.9873C30.2253 16.2239 22.4258 12.4877 16.4863 10.2973C13.5158 9.20186 11.0147 8.49463 9.15678 8.23763C8.22739 8.10907 7.46457 8.09402 6.88665 8.19635C6.30768 8.29887 5.93007 8.51599 5.74455 8.83731C5.55904 9.15864 5.55981 9.59421 5.76051 10.1469C5.96084 10.6985 6.35529 11.3516 6.93132 12.0922C8.08284 13.5727 9.94588 15.3851 12.3798 17.4099C17.2465 21.4585 24.3819 26.3449 32.6323 31.1083Z" stroke="#5A27E7" stroke-width="0.182605"></path><path d="M32.2671 31.4735C40.5175 36.2369 48.317 39.9731 54.2565 42.1635C57.227 43.259 59.7281 43.9662 61.586 44.2232C62.5154 44.3518 63.2782 44.3668 63.8562 44.2645C64.4351 44.162 64.8127 43.9449 64.9983 43.6235C65.1838 43.3022 65.183 42.8666 64.9823 42.314C64.782 41.7623 64.3875 41.1092 63.8115 40.3686C62.66 38.8881 60.7969 37.0757 58.363 35.0509C53.4963 31.0023 46.3609 26.1159 38.1105 21.3525C29.86 16.5891 22.0606 12.8529 16.121 10.6625C13.1506 9.56707 10.6494 8.85983 8.79155 8.60283C7.86215 8.47427 7.09933 8.45922 6.52142 8.56155C5.94244 8.66408 5.56484 8.88119 5.37932 9.20252C5.1938 9.52384 5.19458 9.95942 5.39528 10.5121C5.59561 11.0637 5.99006 11.7168 6.56609 12.4574C7.7176 13.9379 9.58065 15.7503 12.0146 17.7751C16.8813 21.8237 24.0167 26.7101 32.2671 31.4735Z" stroke="#5A27E7" stroke-width="0.182605"></path><path d="M31.9019 31.8387C40.1523 36.6021 47.9518 40.3384 53.8913 42.5288C56.8618 43.6242 59.3629 44.3314 61.2208 44.5884C62.1502 44.717 62.913 44.7321 63.4909 44.6297C64.0699 44.5272 64.4475 44.3101 64.633 43.9888C64.8185 43.6674 64.8178 43.2319 64.6171 42.6792C64.4167 42.1275 64.0223 41.4744 63.4462 40.7338C62.2947 39.2534 60.4317 37.441 57.9978 35.4162C53.1311 31.3676 45.9957 26.4811 37.7452 21.7178C29.4948 16.9544 21.6953 13.2181 15.7558 11.0278C12.7853 9.9323 10.2842 9.22506 8.42631 8.96807C7.49692 8.83951 6.7341 8.82445 6.15618 8.92679C5.57721 9.02931 5.1996 9.24643 5.01409 9.56775C4.82857 9.88908 4.82934 10.3247 5.03004 10.8773C5.23038 11.429 5.62482 12.0821 6.20086 12.8227C7.35237 14.3032 9.21541 16.1156 11.6493 18.1403C16.516 22.1889 23.6515 27.0754 31.9019 31.8387Z" stroke="#5A27E7" stroke-width="0.182605"></path><path d="M31.5366 32.2039C39.7871 36.9673 47.5865 40.7035 53.5261 42.8939C56.4966 43.9894 58.9977 44.6966 60.8556 44.9536C61.785 45.0822 62.5478 45.0972 63.1257 44.9949C63.7047 44.8924 64.0823 44.6753 64.2678 44.3539C64.4533 44.0326 64.4525 43.597 64.2518 43.0444C64.0515 42.4927 63.6571 41.8396 63.081 41.099C61.9295 39.6185 60.0665 37.8061 57.6325 35.7813C52.7658 31.7327 45.6304 26.8463 37.38 22.0829C29.1296 17.3196 21.3301 13.5833 15.3906 11.3929C12.4201 10.2975 9.91897 9.59024 8.06108 9.33324C7.13168 9.20468 6.36886 9.18963 5.79095 9.29196C5.21197 9.39448 4.83437 9.6116 4.64885 9.93293C4.46333 10.2542 4.46411 10.6898 4.66481 11.2425C4.86514 11.7941 5.25959 12.4472 5.83562 13.1878C6.98713 14.6683 8.85018 16.4807 11.2841 18.5055C16.1508 22.5541 23.2862 27.4405 31.5366 32.2039Z" stroke="#5A27E7" stroke-width="0.182605"></path><path d="M31.1714 32.5691C39.4218 37.3325 47.2213 41.0687 53.1608 43.2591C56.1313 44.3546 58.6324 45.0618 60.4903 45.3188C61.4197 45.4474 62.1825 45.4624 62.7605 45.3601C63.3394 45.2576 63.717 45.0405 63.9026 44.7191C64.0881 44.3978 64.0873 43.9622 63.8866 43.4096C63.6863 42.8579 63.2918 42.2048 62.7158 41.4642C61.5643 39.9837 59.7012 38.1713 57.2673 36.1465C52.4006 32.0979 45.2652 27.2115 37.0148 22.4481C28.7643 17.6848 20.9649 13.9485 15.0253 11.7581C12.0548 10.6627 9.55373 9.95544 7.69584 9.69844C6.76645 9.56988 6.00363 9.55483 5.42572 9.65716C4.84674 9.75969 4.46913 9.97681 4.28362 10.2981C4.0981 10.6195 4.09887 11.055 4.29957 11.6077C4.49991 12.1594 4.89435 12.8124 5.47039 13.553C6.6219 15.0335 8.48494 16.8459 10.9189 18.8707C15.7856 22.9193 22.921 27.8057 31.1714 32.5691Z" stroke="#5A27E7" stroke-width="0.182605"></path><path d="M30.8062 32.9344C39.0566 37.6977 46.8561 41.434 52.7956 43.6244C55.7661 44.7198 58.2672 45.4271 60.1251 45.6841C61.0545 45.8126 61.8173 45.8277 62.3952 45.7253C62.9742 45.6228 63.3518 45.4057 63.5373 45.0844C63.7228 44.763 63.7221 44.3275 63.5214 43.7748C63.321 43.2231 62.9266 42.5701 62.3505 41.8295C61.199 40.349 59.336 38.5366 56.9021 36.5118C52.0354 32.4632 44.9 27.5768 36.6495 22.8134C28.3991 18.05 20.5996 14.3138 14.6601 12.1234C11.6896 11.0279 9.1885 10.3207 7.33061 10.0637C6.40122 9.93512 5.63839 9.92007 5.06048 10.0224C4.4815 10.1249 4.1039 10.342 3.91838 10.6634C3.73287 10.9847 3.73364 11.4203 3.93434 11.9729C4.13467 12.5246 4.52912 13.1777 5.10515 13.9183C6.25666 15.3988 8.11971 17.2112 10.5536 19.236C15.4203 23.2846 22.5557 28.171 30.8062 32.9344Z" stroke="#5A27E7" stroke-width="0.182605"></path><path d="M30.4409 33.2996C38.6914 38.063 46.4908 41.7992 52.4304 43.9896C55.4008 45.085 57.902 45.7923 59.7599 46.0493C60.6893 46.1778 61.4521 46.1929 62.03 46.0905C62.609 45.988 62.9866 45.7709 63.1721 45.4496C63.3576 45.1283 63.3568 44.6927 63.1561 44.14C62.9558 43.5884 62.5613 42.9353 61.9853 42.1947C60.8338 40.7142 58.9708 38.9018 56.5368 36.877C51.6701 32.8284 44.5347 27.942 36.2843 23.1786C28.0339 18.4152 20.2344 14.679 14.2949 12.4886C11.3244 11.3931 8.82327 10.6859 6.96537 10.4289C6.03598 10.3003 5.27316 10.2853 4.69525 10.3876C4.11627 10.4901 3.73866 10.7072 3.55315 11.0286C3.36763 11.3499 3.3684 11.7855 3.56911 12.3381C3.76944 12.8898 4.16388 13.5429 4.73992 14.2835C5.89143 15.764 7.75447 17.5764 10.1884 19.6012C15.0551 23.6498 22.1905 28.5362 30.4409 33.2996Z" stroke="#5A27E7" stroke-width="0.182605"></path><path d="M30.0757 33.6648C38.3261 38.4282 46.1256 42.1644 52.0651 44.3548C55.0356 45.4503 57.5367 46.1575 59.3946 46.4145C60.324 46.5431 61.0868 46.5581 61.6648 46.4558C62.2437 46.3533 62.6213 46.1361 62.8068 45.8148C62.9924 45.4935 62.9916 45.0579 62.7909 44.5052C62.5906 43.9536 62.1961 43.3005 61.6201 42.5599C60.4686 41.0794 58.6055 39.267 56.1716 37.2422C51.3049 33.1936 44.1695 28.3072 35.9191 23.5438C27.6686 18.7804 19.8692 15.0442 13.9296 12.8538C10.9591 11.7584 8.45803 11.0511 6.60014 10.7941C5.67075 10.6656 4.90792 10.6505 4.33001 10.7528C3.75104 10.8554 3.37343 11.0725 3.18791 11.3938C3.0024 11.7151 3.00317 12.1507 3.20387 12.7034C3.4042 13.255 3.79865 13.9081 4.37468 14.6487C5.5262 16.1292 7.38924 17.9416 9.82317 19.9664C14.6899 24.015 21.8253 28.9014 30.0757 33.6648Z" stroke="#5A27E7" stroke-width="0.182605"></path><path d="M35.9184 27.4562C27.668 32.2196 19.8685 35.9558 13.929 38.1462C10.9585 39.2417 8.45741 39.9489 6.59952 40.2059C5.67012 40.3345 4.90731 40.3495 4.32939 40.2472C3.75042 40.1447 3.37281 39.9275 3.18729 39.6062C3.00178 39.2849 3.00255 38.8493 3.20325 38.2967C3.40359 37.745 3.79803 37.0919 4.37407 36.3513C5.52558 34.8708 7.38862 33.0584 9.82255 31.0336C14.6892 26.985 21.8247 22.0986 30.0751 17.3352C38.3255 12.5718 46.125 8.8356 52.0645 6.64522C55.035 5.54976 57.5361 4.84253 59.394 4.58553C60.3234 4.45697 61.0862 4.44192 61.6641 4.54425C62.2431 4.64677 62.6207 4.86389 62.8062 5.18521C62.9917 5.50654 62.991 5.94211 62.7903 6.49478C62.5899 7.04644 62.1955 7.69953 61.6195 8.44013C60.4679 9.92061 58.6049 11.733 56.171 13.7578C51.3043 17.8064 44.1689 22.6928 35.9184 27.4562Z" stroke="#5A27E7" stroke-width="0.182605"></path><path d="M36.2837 27.8214C28.0332 32.5848 20.2338 36.3211 14.2942 38.5115C11.3238 39.6069 8.82265 40.3141 6.96476 40.5711C6.03536 40.6997 5.27254 40.7148 4.69462 40.6124C4.11565 40.5099 3.73804 40.2928 3.55253 39.9715C3.36701 39.6501 3.36779 39.2146 3.56848 38.6619C3.76882 38.1102 4.16326 37.4571 4.7393 36.7165C5.89081 35.2361 7.75385 33.4236 10.1878 31.3989C15.0545 27.3503 22.1899 22.4638 30.4403 17.7005C38.6907 12.9371 46.4902 9.20084 52.4298 7.01045C55.4002 5.915 57.9013 5.20776 59.7592 4.95076C60.6886 4.8222 61.4515 4.80715 62.0294 4.90948C62.6083 5.01201 62.9859 5.22912 63.1715 5.55045C63.357 5.87177 63.3562 6.30735 63.1555 6.86002C62.9552 7.41167 62.5607 8.06477 61.9847 8.80537C60.8332 10.2858 58.9701 12.0983 56.5362 14.123C51.6695 18.1716 44.5341 23.0581 36.2837 27.8214Z" stroke="#5A27E7" stroke-width="0.182605"></path><path d="M36.6489 28.1867C28.3985 32.95 20.599 36.6863 14.6595 38.8767C11.689 39.9721 9.18788 40.6793 7.32999 40.9363C6.40059 41.0649 5.63778 41.08 5.05986 40.9776C4.48089 40.8751 4.10328 40.658 3.91776 40.3367C3.73224 40.0153 3.73302 39.5798 3.93372 39.0271C4.13405 38.4754 4.5285 37.8223 5.10453 37.0817C6.25605 35.6013 8.11909 33.7889 10.553 31.7641C15.4197 27.7155 22.5551 22.829 30.8056 18.0657C39.056 13.3023 46.8554 9.56604 52.795 7.37566C55.7655 6.2802 58.2666 5.57297 60.1245 5.31597C61.0539 5.18741 61.8167 5.17235 62.3946 5.27469C62.9736 5.37721 63.3512 5.59433 63.5367 5.91565C63.7222 6.23698 63.7214 6.67255 63.5207 7.22522C63.3204 7.77688 62.926 8.42997 62.3499 9.17057C61.1984 10.6511 59.3354 12.4635 56.9014 14.4882C52.0347 18.5368 44.8993 23.4233 36.6489 28.1867Z" stroke="#5A27E7" stroke-width="0.182605"></path><path d="M37.0141 28.5518C28.7637 33.3152 20.9642 37.0514 15.0247 39.2418C12.0542 40.3373 9.55312 41.0445 7.69523 41.3015C6.76583 41.4301 6.00301 41.4451 5.42509 41.3428C4.84612 41.2403 4.46851 41.0232 4.283 40.7018C4.09748 40.3805 4.09825 39.9449 4.29895 39.3923C4.49929 38.8406 4.89373 38.1875 5.46977 37.4469C6.62128 35.9664 8.48432 34.154 10.9182 32.1292C15.785 28.0806 22.9204 23.1942 31.1708 18.4308C39.4212 13.6675 47.2207 9.93121 53.1602 7.74083C56.1307 6.64538 58.6318 5.93814 60.4897 5.68114C61.4191 5.55258 62.1819 5.53753 62.7598 5.63986C63.3388 5.74238 63.7164 5.9595 63.9019 6.28083C64.0874 6.60215 64.0867 7.03773 63.886 7.59039C63.6856 8.14205 63.2912 8.79515 62.7152 9.53574C61.5636 11.0162 59.7006 12.8286 57.2667 14.8534C52.4 18.902 45.2646 23.7884 37.0141 28.5518Z" stroke="#5A27E7" stroke-width="0.182605"></path><path d="M37.3794 28.917C29.1289 33.6804 21.3295 37.4166 15.3899 39.607C12.4195 40.7025 9.91835 41.4097 8.06046 41.6667C7.13106 41.7953 6.36824 41.8103 5.79033 41.708C5.21136 41.6055 4.83375 41.3884 4.64823 41.067C4.46271 40.7457 4.46349 40.3101 4.66419 39.7575C4.86452 39.2058 5.25897 38.5527 5.835 37.8121C6.98652 36.3316 8.84956 34.5192 11.2835 32.4944C16.1502 28.4458 23.2856 23.5594 31.536 18.796C39.7864 14.0327 47.5859 10.2964 53.5255 8.10603C56.4959 7.01058 58.997 6.30334 60.8549 6.04634C61.7843 5.91778 62.5472 5.90273 63.1251 6.00507C63.704 6.10759 64.0816 6.32471 64.2672 6.64603C64.4527 6.96735 64.4519 7.40293 64.2512 7.9556C64.0509 8.50725 63.6564 9.16035 63.0804 9.90095C61.9289 11.3814 60.0658 13.1938 57.6319 15.2186C52.7652 19.2672 45.6298 24.1536 37.3794 28.917Z" stroke="#5A27E7" stroke-width="0.182605"></path><path d="M37.7446 29.2823C29.4942 34.0456 21.6947 37.7819 15.7552 39.9723C12.7847 41.0677 10.2836 41.775 8.42569 42.032C7.4963 42.1605 6.73348 42.1756 6.15556 42.0732C5.57659 41.9707 5.19898 41.7536 5.01346 41.4323C4.82795 41.1109 4.82872 40.6754 5.02942 40.1227C5.22976 39.571 5.6242 38.918 6.20024 38.1774C7.35175 36.6969 9.21479 34.8845 11.6487 32.8597C16.5154 28.8111 23.6508 23.9247 31.9013 19.1613C40.1517 14.3979 47.9511 10.6617 53.8907 8.47127C56.8612 7.37581 59.3623 6.66858 61.2202 6.41158C62.1496 6.28302 62.9124 6.26797 63.4903 6.3703C64.0693 6.47282 64.4469 6.68994 64.6324 7.01126C64.8179 7.33259 64.8171 7.76816 64.6164 8.32083C64.4161 8.87249 64.0217 9.52558 63.4456 10.2662C62.2941 11.7467 60.4311 13.5591 57.9971 15.5839C53.1304 19.6325 45.995 24.5189 37.7446 29.2823Z" stroke="#5A27E7" stroke-width="0.182605"></path><path d="M38.1098 29.6475C29.8594 34.4109 22.06 38.1471 16.1204 40.3375C13.1499 41.4329 10.6488 42.1402 8.79093 42.3972C7.86153 42.5257 7.09871 42.5408 6.5208 42.4384C5.94182 42.3359 5.56422 42.1188 5.3787 41.7975C5.19318 41.4762 5.19396 41.0406 5.39465 40.4879C5.59499 39.9363 5.98943 39.2832 6.56547 38.5426C7.71698 37.0621 9.58003 35.2497 12.014 33.2249C16.8807 29.1763 24.0161 24.2899 32.2665 19.5265C40.5169 14.7631 48.3164 11.0269 54.2559 8.83647C57.2264 7.74102 59.7275 7.03378 61.5854 6.77678C62.5148 6.64822 63.2776 6.63317 63.8555 6.7355C64.4345 6.83803 64.8121 7.05514 64.9976 7.37647C65.1831 7.69779 65.1824 8.13337 64.9817 8.68604C64.7813 9.23769 64.3869 9.89079 63.8109 10.6314C62.6594 12.1119 60.7963 13.9243 58.3624 15.9491C53.4957 19.9977 46.3603 24.8841 38.1098 29.6475Z" stroke="#5A27E7" stroke-width="0.182605"></path><path d="M38.4751 30.0127C30.2247 34.7761 22.4252 38.5123 16.4856 40.7027C13.5152 41.7982 11.0141 42.5054 9.15616 42.7624C8.22677 42.891 7.46395 42.906 6.88603 42.8037C6.30706 42.7012 5.92945 42.484 5.74393 42.1627C5.55842 41.8414 5.55919 41.4058 5.75989 40.8531C5.96023 40.3015 6.35467 39.6484 6.93071 38.9078C8.08222 37.4273 9.94526 35.6149 12.3792 33.5901C17.2459 29.5415 24.3813 24.6551 32.6317 19.8917C40.8821 15.1283 48.6816 11.3921 54.6212 9.20171C57.5916 8.10625 60.0928 7.39901 61.9506 7.14202C62.88 7.01346 63.6429 6.9984 64.2208 7.10074C64.7997 7.20326 65.1774 7.42038 65.3629 7.7417C65.5484 8.06303 65.5476 8.4986 65.3469 9.05127C65.1466 9.60293 64.7521 10.256 64.1761 10.9966C63.0246 12.4771 61.1615 14.2895 58.7276 16.3143C53.8609 20.3629 46.7255 25.2493 38.4751 30.0127Z" stroke="#5A27E7" stroke-width="0.182605"></path><path d="M38.8403 30.3779C30.5899 35.1413 22.7904 38.8775 16.8509 41.0679C13.8804 42.1633 11.3793 42.8706 9.5214 43.1276C8.592 43.2561 7.82918 43.2712 7.25126 43.1688C6.67229 43.0663 6.29468 42.8492 6.10917 42.5279C5.92365 42.2066 5.92443 41.771 6.12512 41.2183C6.32546 40.6667 6.7199 40.0136 7.29594 39.273C8.44745 37.7925 10.3105 35.9801 12.7444 33.9553C17.6111 29.9067 24.7465 25.0203 32.997 20.2569C41.2474 15.4935 49.0469 11.7573 54.9864 9.56688C57.9569 8.47143 60.458 7.76419 62.3159 7.50719C63.2453 7.37863 64.0081 7.36358 64.586 7.46591C65.165 7.56843 65.5426 7.78555 65.7281 8.10688C65.9136 8.4282 65.9128 8.86378 65.7121 9.41644C65.5118 9.9681 65.1174 10.6212 64.5413 11.3618C63.3898 12.8423 61.5268 14.6547 59.0928 16.6795C54.2261 20.7281 47.0907 25.6145 38.8403 30.3779Z" stroke="#5A27E7" stroke-width="0.182605"></path><path d="M39.2036 30.7431C30.9532 35.5065 23.1537 39.2427 17.2142 41.4331C14.2437 42.5285 11.7426 43.2358 9.88468 43.4928C8.95528 43.6213 8.19246 43.6364 7.61455 43.5341C7.03557 43.4315 6.65797 43.2144 6.47245 42.8931C6.28693 42.5718 6.28771 42.1362 6.4884 41.5835C6.68874 41.0319 7.08318 40.3788 7.65922 39.6382C8.81073 38.1577 10.6738 36.3453 13.1077 34.3205C17.9744 30.2719 25.1098 25.3855 33.3602 20.6221C41.6107 15.8587 49.4101 12.1225 55.3497 9.93208C58.3202 8.83663 60.8213 8.12939 62.6792 7.87239C63.6085 7.74383 64.3714 7.72878 64.9493 7.83111C65.5283 7.93364 65.9059 8.15076 66.0914 8.47208C66.2769 8.7934 66.2761 9.22898 66.0754 9.78165C65.8751 10.3333 65.4806 10.9864 64.9046 11.727C63.7531 13.2075 61.8901 15.0199 59.4561 17.0447C54.5894 21.0933 47.454 25.9797 39.2036 30.7431Z" stroke="#5A27E7" stroke-width="0.182605"></path><path d="M39.5688 31.1083C31.3184 35.8717 23.5189 39.6079 17.5794 41.7983C14.6089 42.8938 12.1078 43.601 10.2499 43.858C9.32052 43.9866 8.5577 44.0016 7.97978 43.8993C7.40081 43.7968 7.0232 43.5796 6.83768 43.2583C6.65217 42.937 6.65294 42.5014 6.85364 41.9488C7.05398 41.3971 7.44842 40.744 8.02446 40.0034C9.17597 38.5229 11.039 36.7105 13.4729 34.6857C18.3396 30.6371 25.475 25.7507 33.7255 20.9873C41.9759 16.2239 49.7754 12.4877 55.7149 10.2973C58.6854 9.20186 61.1865 8.49463 63.0444 8.23763C63.9738 8.10907 64.7366 8.09402 65.3145 8.19635C65.8935 8.29887 66.2711 8.51599 66.4566 8.83731C66.6421 9.15864 66.6414 9.59421 66.4407 10.1469C66.2403 10.6985 65.8459 11.3516 65.2698 12.0922C64.1183 13.5727 62.2553 15.3851 59.8214 17.4099C54.9547 21.4585 47.8193 26.3449 39.5688 31.1083Z" stroke="#5A27E7" stroke-width="0.182605"></path><path d="M39.9341 31.4735C31.6836 36.2369 23.8842 39.9731 17.9446 42.1635C14.9742 43.259 12.473 43.9662 10.6151 44.2232C9.68575 44.3518 8.92293 44.3668 8.34501 44.2645C7.76604 44.162 7.38843 43.9449 7.20292 43.6235C7.0174 43.3022 7.01818 42.8666 7.21887 42.314C7.41921 41.7623 7.81365 41.1092 8.38969 40.3686C9.5412 38.8881 11.4042 37.0757 13.8382 35.0509C18.7049 31.0023 25.8403 26.1159 34.0907 21.3525C42.3411 16.5891 50.1406 12.8529 56.0801 10.6625C59.0506 9.56707 61.5517 8.85983 63.4096 8.60283C64.339 8.47427 65.1018 8.45922 65.6798 8.56155C66.2587 8.66408 66.6363 8.88119 66.8219 9.20252C67.0074 9.52384 67.0066 9.95942 66.8059 10.5121C66.6056 11.0637 66.2111 11.7168 65.6351 12.4574C64.4836 13.9379 62.6205 15.7503 60.1866 17.7751C55.3199 21.8237 48.1845 26.7101 39.9341 31.4735Z" stroke="#5A27E7" stroke-width="0.182605"></path><path d="M40.2993 31.8387C32.0489 36.6021 24.2494 40.3384 18.3099 42.5288C15.3394 43.6242 12.8383 44.3314 10.9804 44.5884C10.051 44.717 9.28817 44.7321 8.71025 44.6297C8.13128 44.5272 7.75367 44.3101 7.56815 43.9888C7.38264 43.6674 7.38341 43.2319 7.58411 42.6792C7.78445 42.1275 8.17889 41.4744 8.75492 40.7338C9.90644 39.2534 11.7695 37.441 14.2034 35.4162C19.0701 31.3676 26.2055 26.4811 34.4559 21.7178C42.7064 16.9544 50.5058 13.2181 56.4454 11.0278C59.4159 9.9323 61.917 9.22506 63.7749 8.96807C64.7043 8.83951 65.4671 8.82445 66.045 8.92679C66.624 9.02931 67.0016 9.24643 67.1871 9.56775C67.3726 9.88908 67.3718 10.3247 67.1711 10.8773C66.9708 11.429 66.5763 12.0821 66.0003 12.8227C64.8488 14.3032 62.9858 16.1156 60.5518 18.1403C55.6851 22.1889 48.5497 27.0754 40.2993 31.8387Z" stroke="#5A27E7" stroke-width="0.182605"></path><path d="M40.6645 32.2039C32.4141 36.9673 24.6146 40.7035 18.6751 42.8939C15.7046 43.9894 13.2035 44.6966 11.3456 44.9536C10.4162 45.0822 9.6534 45.0972 9.07548 44.9949C8.49651 44.8924 8.1189 44.6753 7.93339 44.3539C7.74787 44.0326 7.74865 43.597 7.94934 43.0444C8.14968 42.4927 8.54412 41.8396 9.12016 41.099C10.2717 39.6185 12.1347 37.8061 14.5686 35.7813C19.4353 31.7327 26.5708 26.8463 34.8212 22.0829C43.0716 17.3196 50.8711 13.5833 56.8106 11.3929C59.7811 10.2975 62.2822 9.59024 64.1401 9.33324C65.0695 9.20468 65.8323 9.18963 66.4102 9.29196C66.9892 9.39448 67.3668 9.6116 67.5523 9.93293C67.7378 10.2542 67.7371 10.6898 67.5364 11.2425C67.336 11.7941 66.9416 12.4472 66.3656 13.1878C65.214 14.6683 63.351 16.4807 60.9171 18.5055C56.0504 22.5541 48.915 27.4405 40.6645 32.2039Z" stroke="#5A27E7" stroke-width="0.182605"></path><path d="M41.0298 32.5691C32.7793 37.3325 24.9799 41.0687 19.0403 43.2591C16.0699 44.3546 13.5687 45.0618 11.7109 45.3188C10.7815 45.4474 10.0186 45.4624 9.44072 45.3601C8.86175 45.2576 8.48414 45.0405 8.29862 44.7191C8.1131 44.3978 8.11388 43.9622 8.31458 43.4096C8.51491 42.8579 8.90936 42.2048 9.48539 41.4642C10.6369 39.9837 12.4999 38.1713 14.9339 36.1465C19.8006 32.0979 26.936 27.2115 35.1864 22.4481C43.4368 17.6848 51.2363 13.9485 57.1758 11.7581C60.1463 10.6627 62.6474 9.95544 64.5053 9.69844C65.4347 9.56988 66.1975 9.55483 66.7755 9.65716C67.3544 9.75969 67.732 9.97681 67.9176 10.2981C68.1031 10.6195 68.1023 11.055 67.9016 11.6077C67.7013 12.1594 67.3068 12.8124 66.7308 13.553C65.5793 15.0335 63.7162 16.8459 61.2823 18.8707C56.4156 22.9193 49.2802 27.8057 41.0298 32.5691Z" stroke="#5A27E7" stroke-width="0.182605"></path><path d="M41.395 32.9344C33.1446 37.6977 25.3451 41.434 19.4056 43.6244C16.4351 44.7198 13.934 45.4271 12.0761 45.6841C11.1467 45.8126 10.3839 45.8277 9.80595 45.7253C9.22698 45.6228 8.84937 45.4057 8.66386 45.0844C8.47834 44.763 8.47911 44.3275 8.67981 43.7748C8.88015 43.2231 9.27459 42.5701 9.85063 41.8295C11.0021 40.349 12.8652 38.5366 15.2991 36.5118C20.1658 32.4632 27.3012 27.5768 35.5516 22.8134C43.8021 18.05 51.6015 14.3138 57.5411 12.1234C60.5116 11.0279 63.0127 10.3207 64.8706 10.0637C65.8 9.93512 66.5628 9.92007 67.1407 10.0224C67.7197 10.1249 68.0973 10.342 68.2828 10.6634C68.4683 10.9847 68.4675 11.4203 68.2668 11.9729C68.0665 12.5246 67.6721 13.1777 67.096 13.9183C65.9445 15.3988 64.0815 17.2112 61.6475 19.236C56.7808 23.2846 49.6454 28.171 41.395 32.9344Z" stroke="#5A27E7" stroke-width="0.182605"></path><path d="M41.7602 33.2996C33.5098 38.063 25.7103 41.7992 19.7708 43.9896C16.8003 45.085 14.2992 45.7923 12.4413 46.0493C11.5119 46.1778 10.7491 46.1929 10.1712 46.0905C9.59221 45.988 9.21461 45.7709 9.02909 45.4496C8.84357 45.1283 8.84435 44.6927 9.04505 44.14C9.24538 43.5884 9.63982 42.9353 10.2159 42.1947C11.3674 40.7142 13.2304 38.9018 15.6643 36.877C20.531 32.8284 27.6665 27.942 35.9169 23.1786C44.1673 18.4152 51.9668 14.679 57.9063 12.4886C60.8768 11.3931 63.3779 10.6859 65.2358 10.4289C66.1652 10.3003 66.928 10.2853 67.5059 10.3876C68.0849 10.4901 68.4625 10.7072 68.648 11.0286C68.8335 11.3499 68.8328 11.7855 68.6321 12.3381C68.4317 12.8898 68.0373 13.5429 67.4613 14.2835C66.3097 15.764 64.4467 17.5764 62.0128 19.6012C57.1461 23.6498 50.0107 28.5362 41.7602 33.2996Z" stroke="#5A27E7" stroke-width="0.182605"></path><path d="M42.1255 33.6648C33.875 38.4282 26.0756 42.1644 20.136 44.3548C17.1656 45.4503 14.6644 46.1575 12.8066 46.4145C11.8772 46.5431 11.1143 46.5581 10.5364 46.4558C9.95745 46.3533 9.57984 46.1361 9.39432 45.8148C9.20881 45.4935 9.20958 45.0579 9.41028 44.5052C9.61062 43.9536 10.0051 43.3005 10.5811 42.5599C11.7326 41.0794 13.5957 39.267 16.0296 37.2422C20.8963 33.1936 28.0317 28.3072 36.2821 23.5438C44.5325 18.7804 52.332 15.0442 58.2716 12.8538C61.242 11.7584 63.7431 11.0511 65.601 10.7941C66.5304 10.6656 67.2932 10.6505 67.8712 10.7528C68.4501 10.8554 68.8277 11.0725 69.0133 11.3938C69.1988 11.7151 69.198 12.1507 68.9973 12.7034C68.797 13.255 68.4025 13.9081 67.8265 14.6487C66.675 16.1292 64.8119 17.9416 62.378 19.9664C57.5113 24.015 50.3759 28.9014 42.1255 33.6648Z" stroke="#5A27E7" stroke-width="0.182605"></path></svg> 