<?xml version="1.0" encoding="UTF-8"?> <svg xmlns="http://www.w3.org/2000/svg" width="57" height="58" viewBox="0 0 57 58" fill="none"><path d="M39.709 20.8163C48.7208 20.8163 56.0508 29.0335 56.0508 39.1325C56.0508 49.2315 48.7194 57.4487 39.709 57.4487C37.5577 57.4487 36.2894 57.0201 35.7171 56.1013C34.8917 54.7743 35.6229 52.5537 36.5481 49.7453C37.4677 46.9558 38.6109 43.4838 38.6109 39.6936C38.6109 35.9033 37.545 32.5228 36.6058 29.4717C35.6159 26.2566 34.8341 23.7161 35.786 22.2189C36.3948 21.2623 37.6407 20.8163 39.709 20.8163ZM39.709 57.277C48.635 57.277 55.8961 49.1385 55.8961 39.1341C55.8961 29.1297 48.635 20.9912 39.709 20.9912C37.7236 20.9912 36.482 21.4262 35.9126 22.3198C35.007 23.7445 35.7776 26.2472 36.7534 29.4149C37.6505 32.3274 38.767 35.9537 38.767 39.6936C38.767 43.4334 37.6181 47.003 36.6943 49.8052C35.7846 52.5679 35.0661 54.7491 35.8451 56.002C36.385 56.8703 37.614 57.2754 39.7105 57.2754L39.709 57.277Z" fill="#5993C9"></path><path d="M38.9324 21.2183C47.6953 21.2183 54.8242 29.2085 54.8242 39.0301C54.8242 48.8517 47.6953 56.842 38.9324 56.842C36.8402 56.842 35.6056 56.4244 35.0488 55.5308C34.2459 54.2385 34.9574 52.081 35.8573 49.3482C36.7515 46.6359 37.8624 43.2601 37.8624 39.5754C37.8624 35.8908 36.8275 32.6032 35.9135 29.6372C34.9504 26.5104 34.1896 24.0393 35.1162 22.5831C35.7082 21.6517 36.9203 21.2183 38.9324 21.2183ZM38.9324 56.6703C47.6095 56.6703 54.6695 48.7572 54.6695 39.0317C54.6695 29.3063 47.6095 21.3932 38.9324 21.3932C37.0019 21.3932 35.7954 21.8156 35.2428 22.6855C34.3626 24.0692 35.1121 26.5026 36.0598 29.5821C36.9316 32.4141 38.0171 35.9396 38.0171 39.577C38.0171 43.2144 36.8992 46.6848 36.0021 49.4097C35.1177 52.0951 34.4188 54.2149 35.1753 55.4331C35.6998 56.2778 36.8936 56.6703 38.931 56.6703H38.9324Z" fill="#5993C9"></path><path d="M38.1583 21.62C46.6737 21.62 53.6016 29.3849 53.6016 38.9291C53.6016 48.4734 46.6737 56.2383 38.1583 56.2383C36.1237 56.2383 34.9243 55.8333 34.3843 54.9633C33.6039 53.7072 34.2943 51.6096 35.1689 48.954C36.0365 46.319 37.1178 43.0393 37.1178 39.4602C37.1178 35.8812 36.111 32.6882 35.2238 29.8057C34.2887 26.7672 33.5491 24.3669 34.4504 22.9501C35.0255 22.0455 36.2038 21.6231 38.1597 21.6231L38.1583 21.62ZM38.1583 56.0633C46.5879 56.0633 53.4455 48.3772 53.4455 38.9291C53.4455 29.481 46.5879 21.7949 38.1583 21.7949C36.284 21.7949 35.1127 22.2047 34.5756 23.0494C33.7207 24.3937 34.449 26.7562 35.37 29.7474C36.2179 32.4991 37.2725 35.9253 37.2725 39.4587C37.2725 42.992 36.187 46.3647 35.3138 49.0123C34.4546 51.6206 33.7755 53.6804 34.5109 54.8624C35.0199 55.682 36.1799 56.0633 38.1583 56.0633Z" fill="#5993C9"></path><path d="M37.3778 22.0222C45.6443 22.0222 52.3711 29.5602 52.3711 38.827C52.3711 48.0939 45.6457 55.6318 37.3778 55.6318C35.4023 55.6318 34.238 55.2378 33.7121 54.3931C32.9528 53.1733 33.625 51.1355 34.4742 48.5572C35.3165 45.9994 36.3654 42.8158 36.3654 39.3424C36.3654 35.8689 35.3896 32.7689 34.5277 29.9699C33.6193 27.0196 32.9022 24.6888 33.7768 23.3129C34.3364 22.4335 35.481 22.0237 37.3792 22.0237L37.3778 22.0222ZM37.3778 55.4569C45.5599 55.4569 52.215 47.9961 52.215 38.827C52.215 29.6579 45.5585 22.1971 37.3778 22.1971C35.5597 22.1971 34.4222 22.5943 33.9019 23.4138C33.0737 24.7171 33.7796 27.0102 34.6739 29.9132C35.4965 32.5845 36.5201 35.9098 36.5201 39.3424C36.5201 42.7749 35.4655 46.0466 34.619 48.6187C33.7852 51.1497 33.1272 53.1481 33.8387 54.2938C34.3322 55.0881 35.4571 55.4585 37.3778 55.4585V55.4569Z" fill="#5993C9"></path><path d="M36.6032 22.4236C44.6222 22.4236 51.1465 29.7362 51.1465 38.7241C51.1465 47.712 44.6222 55.0247 36.6032 55.0247C34.6866 55.0247 33.5561 54.6417 33.0457 53.8222C32.3089 52.637 32.9599 50.6623 33.7839 48.1596C34.6009 45.679 35.6175 42.5916 35.6175 39.2237C35.6175 35.8558 34.6712 32.8488 33.8346 30.135C32.9529 27.273 32.2569 25.0114 33.1062 23.6766C33.649 22.8224 34.7598 22.4252 36.6018 22.4252L36.6032 22.4236ZM36.6032 54.8497C44.5364 54.8497 50.9904 47.6159 50.9904 38.7241C50.9904 29.8324 44.5364 22.5986 36.6032 22.5986C34.8399 22.5986 33.7375 22.9847 33.2341 23.7774C32.4313 25.0398 33.116 27.2635 33.9822 30.0782C34.7795 32.6692 35.7736 35.8952 35.7736 39.2237C35.7736 42.5522 34.7513 45.7263 33.9302 48.2211C33.1217 50.6749 32.4833 52.6134 33.1737 53.7229C33.6518 54.4936 34.7429 54.8513 36.6032 54.8513V54.8497Z" fill="#5993C9"></path><path d="M35.8285 22.8256C43.6 22.8256 49.9219 29.9113 49.9219 38.6218C49.9219 47.3323 43.6 54.418 35.8285 54.418C33.971 54.418 32.8743 54.0476 32.3793 53.2517C31.665 52.1028 32.2964 50.188 33.095 47.7641C33.8867 45.3607 34.8723 42.3695 34.8723 39.1072C34.8723 35.8449 33.9556 32.9309 33.1456 30.3021C32.2921 27.5283 31.6172 25.3361 32.4412 24.0422C32.9671 23.2148 34.0442 22.8287 35.8299 22.8287L35.8285 22.8256ZM35.8285 54.243C43.5143 54.243 49.7658 47.2346 49.7658 38.6218C49.7658 30.009 43.5129 23.0005 35.8285 23.0005C34.1215 23.0005 33.0543 23.374 32.5663 24.1415C31.7888 25.3645 32.4524 27.5173 33.2919 30.2438C34.0652 32.7543 35.027 35.8795 35.027 39.1056C35.027 42.3317 34.0357 45.408 33.2399 47.824C32.4567 50.2006 31.838 52.0776 32.5059 53.1524C32.9699 53.8979 34.0245 54.2446 35.8271 54.2446L35.8285 54.243Z" fill="#5993C9"></path><path d="M35.0499 23.2292C42.5726 23.2292 48.6934 30.0895 48.6934 38.5211C48.6934 46.9527 42.5726 53.813 35.0499 53.813C33.2501 53.813 32.1899 53.4537 31.7104 52.683C31.0186 51.5688 31.6289 49.7154 32.4023 47.3687C33.1686 45.0426 34.1219 42.149 34.1219 38.9907C34.1219 35.8325 33.2333 33.0146 32.4501 30.4693C31.6233 27.7838 30.9694 25.6626 31.7681 24.4081C32.2785 23.6059 33.3204 23.2324 35.0499 23.2324V23.2292ZM35.0499 53.638C42.4868 53.638 48.5373 46.8565 48.5373 38.5211C48.5373 30.1857 42.4868 23.4042 35.0499 23.4042C33.3978 23.4042 32.3657 23.7651 31.8946 24.5074C31.1424 25.6894 31.785 27.7728 32.5977 30.411C33.3457 32.8412 34.278 35.8671 34.278 38.9892C34.278 42.1112 33.319 45.0899 32.5485 47.4286C31.7906 49.728 31.193 51.5451 31.8384 52.5837C32.287 53.3039 33.3078 53.6396 35.0513 53.6396L35.0499 53.638Z" fill="#5993C9"></path><path d="M34.2733 23.6309C41.5485 23.6309 47.4668 30.2643 47.4668 38.4185C47.4668 46.5727 41.5485 53.2061 34.2733 53.2061C32.5326 53.2061 31.5061 52.8578 31.0421 52.1123C30.3728 51.0343 30.9633 49.2409 31.71 46.9714C32.451 44.7225 33.372 41.9251 33.372 38.8708C33.372 35.8165 32.5129 33.0932 31.7564 30.6331C30.9563 28.0358 30.325 25.9839 31.0969 24.7688C31.5905 23.9918 32.6 23.6309 34.2719 23.6309H34.2733ZM34.2733 53.0311C41.4627 53.0311 47.3107 46.475 47.3107 38.4185C47.3107 30.362 41.4613 23.8059 34.2733 23.8059C32.6774 23.8059 31.6805 24.1542 31.2249 24.8712C30.4993 26.0123 31.1194 28.0264 31.904 30.5779C32.6282 32.9277 33.5281 35.8528 33.5281 38.8724C33.5281 41.892 32.6015 44.7713 31.8562 47.0329C31.1236 49.255 30.5458 51.0107 31.1687 52.0146C31.6017 52.7112 32.5874 53.0343 34.2733 53.0343V53.0311Z" fill="#5993C9"></path><path d="M33.4967 24.0329C40.523 24.0329 46.2402 30.4409 46.2402 38.3161C46.2402 46.1914 40.523 52.5994 33.4967 52.5994C31.815 52.5994 30.8223 52.2637 30.3737 51.5419C29.7255 50.5001 30.2964 48.7681 31.0192 46.5743C31.7349 44.4026 32.6249 41.7014 32.6249 38.7527C32.6249 35.804 31.7953 33.1737 31.0642 30.7986C30.2922 28.2896 29.682 26.307 30.4286 25.1329C30.9053 24.3827 31.8811 24.0329 33.4967 24.0329ZM33.4967 52.4244C40.4372 52.4244 46.0841 46.0952 46.0841 38.3145C46.0841 30.5339 40.4372 24.2047 33.4967 24.2047C31.957 24.2047 30.9938 24.5404 30.5551 25.2322C29.8549 26.3338 30.4539 28.2786 31.2118 30.7403C31.9106 33.0097 32.781 35.8355 32.781 38.7511C32.781 41.6667 31.8853 44.4483 31.1654 46.6326C30.4581 48.7776 29.8999 50.4733 30.5017 51.441C30.9193 52.1124 31.8712 52.4244 33.4967 52.4244Z" fill="#5993C9"></path><path d="M32.7221 24.4348C39.5009 24.4348 45.0156 30.6159 45.0156 38.2138C45.0156 45.8116 39.5009 51.9927 32.7221 51.9927C31.0994 51.9927 30.1418 51.668 29.7074 50.9714C29.0816 49.9644 29.6329 48.2938 30.3289 46.1773C31.0193 44.0828 31.877 41.4776 31.877 38.6345C31.877 35.7914 31.0769 33.2541 30.3724 30.9642C29.6272 28.5435 29.0381 26.6318 29.7594 25.4971C30.2206 24.7721 31.1613 24.4348 32.7207 24.4348H32.7221ZM32.7221 51.8177C39.4151 51.8177 44.8609 45.7139 44.8609 38.2122C44.8609 30.7104 39.4151 24.6066 32.7221 24.6066C31.2372 24.6066 30.3106 24.9297 29.8859 25.5963C29.211 26.657 29.7889 28.5324 30.5201 30.9059C31.1936 33.0949 32.0331 35.8198 32.0331 38.633C32.0331 41.4461 31.1697 44.1285 30.4751 46.2356C29.7931 48.3033 29.256 49.9376 29.8353 50.8706C30.2375 51.5167 31.1543 51.8177 32.7221 51.8177Z" fill="#5993C9"></path><path d="M31.9435 24.837C38.4734 24.837 43.7871 30.7911 43.7871 38.1116C43.7871 45.4321 38.4749 51.3862 31.9435 51.3862C30.3799 51.3862 29.4561 51.0726 29.0385 50.4012C28.4353 49.4304 28.9654 47.8198 29.6375 45.7804C30.3012 43.7647 31.128 41.2542 31.128 38.5167C31.128 35.7791 30.3574 33.3364 29.6783 31.13C28.9597 28.7975 28.3931 26.9552 29.0877 25.8614C29.532 25.1632 30.439 24.837 31.9421 24.837H31.9435ZM31.9435 51.2129C38.3891 51.2129 43.6324 45.336 43.6324 38.1116C43.6324 30.8873 38.3891 25.0104 31.9435 25.0104C30.5149 25.0104 29.622 25.3224 29.2142 25.9623C28.566 26.9819 29.1214 28.788 29.8245 31.0732C30.4741 33.1819 31.2826 35.8075 31.2826 38.5167C31.2826 41.2258 30.4502 43.8104 29.7823 45.8403C29.1257 47.8324 28.6082 49.4052 29.165 50.3004C29.5517 50.9213 30.4348 51.2113 31.9435 51.2113V51.2129Z" fill="#5993C9"></path><path d="M31.1688 25.2385C37.4513 25.2385 42.5625 30.9672 42.5625 38.0088C42.5625 45.0503 37.4513 50.7791 31.1688 50.7791C29.6629 50.7791 28.7742 50.478 28.3721 49.8303C27.7914 48.8957 28.3018 47.345 28.9472 45.3844C29.5856 43.4459 30.3814 41.0315 30.3814 38.3996C30.3814 35.7677 29.6404 33.4179 28.988 31.2966C28.2976 29.0524 27.7506 27.2794 28.4199 26.2266C28.8474 25.5537 29.722 25.2401 31.1688 25.2401V25.2385ZM31.1688 50.6057C37.3655 50.6057 42.4078 44.9557 42.4078 38.0088C42.4078 31.0618 37.3669 25.4118 31.1688 25.4118C29.7951 25.4118 28.9373 25.7113 28.5464 26.3259C27.9235 27.3062 28.4579 29.0414 29.1342 31.2383C29.7585 33.2666 30.5361 35.7913 30.5361 38.398C30.5361 41.0047 29.736 43.4901 29.092 45.4427C28.4607 47.3576 27.9629 48.8689 28.4986 49.7294C28.8699 50.3267 29.7177 50.6041 31.1674 50.6041L31.1688 50.6057Z" fill="#5993C9"></path><path d="M30.3903 25.6404C36.4253 25.6404 41.334 31.1422 41.334 37.9064C41.334 44.6706 36.4253 50.1724 30.3903 50.1724C28.9434 50.1724 28.0899 49.8824 27.7018 49.2599C27.1422 48.36 27.6329 46.8722 28.2544 44.9873C28.8675 43.1261 29.631 40.8094 29.631 38.2815C29.631 35.7536 28.9195 33.4983 28.2924 31.4622C27.6287 29.3062 27.1042 27.6025 27.7482 26.5908C28.1602 25.943 28.9997 25.642 30.3903 25.642V25.6404ZM30.3903 49.999C36.3395 49.999 41.1793 44.5744 41.1793 37.9064C41.1793 31.2384 36.3395 25.8138 30.3903 25.8138C29.0728 25.8138 28.2502 26.1006 27.8748 26.69C27.2772 27.6293 27.7904 29.2952 28.44 31.4038C29.0404 33.3518 29.7871 35.7772 29.7871 38.2799C29.7871 40.7826 29.0179 43.1702 28.4006 45.0457C27.796 46.8833 27.318 48.3348 27.8298 49.159C28.1855 49.7311 28.9997 49.9974 30.3903 49.9974V49.999Z" fill="#5993C9"></path><path d="M29.6117 26.0426C35.3979 26.0426 40.1055 31.3191 40.1055 37.8043C40.1055 44.2895 35.3979 49.5659 29.6117 49.5659C28.2239 49.5659 27.4041 49.287 27.0329 48.6897C26.4958 47.826 26.9668 46.3982 27.5616 44.5905C28.1494 42.8065 28.8806 40.5859 28.8806 38.1636C28.8806 35.7413 28.1986 33.579 27.5982 31.6264C26.9612 29.5587 26.4592 27.9259 27.0765 26.9535C27.4716 26.3326 28.2773 26.0426 29.6117 26.0426ZM29.6117 49.3926C35.3121 49.3926 39.9508 44.1949 39.9508 37.8043C39.9508 31.4136 35.3135 26.216 29.6117 26.216C28.3505 26.216 27.5616 26.4902 27.2031 27.0544C26.6308 27.9527 27.1229 29.5492 27.7444 31.5696C28.3195 33.4372 29.0352 35.7618 29.0352 38.162C29.0352 40.5623 28.2984 42.8522 27.7065 44.6488C27.1271 46.4092 26.6688 47.7992 27.1595 48.5888C27.4998 49.1357 28.2787 49.391 29.6117 49.391V49.3926Z" fill="#5993C9"></path><path d="M28.8371 26.4441C34.3757 26.4441 38.8809 31.4936 38.8809 37.7014C38.8809 43.9093 34.3757 48.9587 28.8371 48.9587C27.5083 48.9587 26.7223 48.6924 26.3665 48.1187C25.8519 47.2913 26.3019 45.9234 26.8727 44.1929C27.4352 42.4861 28.1354 40.3617 28.1354 38.045C28.1354 35.7283 27.483 33.659 26.9079 31.7914C26.2991 29.812 25.8168 28.2486 26.4087 27.3172C26.787 26.7215 27.5589 26.4441 28.8371 26.4441ZM28.8371 48.7854C34.2899 48.7854 38.7262 43.8131 38.7262 37.7014C38.7262 31.5897 34.2899 26.6174 28.8371 26.6174C27.6306 26.6174 26.8784 26.8791 26.5353 27.418C25.9897 28.277 26.4594 29.8025 27.0541 31.7347C27.6039 33.5219 28.2901 35.7472 28.2901 38.045C28.2901 40.3428 27.5842 42.5334 27.0176 44.2528C26.4636 45.936 26.0249 47.2661 26.4931 48.0195C26.8179 48.5427 27.5631 48.7854 28.8371 48.7854Z" fill="#5993C9"></path><path d="M28.0605 26.8477C33.3502 26.8477 37.6543 31.6719 37.6543 37.6007C37.6543 43.5296 33.3502 48.3538 28.0605 48.3538C26.7907 48.3538 26.0399 48.0984 25.6982 47.55C25.2061 46.7573 25.6363 45.4508 26.1805 43.7976C26.7176 42.168 27.3855 40.1397 27.3855 37.9286C27.3855 35.7174 26.7626 33.7427 26.2143 31.9587C25.6321 30.0675 25.1723 28.5734 25.739 27.683C26.1017 27.1125 26.8385 26.8477 28.0605 26.8477ZM28.0605 48.1804C33.2644 48.1804 37.4996 43.4351 37.4996 37.6007C37.4996 31.7664 33.2658 27.0211 28.0605 27.0211C26.9103 27.0211 26.1918 27.2701 25.8655 27.7839C25.3453 28.6018 25.7938 30.058 26.3619 31.9019C26.8878 33.6088 27.5416 35.7332 27.5416 37.9286C27.5416 40.1239 26.8681 42.2153 26.3267 43.8574C25.798 45.4634 25.379 46.7321 25.8262 47.4507C26.1355 47.9487 26.8456 48.1804 28.0605 48.1804Z" fill="#5993C9"></path><path d="M27.2838 27.2492C32.3261 27.2492 36.4277 31.8464 36.4277 37.4979C36.4277 43.1494 32.3261 47.7466 27.2838 47.7466C26.0718 47.7466 25.3561 47.5023 25.0298 46.9791C24.5602 46.2226 24.9694 44.9776 25.4896 43.4C26.0015 41.8476 26.637 39.9155 26.637 37.8099C26.637 35.7044 26.0436 33.8227 25.522 32.1237C24.9666 30.3208 24.5279 28.8961 25.0692 28.0466C25.4151 27.5029 26.1196 27.2492 27.2838 27.2492ZM27.2838 47.5732C32.2404 47.5732 36.273 43.0533 36.273 37.4979C36.273 31.9425 32.2404 27.4226 27.2838 27.4226C26.1885 27.4226 25.5065 27.659 25.1958 28.1475C24.7008 28.9261 25.1283 30.3114 25.6682 32.067C26.1688 33.6934 26.7931 35.7186 26.7931 37.8099C26.7931 39.9013 26.1519 41.8949 25.6359 43.4599C25.1325 44.9886 24.7346 46.1974 25.1578 46.8782C25.4517 47.351 26.128 47.5716 27.2838 47.5716V47.5732Z" fill="#5993C9"></path><path d="M26.5072 27.6514C31.3006 27.6514 35.2012 32.0232 35.2012 37.3958C35.2012 42.7683 31.3006 47.1401 26.5072 47.1401C25.3542 47.1401 24.6723 46.9069 24.3629 46.4089C23.9144 45.6886 24.3053 44.5035 24.7988 43.0032C25.2853 41.528 25.89 39.692 25.89 37.692C25.89 35.6921 25.3261 33.9034 24.8297 32.2895C24.3025 30.5749 23.8848 29.2211 24.3995 28.4094C24.7299 27.8909 25.3992 27.6498 26.5072 27.6498V27.6514ZM26.5072 46.9668C31.2163 46.9668 35.0465 42.6738 35.0465 37.3958C35.0465 32.1178 31.2163 27.8247 26.5072 27.8247C25.4681 27.8247 24.8199 28.0501 24.526 28.5119C24.0564 29.2494 24.4628 30.567 24.976 32.2344C25.4527 33.7804 26.0446 35.7047 26.0446 37.6936C26.0446 39.6825 25.4344 41.5769 24.9451 43.0646C24.467 44.5161 24.0887 45.6634 24.4909 46.3096C24.7693 46.7587 25.4105 46.9668 26.5086 46.9668H26.5072Z" fill="#5993C9"></path><path d="M26.2014 26.6462C31.373 26.6462 35.5801 31.3615 35.5801 37.158C35.5801 42.9545 31.373 47.6699 26.2014 47.6699C24.9584 47.6699 24.2258 47.4193 23.8912 46.8835C23.4089 46.1081 23.8307 44.8316 24.3622 43.2146C24.8867 41.6213 25.5405 39.6402 25.5405 37.4795C25.5405 35.3189 24.9331 33.3883 24.3959 31.6452C23.8265 29.7966 23.3765 28.3356 23.9319 27.4641C24.2863 26.9062 25.0076 26.6462 26.2014 26.6462ZM26.2014 47.495C31.2872 47.495 35.4254 42.8568 35.4254 37.1565C35.4254 31.4561 31.2872 26.8179 26.2014 26.8179C25.0779 26.8179 24.3762 27.0622 24.0571 27.5618C23.5495 28.3608 23.9868 29.784 24.5422 31.5853C25.0554 33.2543 25.6952 35.3299 25.6952 37.4748C25.6952 39.6197 25.0371 41.6654 24.5084 43.2697C23.991 44.8394 23.5832 46.0782 24.0191 46.7795C24.3214 47.2649 25.0146 47.4918 26.2014 47.4918V47.495Z" fill="#5993C9"></path><path d="M25.7803 25.2103C31.3287 25.2103 35.8438 30.2692 35.8438 36.4896C35.8438 42.7101 31.3301 47.769 25.7803 47.769C24.4487 47.769 23.6627 47.5011 23.3055 46.9275C22.7895 46.0985 23.2408 44.729 23.8117 42.9938C24.3756 41.2838 25.0758 39.1547 25.0758 36.8348C25.0758 34.5149 24.4234 32.4409 23.8469 30.5702C23.2366 28.5876 22.7543 27.0211 23.3477 26.0881C23.7273 25.4908 24.5007 25.2134 25.7803 25.2134V25.2103ZM25.7803 47.5941C31.243 47.5941 35.6877 42.6124 35.6877 36.4896C35.6877 30.3669 31.243 25.3852 25.7803 25.3852C24.571 25.3852 23.8173 25.6468 23.4743 26.1874C22.9273 27.0479 23.3983 28.5766 23.9945 30.5119C24.5457 32.3022 25.2319 34.5323 25.2319 36.8332C25.2319 39.1342 24.526 41.3295 23.958 43.0537C23.4025 44.74 22.9638 46.0717 23.4335 46.8266C23.7597 47.3498 24.5049 47.5941 25.7817 47.5941H25.7803Z" fill="#5993C9"></path><path d="M25.2493 23.4184C31.1746 23.4184 35.9961 28.8225 35.9961 35.4637C35.9961 42.1049 31.1746 47.509 25.2493 47.509C23.8277 47.509 22.9896 47.2238 22.6086 46.6123C22.0588 45.7282 22.5411 44.2656 23.1514 42.4154C23.7532 40.5873 24.5026 38.3131 24.5026 35.8325C24.5026 33.3519 23.8052 31.136 23.1893 29.1361C22.5369 27.0179 22.0223 25.3458 22.655 24.3514C23.06 23.7147 23.8839 23.4184 25.2493 23.4184ZM25.2493 47.3357C31.0902 47.3357 35.8414 42.0104 35.8414 35.4637C35.8414 28.917 31.0902 23.5917 25.2493 23.5917C23.9556 23.5917 23.1485 23.8723 22.7801 24.4506C22.1938 25.3726 22.6972 27.0069 23.3342 29.0778C23.9233 30.991 24.6559 33.3724 24.6559 35.8309C24.6559 38.2895 23.9008 40.6345 23.2948 42.4753C22.7 44.2782 22.2318 45.7029 22.7337 46.513C23.0825 47.0741 23.8811 47.3357 25.2464 47.3357H25.2493Z" fill="#5993C9"></path><path d="M24.6094 21.3394C30.9129 21.3394 36.041 27.0871 36.041 34.1523C36.041 41.2174 30.9129 46.9651 24.6094 46.9651C23.0992 46.9651 22.2078 46.6625 21.8042 46.0132C21.2207 45.0755 21.7339 43.52 22.3821 41.5515C23.0233 39.6068 23.8206 37.1845 23.8206 34.5431C23.8206 31.9017 23.0781 29.544 22.4229 27.4164C21.7297 25.1643 21.1813 23.3866 21.8534 22.3291C22.2823 21.653 23.1597 21.3394 24.6108 21.3394H24.6094ZM24.6094 46.7901C30.8272 46.7901 35.885 41.1197 35.885 34.1507C35.885 27.1816 30.8258 21.5128 24.6094 21.5128C23.2314 21.5128 22.3709 21.8122 21.9786 22.43C21.3529 23.4134 21.89 25.1549 22.5677 27.3581C23.1948 29.3943 23.9738 31.9269 23.9738 34.5415C23.9738 37.1561 23.171 39.6509 22.5256 41.6099C21.8928 43.531 21.3922 45.0471 21.9294 45.9107C22.302 46.5096 23.1527 46.7886 24.608 46.7886L24.6094 46.7901Z" fill="#5993C9"></path><path d="M23.8557 19.048C30.5361 19.048 35.9707 25.1392 35.9707 32.6268C35.9707 40.1143 30.5361 46.2056 23.8557 46.2056C22.2556 46.2056 21.3121 45.8856 20.8846 45.1985C20.2673 44.2056 20.8101 42.5587 21.4977 40.4737C22.1768 38.4107 23.0233 35.8434 23.0233 33.0413C23.0233 30.2392 22.2359 27.7396 21.5399 25.4828C20.8059 23.0968 20.2252 21.2119 20.9352 20.0945C21.3894 19.3806 22.3174 19.0464 23.8543 19.0464L23.8557 19.048ZM23.8557 46.0338C30.4504 46.0338 35.816 40.0198 35.816 32.6284C35.816 25.237 30.4504 19.223 23.8557 19.223C22.3934 19.223 21.4794 19.5413 21.0632 20.1969C20.3995 21.2418 20.9676 23.0889 21.6875 25.4276C22.3526 27.5852 23.1794 30.2707 23.1794 33.0429C23.1794 35.815 22.3287 38.4596 21.6439 40.5351C20.9718 42.5729 20.4417 44.1836 21.0126 45.1008C21.4077 45.7375 22.3118 46.0338 23.8557 46.0338Z" fill="#5993C9"></path><path d="M22.9932 16.6148C30.0504 16.6148 35.793 23.0512 35.793 30.9611C35.793 38.871 30.0504 45.3074 22.9932 45.3074C21.3045 45.3074 20.3076 44.9701 19.8562 44.2452C19.2052 43.1987 19.7789 41.4588 20.5044 39.2555C21.2229 37.0744 22.1172 34.3605 22.1172 31.3992C22.1172 28.4379 21.2848 25.795 20.5494 23.4089C19.7732 20.8889 19.1602 18.8984 19.9096 17.7196C20.3891 16.9663 21.3677 16.6148 22.9918 16.6148H22.9932ZM22.9932 45.134C29.9661 45.134 35.6383 38.7765 35.6383 30.9611C35.6383 23.1457 29.9661 16.7882 22.9932 16.7882C21.4465 16.7882 20.4791 17.1254 20.0376 17.8205C19.3345 18.9268 19.9349 20.8795 20.6971 23.3522C21.3987 25.6327 22.2733 28.4694 22.2733 31.3992C22.2733 34.329 21.3734 37.1217 20.6506 39.3154C19.9406 41.4714 19.3795 43.1735 19.9842 44.1459C20.4032 44.8204 21.3593 45.134 22.9932 45.134Z" fill="#5993C9"></path><path d="M22.0135 14.1123C29.449 14.1123 35.498 20.8922 35.498 29.2261C35.498 37.5599 29.449 44.3398 22.0135 44.3398C20.2348 44.3398 19.1859 43.9853 18.712 43.2225C18.0272 42.1208 18.6319 40.2895 19.3954 37.9697C20.1533 35.6719 21.0953 32.8114 21.0953 29.6894C21.0953 26.5674 20.2179 23.7826 19.4432 21.2689C18.6262 18.6149 17.9808 16.5172 18.7696 15.2769C19.2744 14.4842 20.3051 14.1154 22.0135 14.1154V14.1123ZM22.0135 44.1649C29.3632 44.1649 35.342 37.4638 35.342 29.2261C35.342 20.9883 29.3632 14.2872 22.0135 14.2872C20.381 14.2872 19.3616 14.6434 18.8962 15.3762C18.1538 16.544 18.7879 18.6038 19.5908 21.2105C20.3304 23.6124 21.2514 26.602 21.2514 29.6878C21.2514 32.7736 20.3037 35.7176 19.5416 38.028C18.7935 40.3006 18.2016 42.0956 18.8399 43.1216C19.2829 43.834 20.2911 44.1649 22.0149 44.1649H22.0135Z" fill="#5993C9"></path><path d="M20.9278 11.6109C28.7401 11.6109 35.0957 18.7344 35.0957 27.4906C35.0957 36.2469 28.7401 43.3704 20.9278 43.3704C19.0605 43.3704 17.9581 42.9969 17.4604 42.1978C16.7418 41.0426 17.376 39.1183 18.1789 36.6803C18.9747 34.2643 19.966 31.2573 19.966 27.976C19.966 24.6948 19.0436 21.7666 18.2295 19.1237C17.3704 16.3342 16.6926 14.1325 17.5208 12.8292C18.0495 11.997 19.1322 11.6093 20.9278 11.6093V11.6109ZM20.9278 43.197C28.6543 43.197 34.941 36.1507 34.941 27.4906C34.941 18.8305 28.6543 11.7843 20.9278 11.7843C19.211 11.7843 18.1381 12.1594 17.6474 12.9316C16.8656 14.1609 17.5321 16.3263 18.3771 19.0669C19.1547 21.5917 20.1221 24.7342 20.1221 27.976C20.1221 31.2179 19.1266 34.3115 18.3265 36.7402C17.5391 39.1294 16.9176 41.0174 17.5897 42.0985C18.0551 42.8487 19.1167 43.197 20.9292 43.197H20.9278Z" fill="#5993C9"></path><path d="M19.7293 9.18576C27.9185 9.18576 34.582 16.6544 34.582 25.833C34.582 35.0116 27.9185 42.4802 19.7293 42.4802C17.772 42.4802 16.6176 42.0894 16.0974 41.2525C15.3451 40.0437 16.0102 38.0249 16.8525 35.4718C17.6877 32.9376 18.7254 29.784 18.7254 26.3436C18.7254 22.9032 17.758 19.8316 16.9045 17.0594C16.0046 14.136 15.2931 11.8271 16.1607 10.4639C16.7147 9.59236 17.8494 9.18734 19.7293 9.18734V9.18576ZM19.7293 42.3069C27.8341 42.3069 34.4273 34.917 34.4273 25.833C34.4273 16.749 27.8341 9.35913 19.7293 9.35913C17.9281 9.35913 16.8018 9.75312 16.2872 10.5632C15.466 11.8539 16.1663 14.1249 17.0521 17.0011C17.8677 19.6488 18.8815 22.9426 18.8815 26.342C18.8815 29.7415 17.8367 32.9849 16.9987 35.5301C16.1733 38.0375 15.5209 40.0169 16.2267 41.1517C16.716 41.9381 17.8297 42.3053 19.7322 42.3053L19.7293 42.3069Z" fill="#5993C9"></path><path d="M18.4196 6.90514C26.987 6.90514 33.957 14.7173 33.957 24.3199C33.957 33.9224 26.987 41.7346 18.4196 41.7346C16.3737 41.7346 15.1659 41.3264 14.6217 40.4518C13.8357 39.1878 14.5317 37.0776 15.4119 34.4062C16.2851 31.7554 17.372 28.4553 17.372 24.8541C17.372 21.253 16.3596 18.0395 15.4668 15.1397C14.5247 12.0823 13.7823 9.66785 14.6878 8.24158C15.2671 7.33065 16.4524 6.90672 18.4196 6.90672V6.90514ZM18.4196 41.5597C26.9012 41.5597 33.801 33.8263 33.801 24.3199C33.801 14.8135 26.9012 7.08007 18.4196 7.08007C16.534 7.08007 15.3543 7.49298 14.8143 8.34244C13.9552 9.69465 14.6864 12.0728 15.613 15.083C16.4651 17.852 17.5267 21.2987 17.5267 24.8541C17.5267 28.4096 16.4342 31.8027 15.5568 34.4677C14.692 37.0917 14.0101 39.1642 14.7483 40.354C15.2615 41.1783 16.4271 41.5628 18.4182 41.5628L18.4196 41.5597Z" fill="#5993C9"></path><path d="M16.996 4.84349C25.9402 4.84349 33.2168 12.9993 33.2168 23.0242C33.2168 33.0491 25.9402 41.2048 16.996 41.2048C14.8601 41.2048 13.6016 40.7793 13.0336 39.8668C12.2138 38.5493 12.9394 36.346 13.859 33.5565C14.7715 30.7875 15.9063 27.3408 15.9063 23.5805C15.9063 19.8202 14.8489 16.4633 13.9167 13.4342C12.9338 10.2428 12.1576 7.72125 13.1025 6.23509C13.7071 5.28476 14.9431 4.84349 16.996 4.84349ZM16.996 41.0315C25.8545 41.0315 33.0621 32.9529 33.0621 23.0242C33.0621 13.0954 25.8545 5.01685 16.996 5.01685C15.0261 5.01685 13.7929 5.44867 13.2291 6.33595C12.3306 7.74962 13.0955 10.2334 14.0629 13.3775C14.953 16.2694 16.061 19.8674 16.061 23.5805C16.061 27.2935 14.9206 30.8348 14.0038 33.618C13.1011 36.3586 12.3868 38.5241 13.1601 39.7675C13.6958 40.6296 14.915 41.0315 16.996 41.0315Z" fill="#5993C9"></path><path d="M15.4655 3.0736C24.7866 3.0736 32.3711 11.5729 32.3711 22.0218C32.3711 32.4706 24.788 40.97 15.4655 40.97C13.2396 40.97 11.9292 40.5271 11.3372 39.5768C10.4837 38.2041 11.2402 35.9095 12.1978 33.0033C13.1483 30.1161 14.3322 26.5244 14.3322 22.6018C14.3322 18.6791 13.2298 15.182 12.2582 12.0237C11.2345 8.69833 10.4246 6.07115 11.4089 4.52352C12.0374 3.5338 13.3268 3.0736 15.4655 3.0736ZM15.4655 40.795C24.7022 40.795 32.2164 32.3729 32.2164 22.0202C32.2164 11.6675 24.7022 3.24539 15.4655 3.24539C13.4098 3.24539 12.1247 3.69613 11.5355 4.62123C10.5976 6.09637 11.3948 8.68572 12.4044 11.9638C13.3325 14.9771 14.4869 18.728 14.4869 22.597C14.4869 26.4661 13.2973 30.1587 12.3426 33.0585C11.4005 35.9173 10.6566 38.1742 11.4637 39.4728C12.0234 40.3727 13.2945 40.7919 15.4641 40.7919L15.4655 40.795Z" fill="#5993C9"></path><path d="M13.8237 1.66456C23.523 1.66456 31.4141 10.509 31.4141 21.3802C31.4141 32.2515 23.523 41.0959 13.8237 41.0959C11.5092 41.0959 10.1454 40.6358 9.53089 39.6476C8.64363 38.2213 9.431 35.8337 10.4265 32.8094C11.4164 29.8055 12.6482 26.0657 12.6482 21.9839C12.6482 17.902 11.5008 14.2615 10.4898 10.9755C9.424 7.51464 8.58318 4.78187 9.60682 3.17278C10.2607 2.14523 11.6007 1.66614 13.8251 1.66614L13.8237 1.66456ZM13.8237 40.921C23.4372 40.921 31.258 32.1553 31.258 21.3802C31.258 10.6052 23.4372 1.83949 13.8237 1.83949C11.6836 1.83949 10.345 2.30914 9.73191 3.27364C8.75467 4.81024 9.5857 7.50519 10.6361 10.9188C11.6021 14.055 12.8029 17.9572 12.8029 21.9839C12.8029 26.0105 11.5655 29.8512 10.5714 32.8693C9.59133 35.8447 8.81657 38.1945 9.65742 39.5467C10.241 40.4845 11.5641 40.921 13.8237 40.921Z" fill="#5993C9"></path><path d="M12.07 0.689328C22.1462 0.689328 30.3438 9.87738 30.3438 21.171C30.3438 32.4645 22.1462 41.6526 12.07 41.6526C9.66559 41.6526 8.24965 41.1751 7.61128 40.1491C6.69029 38.6677 7.50725 36.187 8.54214 33.0477C9.57 29.9256 10.851 26.0408 10.851 21.7982C10.851 17.5556 9.65858 13.7732 8.60682 10.3581C7.50021 6.76322 6.62558 3.92485 7.68859 2.2543C8.3579 1.20154 9.79074 0.689328 12.07 0.689328ZM12.07 41.4792C22.0604 41.4792 30.1891 32.3684 30.1891 21.171C30.1891 9.97352 22.0604 0.862703 12.07 0.862703C9.84558 0.862703 8.45357 1.35126 7.8152 2.35359C6.79858 3.95165 7.66189 6.75376 8.75443 10.2998C9.75839 13.5589 11.007 17.6139 11.007 21.7966C11.007 25.9793 9.72187 29.9713 8.68838 33.106C7.66896 36.1981 6.86466 38.6409 7.73926 40.0482C8.34529 41.0238 9.72184 41.4777 12.07 41.4777V41.4792Z" fill="#5993C9"></path><path d="M10.2017 0.221202C20.6547 0.221202 29.1602 9.75282 29.1602 21.4703C29.1602 33.1879 20.6561 42.7195 10.2017 42.7195C7.70866 42.7195 6.23923 42.2246 5.57836 41.1608C4.62362 39.6258 5.47151 37.0522 6.54437 33.7946C7.6116 30.5544 8.94038 26.523 8.94038 22.1212C8.94038 17.7195 7.703 13.7937 6.61186 10.2508C5.46307 6.52203 4.55757 3.5765 5.65855 1.84448C6.35317 0.75232 7.83802 0.222779 10.2017 0.222779V0.221202ZM10.2017 42.5445C20.5703 42.5445 29.0041 33.0902 29.0041 21.4703C29.0041 9.85053 20.5689 0.396135 10.2017 0.396135C7.89286 0.396135 6.44736 0.903617 5.78509 1.94535C4.73051 3.60487 5.62482 6.51258 6.75954 10.1941C7.80006 13.5746 9.09643 17.7825 9.09643 22.1212C9.09643 26.4599 7.76347 30.6017 6.69061 33.8545C5.63322 37.0648 4.79799 39.6006 5.70634 41.06C6.33627 42.0733 7.76487 42.5445 10.2031 42.5445H10.2017Z" fill="#5993C9"></path><path d="M8.22533 0.331439C19.0565 0.331439 27.8672 10.2082 27.8672 22.3465C27.8672 34.4848 19.0551 44.3616 8.22533 44.3616C5.64232 44.3616 4.12091 43.8494 3.43613 42.7478C2.44764 41.1576 3.32644 38.4926 4.43867 35.1184C5.54527 31.7615 6.92187 27.5835 6.92187 23.021C6.92187 18.4585 5.63948 14.3909 4.50897 10.7188C3.31941 6.85605 2.38016 3.80492 3.52051 2.01144C4.23903 0.881447 5.77871 0.331439 8.22533 0.331439ZM8.22533 44.1898C18.9708 44.1898 27.7125 34.3918 27.7125 22.3481C27.7125 10.3043 18.9708 0.506372 8.22533 0.506372C5.83214 0.506372 4.33319 1.03117 3.64561 2.1123C2.55166 3.83329 3.47968 6.84659 4.65377 10.6621C5.73225 14.1655 7.07511 18.5247 7.07511 23.021C7.07511 27.5173 5.69288 31.8088 4.58347 35.1782C3.48671 38.5052 2.62199 41.1339 3.56267 42.6485C4.2151 43.6997 5.69712 44.1882 8.22389 44.1882L8.22533 44.1898Z" fill="#5993C9"></path><path d="M6.13426 1.0928C17.3423 1.0928 26.4609 11.3131 26.4609 23.8754C26.4609 36.4376 17.3423 46.658 6.13426 46.658C3.46266 46.658 1.88783 46.1268 1.18056 44.989C0.158322 43.3452 1.06812 40.5872 2.21832 37.0948C3.36288 33.6198 4.78727 29.2952 4.78727 24.5735C4.78727 19.8519 3.46128 15.6408 2.28999 11.8395C1.05965 7.84278 0.0866605 4.68449 1.26638 2.82955C2.01021 1.66016 3.60187 1.0928 6.13426 1.0928ZM6.13426 46.4846C17.2565 46.4846 26.3063 36.3431 26.3063 23.8754C26.3063 11.4077 17.2565 1.26615 6.13426 1.26615C3.6553 1.26615 2.10441 1.80988 1.39292 2.93041C0.259598 4.71286 1.21996 7.83333 2.43624 11.7828C3.55268 15.4076 4.94189 19.9196 4.94189 24.5735C4.94189 29.2275 3.5119 33.667 2.36311 37.1563C1.22839 40.6014 0.332734 43.3216 1.30716 44.8913C1.9835 45.9787 3.5175 46.4862 6.13426 46.4862V46.4846Z" fill="#5993C9"></path></svg> 