<?xml version="1.0" encoding="UTF-8"?> <svg xmlns="http://www.w3.org/2000/svg" width="49" height="49" viewBox="0 0 49 49" fill="none"><path d="M30.1192 48.85C28.7984 48.85 26.7656 48.0216 24.2371 46.4513C20.6373 44.2155 16.3821 40.7156 12.2567 36.5901C8.13123 32.4647 4.62792 28.2094 2.39552 24.6097C0.143152 20.9766 -0.552188 18.4315 0.442579 17.4367C0.735353 17.1439 1.17119 16.9942 1.73345 16.9942C2.13601 16.9942 2.61177 17.0707 3.14409 17.2238C3.47013 17.2471 3.84608 17.3202 4.2553 17.4367C4.57801 17.4567 4.95396 17.5298 5.36651 17.6496C5.6859 17.6662 6.06184 17.7394 6.47772 17.8625C6.79045 17.8758 7.16973 17.949 7.59225 18.0755C7.90166 18.0855 8.28094 18.1586 8.70679 18.2917C9.01287 18.2984 9.39548 18.3716 9.82798 18.508C10.1374 18.508 10.52 18.5845 10.9525 18.7242H10.9592C11.2652 18.7242 11.6445 18.7974 12.0737 18.9405C12.0837 18.9405 12.0903 18.9405 12.1003 18.9405C12.2534 18.9405 12.4097 18.9571 12.5694 18.9871C12.5694 18.661 12.6592 18.4082 12.8322 18.2352C12.8555 18.2119 12.8822 18.1886 12.9121 18.1686C12.8456 17.6696 12.9321 17.297 13.1649 17.0674C13.1849 17.0474 13.2049 17.0308 13.2282 17.0142C13.1649 16.5218 13.2548 16.1392 13.4943 15.8996C13.5076 15.8863 13.5243 15.873 13.5376 15.863C13.4843 15.364 13.5775 14.9781 13.8237 14.7319C13.8337 14.7219 13.8436 14.7119 13.857 14.7052C13.807 14.2029 13.9069 13.8136 14.1564 13.5641C14.1331 13.0418 14.2362 12.6458 14.4891 12.3963C14.4558 11.8806 14.5656 11.4814 14.8218 11.2286C14.7819 10.7229 14.8916 10.3236 15.1478 10.0641C15.1046 9.57504 15.2144 9.1758 15.4639 8.91297C15.424 8.40062 15.5437 7.9914 15.8132 7.72191C16.0561 7.47904 16.4121 7.35927 16.8779 7.35927C16.9377 7.35927 17.0043 7.35928 17.0675 7.36593C17.1274 7.20956 17.2105 7.07981 17.3137 6.97667C17.5499 6.74046 17.8959 6.62401 18.3484 6.62401C18.4182 6.62401 18.4914 6.62401 18.568 6.63399C18.6278 6.47097 18.711 6.33789 18.8141 6.23143C19.0437 6.00187 19.3797 5.88875 19.8189 5.88875C19.8987 5.88875 19.9819 5.89208 20.0684 5.89873C20.125 5.72905 20.2082 5.59265 20.3179 5.48618C20.5409 5.26328 20.8669 5.15016 21.2928 5.15016C21.3826 5.15016 21.4724 5.15349 21.5689 5.16347C21.6254 4.99046 21.7086 4.8474 21.8184 4.73761C22.0347 4.52136 22.3541 4.41157 22.7633 4.41157C22.8598 4.41157 22.9629 4.41823 23.0694 4.42821C23.1226 4.25188 23.2058 4.10216 23.3189 3.98904C23.5285 3.77944 23.8346 3.67298 24.2338 3.67298C24.3369 3.67298 24.4501 3.67964 24.5698 3.69627C24.6197 3.51329 24.7029 3.36025 24.8227 3.2438C25.0223 3.04418 25.3217 2.94105 25.7043 2.94105C25.8174 2.94105 25.9405 2.95103 26.0703 2.96766C26.1169 2.7747 26.2 2.61833 26.3198 2.49856C26.5128 2.30559 26.7989 2.20578 27.1715 2.20578C27.2946 2.20578 27.431 2.21577 27.5708 2.23905C27.614 2.03611 27.6972 1.87309 27.8203 1.75331C28.0066 1.567 28.2827 1.47052 28.642 1.47052C28.7751 1.47052 28.9215 1.48383 29.0746 1.51045C29.1145 1.30085 29.1976 1.13117 29.3207 1.00807C29.5037 0.82509 29.7699 0.735259 30.1126 0.735259C30.2523 0.735259 30.4087 0.751894 30.5783 0.781837C30.6116 0.565583 30.6948 0.389254 30.8212 0.262829C30.9975 0.0864992 31.2537 0 31.5831 0C32.345 0 33.5161 0.475758 34.9666 1.37737C37.0294 2.65826 39.468 4.66442 41.8302 7.02658C44.1923 9.38873 46.1985 11.8241 47.4794 13.8901C48.7769 15.9828 49.1728 17.4567 48.5906 18.0389C48.4642 18.1653 48.2878 18.2485 48.0716 18.2817C48.1781 18.8573 48.1015 19.2798 47.8454 19.5393C47.7189 19.6658 47.5493 19.7489 47.343 19.7889C47.4395 20.3611 47.3563 20.7836 47.1001 21.0398C46.9803 21.1596 46.814 21.2461 46.6144 21.2893C46.7009 21.8616 46.6144 22.2808 46.3549 22.5403C46.2384 22.6567 46.0787 22.7399 45.8824 22.7898C45.9623 23.3587 45.8691 23.7812 45.6063 24.0407C45.4932 24.1539 45.3401 24.237 45.1505 24.2869C45.2204 24.8525 45.1239 25.275 44.8577 25.5412C44.7479 25.651 44.5982 25.7342 44.4186 25.7874C44.4818 26.3497 44.3787 26.7722 44.1125 27.0417C44.0027 27.1515 43.8596 27.2346 43.6866 27.2912C43.7432 27.8535 43.6334 28.2727 43.3672 28.5421C43.2575 28.6519 43.1177 28.7351 42.9547 28.7917C43.0046 29.3506 42.8915 29.7731 42.622 30.0426C42.5122 30.1524 42.3791 30.2356 42.2194 30.2921C42.2594 30.8511 42.1462 31.2703 41.8734 31.5431C41.7703 31.6462 41.6372 31.7294 41.4842 31.7893C41.5208 32.3482 41.401 32.7707 41.1282 33.0435C40.8853 33.2864 40.526 33.4095 40.0636 33.4095C40.0369 33.4095 40.0037 33.4095 39.9737 33.4029H39.9138C39.7076 33.6125 39.3649 33.7289 38.9291 33.7289C38.8958 33.7289 38.8592 33.7289 38.8259 33.7223L38.7627 33.7156C38.5664 33.9318 38.2304 34.0483 37.7946 34.0483C37.7546 34.0483 37.7147 34.045 37.6715 34.0416H37.6216C37.392 34.2612 37.0693 34.371 36.6601 34.371C36.6135 34.371 36.5603 34.3677 36.5103 34.361H36.4671L36.4571 34.3677C36.2442 34.5806 35.9315 34.6904 35.5256 34.6904C35.4657 34.6904 35.4025 34.6837 35.3359 34.6771H35.3093C35.3093 34.6771 35.2927 34.6937 35.2893 34.7004C35.0831 34.9067 34.7803 35.0098 34.3911 35.0098C34.3179 35.0098 34.2347 35.0031 34.1548 34.9932C34.1415 35.0065 34.1316 35.0198 34.1216 35.0298C33.922 35.2294 33.6325 35.3292 33.2566 35.3292C33.1734 35.3292 33.0869 35.3225 32.9937 35.3125C32.9738 35.3392 32.9638 35.3525 32.9505 35.3624C32.7608 35.5521 32.4814 35.6486 32.1187 35.6486C32.0289 35.6486 31.9324 35.6419 31.8326 35.6286C31.8127 35.6552 31.796 35.6752 31.7794 35.6918C31.5964 35.8748 31.3302 35.968 30.9809 35.968C30.8878 35.968 30.7879 35.9613 30.6748 35.9447C30.6549 35.9713 30.6349 35.9979 30.6083 36.0212C30.4353 36.1942 30.1824 36.284 29.8564 36.284C29.8897 36.4637 29.9063 36.6367 29.9063 36.793C30.0494 37.2122 30.1225 37.5948 30.1225 37.9176C30.2623 38.3401 30.3355 38.7194 30.3388 39.0388C30.4752 39.4613 30.5484 39.8439 30.5551 40.1633C30.6848 40.5791 30.758 40.9584 30.768 41.2778C30.8944 41.6904 30.9676 42.0663 30.9809 42.389C31.104 42.7949 31.1772 43.1742 31.1938 43.5002C31.3136 43.9028 31.3868 44.2821 31.4068 44.6114C31.5232 45.0107 31.5964 45.39 31.6197 45.7227C31.9857 46.9969 31.9125 47.9052 31.4034 48.4142C31.1073 48.7103 30.6748 48.86 30.1092 48.86L30.1192 48.85ZM1.7401 17.1472C1.22109 17.1472 0.821853 17.2837 0.555695 17.5498C-0.38584 18.4913 0.31948 20.9766 2.54523 24.5498C4.77763 28.1363 8.26763 32.3715 12.3731 36.477C19.4529 43.5568 26.912 48.6937 30.1126 48.6937C30.6316 48.6937 31.0308 48.5572 31.297 48.2911C31.6862 47.9018 31.7894 47.2431 31.613 46.3248C31.5631 46.6941 31.43 46.9869 31.2171 47.1998C30.9343 47.4826 30.5185 47.6257 29.9795 47.6257C28.7186 47.6257 26.7756 46.8339 24.3636 45.3367C20.9268 43.2041 16.8645 39.8605 12.9254 35.9247C8.98626 31.9856 5.64265 27.9233 3.51005 24.4866C1.3575 21.0198 0.69543 18.5845 1.64695 17.633C1.85987 17.4201 2.15597 17.287 2.52859 17.2337C2.23915 17.1772 1.97299 17.1472 1.7401 17.1472ZM2.89123 17.3635C2.39552 17.3635 2.01624 17.4932 1.76339 17.7461C0.865105 18.6444 1.54048 21.0132 3.66309 24.4233C5.79236 27.8468 9.12599 31.8891 13.0418 35.8049C16.971 39.7341 21.0233 43.0677 24.4501 45.197C26.8421 46.6808 28.7518 47.466 29.9728 47.466C30.4686 47.466 30.8478 47.3362 31.1007 47.0834C31.3901 46.7939 31.5132 46.3415 31.4733 45.736C31.44 45.6228 31.4001 45.4997 31.3569 45.3733C31.2903 45.6262 31.1772 45.8358 31.0208 45.9955C30.7513 46.265 30.3554 46.4014 29.8398 46.4014C28.6387 46.4014 26.7889 45.6461 24.49 44.2222C21.2162 42.1894 17.347 39.0055 13.5975 35.256C9.84795 31.5065 6.66403 27.6372 4.63124 24.3635C2.58182 21.0598 1.9497 18.7409 2.85797 17.8326C3.01766 17.6729 3.22726 17.5598 3.48011 17.4966C3.35368 17.4533 3.22726 17.4134 3.10749 17.3801C3.04095 17.3768 2.96443 17.3701 2.89456 17.3701L2.89123 17.3635ZM3.77954 17.5997C3.4302 17.6396 3.15739 17.7561 2.96775 17.9457C2.11937 18.7941 2.75815 21.0398 4.76432 24.2736C6.79045 27.5374 9.96439 31.3934 13.7072 35.1362C17.4501 38.8791 21.3061 42.053 24.5698 44.0791C26.8488 45.4931 28.6653 46.2383 29.8298 46.2383C30.2989 46.2383 30.6582 46.1152 30.9011 45.8757C31.0907 45.6861 31.2071 45.4099 31.2471 45.0606C31.1805 44.8909 31.1073 44.7013 31.0208 44.505C30.9643 44.6148 30.8977 44.7079 30.8179 44.7845C30.5617 45.0406 30.1824 45.1704 29.6934 45.1704C28.5522 45.1704 26.7922 44.4551 24.6097 43.0977C21.499 41.168 17.8227 38.1438 14.2628 34.5806C10.6997 31.0174 7.67543 27.3444 5.74578 24.2337C3.79617 21.093 3.19732 18.8873 4.06233 18.0256C4.14218 17.9457 4.23533 17.8792 4.34513 17.8226C4.15216 17.7394 3.96585 17.6663 3.78287 17.5997H3.77954ZM4.54142 17.9091C4.3917 17.969 4.27193 18.0455 4.17545 18.142C3.37032 18.9471 3.97916 21.0797 5.88219 24.1505C7.80518 27.2513 10.8227 30.9143 14.376 34.4708C17.9292 38.0274 21.5955 41.0416 24.6962 42.9646C26.8588 44.3054 28.5855 45.014 29.69 45.014C30.1359 45.014 30.4752 44.8976 30.7048 44.6713C30.8046 44.5715 30.8844 44.4451 30.9443 44.2921C30.8412 44.0891 30.7247 43.8462 30.6016 43.5967C30.3421 43.8363 29.9961 43.9494 29.557 43.9494C28.4724 43.9494 26.8056 43.2707 24.7362 41.9865C21.7885 40.1566 18.3085 37.2921 14.9316 33.9185C11.5547 30.5417 8.69016 27.0616 6.86032 24.1139C5.02383 21.1563 4.45491 19.0736 5.25006 18.2451C5.00719 18.1254 4.77098 18.0156 4.54142 17.9158V17.9091ZM31.104 44.312C31.1606 44.4218 31.2105 44.5383 31.2604 44.658C31.2604 44.648 31.2604 44.6414 31.2604 44.6314C31.2238 44.5083 31.1805 44.3719 31.1306 44.2322C31.124 44.2588 31.114 44.2854 31.104 44.312ZM30.7148 43.4636C30.8179 43.6699 30.9144 43.8729 31.0042 44.0692C31.0142 44.0259 31.0208 43.9826 31.0275 43.9394C30.9576 43.7631 30.8778 43.5668 30.7879 43.3605C30.7647 43.3971 30.7414 43.4337 30.7148 43.467V43.4636ZM5.4031 18.3217C4.62126 19.1002 5.19683 21.1163 7.00005 24.0241C8.82324 26.9618 11.6811 30.4319 15.048 33.7988C20.837 39.5877 26.9353 43.7897 29.547 43.7897C29.9695 43.7897 30.2922 43.6799 30.5085 43.4636C30.3954 43.1842 30.2423 42.8981 30.076 42.5986C29.883 42.6818 29.6601 42.7217 29.4139 42.7217C28.3892 42.7217 26.8155 42.0796 24.8593 40.8686C22.0746 39.1419 18.7875 36.4337 15.6003 33.2465C12.413 30.0592 9.70489 26.7689 7.97818 23.9875C6.44112 21.5122 5.84559 19.709 6.24815 18.7675C5.95871 18.6078 5.67924 18.4581 5.40643 18.3217H5.4031ZM30.9077 43.101C30.8977 43.1309 30.8878 43.1642 30.8744 43.1942C30.9343 43.3073 30.9909 43.4337 31.0441 43.5601C31.0441 43.5435 31.0441 43.5235 31.0441 43.5069C31.0042 43.3805 30.9609 43.2441 30.911 43.1043L30.9077 43.101ZM30.2224 42.5288C30.3687 42.7949 30.5051 43.0511 30.6349 43.3039C30.6648 43.2574 30.6915 43.2108 30.7114 43.1609C30.6016 42.948 30.4819 42.6984 30.3488 42.4389C30.3089 42.4722 30.2656 42.5021 30.2224 42.5288ZM30.4719 42.3225C30.5817 42.5387 30.6848 42.7483 30.778 42.9546C30.7879 42.908 30.7979 42.8615 30.8046 42.8149C30.7314 42.6319 30.6449 42.429 30.5517 42.216C30.5251 42.2559 30.4985 42.2892 30.4719 42.3225ZM6.39121 18.8507C6.02857 19.729 6.64074 21.5189 8.11792 23.9043C9.83796 26.679 12.5361 29.9561 15.7167 33.1334C18.8973 36.314 22.1744 39.0121 24.9458 40.7322C26.8787 41.9299 28.4191 42.5654 29.4039 42.5654C29.6335 42.5654 29.8298 42.5321 29.9961 42.4622C29.8231 42.1561 29.6302 41.8301 29.4239 41.4907H29.4073C29.364 41.4974 29.3207 41.5007 29.2742 41.5007C28.3093 41.5007 26.8255 40.8985 24.9857 39.7541C22.3674 38.1305 19.2699 35.582 16.269 32.5811C13.2681 29.5802 10.7196 26.4861 9.09605 23.8644C7.88836 21.9148 7.28617 20.3811 7.35604 19.4196C7.03 19.22 6.70395 19.027 6.38789 18.8507H6.39121ZM30.6815 41.9598C30.6682 41.9931 30.6549 42.0264 30.6416 42.0597C30.7081 42.1861 30.7746 42.3258 30.8345 42.4655C30.8345 42.4456 30.8345 42.4256 30.8345 42.4057C30.7913 42.2659 30.7414 42.1162 30.6848 41.9598H30.6815ZM29.6035 41.4708C29.7965 41.7835 29.9762 42.0896 30.1425 42.3857C30.1924 42.3558 30.2357 42.3225 30.2756 42.2892C30.1359 42.0197 29.9795 41.7369 29.7998 41.4209C29.7399 41.4408 29.6734 41.4575 29.6035 41.4675V41.4708ZM29.9495 41.3577C30.1059 41.6338 30.2556 41.9 30.3887 42.1628C30.4187 42.1229 30.4453 42.0796 30.4686 42.0364C30.3488 41.7769 30.2257 41.5273 30.0959 41.2745C30.0494 41.3078 30.0028 41.3344 29.9495 41.361V41.3577ZM30.3122 41.0749C30.2856 41.1081 30.259 41.1414 30.229 41.1713C30.3355 41.3876 30.4486 41.6138 30.5517 41.8367C30.565 41.7935 30.575 41.7436 30.585 41.6904C30.5118 41.5207 30.422 41.3144 30.3122 41.0749ZM30.412 40.9052C30.4852 41.0616 30.5517 41.2113 30.6149 41.361C30.6149 41.3377 30.6149 41.3111 30.6149 41.2878C30.565 41.1314 30.5118 40.9751 30.4552 40.8187C30.4419 40.8486 30.4286 40.8786 30.4153 40.9085L30.412 40.9052ZM7.51906 19.5194C7.4991 20.4476 8.10461 21.9547 9.23578 23.7779C10.856 26.3863 13.3945 29.4737 16.3855 32.4647C21.529 37.6082 26.9453 41.341 29.2642 41.341C29.2875 41.341 29.3108 41.341 29.3341 41.341L29.3207 41.3211C29.1111 40.985 28.8749 40.6191 28.5988 40.2032C27.7305 40.0601 26.546 39.5278 25.1121 38.6362C22.6568 37.1124 19.7557 34.7237 16.9411 31.9124C14.1264 29.0977 11.741 26.1966 10.2172 23.7413C9.32228 22.3007 8.78997 21.1163 8.63027 20.2214C8.25765 19.9852 7.87837 19.7423 7.52239 19.5227L7.51906 19.5194ZM28.8284 40.2531C29.0479 40.5858 29.2609 40.9118 29.4605 41.2346L29.5137 41.3211C29.5869 41.3111 29.6568 41.2978 29.7167 41.2778C29.557 41.005 29.3939 40.7222 29.211 40.4328L29.1078 40.2697C29.0213 40.2697 28.9282 40.2631 28.825 40.2498L28.8284 40.2531ZM29.354 40.3496C29.5403 40.649 29.71 40.9385 29.873 41.2213C29.9263 41.1946 29.9728 41.1647 30.0227 41.1281C29.8697 40.842 29.7034 40.5392 29.5204 40.2265C29.4505 40.2431 29.3773 40.2531 29.3008 40.2598L29.3573 40.3463L29.354 40.3496ZM29.6801 40.1832C29.8431 40.466 29.9995 40.7455 30.1458 41.0183C30.1791 40.9817 30.2057 40.9418 30.2357 40.8952C30.1192 40.6457 29.9828 40.3829 29.8364 40.11C29.7865 40.1367 29.7366 40.1633 29.6801 40.1832ZM29.9695 40.0136C30.0959 40.2498 30.2157 40.4827 30.3222 40.7022C30.3388 40.6557 30.3521 40.6058 30.3621 40.5559C30.2789 40.3629 30.1791 40.14 30.0726 39.9138C30.0593 39.9304 30.046 39.9437 30.0327 39.957C30.0128 39.977 29.9895 39.9936 29.9695 40.0102V40.0136ZM30.1824 39.764C30.259 39.9271 30.3288 40.0801 30.3954 40.2331C30.3954 40.1999 30.3954 40.1666 30.3954 40.1333C30.3455 39.9803 30.2922 39.8239 30.2323 39.6709C30.219 39.7042 30.2024 39.7341 30.1858 39.764H30.1824ZM28.469 38.9855C28.7219 39.3582 28.9681 39.7374 29.2043 40.11C29.2875 40.1067 29.364 40.0967 29.4372 40.0834C29.2376 39.7507 29.018 39.3947 28.7818 39.0288C28.6786 39.0188 28.5755 39.0055 28.4657 38.9855H28.469ZM27.8436 38.8159C28.153 39.2517 28.4491 39.6775 28.7252 40.0901C28.8117 40.0934 28.9115 40.1034 29.0113 40.1067C28.7651 39.7208 28.5023 39.3216 28.2295 38.9223C28.1264 38.9057 27.9966 38.8658 27.8436 38.8159ZM28.9814 39.0421C29.0712 39.1818 29.1611 39.3216 29.2476 39.4613C29.3673 39.6576 29.4838 39.8505 29.5969 40.0368C29.6601 40.0136 29.7133 39.9903 29.7599 39.9637C29.5969 39.6642 29.4172 39.3515 29.2243 39.0288C29.1511 39.0388 29.0779 39.0421 28.998 39.0421C28.9947 39.0421 28.988 39.0421 28.9847 39.0421H28.9814ZM8.82989 20.3644C9.02285 21.2161 9.54852 22.3473 10.3536 23.6482C11.8707 26.0968 14.2529 28.988 17.0542 31.7893C21.4558 36.1909 26.027 39.4812 28.4857 40.0269C28.1962 39.5944 27.8835 39.1519 27.5608 38.7061C26.8954 38.4599 26.1069 38.054 25.2319 37.5117C22.9396 36.0911 20.2314 33.8587 17.6065 31.2337C14.9815 28.6087 12.7524 25.9005 11.3285 23.6082C10.7828 22.7266 10.3736 21.9348 10.1174 21.2594C9.69491 20.96 9.25574 20.6539 8.82656 20.3644H8.82989ZM29.3906 38.9922C29.5703 39.2916 29.7366 39.5844 29.8897 39.8672C29.903 39.8572 29.9096 39.8505 29.9163 39.8439C29.9429 39.8173 29.9695 39.784 29.9928 39.7507C29.8697 39.4946 29.7233 39.2184 29.5669 38.929C29.5104 38.9556 29.4505 38.9755 29.3906 38.9922ZM29.7133 38.8558C29.8464 39.102 29.9762 39.3448 30.0926 39.5811C30.1126 39.5345 30.1292 39.4846 30.1425 39.4347C30.0494 39.2317 29.9462 38.9988 29.8298 38.7626C29.7898 38.8025 29.7533 38.8325 29.7167 38.8591L29.7133 38.8558ZM29.9396 38.6262C30.0261 38.8059 30.1092 38.9789 30.1824 39.1452C30.1824 39.1219 30.1824 39.0953 30.1824 39.0687C30.1292 38.9024 30.066 38.7227 29.9928 38.5364C29.9762 38.5663 29.9595 38.5929 29.9396 38.6229V38.6262ZM28.8716 38.8724C28.9115 38.8724 28.9515 38.8757 28.9914 38.8757C29.038 38.8757 29.0812 38.8757 29.1245 38.8691L28.998 38.6595C28.815 38.3634 28.6188 38.0606 28.4158 37.7579C28.326 37.7512 28.2095 37.7279 28.0765 37.6947C28.3526 38.0906 28.6188 38.4865 28.8683 38.8724H28.8716ZM27.3844 37.4584C27.7171 37.9076 28.0365 38.3567 28.3393 38.7959C28.4458 38.8125 28.5589 38.8325 28.6687 38.8491C28.4092 38.4532 28.1264 38.0373 27.8236 37.6115C27.7005 37.5782 27.5541 37.525 27.3878 37.4584H27.3844ZM28.642 37.8044C28.815 38.064 28.9814 38.3201 29.1378 38.573C29.181 38.6428 29.3008 38.8458 29.3008 38.8458C29.3673 38.8325 29.4272 38.8125 29.4871 38.7859C29.3141 38.4798 29.1211 38.1505 28.9115 37.8111C28.8783 37.8111 28.865 37.8144 28.8516 37.8144C28.7851 37.8144 28.7152 37.8111 28.642 37.8011V37.8044ZM26.5427 37.0692C26.9287 37.5682 27.3113 38.0806 27.6772 38.5896C27.817 38.6362 27.9534 38.6828 28.0831 38.7194C27.767 38.2636 27.431 37.7945 27.0784 37.322C26.902 37.2488 26.7224 37.1623 26.5394 37.0692H26.5427ZM29.0912 37.7945C29.2875 38.1105 29.4671 38.4199 29.6302 38.7094C29.6634 38.6861 29.6934 38.6628 29.72 38.6362C29.73 38.6262 29.7366 38.6162 29.7466 38.6029C29.6202 38.3434 29.4638 38.0506 29.2908 37.7512C29.2309 37.7712 29.1644 37.7845 29.0945 37.7978L29.0912 37.7945ZM10.357 21.439C11.375 23.8877 14.1797 27.5773 17.7196 31.1172C20.3379 33.7356 23.0361 35.9547 25.3184 37.3719C26.0803 37.8444 26.7756 38.2137 27.3911 38.4665C27.0151 37.9508 26.6059 37.4119 26.1801 36.8662C25.8873 36.7099 25.6212 36.5535 25.3583 36.3905C23.2291 35.0697 20.7139 33.0003 18.2752 30.5616C15.8365 28.1229 13.7671 25.6077 12.4463 23.4785C12.2733 23.199 12.107 22.9162 11.9573 22.6434C11.415 22.2209 10.8727 21.8117 10.357 21.4357V21.439ZM29.4372 37.6814C29.5869 37.9442 29.7233 38.2004 29.8464 38.4466C29.8664 38.4033 29.8863 38.3567 29.8996 38.3002C29.8032 38.0939 29.69 37.851 29.5636 37.5982C29.5237 37.6281 29.4804 37.6547 29.4339 37.6814H29.4372ZM30.0693 38.3168C30.0693 38.3168 30.0826 38.3434 30.0893 38.3567C30.0859 38.3368 30.0793 38.3168 30.076 38.2968C30.076 38.3035 30.076 38.3102 30.0693 38.3168ZM29.69 37.4751C29.7898 37.6714 29.8764 37.851 29.9495 38.0174C29.9495 37.9741 29.9529 37.9309 29.9495 37.8843C29.8963 37.7313 29.8298 37.5549 29.7566 37.3753C29.7366 37.4119 29.7133 37.4451 29.6867 37.4751H29.69ZM28.5456 37.6481C28.6221 37.6481 28.7186 37.6547 28.8117 37.6547C28.5788 37.2821 28.3193 36.8862 28.0399 36.4803C27.9367 36.4637 27.8036 36.4238 27.6506 36.3705C27.9534 36.793 28.2528 37.2222 28.5356 37.6481H28.5456ZM28.2761 36.5435C28.5356 36.9295 28.7784 37.2987 28.998 37.6481C29.0745 37.6414 29.1411 37.6281 29.2043 37.6082C29.0712 37.3753 28.9282 37.1357 28.7751 36.8895C28.7252 36.8064 28.5788 36.5801 28.5788 36.5801C28.4823 36.5735 28.3825 36.5602 28.2761 36.5435ZM26.8654 36.0445C27.2514 36.5502 27.6107 37.0392 27.9367 37.5017C28.0532 37.5316 28.1796 37.5649 28.296 37.5882C27.9966 37.1424 27.6839 36.6966 27.3645 36.2574C27.2181 36.2042 27.0517 36.131 26.8621 36.0412L26.8654 36.0445ZM28.9149 36.803C29.0712 37.0559 29.2176 37.3021 29.354 37.5416C29.4072 37.515 29.4505 37.4851 29.4904 37.4485C29.3407 37.1557 29.1744 36.8529 28.998 36.5535C28.9215 36.5701 28.8483 36.5801 28.7751 36.5835C28.7751 36.5835 28.8716 36.7332 28.9115 36.7997L28.9149 36.803ZM25.894 35.5255C26.3498 36.0944 26.7889 36.6633 27.2048 37.2222C27.3578 37.2854 27.5175 37.3487 27.6672 37.4052C27.3113 36.9095 26.932 36.3938 26.5327 35.8781C26.3431 35.7816 26.1268 35.6652 25.894 35.5288V35.5255ZM29.1611 36.5103C29.3207 36.7864 29.4705 37.0559 29.6035 37.3121C29.6335 37.2655 29.6601 37.2156 29.6801 37.1623C29.5736 36.9428 29.4505 36.6899 29.3141 36.4271C29.2642 36.4604 29.2143 36.487 29.1611 36.5103ZM29.8398 37.1856C29.8398 37.1856 29.8531 37.2089 29.8597 37.2222C29.8564 37.2056 29.8497 37.1856 29.8464 37.169C29.8464 37.1756 29.8431 37.179 29.8398 37.1856ZM24.643 34.727C25.2219 35.4124 25.7808 36.0977 26.3065 36.7698C26.4995 36.8729 26.6958 36.9727 26.8887 37.0659C26.4529 36.4903 25.9838 35.8881 25.4881 35.2759C25.2319 35.1196 24.9591 34.9399 24.6463 34.7237L24.643 34.727ZM29.4405 36.3306C29.547 36.5335 29.6435 36.7332 29.7333 36.9295C29.7366 36.8962 29.7399 36.8596 29.7433 36.823C29.6834 36.65 29.6069 36.4504 29.517 36.2374C29.4938 36.2707 29.4671 36.3007 29.4405 36.3306ZM12.2833 22.9129C13.5542 25.0987 15.7666 27.8335 18.3883 30.4518C21.0066 33.0702 23.7414 35.2826 25.9272 36.5535C25.355 35.8315 24.7428 35.093 24.1107 34.3544C22.4672 33.1733 20.6773 31.6329 18.9406 29.8962C17.2072 28.1629 15.6635 26.373 14.4791 24.7228C13.7372 24.0873 12.9953 23.4752 12.2833 22.9096V22.9129ZM28.7086 36.4238C28.7818 36.4238 28.8483 36.4204 28.9115 36.4104C28.835 36.2807 28.7518 36.1476 28.6687 36.0112C28.5655 35.9813 28.4424 35.9347 28.316 35.8815C28.4391 36.0644 28.5555 36.2441 28.672 36.4238H28.7086ZM27.5641 35.5288C27.767 35.8083 27.96 36.0877 28.1497 36.3605C28.2495 36.3772 28.3626 36.3971 28.4657 36.4071C28.326 36.1909 28.1796 35.9713 28.0299 35.7484C27.8868 35.6885 27.7305 35.612 27.5641 35.5255V35.5288ZM29.0746 36.3672C29.1344 36.3472 29.1877 36.3206 29.2342 36.2873L29.1677 36.1676C29.0978 36.1609 29.0113 36.1376 28.9149 36.111C28.9681 36.1975 29.0213 36.284 29.0712 36.3705L29.0746 36.3672ZM26.6192 34.9965C26.9253 35.3891 27.2148 35.775 27.4809 36.1443C27.6173 36.1909 27.7571 36.2408 27.8935 36.2807C27.6772 35.9713 27.4543 35.6552 27.2214 35.3392C27.0085 35.2227 26.8089 35.1096 26.6192 34.9965ZM29.8264 36.111C30.1159 36.111 30.3355 36.0378 30.4819 35.8948C30.2456 35.8482 29.9762 35.7717 29.6867 35.6652C29.7366 35.8182 29.7799 35.968 29.8131 36.111H29.8264ZM29.6534 36.1044C29.6468 36.0744 29.6368 36.0412 29.6268 36.0079C29.6202 36.0278 29.6135 36.0445 29.6069 36.0644L29.6235 36.0711L29.6368 36.1044C29.6368 36.1044 29.6468 36.1044 29.6501 36.1044H29.6534ZM29.3174 36.0611C29.3474 36.0611 29.3873 36.0678 29.4272 36.0744C29.4339 36.0611 29.4405 36.0511 29.4438 36.0378C29.3507 35.8648 29.2509 35.6519 29.1344 35.429C29.0546 35.399 28.9614 35.3558 28.865 35.3092C29.0213 35.5687 29.1677 35.8216 29.2975 36.0644C29.3041 36.0644 29.3108 36.0644 29.3174 36.0644V36.0611ZM25.4016 34.198C25.8341 34.7237 26.2533 35.2493 26.6492 35.765C26.8255 35.8515 27.0052 35.938 27.1848 36.0145C26.8787 35.602 26.5527 35.1695 26.2067 34.7337C25.9538 34.574 25.681 34.391 25.4016 34.198ZM28.1763 34.9499C28.4025 35.2859 28.6154 35.612 28.8051 35.9147C28.8916 35.938 28.9847 35.9646 29.0779 35.9913C28.9282 35.7218 28.7651 35.4456 28.5921 35.1662C28.4624 35.1029 28.3227 35.0298 28.1763 34.9499ZM29.3773 35.5421C29.4239 35.6353 29.4705 35.7284 29.5104 35.8182C29.5204 35.7717 29.5237 35.7218 29.527 35.6719L29.4871 35.5754C29.4605 35.5754 29.4206 35.5587 29.374 35.5421H29.3773ZM27.2813 34.4143C27.5974 34.8401 27.8935 35.256 28.163 35.6519C28.2861 35.7018 28.4158 35.7584 28.5422 35.8049C28.3293 35.4689 28.0931 35.1129 27.8436 34.7503C27.7171 34.6804 27.5774 34.5972 27.431 34.5074C27.3811 34.4775 27.3312 34.4442 27.2813 34.4109V34.4143ZM30.7613 35.7717C30.8378 35.7783 30.911 35.785 30.9809 35.785C31.267 35.785 31.4866 35.7151 31.6363 35.582C31.4068 35.5421 31.1473 35.4689 30.8611 35.3658C30.8512 35.5188 30.8179 35.6552 30.7613 35.7717ZM29.6801 35.4889C30.0194 35.6186 30.3255 35.7051 30.5917 35.7484C30.6582 35.6319 30.6948 35.4855 30.7048 35.3092C30.3455 35.1728 29.9529 34.9932 29.5437 34.7769C29.6235 35.0397 29.6668 35.2793 29.6801 35.4889ZM23.7348 32.957C24.3735 33.6856 25.0023 34.4276 25.6012 35.1662C25.8274 35.3059 26.0636 35.439 26.2932 35.5687C25.8574 35.0098 25.3849 34.4276 24.8859 33.8354C24.5266 33.5759 24.1373 33.2798 23.7348 32.9604V32.957ZM26.1235 33.6391C26.5594 34.1847 26.9719 34.7237 27.3545 35.246C27.5209 35.3358 27.6939 35.4223 27.8602 35.5055C27.5475 35.053 27.2181 34.6006 26.8821 34.1548C26.6259 33.9884 26.373 33.8154 26.1235 33.6424V33.6391ZM31.9224 35.4656C31.9857 35.4722 32.0455 35.4722 32.1021 35.4722C32.3949 35.4722 32.6244 35.4024 32.7841 35.266C32.5612 35.226 32.3084 35.1628 32.0356 35.0697C32.0189 35.2194 31.979 35.3491 31.9224 35.4656ZM30.8645 35.2061C31.1938 35.3259 31.4899 35.4057 31.7461 35.4456C31.8226 35.3292 31.8659 35.1828 31.8825 35.0131C31.5332 34.8867 31.1572 34.7203 30.758 34.5174C30.8245 34.7736 30.8611 35.0031 30.8645 35.2061ZM28.672 34.2878C28.8882 34.6438 29.0879 34.9932 29.2642 35.3259C29.3074 35.3392 29.3607 35.3591 29.4139 35.3824C29.3008 35.0996 29.1577 34.7902 28.988 34.4675C28.8916 34.4176 28.7851 34.3544 28.6753 34.2878H28.672ZM27.8702 33.7821C28.1696 34.2113 28.4458 34.6338 28.6986 35.0397C28.8051 35.0996 28.9082 35.1529 29.0113 35.1994C28.8417 34.8834 28.652 34.5606 28.4524 34.2413L28.3559 34.0882C28.2029 33.9951 28.0399 33.8919 27.8735 33.7821H27.8702ZM29.0113 33.5093C29.211 33.8986 29.3673 34.2579 29.4771 34.5806C29.9063 34.8035 30.3255 34.9998 30.7014 35.1462C30.6915 34.9299 30.6449 34.6837 30.5617 34.4076C30.2024 34.2313 29.7998 33.9984 29.3806 33.7422C29.2575 33.6657 29.1344 33.5892 29.008 33.506L29.0113 33.5093ZM33.0902 35.1395C33.1468 35.1429 33.2 35.1462 33.2499 35.1462C33.5394 35.1462 33.7689 35.083 33.9286 34.9566C33.709 34.92 33.4662 34.8601 33.2033 34.7736C33.1834 34.9133 33.1434 35.0331 33.0869 35.1395H33.0902ZM32.0422 34.9C32.3649 35.0131 32.6544 35.0863 32.9072 35.1229C32.9771 35.0131 33.0237 34.88 33.0436 34.717C32.7176 34.6039 32.355 34.4475 31.9624 34.2546C32.0156 34.4908 32.0422 34.7104 32.0422 34.9ZM29.2342 34.6139C29.3174 34.7836 29.3973 34.9499 29.4638 35.1063C29.4339 34.9665 29.3906 34.8168 29.3374 34.6605C29.3074 34.6505 29.2708 34.6338 29.2342 34.6139ZM24.5232 32.438C25.1587 33.1766 25.7675 33.9185 26.3364 34.6372C26.5594 34.7769 26.7823 34.9133 26.9985 35.0397C26.566 34.4608 26.1036 33.8686 25.6178 33.2764C25.2751 33.0236 24.9058 32.7408 24.5232 32.438ZM26.7922 33.0435C27.2048 33.5825 27.6007 34.1215 27.9633 34.6505C28.1131 34.7337 28.2661 34.8201 28.4191 34.9033C28.143 34.4675 27.8303 34.0084 27.4909 33.5326C27.2647 33.3829 27.0318 33.2165 26.7922 33.0469V33.0435ZM13.9435 23.6781C14.1397 23.9775 14.356 24.2936 14.5856 24.613C16.259 26.0469 17.9425 27.6073 19.586 29.2508C21.2229 30.8877 22.7832 32.5678 24.2205 34.2446C24.5299 34.4642 24.8426 34.6804 25.1487 34.88C24.4534 34.0383 23.7081 33.1766 22.9329 32.3116C21.8118 31.3801 20.6839 30.3487 19.586 29.2508C18.4881 28.1529 17.4567 27.025 16.5185 25.8972C15.6668 25.1287 14.8018 24.3834 13.9435 23.6781ZM30.2922 33.3197C30.4652 33.6823 30.6016 34.0184 30.6948 34.3244C31.1007 34.5241 31.5066 34.707 31.8825 34.8468C31.8825 34.6438 31.8426 34.4109 31.7727 34.1481C31.3302 33.9385 30.8445 33.6657 30.3554 33.3629L30.2922 33.323V33.3197ZM34.2413 34.8335C34.2846 34.8335 34.3245 34.8368 34.3644 34.8368C34.6605 34.8368 34.9001 34.7702 35.0731 34.6372C34.8602 34.6039 34.6239 34.5473 34.3678 34.4675C34.3412 34.6072 34.2979 34.7303 34.238 34.8335H34.2413ZM33.2166 34.6139C33.5227 34.7137 33.8022 34.7836 34.055 34.8135C34.1316 34.707 34.1848 34.574 34.2114 34.4176C33.8987 34.3111 33.546 34.1681 33.1634 33.9851C33.21 34.218 33.2266 34.4276 33.2166 34.6139ZM31.5598 33.1101C31.7162 33.4627 31.8359 33.7855 31.9158 34.0716C32.3117 34.2579 32.701 34.4276 33.0536 34.554C33.0569 34.361 33.0303 34.1381 32.9704 33.8886C32.528 33.669 32.0522 33.4095 31.5565 33.1101H31.5598ZM35.5156 34.5041C35.8117 34.5041 36.0512 34.4409 36.2242 34.3178C36.018 34.2878 35.7917 34.2346 35.5422 34.1614C35.5123 34.2878 35.469 34.4043 35.4124 34.5008C35.449 34.5008 35.4823 34.5008 35.5156 34.5008V34.5041ZM34.3977 34.3011C34.7005 34.3976 34.9799 34.4608 35.2228 34.4875C35.3027 34.3843 35.3592 34.2579 35.3892 34.1182C35.0664 34.015 34.7238 33.8786 34.3611 33.7123C34.3977 33.9319 34.4077 34.1281 34.3944 34.3011H34.3977ZM28.3493 33.0668C28.3925 33.1334 28.4391 33.2032 28.479 33.2665C28.7152 33.6491 28.9282 34.0217 29.1111 34.371C29.1577 34.3943 29.2076 34.4209 29.2609 34.4509C29.1311 34.1115 28.9548 33.7322 28.7319 33.3197C28.6088 33.2432 28.4823 33.1567 28.3493 33.0668ZM25.2818 31.8891C25.8973 32.6243 26.4762 33.3463 26.9985 34.0416L27.095 34.1049C27.2347 34.198 27.3745 34.2912 27.5109 34.3743L27.614 34.4375C27.2114 33.8686 26.769 33.2764 26.2965 32.6742C25.9572 32.4214 25.6145 32.1586 25.2785 31.8891H25.2818ZM21.4125 29.7332C22.6868 31.0573 23.8944 32.3981 25.0123 33.7322C25.3151 33.9518 25.6145 34.1581 25.9039 34.3544C25.2419 33.526 24.5266 32.6776 23.7813 31.8325C22.9928 31.1771 22.201 30.4751 21.4158 29.7365L21.4125 29.7332ZM33.1202 33.7788C33.5194 33.9718 33.8953 34.1281 34.2347 34.2479C34.2447 34.0649 34.2247 33.8553 34.1781 33.6224C33.7689 33.4261 33.3098 33.18 32.8174 32.8905C32.9505 33.2099 33.0503 33.506 33.1168 33.7788H33.1202ZM27.3911 32.3848C27.797 32.9404 28.1663 33.4827 28.489 33.9984C28.6054 34.0683 28.7252 34.1381 28.8483 34.2113C28.6121 33.7788 28.3293 33.3164 28.0066 32.8273C27.807 32.6909 27.6007 32.5412 27.3911 32.3848ZM27.8968 31.6529C28.0831 31.9257 28.2362 32.1619 28.3726 32.3815C28.5456 32.6576 28.7086 32.9404 28.8583 33.2165C29.0546 33.343 29.2642 33.476 29.4671 33.6025C29.8131 33.8154 30.1558 34.015 30.4918 34.198C30.3821 33.8819 30.229 33.526 30.0327 33.1467C29.3607 32.7208 28.6387 32.2185 27.8935 31.6529H27.8968ZM36.6401 34.1914C36.9462 34.1914 37.1924 34.1248 37.3787 33.9984C37.1791 33.9718 36.9562 33.9219 36.7166 33.8553C36.6834 33.9784 36.6368 34.0915 36.5702 34.1914C36.5935 34.1914 36.6168 34.1914 36.6401 34.1914ZM35.5688 34.005C35.8649 34.0949 36.1344 34.1514 36.3739 34.178C36.4571 34.0749 36.517 33.9518 36.5536 33.8087C36.2475 33.7123 35.9115 33.5858 35.5555 33.4261C35.5854 33.6391 35.5888 33.832 35.5688 34.005ZM34.3245 33.516C34.7138 33.699 35.0797 33.8487 35.4124 33.9585C35.4324 33.7821 35.4224 33.5792 35.3858 33.353C34.9666 33.16 34.5208 32.9271 34.0617 32.6676C34.1815 32.977 34.268 33.2598 34.3245 33.516ZM29.3274 31.6129C29.3806 31.6961 29.4372 31.7793 29.4871 31.8625C29.7433 32.275 29.9728 32.6776 30.1625 33.0569C30.7014 33.3962 31.2271 33.7023 31.7195 33.9585C31.6263 33.6624 31.4899 33.323 31.3169 32.957C30.7014 32.5811 30.0294 32.1253 29.3274 31.6129ZM37.7713 33.8753C38.0807 33.8753 38.3335 33.8088 38.5265 33.6823C38.3269 33.6557 38.1106 33.6125 37.8811 33.5492C37.8445 33.669 37.7946 33.7788 37.728 33.8753C37.7413 33.8753 37.758 33.8753 37.7713 33.8753ZM36.7432 33.7056C37.026 33.7888 37.2922 33.8387 37.5351 33.862C37.6182 33.7655 37.6848 33.6457 37.7247 33.506C37.4253 33.4162 37.0959 33.2964 36.7499 33.1467C36.7699 33.3496 36.7665 33.5359 36.7432 33.7056ZM15.0214 25.1985C16.1426 26.6824 17.5299 28.2593 19.0537 29.7831C20.5774 31.3069 22.1544 32.6942 23.6349 33.8087C22.3341 32.3216 20.9368 30.8278 19.4729 29.3639C18.0057 27.8967 16.5119 26.4994 15.0214 25.1985ZM26.0037 31.3135C26.586 32.0321 27.1316 32.7408 27.6207 33.4261C27.797 33.5426 27.9766 33.6624 28.153 33.7755C27.7903 33.2199 27.3778 32.6343 26.9253 32.0321C26.6259 31.8059 26.3165 31.563 26.0037 31.3135ZM22.5537 29.5369C23.6915 30.7446 24.7595 31.959 25.7409 33.1633C26.0204 33.3696 26.3065 33.5692 26.5826 33.7588C25.9672 32.957 25.2951 32.1386 24.5865 31.3168C23.9111 30.7546 23.2324 30.1591 22.557 29.5369H22.5537ZM30.7214 31.5264C31.0075 32.0022 31.2537 32.448 31.4467 32.8539C31.9491 33.1567 32.4481 33.4395 32.9205 33.6757C32.8407 33.3862 32.7209 33.0702 32.5712 32.7308L32.478 32.6842C32.4215 32.651 32.3683 32.6177 32.3117 32.5844C31.8127 32.275 31.277 31.919 30.7214 31.5231V31.5264ZM35.5289 33.2398C35.9048 33.4095 36.2608 33.5493 36.5835 33.6524C36.6068 33.4794 36.6035 33.2798 36.5736 33.0635C36.1743 32.8838 35.7485 32.6709 35.2993 32.4214C35.4058 32.7175 35.4823 32.9936 35.5289 33.2398ZM38.9124 33.5526C39.2218 33.5526 39.478 33.486 39.6776 33.3596C39.478 33.3363 39.2684 33.2964 39.0488 33.2365C39.0122 33.353 38.959 33.4594 38.8925 33.5526C38.8991 33.5526 38.9091 33.5526 38.9158 33.5526H38.9124ZM37.9177 33.3962C38.2005 33.4727 38.46 33.5226 38.6928 33.5426C38.776 33.4494 38.8426 33.333 38.8891 33.1933C38.5897 33.1068 38.2703 32.9936 37.9343 32.8539C37.9476 33.0535 37.9409 33.2365 37.9143 33.3929L37.9177 33.3962ZM32.0788 31.4033C32.3317 31.8425 32.5446 32.2584 32.7176 32.6443C33.22 32.9371 33.7024 33.2032 34.1382 33.4162C34.0683 33.1434 33.9652 32.8406 33.8288 32.5079C33.6658 32.4214 33.4828 32.3149 33.2932 32.1952C32.9172 31.9623 32.508 31.6928 32.0788 31.4V31.4033ZM36.7266 32.9604C37.1026 33.1267 37.4519 33.2565 37.7646 33.353C37.7912 33.1899 37.7946 33.0003 37.7746 32.784C37.3887 32.6177 36.9695 32.4114 36.5303 32.1752C36.6235 32.458 36.69 32.7208 36.7266 32.9604ZM15.5404 24.4001C15.8831 24.8492 16.2524 25.3116 16.6383 25.7774C17.7495 26.7788 18.8607 27.8335 19.932 28.9048C21.0033 29.9761 22.058 31.0873 23.0627 32.2018C23.5252 32.5844 23.9843 32.9504 24.4301 33.2931C23.1093 31.7493 21.672 30.199 20.1549 28.6819C18.6278 27.1548 17.0775 25.7175 15.5404 24.4034V24.4001ZM40.2632 31.8192C40.3597 32.4347 40.2898 32.9071 40.0536 33.2299C40.4728 33.2299 40.7955 33.1201 41.0051 32.9071C41.2413 32.6709 41.3478 32.305 41.3245 31.8159C41.1714 31.8558 41.0051 31.8791 40.8321 31.8791C40.6757 31.8791 40.4927 31.8591 40.2632 31.8192ZM39.0888 33.0868C39.3782 33.1633 39.641 33.2066 39.8706 33.2232C40.1268 32.9471 40.2133 32.458 40.0968 31.7859C39.7275 31.7094 39.3216 31.5797 38.8925 31.4067C39.112 32.0954 39.1786 32.6576 39.0888 33.0868ZM33.4029 31.257C33.6292 31.6728 33.8188 32.0654 33.9719 32.4314C34.4443 32.6975 34.9134 32.9471 35.3492 33.1533C35.2927 32.8905 35.2028 32.5977 35.0797 32.285C34.8269 32.1519 34.5508 31.9889 34.2613 31.8092C33.9785 31.6329 33.6891 31.4466 33.3963 31.2536L33.4029 31.257ZM23.5551 29.2075C24.5964 30.3387 25.5613 31.4666 26.4329 32.5744C26.6958 32.7674 26.9553 32.957 27.2148 33.14C26.6492 32.3715 26.0204 31.573 25.345 30.7679C24.7561 30.2788 24.1573 29.7532 23.5584 29.2075H23.5551ZM37.9177 32.6776C38.2836 32.8339 38.623 32.957 38.9291 33.0435C39.0189 32.6144 38.9357 32.0321 38.6862 31.3069C38.2537 31.1372 37.7546 30.891 37.2223 30.5982C37.6116 31.4167 37.8445 32.1153 37.9177 32.6776ZM26.6425 30.6648C27.1948 31.3701 27.6905 32.0554 28.1164 32.7042C28.2628 32.804 28.4125 32.9071 28.5622 33.007C28.2628 32.4846 27.9001 31.9224 27.4843 31.3302C27.2114 31.1206 26.9286 30.8976 26.6425 30.6648ZM34.7071 31.0873C34.9167 31.4898 35.0897 31.8658 35.2195 32.2051C35.672 32.4547 36.1211 32.6842 36.537 32.8772C36.4904 32.6243 36.4105 32.3415 36.3007 32.0388C35.9181 31.8392 35.5755 31.6396 35.2394 31.43C35.0631 31.3202 34.8835 31.2071 34.7038 31.0906L34.7071 31.0873ZM25.2918 28.2993C26.1634 29.2974 26.9353 30.2755 27.594 31.2104C28.3825 31.8225 29.1577 32.3781 29.8897 32.8572C29.6368 32.3881 29.3241 31.8724 28.9614 31.3268C27.777 30.4452 26.546 29.4271 25.2918 28.2959V28.2993ZM16.0827 23.6415C16.4021 24.0607 16.7514 24.4932 17.1141 24.9324C18.2852 25.9671 19.4596 27.0749 20.6074 28.2194C21.7519 29.3639 22.8564 30.5383 23.8944 31.7094C24.3136 32.0554 24.7428 32.4014 25.1753 32.7308C23.8612 31.1571 22.4006 29.5635 20.8336 27.9932C19.2633 26.4229 17.6663 24.959 16.0827 23.6382V23.6415ZM27.3745 28.9081C28.0099 29.6999 28.5822 30.4751 29.0779 31.217C29.8065 31.756 30.5185 32.2517 31.1872 32.6776C30.9676 32.2451 30.6981 31.776 30.3821 31.2736C29.4206 30.5816 28.4058 29.7831 27.3745 28.9081ZM35.0931 29.2774C35.7185 30.2921 36.1776 31.1937 36.4571 31.9623C36.9029 32.1985 37.3421 32.4181 37.7513 32.5977C37.6582 32.0188 37.3986 31.2969 36.9728 30.4418C36.7233 30.3054 36.4471 30.1457 36.1643 29.9694C35.8316 29.7631 35.4723 29.5269 35.0931 29.2741V29.2774ZM29.1111 29.1709C29.6302 29.8596 30.0959 30.5284 30.4985 31.1638C31.1572 31.6362 31.7993 32.0687 32.4015 32.4414L32.4581 32.4746C32.2651 32.0687 32.0289 31.6296 31.7528 31.1705C30.9077 30.5816 30.0194 29.9095 29.1111 29.1709ZM24.4733 28.795C25.4282 29.8596 26.2965 30.911 27.0617 31.9257C27.2913 32.0987 27.5242 32.2684 27.7537 32.438C27.2613 31.7194 26.6858 30.9542 26.047 30.1657C25.5247 29.7299 24.999 29.2707 24.4733 28.795ZM30.7081 29.2907C31.084 29.8164 31.4234 30.3254 31.7228 30.8045C31.7727 30.8843 31.8892 31.0773 31.8892 31.0773C32.5246 31.5198 33.1468 31.9257 33.7323 32.275C33.5626 31.8957 33.353 31.4832 33.1035 31.044C32.3483 30.535 31.5398 29.9428 30.7114 29.2907H30.7081ZM16.6682 22.9262C16.9743 23.3188 17.297 23.7214 17.6297 24.1239C18.8507 25.1786 20.0851 26.3297 21.2894 27.5341C22.4971 28.7418 23.6449 29.9761 24.7062 31.2004C25.1055 31.5331 25.508 31.8558 25.9006 32.1586C24.6031 30.555 23.1292 28.9247 21.5157 27.3078C19.9021 25.6943 18.2719 24.2171 16.6649 22.9229L16.6682 22.9262ZM32.2086 29.3173C32.4381 29.6567 32.6511 29.9794 32.8374 30.2788C32.9804 30.5084 33.1102 30.7313 33.2333 30.9475C33.8388 31.3568 34.4343 31.7327 34.9966 32.0588C34.8502 31.7061 34.6572 31.3135 34.431 30.8943C33.729 30.4352 32.9771 29.8996 32.2086 29.3173ZM32.0089 26.9818C32.7608 27.9599 33.4129 28.8915 33.9519 29.7565C34.1682 30.1025 34.3711 30.4518 34.5574 30.7978C35.143 31.1804 35.7085 31.5298 36.2276 31.8225C35.9448 31.0906 35.5056 30.2489 34.93 29.3173L34.7504 29.0345C33.8754 28.4324 32.9538 27.7403 32.0089 26.9785V26.9818ZM40.2366 31.6529C40.4495 31.6928 40.6458 31.7128 40.8221 31.7128C40.9984 31.7128 41.1681 31.6928 41.3112 31.6495C41.2713 31.2603 41.1548 30.8045 40.9652 30.2888C40.5659 30.2123 40.1135 30.0659 39.6144 29.8596C39.9272 30.5417 40.1368 31.1438 40.2366 31.6562V31.6529ZM37.728 28.9048C38.2271 29.7698 38.5964 30.5516 38.8326 31.2237C39.2784 31.3967 39.7009 31.5364 40.0702 31.6229C39.9571 31.0939 39.7275 30.4651 39.3882 29.7532C38.8925 29.5436 38.3302 29.2541 37.7313 28.9081L37.728 28.9048ZM41.1448 30.3221C41.3145 30.7978 41.4243 31.227 41.4642 31.5996C41.574 31.5497 41.6705 31.4832 41.7537 31.4033C41.9866 31.1705 42.0897 30.8012 42.0597 30.3121C41.9134 30.3487 41.767 30.3653 41.6106 30.3653C41.4809 30.3653 41.3311 30.352 41.1448 30.3221ZM17.2937 22.2708C17.5732 22.6268 17.8726 22.9961 18.1854 23.3687C19.4463 24.43 20.7238 25.6044 21.9748 26.8554C23.2257 28.1063 24.4001 29.3839 25.4681 30.6514C25.8307 30.9509 26.1934 31.247 26.5527 31.5264C25.3117 29.9295 23.8146 28.2427 22.2043 26.6325C20.5874 25.0155 18.8973 23.5151 17.3004 22.2708H17.2937ZM17.5266 26.8055C18.2153 27.5873 18.9472 28.3625 19.7091 29.1244C20.471 29.8862 21.2495 30.6182 22.0313 31.3102C21.3094 30.535 20.5675 29.7665 19.8189 29.0179C19.0703 28.2693 18.3018 27.5307 17.5299 26.8088L17.5266 26.8055ZM35.2428 27.2879C35.5888 27.7836 35.9048 28.2593 36.1843 28.7118C36.5403 29.2874 36.853 29.8397 37.1092 30.3587C37.6349 30.6514 38.1505 30.911 38.623 31.1206C38.3635 30.4252 37.9642 29.6201 37.4352 28.7251L37.3321 28.6686C37.2523 28.622 37.1691 28.5721 37.0859 28.5222C36.5037 28.1595 35.8849 27.747 35.2428 27.2879ZM17.9192 20.1548C19.087 21.6786 20.4444 23.2522 21.9581 24.8326C22.3042 25.1586 22.6502 25.4913 22.9928 25.8373C23.3355 26.1833 23.6749 26.5326 24.0009 26.8787C25.5846 28.3958 27.1615 29.7565 28.682 30.9176C28.0997 30.0792 27.4144 29.1909 26.6425 28.276C25.5845 27.3478 24.5266 26.3563 23.4985 25.3283C22.4772 24.3069 21.4857 23.2523 20.5608 22.1976C19.6326 21.4158 18.7443 20.7304 17.9159 20.1548H17.9192ZM17.9325 18.691C18.7376 19.7822 19.6625 20.9234 20.6872 22.0878C21.7552 22.9861 22.8198 23.9675 23.8445 24.9923C24.8693 26.017 25.8507 27.0849 26.7523 28.1529C27.9168 29.1743 29.0579 30.0992 30.1458 30.9043C29.69 30.2123 29.1544 29.4737 28.5522 28.7085C27.0883 27.4875 25.6078 26.1301 24.1573 24.6795C22.71 23.2323 21.3526 21.7551 20.1283 20.2879C19.3598 19.6857 18.6212 19.1501 17.9325 18.6943V18.691ZM17.9292 25.8772C18.6944 26.7489 19.5095 27.6206 20.3612 28.4723C21.1996 29.3107 22.0679 30.1225 22.9429 30.891C22.1511 30.026 21.3327 29.1676 20.4976 28.3359C19.6592 27.4975 18.7975 26.6724 17.9292 25.8772ZM17.9791 21.6886C18.2419 22.0179 18.5114 22.3506 18.7875 22.6767C20.0784 23.7247 21.3793 24.9024 22.6535 26.1767C23.9277 27.4509 25.1088 28.7551 26.1601 30.0493C26.4928 30.3287 26.8255 30.5982 27.1482 30.8577C26.2466 29.6334 25.1321 28.3093 23.9111 27.0151C23.5584 26.679 23.2058 26.333 22.8531 25.9804C22.5104 25.6377 22.1744 25.2917 21.8417 24.9457C20.5375 23.7114 19.2067 22.5902 17.9791 21.6886ZM17.999 17.287C18.6644 18.2152 19.4197 19.1834 20.2448 20.1748C21.7119 21.3259 23.2091 22.6634 24.6896 24.1439C26.1668 25.6211 27.5042 27.1182 28.662 28.592C29.6501 29.4138 30.6183 30.169 31.5432 30.8344C31.1739 30.2456 30.7281 29.5968 30.2157 28.9048C28.4291 27.4742 26.6059 25.8273 24.8027 24.0274C22.9995 22.2242 21.356 20.401 19.9154 18.6078C19.23 18.1021 18.5846 17.6563 17.9957 17.287H17.999ZM27.4111 25.2551C28.5023 26.4528 29.4838 27.6405 30.3421 28.795C31.2238 29.5003 32.0888 30.1524 32.9172 30.728C32.8473 30.6115 32.7775 30.4918 32.701 30.3687C32.4281 29.9295 32.1221 29.467 31.7894 28.9946C30.3654 27.8901 28.8949 26.6358 27.4144 25.2551H27.4111ZM18.2419 14.5788C18.7543 15.3374 19.3298 16.1259 19.952 16.9277C21.9814 18.3583 24.2105 20.268 26.3897 22.4471C28.5688 24.6263 30.4785 26.8554 31.9158 28.8948C32.7143 29.5103 33.5061 30.0892 34.2713 30.6049C33.5859 29.3938 32.6078 27.9832 31.4367 26.516C29.8564 25.2085 28.2495 23.7413 26.6725 22.1643C25.0955 20.5873 23.6316 18.9837 22.3175 17.3968C21.1464 16.4652 20.0218 15.6634 18.9872 15.0213C18.7509 14.8749 18.5114 14.7319 18.2419 14.5821V14.5788ZM18.3717 24.9956C19.1968 25.9438 20.0851 26.892 21.0133 27.8202C21.9415 28.7484 22.8897 29.6334 23.8379 30.4618C22.9895 29.5169 22.0979 28.5721 21.1796 27.6538C20.2581 26.7323 19.3165 25.8406 18.3717 24.9956ZM41.0849 30.1557C41.2713 30.189 41.4409 30.2023 41.5973 30.2023C41.7636 30.2023 41.9134 30.1857 42.0464 30.1491C41.9999 29.7532 41.8768 29.2874 41.6738 28.7617C41.2347 28.6686 40.7356 28.4922 40.18 28.246C40.5626 28.9381 40.8687 29.5802 41.0849 30.1557ZM31.0774 23.9509C32.5945 25.6942 33.9053 27.411 34.8835 28.9414C35.5622 29.4105 36.2276 29.833 36.8497 30.199C36.6168 29.7532 36.3473 29.2841 36.0479 28.7983C35.6952 28.2327 35.286 27.6206 34.8302 26.9851C33.6292 26.1068 32.3649 25.0854 31.0807 23.9509H31.0774ZM38.0541 27.1016C38.1772 27.2912 38.3003 27.4808 38.4134 27.6671C38.8559 28.3824 39.2285 29.0545 39.5213 29.6633C40.0203 29.8729 40.4894 30.0293 40.8986 30.1191C40.6657 29.5203 40.3397 28.8516 39.9272 28.1263C39.3682 27.8701 38.7294 27.5208 38.0507 27.1016H38.0541ZM41.8535 28.7983C42.0331 29.2841 42.1496 29.7232 42.1961 30.0992C42.3159 30.0493 42.4157 29.9827 42.4989 29.9029C42.7318 29.67 42.8283 29.304 42.7917 28.8083C42.6553 28.8382 42.5222 28.8549 42.3858 28.8549C42.2361 28.8549 42.0664 28.8382 41.8535 28.7983ZM18.8607 24.1672C19.7357 25.1752 20.6773 26.1833 21.662 27.1681C22.6468 28.1529 23.6582 29.0978 24.663 29.9694C23.7813 28.9613 22.8398 27.9566 21.8583 26.9718C20.8736 25.987 19.8688 25.0455 18.8607 24.1672ZM35.0897 25.0388C35.9448 26.1467 36.6867 27.2047 37.2955 28.1862C37.3887 28.3392 37.4785 28.4856 37.565 28.6353C38.1738 28.9946 38.7527 29.304 39.2817 29.5469C39.0056 28.988 38.6662 28.3858 38.2703 27.7503C38.094 27.4642 37.9044 27.1748 37.7081 26.8787C36.8796 26.3563 35.998 25.7342 35.0864 25.0355L35.0897 25.0388ZM19.4064 23.402C20.3146 24.4466 21.2894 25.4913 22.3108 26.5127C23.3355 27.5374 24.3835 28.5155 25.4315 29.4271C24.5399 28.3758 23.5684 27.3245 22.5337 26.2898C21.509 25.2651 20.4577 24.2969 19.403 23.402H19.4064ZM41.7903 28.6286C41.9999 28.6686 42.1962 28.6919 42.3725 28.6919C42.5189 28.6919 42.6553 28.6786 42.775 28.6486C42.7218 28.246 42.5887 27.7736 42.3725 27.238C41.9267 27.1315 41.4043 26.9385 40.8254 26.6657C41.238 27.3877 41.5607 28.0498 41.7869 28.632L41.7903 28.6286ZM20.1416 14.3027C20.817 15.2575 21.5855 16.2589 22.4339 17.2803C24.0142 18.5412 25.6311 19.9918 27.2347 21.5954C28.835 23.1957 30.2856 24.8126 31.5532 26.3996C32.5712 27.2446 33.5726 28.0132 34.5241 28.6885C33.3564 26.9153 31.7761 24.929 29.9429 22.9262C29.2409 22.2774 28.5456 21.612 27.8835 20.9467C27.2214 20.2846 26.556 19.5892 25.9039 18.8839C23.9044 17.0508 21.9182 15.4704 20.1449 14.2994L20.1416 14.3027ZM42.5621 27.2746C42.7551 27.7736 42.8782 28.2194 42.9314 28.602C43.0578 28.5521 43.1643 28.4856 43.2475 28.4024C43.477 28.1728 43.5735 27.8036 43.5269 27.3045C43.4038 27.3311 43.2841 27.3444 43.1643 27.3444C42.9946 27.3444 42.7983 27.3211 42.5654 27.2746H42.5621ZM38.1905 25.1486C38.6895 25.844 39.1387 26.516 39.5279 27.1448C39.7176 27.4509 39.8906 27.7437 40.0503 28.0265C40.6258 28.2893 41.1548 28.4856 41.6039 28.592C41.3544 27.9799 41.0084 27.2879 40.5659 26.5327C40.0503 26.2865 39.4913 25.9737 38.9191 25.6177C38.6795 25.468 38.4367 25.3116 38.1871 25.1486H38.1905ZM20.3046 17.3835C21.845 19.3297 23.6183 21.306 25.5712 23.2589C27.5242 25.2118 29.4971 26.9818 31.4434 28.5222C30.0527 26.6158 28.2694 24.5598 26.2699 22.5602C24.2737 20.5641 22.2177 18.7775 20.3046 17.3801V17.3835ZM20.4444 11.6644C20.8802 12.3664 21.3892 13.1149 21.9581 13.8901C24.1706 15.4771 26.586 17.5598 28.9282 19.902C31.2737 22.2475 33.3564 24.6629 34.95 26.8853C35.7518 27.4709 36.5303 27.9965 37.2589 28.449C37.2256 28.3924 37.1924 28.3359 37.1558 28.2793C36.4538 27.1481 35.5788 25.9205 34.5541 24.6263C32.7542 23.209 30.9144 21.5621 29.0912 19.7423C27.268 17.9191 25.6211 16.0793 24.2005 14.2727C22.8464 13.1981 21.5622 12.2899 20.3878 11.5712L20.4477 11.6677L20.4444 11.6644ZM20.471 19.0303C21.8084 20.6572 23.3056 22.2974 24.9192 23.911C26.5327 25.5246 28.1763 27.0217 29.7998 28.3592C28.5555 26.7456 27.0484 25.0388 25.4182 23.4119C23.788 21.7817 22.0846 20.2746 20.471 19.0303ZM20.7871 20.8202C21.865 22.0745 23.0361 23.3321 24.2637 24.5631C25.4947 25.7941 26.7523 26.9652 28.0099 28.0431C26.9786 26.7855 25.8241 25.5146 24.5665 24.257C23.3156 23.006 22.0446 21.8516 20.7837 20.8169L20.7871 20.8202ZM34.411 22.3007C35.7418 23.8611 36.8929 25.3682 37.8378 26.7855C38.5332 27.2247 39.1919 27.6006 39.7874 27.8934C39.2451 26.9585 38.5731 25.9471 37.7879 24.8758C36.7199 24.1472 35.5821 23.2789 34.411 22.2974V22.3007ZM14.4824 22.9295C14.6787 23.2223 14.8883 23.5217 15.1112 23.8278C16.4387 24.939 17.7761 26.1434 19.1036 27.421C18.3617 26.6358 17.6597 25.8406 17.0009 25.0488C16.1592 24.3069 15.3142 23.5916 14.4858 22.9295H14.4824ZM21.529 23.036C22.201 23.7713 22.8997 24.5032 23.615 25.2152C24.3303 25.9305 25.0622 26.6325 25.7975 27.3045C25.1421 26.5659 24.4467 25.8307 23.7214 25.1054C23.0028 24.3867 22.2642 23.6914 21.529 23.0327V23.036ZM42.4889 27.1082C42.7351 27.1614 42.9547 27.1881 43.1477 27.1881C43.2674 27.1881 43.3839 27.1748 43.5003 27.1481C43.4438 26.7422 43.2974 26.2565 43.0711 25.7076C42.612 25.5878 42.0697 25.3749 41.4642 25.0788C41.8967 25.8173 42.2394 26.4994 42.4856 27.1082H42.4889ZM43.2608 25.7541C43.4637 26.2665 43.5968 26.7223 43.6534 27.1082C43.7864 27.0616 43.8962 26.9918 43.9827 26.9053C44.2123 26.6757 44.3021 26.3064 44.2489 25.804C44.1358 25.824 44.036 25.834 43.9295 25.834C43.7332 25.834 43.507 25.8074 43.2575 25.7508L43.2608 25.7541ZM38.6729 23.4053C39.295 24.2503 39.8506 25.0621 40.3197 25.8173C40.4528 26.0303 40.5759 26.2365 40.6924 26.4395C41.2812 26.7223 41.8269 26.9352 42.296 27.0583C42.0298 26.4262 41.6572 25.7109 41.1914 24.9324C40.7656 24.7194 40.3031 24.4566 39.8373 24.1672C39.468 23.9376 39.0788 23.6814 38.6729 23.402V23.4053ZM22.2676 11.3383C22.8498 12.2266 23.5385 13.1748 24.317 14.1629C26.1135 15.5902 27.9534 17.2371 29.7732 19.0569C31.5931 20.8768 33.2399 22.7133 34.6739 24.5165C35.652 25.285 36.6002 25.9737 37.4885 26.5559C36.4205 24.9923 35.1064 23.3221 33.5793 21.5888C32.4847 20.6372 31.3801 19.6059 30.3022 18.5246C29.2209 17.4433 28.1896 16.3388 27.2347 15.2409C25.508 13.7205 23.8379 12.403 22.2709 11.3317L22.2676 11.3383ZM22.2742 14.326C23.3555 15.7632 24.6097 17.2604 26.0104 18.7808C26.7091 19.4196 27.4044 20.085 28.0731 20.757C28.7419 21.4257 29.4072 22.1211 30.0494 22.8197C31.5631 24.2171 33.0603 25.4747 34.5042 26.5593C32.9605 24.4666 30.9942 22.2109 28.8051 20.0218C26.6192 17.8326 24.3635 15.8697 22.2709 14.326H22.2742ZM22.537 8.41725C22.9296 9.1758 23.442 10.0209 24.0608 10.9225C26.4229 12.6492 28.9881 14.8782 31.47 17.3602C33.9519 19.8421 36.181 22.4072 37.9177 24.7793C38.8159 25.3915 39.661 25.9038 40.4229 26.2964C39.834 25.3083 39.0987 24.237 38.2437 23.1025C36.1111 21.5921 33.7822 19.5859 31.5099 17.3169C29.2376 15.0446 27.2347 12.7124 25.7143 10.5731C24.7462 9.84453 23.8046 9.19577 22.923 8.65014C22.7899 8.56697 22.6635 8.49044 22.537 8.41725ZM15.0646 22.2442C15.2543 22.5203 15.4572 22.8064 15.6702 23.0959C16.8712 24.074 18.0855 25.142 19.2966 26.2831C18.6744 25.6078 18.0756 24.9257 17.51 24.247C16.6915 23.5417 15.8698 22.8663 15.0613 22.2442H15.0646ZM22.9862 17.9457C24.154 19.3164 25.4315 20.6938 26.7823 22.0479C28.133 23.3986 29.5137 24.6762 30.8844 25.844C29.7466 24.4666 28.479 23.0792 27.115 21.7152C25.7442 20.3445 24.3569 19.0802 22.9862 17.9457ZM43.1909 25.5745C43.4671 25.641 43.7166 25.6743 43.9295 25.6743C44.0393 25.6743 44.1424 25.6643 44.2389 25.6477C44.1757 25.2351 44.0193 24.7361 43.7731 24.1672C43.2807 24.0274 42.7185 23.7979 42.103 23.4818C42.5621 24.247 42.9281 24.949 43.1909 25.5745ZM43.9661 24.2204C44.1824 24.7427 44.3221 25.2085 44.3886 25.6078C44.5317 25.5612 44.6481 25.4913 44.738 25.4048C44.9609 25.1819 45.044 24.8093 44.9808 24.3036C44.8877 24.3169 44.8012 24.3235 44.7147 24.3235C44.5017 24.3235 44.2489 24.2903 43.9694 24.2204H43.9661ZM39.122 21.6187C39.8906 22.6268 40.5593 23.5916 41.1149 24.4899C41.1781 24.593 41.238 24.6895 41.2979 24.7893L41.3278 24.8359C41.9466 25.1453 42.5122 25.3815 42.998 25.5212C42.7118 24.8625 42.3159 24.1239 41.8235 23.3254C41.4709 23.1425 41.1182 22.9395 40.7589 22.7133C40.2399 22.3906 39.6909 22.0213 39.122 21.6154V21.6187ZM15.6968 21.6187C15.8764 21.8749 16.0661 22.1377 16.2657 22.4039C17.3669 23.2689 18.4948 24.2304 19.6226 25.2717C19.077 24.6729 18.5513 24.074 18.0589 23.4785C17.2571 22.8064 16.462 22.1776 15.6968 21.6154V21.6187ZM13.2548 22.527C13.3812 22.7532 13.5176 22.9894 13.6673 23.229C14.4026 23.8245 15.1478 24.4533 15.8798 25.0954C15.557 24.6895 15.2609 24.3002 14.9948 23.9343C14.4026 23.4419 13.817 22.9661 13.2548 22.527ZM24.1473 7.78513C24.5831 8.59358 25.152 9.49186 25.8407 10.46C27.98 12.0703 30.2889 14.0997 32.508 16.3188C34.7271 18.5379 36.7565 20.8468 38.3768 22.9961C39.3383 23.6781 40.2366 24.247 41.045 24.6795L40.9785 24.5697C40.3397 23.5384 39.5579 22.4272 38.6529 21.266C36.7565 19.8654 34.7071 18.0755 32.7276 16.0959C30.748 14.1164 28.9581 12.0669 27.5508 10.1639C26.3963 9.26896 25.2851 8.48712 24.2538 7.84501C24.2172 7.82173 24.1806 7.80176 24.1473 7.77847V7.78513ZM24.3502 11.3317C25.2053 12.5427 26.2167 13.8203 27.3612 15.1344C28.4591 16.1026 29.557 17.1373 30.6249 18.2019C31.6929 19.2699 32.7276 20.3711 33.6991 21.469C35.0099 22.6068 36.2874 23.6182 37.4985 24.4732C35.805 22.2109 33.6857 19.7922 31.3602 17.4666C29.0346 15.1411 26.6159 13.0218 24.3536 11.325L24.3502 11.3317ZM16.3888 21.0797C16.5551 21.3093 16.7281 21.5422 16.9078 21.7784C17.9159 22.5336 18.9672 23.402 20.0318 24.3601C19.5561 23.8345 19.0969 23.3055 18.6578 22.7831C17.8826 22.1543 17.1174 21.5821 16.3888 21.0831V21.0797ZM13.7971 21.8316C13.9202 22.0446 14.0599 22.2708 14.2096 22.5037C14.9249 23.0626 15.6635 23.6714 16.4021 24.3069C16.0993 23.9243 15.8165 23.555 15.557 23.2057C14.9648 22.7233 14.3726 22.2608 13.7971 21.8316ZM11.7676 21.9481C11.8608 22.1377 11.9639 22.3373 12.0737 22.5436C12.7324 23.056 13.4178 23.6116 14.1065 24.1938C13.8902 23.8777 13.7139 23.6082 13.5575 23.3587C12.9454 22.8563 12.3465 22.3872 11.7676 21.9514V21.9481ZM43.8929 24.0407C44.199 24.1239 44.4751 24.1638 44.708 24.1638C44.7978 24.1638 44.881 24.1572 44.9575 24.1472C44.8843 23.7114 44.7147 23.1957 44.4518 22.6101C43.9694 22.4771 43.3839 22.2209 42.7251 21.8682C43.2175 22.6634 43.6068 23.392 43.8896 24.0407H43.8929ZM44.6681 22.6833C44.8977 23.2157 45.0507 23.6947 45.1206 24.1073C45.2703 24.064 45.3934 23.9942 45.4865 23.901C45.7128 23.6748 45.7959 23.3022 45.7261 22.7965C45.6529 22.8064 45.5764 22.8131 45.4932 22.8131C45.2636 22.8131 44.9875 22.7698 44.6681 22.6833ZM24.7861 14.7385C26.1002 16.3587 27.5874 17.999 29.2076 19.6192C30.8279 21.2394 32.4681 22.7266 34.0883 24.0407C32.7675 22.4238 31.2803 20.7836 29.6601 19.1634C28.0432 17.5465 26.403 16.0593 24.7827 14.7352L24.7861 14.7385ZM39.508 19.7689C40.4495 20.9666 41.2546 22.1044 41.91 23.1591L41.95 23.2256C42.5987 23.5683 43.1876 23.8278 43.6933 23.9842C43.3872 23.3055 42.9647 22.5369 42.429 21.6986C42.1962 21.5721 41.9433 21.4257 41.6738 21.2594C40.9951 20.8369 40.2665 20.3345 39.5046 19.7689H39.508ZM14.3926 21.2028C14.5157 21.4058 14.6488 21.612 14.7885 21.825C15.4805 22.344 16.2091 22.9229 16.9477 23.545C16.6782 23.2057 16.4121 22.863 16.1559 22.5203C15.5604 22.0512 14.9648 21.6087 14.3926 21.2028ZM15.9762 18.9471C16.4553 19.6757 17.0076 20.4443 17.6231 21.2394C18.5513 21.8915 19.5295 22.6634 20.5309 23.5384C19.403 22.2874 18.385 21.0564 17.5 19.872C17.3004 19.7423 17.0941 19.6059 16.8945 19.4795C16.5817 19.2865 16.2757 19.1068 15.9796 18.9471H15.9762ZM12.8123 21.6353C12.8888 21.8117 12.9786 21.9946 13.0751 22.1843C13.5808 22.5702 14.1098 22.9894 14.6421 23.4286C14.4458 23.1491 14.2662 22.8763 14.0965 22.6135C13.6573 22.2708 13.2248 21.9414 12.809 21.6353H12.8123ZM25.7709 7.16963C26.2633 8.04463 26.902 9.01611 27.6739 10.0608C29.5703 11.5346 31.6031 13.3445 33.546 15.2875C35.4856 17.2271 37.2955 19.2599 38.7793 21.1662C39.814 21.9314 40.7855 22.5702 41.6638 23.0626C40.9419 21.9181 40.0369 20.6772 38.979 19.363C37.3521 18.1054 35.6087 16.5584 33.9419 14.8916C32.2751 13.2247 30.7247 11.4814 29.4605 9.84453C28.163 8.79986 26.922 7.89825 25.7709 7.17296V7.16963ZM11.4349 21.1662C11.4915 21.3193 11.5547 21.479 11.6279 21.6453C12.1735 22.0446 12.7424 22.4837 13.308 22.9362C13.1749 22.7066 13.0518 22.487 12.9487 22.2841C12.4397 21.8982 11.9273 21.5189 11.4349 21.1662ZM15.0547 20.6639C15.1711 20.8468 15.2942 21.0332 15.424 21.2195C16.0993 21.6986 16.808 22.2408 17.5266 22.8231C17.2738 22.507 17.0276 22.1943 16.7947 21.8882C16.1858 21.4324 15.6003 21.0165 15.0547 20.6605V20.6639ZM13.3346 20.9666C13.4178 21.1363 13.5076 21.3093 13.6074 21.489C14.1198 21.8616 14.6588 22.2741 15.2011 22.7066C15.0247 22.4571 14.855 22.2042 14.6787 21.9381C14.2229 21.5987 13.7705 21.2694 13.3346 20.9666ZM26.1734 10.9158C27.6539 12.932 29.537 15.0978 31.6363 17.1971C33.7356 19.2965 35.9015 21.1795 37.9177 22.66C36.354 20.6339 34.4509 18.488 32.3982 16.4353C30.3388 14.3759 28.1929 12.4728 26.1768 10.9158H26.1734ZM43.5037 20.5042C43.9528 21.2294 44.3221 21.9081 44.5949 22.517C44.9143 22.5968 45.2204 22.6501 45.4799 22.6501C45.5564 22.6501 45.6296 22.6467 45.6995 22.6368C45.6196 22.1976 45.4366 21.6719 45.1572 21.0698C44.6481 20.9134 44.0293 20.6306 43.3406 20.2447C43.3972 20.3312 43.4504 20.4177 43.5037 20.5042ZM45.3634 21.1463C45.6096 21.6986 45.776 22.1909 45.8525 22.6101C46.0089 22.5702 46.1353 22.5004 46.2351 22.4005C46.4613 22.1743 46.5345 21.8017 46.458 21.2893C46.3981 21.296 46.3382 21.2993 46.275 21.2993C46.0222 21.2993 45.7194 21.2461 45.3668 21.1463H45.3634ZM39.8007 17.8226C40.8853 19.1501 41.8135 20.421 42.5654 21.6021C43.2308 21.9714 43.843 22.2542 44.3753 22.4338C44.1125 21.8649 43.7731 21.2461 43.3639 20.5907C43.2541 20.4143 43.141 20.2347 43.0212 20.055C42.8915 19.9852 42.7484 19.8987 42.5987 19.8055C41.7404 19.2732 40.7988 18.6045 39.7974 17.8193L39.8007 17.8226ZM10.1075 20.7404C10.1474 20.8768 10.194 21.0198 10.2505 21.1662C10.7529 21.5222 11.2686 21.9048 11.7709 22.2941C11.6711 22.1011 11.5813 21.9115 11.5015 21.7351C11.039 21.3958 10.5666 21.0564 10.1075 20.7371V20.7404ZM12.5461 20.92C12.586 21.0598 12.6393 21.2028 12.6992 21.3525C13.0651 21.612 13.4511 21.9015 13.847 22.2076C13.7139 21.9913 13.5974 21.785 13.4877 21.5854C13.1749 21.3592 12.8589 21.133 12.5495 20.9167L12.5461 20.92ZM15.8232 20.2646C15.923 20.4143 16.0261 20.564 16.1359 20.7171C16.778 21.1363 17.4634 21.632 18.172 22.1843C17.9425 21.9015 17.7196 21.6187 17.5033 21.3426C16.9144 20.93 16.3489 20.564 15.8265 20.2646H15.8232ZM13.9335 20.4077C14.0167 20.5574 14.1031 20.7138 14.1963 20.8701C14.7153 21.2261 15.2576 21.6187 15.7999 22.0346C15.6269 21.7984 15.4639 21.5621 15.3075 21.3293C14.8417 20.9999 14.3793 20.6871 13.9368 20.4077H13.9335ZM11.2486 20.5341C11.2752 20.6539 11.3085 20.7836 11.3517 20.9167C11.7942 21.2195 12.2833 21.5788 12.7923 21.9647C12.7058 21.7817 12.6293 21.6087 12.5661 21.4457C12.1469 21.1463 11.7011 20.8369 11.2519 20.5341H11.2486ZM13.0352 20.2912C13.0851 20.4177 13.1417 20.5507 13.2049 20.6871C13.5908 20.9433 14.0033 21.2361 14.4292 21.5522C14.3959 21.5023 14.3627 21.4524 14.3327 21.4025C14.2429 21.2561 14.1564 21.1163 14.0765 20.9766C13.7239 20.7371 13.3745 20.5042 13.0385 20.2946L13.0352 20.2912ZM16.1526 17.643C16.5784 18.3117 17.0741 19.0237 17.6231 19.7589C18.3584 20.2447 19.1335 20.8169 19.9254 21.4524C19.047 20.421 18.2519 19.4096 17.5499 18.4381C17.0675 18.1354 16.5951 17.8659 16.1526 17.643ZM9.98102 20.1681C9.99433 20.2813 10.0176 20.3944 10.0476 20.5141C10.4701 20.7936 10.9259 21.1163 11.3817 21.4524C11.3185 21.2927 11.2619 21.1396 11.2153 20.9966C10.8061 20.7171 10.3869 20.431 9.98102 20.1681ZM14.6321 19.9818C14.7053 20.1049 14.7785 20.228 14.8584 20.3511C15.3641 20.6672 15.903 21.0332 16.4587 21.4357C16.3056 21.2261 16.1526 21.0198 16.0095 20.8136C15.5204 20.4942 15.0547 20.2114 14.6355 19.9785L14.6321 19.9818ZM18.0989 15.9063C18.6777 16.738 19.3332 17.6097 20.0451 18.498C21.1929 19.3497 22.3807 20.3312 23.5784 21.4224C22.1944 19.9386 20.9368 18.4647 19.8256 17.0341C19.23 16.6149 18.6478 16.2357 18.0989 15.9096V15.9063ZM27.4177 6.58076C27.5109 6.74046 27.604 6.90015 27.7072 7.0665C28.2262 7.90157 28.855 8.79985 29.5836 9.73806C31.2371 11.0689 32.9205 12.5893 34.5807 14.2494C36.2409 15.9096 37.7646 17.5964 39.1021 19.2532C40.2299 20.1249 41.2912 20.8535 42.256 21.4191C41.4243 20.1415 40.3863 18.7642 39.1753 17.3236C37.8345 16.2323 36.4804 15.0047 35.1529 13.6772C33.8288 12.3531 32.6011 10.999 31.5032 9.65156C30.066 8.44387 28.6919 7.40918 27.4177 6.58076ZM12.4164 20.3511C12.4297 20.4576 12.4496 20.574 12.4796 20.6938C12.7457 20.8635 13.0252 21.0598 13.308 21.2627C13.2215 21.093 13.1417 20.9333 13.0685 20.7736C12.8555 20.6339 12.6326 20.4875 12.4164 20.3478V20.3511ZM11.1787 20.0184C11.1787 20.1182 11.1887 20.2214 11.2054 20.3245C11.6112 20.5807 12.0371 20.8735 12.4629 21.1795C12.413 21.0332 12.3698 20.8967 12.3399 20.767C11.9639 20.5208 11.5713 20.2613 11.1821 20.0184H11.1787ZM43.9229 18.5978C44.0526 18.7941 44.1757 18.9871 44.2955 19.1767C44.6914 19.8155 45.0241 20.421 45.2803 20.9699C45.6562 21.0764 45.9922 21.1429 46.2584 21.1429C46.315 21.1429 46.3715 21.1429 46.4247 21.133C46.3349 20.6805 46.1386 20.1382 45.8392 19.5194C45.3036 19.3397 44.6515 19.0237 43.9229 18.5978ZM46.0521 19.6092C46.315 20.1748 46.4913 20.6772 46.5778 21.1063C46.7441 21.0664 46.8772 20.9999 46.977 20.9001C47.1999 20.6772 47.2698 20.3012 47.18 19.7822C47.1301 19.7855 47.0901 19.7889 47.0436 19.7889C46.7641 19.7889 46.4314 19.729 46.0521 19.6092ZM8.74006 19.8321C8.74672 19.9286 8.76002 20.0351 8.77999 20.1515C9.16924 20.3977 9.59177 20.6905 10.0209 20.9966C9.97437 20.8535 9.93445 20.7171 9.90118 20.5873C9.5219 20.3378 9.12932 20.0783 8.74339 19.8321H8.74006ZM13.6207 19.8022C13.6706 19.9086 13.7239 20.0151 13.7804 20.1282C14.1996 20.3811 14.6222 20.6605 15.0547 20.96C14.9415 20.7903 14.8318 20.6206 14.7286 20.4543C14.3427 20.2147 13.9667 19.9918 13.6207 19.8055V19.8022ZM14.6355 18.3416C14.9116 18.8473 15.2443 19.3996 15.6269 19.9785C15.8897 20.1149 16.1725 20.2813 16.452 20.4543C16.6716 20.5907 16.9078 20.7437 17.1839 20.93C16.625 20.1914 16.1193 19.4695 15.6835 18.7908C15.3075 18.6045 14.9515 18.4514 14.6355 18.3416ZM39.9405 15.73C41.2047 17.2105 42.286 18.6311 43.151 19.9585C43.8497 20.3644 44.4951 20.6772 45.0607 20.8801C44.7014 20.1382 44.209 19.3031 43.5968 18.3982L43.5669 18.3849L43.5136 18.3516C42.4191 17.6729 41.218 16.7913 39.9371 15.73H39.9405ZM28.0498 10.5632C29.3939 12.3198 31.0441 14.1862 32.8407 15.9828C34.6373 17.7794 36.5037 19.4295 38.2603 20.7736C36.843 18.997 35.2195 17.1905 33.4262 15.3973C31.6363 13.6073 29.8264 11.9804 28.0498 10.5632ZM9.95108 19.9585C10.337 20.2081 10.7362 20.4775 11.1355 20.757C11.1022 20.6306 11.0756 20.5075 11.0556 20.391C10.7695 20.2147 10.4668 20.0184 10.1707 19.8354C10.1174 19.8022 9.95441 19.7057 9.95441 19.7057C9.94775 19.7889 9.94443 19.872 9.94776 19.9552L9.95108 19.9585ZM12.8456 19.7622C12.8722 19.8554 12.8988 19.9486 12.9354 20.0484C13.2248 20.2214 13.5475 20.4276 13.8836 20.6572C13.8004 20.5108 13.7239 20.3678 13.654 20.2314C13.4045 20.0816 13.135 19.9253 12.8456 19.7656V19.7622ZM11.1821 19.8321C11.5314 20.0484 11.9007 20.2912 12.2833 20.5507C12.2633 20.4443 12.25 20.3378 12.2434 20.2413C11.904 20.0251 11.5613 19.8155 11.222 19.6192C11.202 19.6824 11.1887 19.7523 11.1821 19.8321ZM12.3997 20.1515C12.5794 20.2679 12.7624 20.3844 12.9454 20.5075C12.8921 20.3777 12.8456 20.2546 12.8023 20.1349C12.6892 20.075 12.5661 20.0018 12.443 19.9286L12.4197 19.9153C12.4064 19.9852 12.4031 20.065 12.4031 20.1515H12.3997ZM14.4758 19.729C14.8118 19.8953 15.1811 20.1116 15.5637 20.3478C15.6302 20.3877 15.6968 20.431 15.7633 20.4775C15.6735 20.3445 15.5837 20.2147 15.4972 20.0816C15.1046 19.8754 14.7253 19.699 14.3826 19.566C14.4126 19.6192 14.4425 19.6724 14.4758 19.729ZM28.3493 16.249C29.0147 16.9776 29.7067 17.6995 30.412 18.4082C31.1173 19.1135 31.8393 19.8055 32.5645 20.4676C31.8958 19.7423 31.2038 19.0203 30.5018 18.3183C29.7965 17.613 29.0746 16.9177 28.3493 16.249ZM8.73341 19.6392C9.10603 19.872 9.47865 20.1182 9.84462 20.3678C9.82466 20.2613 9.80802 20.1548 9.80137 20.055C9.62836 19.9419 9.45536 19.8321 9.28569 19.7257C9.11268 19.6192 8.94633 19.5194 8.77999 19.4229L8.75337 19.4063C8.74339 19.4728 8.73673 19.5493 8.73341 19.6358V19.6392ZM10.2572 19.699C10.51 19.8554 10.7662 20.0218 11.0257 20.1948C11.0157 20.1016 11.0157 20.0118 11.019 19.9219C10.6797 19.7123 10.3536 19.5194 10.0442 19.3464C10.0143 19.4096 9.99433 19.4695 9.9777 19.5327C9.9777 19.5327 10.184 19.6558 10.2538 19.699H10.2572ZM13.5109 19.5759C13.8303 19.7323 14.1797 19.9319 14.5456 20.1548C14.4791 20.045 14.4159 19.9352 14.3527 19.8288C14.0266 19.6658 13.7172 19.5227 13.4378 19.4096C13.461 19.4628 13.4843 19.5194 13.5109 19.5759ZM11.2852 19.4728C11.5247 19.6092 11.7709 19.7556 12.0238 19.912C12.087 19.9519 12.2434 20.0517 12.2434 20.0517C12.2434 19.9685 12.2567 19.8953 12.27 19.8288C11.9672 19.6525 11.6678 19.4894 11.3784 19.3397C11.3451 19.3763 11.3151 19.4229 11.2885 19.4728H11.2852ZM7.60223 19.373C7.92495 19.5726 8.25432 19.7855 8.58369 20.0051C8.57039 19.9053 8.56706 19.8088 8.56373 19.719C8.22438 19.5061 7.88503 19.2998 7.55898 19.1135C7.53902 19.1767 7.52572 19.2499 7.51573 19.3231L7.59558 19.373H7.60223ZM12.7591 19.3996C12.769 19.4495 12.779 19.5027 12.789 19.556C13.0119 19.6624 13.2614 19.8055 13.5209 19.9619C13.471 19.8621 13.4244 19.7623 13.3812 19.6658C13.1882 19.5726 12.982 19.4761 12.7857 19.3863C12.7857 19.3863 12.7657 19.3963 12.7557 19.3996H12.7591ZM12.7258 19.9053C12.6992 19.8122 12.6725 19.7257 12.6526 19.6392L12.6027 19.6258L12.5428 19.5926C12.5095 19.6392 12.4829 19.6891 12.4629 19.7456C12.5495 19.7955 12.6393 19.8521 12.7258 19.9053ZM8.79995 19.2399C8.98626 19.3497 9.17922 19.4661 9.37219 19.5859C9.51192 19.6724 9.65165 19.7622 9.79139 19.8521C9.79139 19.7722 9.79471 19.6924 9.80469 19.6125C9.47532 19.4129 9.15926 19.2333 8.86649 19.0736C8.83987 19.1201 8.81991 19.1734 8.79662 19.2366L8.79995 19.2399ZM13.6939 18.1287C13.8403 18.5046 14.0399 18.9205 14.2795 19.363C14.5822 19.4562 14.9415 19.6125 15.3275 19.8088C15.2476 19.6824 15.1678 19.5593 15.0913 19.4362C14.8384 19.0303 14.6122 18.6311 14.4126 18.2518C14.1531 18.1853 13.9069 18.1354 13.6939 18.1254V18.1287ZM29.0612 5.99189C29.72 7.07315 30.5783 8.26421 31.6097 9.53179C32.9405 10.6497 34.2879 11.8906 35.6087 13.2114C36.9295 14.5322 38.1672 15.8763 39.2884 17.2105C40.546 18.2352 41.7337 19.0902 42.815 19.7489C41.8235 18.2718 40.5826 16.6881 39.122 15.0413C38.2005 14.2428 37.2689 13.3711 36.3573 12.4595C35.4457 11.5479 34.5774 10.6164 33.7722 9.69148C32.1454 8.24758 30.5185 6.97002 29.0579 5.99189H29.0612ZM10.1208 19.2C10.4069 19.3597 10.713 19.5393 11.0357 19.739C11.0457 19.6691 11.0623 19.5992 11.0856 19.536C10.7828 19.363 10.4967 19.21 10.2372 19.0802H10.2339C10.2339 19.0802 10.2106 19.1002 10.2006 19.1102C10.174 19.1368 10.1474 19.1667 10.1241 19.1967L10.1208 19.2ZM16.3821 16.4253C16.7548 17.0241 17.1873 17.6663 17.6697 18.3383C18.2951 18.7309 18.9605 19.1933 19.6525 19.7157C18.914 18.8107 18.2386 17.9191 17.6431 17.0674C17.1839 16.7979 16.7481 16.5584 16.3489 16.3721L16.3821 16.4286V16.4253ZM11.5181 19.2233C11.7743 19.3564 12.0438 19.5061 12.3199 19.6658C12.3399 19.6125 12.3665 19.5626 12.3964 19.516C12.1469 19.3863 11.8974 19.2699 11.6412 19.1567C11.5979 19.1734 11.558 19.1967 11.5214 19.2199L11.5181 19.2233ZM44.4918 16.9343C44.7113 17.257 44.9076 17.5598 45.084 17.8426C45.4266 18.3949 45.7194 18.9239 45.9556 19.4063C46.3649 19.536 46.7375 19.6125 47.0402 19.6125C47.0768 19.6125 47.1101 19.6125 47.1434 19.6125C47.0436 19.1501 46.8306 18.5945 46.5112 17.959C45.9357 17.7494 45.2503 17.4001 44.4918 16.931V16.9343ZM46.7308 18.0522C47.0136 18.6411 47.2066 19.1567 47.2997 19.5926C47.4761 19.5593 47.6158 19.4928 47.7156 19.393C47.9385 19.17 47.9984 18.7941 47.9019 18.2651C47.8753 18.2651 47.8454 18.2718 47.8154 18.2718C47.5226 18.2718 47.1567 18.1986 46.7308 18.0489V18.0522ZM13.7438 19.363C13.8936 19.4296 14.0532 19.5027 14.2163 19.5859C14.1963 19.546 14.173 19.5094 14.1531 19.4695C14.0133 19.4295 13.8769 19.393 13.7438 19.363ZM7.61887 18.9604C7.90166 19.1235 8.19111 19.2931 8.48721 19.4795L8.57371 19.5327C8.58037 19.4528 8.59035 19.383 8.60366 19.3164C8.26098 19.1168 7.9682 18.9505 7.70537 18.8107C7.66878 18.8573 7.63883 18.9072 7.61554 18.9571L7.61887 18.9604ZM14.8783 17.1007C15.1345 17.5897 15.4406 18.1154 15.7966 18.671C16.1592 18.8507 16.5618 19.0769 16.9743 19.3331C17.0542 19.383 17.1374 19.4362 17.2239 19.4928C16.7115 18.7908 16.2557 18.1187 15.8631 17.4899C15.5105 17.3269 15.1744 17.1938 14.8783 17.1007ZM13.0152 19.3131C13.1051 19.3564 13.1949 19.3996 13.288 19.4462C13.2714 19.4063 13.2548 19.3663 13.2415 19.3297L13.1483 19.2998C13.1017 19.2998 13.0585 19.3064 13.0152 19.3131ZM8.9663 18.9405C9.24909 19.0935 9.54186 19.2599 9.83796 19.4395C9.8546 19.3763 9.87456 19.3198 9.90451 19.2599C9.62837 19.1068 9.35223 18.9638 9.08607 18.8373C9.0528 18.8606 9.01953 18.8839 8.98959 18.9139C8.97961 18.9238 8.97295 18.9305 8.9663 18.9405ZM10.3803 18.9771C10.6265 19.1035 10.886 19.2399 11.1455 19.3863C11.1688 19.3397 11.1987 19.2965 11.2286 19.2599C10.9658 19.1301 10.7229 19.017 10.5034 18.9238C10.4601 18.9372 10.4202 18.9571 10.3803 18.9771ZM11.904 19.0902C12.1003 19.18 12.2999 19.2798 12.4995 19.383C12.5295 19.353 12.5561 19.3297 12.586 19.3098V19.2965C12.3898 19.2133 12.2001 19.1401 12.0205 19.0802C11.9805 19.0802 11.9439 19.0835 11.904 19.0902ZM39.7142 13.2746C41.2879 15.0047 42.6586 16.7247 43.7133 18.2851C44.4585 18.7375 45.1405 19.0869 45.7327 19.3131C45.3401 18.5346 44.8045 17.6563 44.1358 16.7014C42.7817 15.8364 41.2646 14.6587 39.7142 13.2746ZM13.3313 19.1401C13.5409 19.1534 13.7838 19.2 14.0499 19.2798C13.8303 18.8606 13.6507 18.4747 13.5176 18.1254C13.3379 18.132 13.1849 18.1686 13.0685 18.2385C13.1117 18.5013 13.1982 18.8041 13.328 19.1434L13.3313 19.1401ZM6.44778 18.6876C6.74388 18.854 7.05328 19.037 7.36602 19.2266C7.37933 19.1567 7.39596 19.0869 7.41592 19.027C7.11982 18.8573 6.82705 18.6976 6.54426 18.5512C6.51099 18.5912 6.47772 18.6344 6.44778 18.6843V18.6876ZM12.7291 19.1834L12.799 19.2133C12.799 19.2133 12.8156 19.2033 12.8256 19.1967C12.7923 19.1867 12.7591 19.18 12.7291 19.1734V19.1834ZM7.81516 18.6843C8.09463 18.834 8.37742 18.9904 8.65356 19.1534C8.67352 19.0935 8.69681 19.0436 8.72343 18.9937C8.424 18.834 8.16782 18.7043 7.93826 18.5945C7.89168 18.6244 7.84843 18.651 7.81184 18.6843H7.81516ZM10.7995 18.8673C10.9691 18.9438 11.1521 19.0336 11.3551 19.1334C11.385 19.1102 11.415 19.0902 11.4449 19.0702C11.2453 18.9871 11.0556 18.9172 10.8793 18.8606C10.8527 18.8606 10.8228 18.8606 10.7961 18.864L10.7995 18.8673ZM12.7225 19.007C12.8655 19.0403 13.0152 19.0835 13.1649 19.1368C13.0585 18.854 12.982 18.5878 12.9354 18.345C12.7823 18.508 12.7191 18.7276 12.7191 19.007H12.7225ZM9.25907 18.7442C9.49529 18.8606 9.73815 18.9871 9.98102 19.1201C10.011 19.0736 10.0442 19.037 10.0775 19.0004C9.84795 18.8873 9.62171 18.7874 9.40546 18.6976C9.35223 18.7109 9.30565 18.7242 9.25907 18.7442ZM11.6711 18.9871C11.6711 18.9871 11.6811 18.9804 11.6878 18.9771C11.6578 18.9704 11.6279 18.9638 11.6013 18.9571C11.6246 18.9671 11.6478 18.9771 11.6711 18.9871ZM9.70156 18.6577C9.86458 18.7309 10.0343 18.8107 10.2106 18.8939C10.2405 18.8739 10.2705 18.854 10.3004 18.8407C10.1341 18.7741 9.96106 18.7142 9.77475 18.6544C9.77475 18.6544 9.72485 18.6544 9.70488 18.6544L9.70156 18.6577ZM6.67734 18.4414C6.93351 18.5745 7.203 18.7242 7.47581 18.8773C7.4991 18.8307 7.52904 18.7841 7.56231 18.7342C7.31279 18.6045 7.06327 18.4814 6.80043 18.3616C6.75718 18.3849 6.71726 18.4115 6.67734 18.4381V18.4414ZM8.13455 18.5146C8.35413 18.6211 8.58369 18.7409 8.81991 18.864C8.8432 18.834 8.85651 18.8174 8.87314 18.8008C8.88645 18.7874 8.90309 18.7741 8.91972 18.7608C8.69681 18.6544 8.48056 18.5612 8.27429 18.478C8.22438 18.488 8.1778 18.5013 8.13455 18.5146ZM30.0427 10.3236C31.2204 11.7941 32.5679 13.288 34.0484 14.7685C35.5256 16.2456 37.0227 17.5931 38.4966 18.7775C37.2756 17.3069 35.9181 15.8231 34.4576 14.3626C33.0004 12.9053 31.5166 11.5479 30.0427 10.3236ZM8.597 18.4414C8.75004 18.508 8.90641 18.5778 9.06943 18.6544C9.09938 18.6377 9.13265 18.6211 9.16592 18.6078C9.00955 18.5479 8.85983 18.4947 8.71677 18.4481H8.67685C8.65689 18.4448 8.6336 18.4414 8.61696 18.4414C8.61031 18.4414 8.60365 18.4414 8.60033 18.4414H8.597ZM5.53618 18.2019C5.7857 18.3283 6.04188 18.4647 6.30804 18.6111C6.33798 18.5645 6.36793 18.5213 6.39787 18.4814C6.14835 18.3549 5.90215 18.2385 5.66593 18.1287C5.61936 18.1487 5.57611 18.1753 5.53286 18.1986L5.53618 18.2019ZM7.00338 18.2817C7.21631 18.3816 7.43589 18.4913 7.66212 18.6078V18.6011C7.69539 18.5712 7.72866 18.5446 7.76193 18.518C7.55233 18.4215 7.34606 18.335 7.1298 18.2485C7.08655 18.2585 7.0433 18.2684 7.00005 18.2784L7.00338 18.2817ZM13.9801 16.9376C14.1198 17.3069 14.3028 17.7128 14.529 18.1453C14.8118 18.2219 15.1511 18.3549 15.5171 18.5313L15.4772 18.4681C15.1678 17.969 14.895 17.4866 14.6654 17.0341C14.4126 16.9809 14.1763 16.941 13.9834 16.941L13.9801 16.9376ZM7.47248 18.2185C7.6222 18.2817 7.77524 18.3483 7.93161 18.4215C7.96155 18.4048 7.99149 18.3915 8.02476 18.3782C7.86839 18.3183 7.71203 18.2684 7.55233 18.2185C7.55233 18.2185 7.47581 18.2185 7.47248 18.2185ZM5.87553 18.0555C6.08181 18.152 6.29473 18.2551 6.51431 18.3649C6.54426 18.3383 6.58085 18.3117 6.61745 18.2884C6.40452 18.1919 6.19825 18.1087 6.00196 18.0322C5.95871 18.0389 5.91878 18.0455 5.87886 18.0555H5.87553ZM6.37125 18.0056C6.51431 18.0655 6.6607 18.1287 6.80709 18.1986C6.82039 18.1853 6.84368 18.172 6.8703 18.162C6.71061 18.1054 6.55757 18.0522 6.41118 18.0089C6.41118 18.0089 6.37458 18.0089 6.37125 18.0089V18.0056ZM16.5385 15.0878C16.8912 15.6767 17.3004 16.3022 17.7562 16.9543L17.7994 16.9742C17.8726 17.0175 17.9425 17.0607 18.0157 17.1073C18.4981 17.4067 19.0071 17.7461 19.5295 18.1221C18.874 17.287 18.2785 16.4785 17.7562 15.7067C17.327 15.4671 16.9144 15.2542 16.5352 15.0878H16.5385ZM4.761 17.8293C4.95729 17.9191 5.16023 18.0156 5.36651 18.1187C5.39978 18.0921 5.43637 18.0688 5.47297 18.0455C5.27002 17.959 5.07373 17.8758 4.88409 17.806C4.84084 17.8126 4.80092 17.8193 4.761 17.8293ZM30.7014 0.954841C30.6881 1.28088 30.778 1.70008 30.9676 2.20246C31.3768 2.39542 31.8326 2.6516 32.2984 2.94437C34.5374 4.33172 37.1824 6.51089 39.7442 9.07267C42.3093 11.6378 44.4851 14.2827 45.8725 16.5184C46.1619 16.9842 46.4148 17.4334 46.6277 17.8559C47.0868 18.0189 47.4927 18.1087 47.8154 18.1087C47.8321 18.1087 47.8487 18.1087 47.8653 18.1087C47.3563 15.9495 44.4718 11.9605 40.6624 8.1511C36.8497 4.33838 32.854 1.45389 30.6981 0.954841H30.7014ZM15.1412 15.903C15.3774 16.3687 15.6602 16.8678 15.9829 17.3901C16.3788 17.5731 16.8246 17.816 17.3004 18.1054C16.9078 17.5498 16.5518 17.0142 16.2391 16.5151L16.076 16.2423C15.7434 16.1026 15.424 15.9828 15.1412 15.903ZM30.7214 0.795148C31.4833 0.96815 32.4614 1.42394 33.6292 2.14923C35.7784 3.48334 38.3202 5.57601 40.7822 8.03798C43.2475 10.5033 45.3368 13.0418 46.6709 15.191C47.3929 16.3554 47.8487 17.3302 48.025 18.0921C48.2113 18.0655 48.361 17.9989 48.4642 17.8958C48.9799 17.3801 48.5673 15.9429 47.3297 13.95C46.0554 11.8973 44.0593 9.47191 41.7038 7.11641C37.6582 3.0708 33.3996 0.133077 31.5831 0.133077C31.2936 0.133077 31.0741 0.20627 30.9244 0.355984C30.8212 0.45912 30.7513 0.608834 30.7214 0.791817V0.795148ZM13.2481 17.2005C13.0751 17.3968 13.0086 17.6895 13.0485 18.0721C13.1649 18.0156 13.3047 17.9823 13.461 17.969C13.3612 17.6895 13.2914 17.43 13.2481 17.1971V17.2005ZM13.6241 17.9657C13.8237 17.969 14.0532 18.0056 14.3094 18.0721C14.1065 17.6729 13.9401 17.297 13.8137 16.951C13.644 16.9676 13.4976 17.0142 13.3845 17.0874C13.4244 17.3402 13.5043 17.6363 13.6241 17.9657ZM30.738 5.44626C31.5432 6.70719 32.6311 8.13446 33.892 9.58835C34.8103 10.4035 35.7385 11.2751 36.6434 12.1801C37.5484 13.085 38.4234 14.0132 39.2418 14.9381C40.6757 16.1824 42.0997 17.2637 43.3672 18.0721C41.8934 15.9495 39.8373 13.5375 37.5617 11.2618C35.2794 8.97951 32.864 6.92011 30.738 5.44626ZM5.28333 17.796C5.40976 17.8492 5.53951 17.9058 5.67259 17.9624C5.6859 17.9524 5.70586 17.9424 5.72915 17.9324C5.58609 17.8825 5.44635 17.8359 5.31327 17.796H5.28333ZM31.0508 2.41206C31.307 3.0342 31.6995 3.75616 32.2185 4.56461C34.2613 5.98523 36.5103 7.9049 38.7128 10.1074C40.9086 12.3032 42.8249 14.5489 44.2556 16.595L44.3587 16.6582C44.4119 16.6948 44.4652 16.728 44.5184 16.7613C45.2137 17.1938 45.8492 17.5298 46.4081 17.7561C45.1738 15.3939 42.6486 12.2 39.6344 9.18579C36.6168 6.16822 33.4196 3.64304 31.0541 2.40873L31.0508 2.41206ZM18.6312 11.9871C18.7443 12.1801 18.8607 12.3764 18.9838 12.576C19.25 13.0052 19.5561 13.4709 19.8954 13.96C21.4158 14.9281 23.1292 16.2323 24.8693 17.7494C23.7348 16.4619 22.7134 15.201 21.8251 13.9899C21.1963 13.5408 20.5874 13.1316 20.0218 12.7822C19.5494 12.4895 19.0836 12.2233 18.6312 11.9871ZM4.18876 17.5798C4.3052 17.6263 4.42497 17.6762 4.54474 17.7295C4.55805 17.7195 4.57801 17.7128 4.6013 17.7028C4.47155 17.6596 4.34845 17.6163 4.22535 17.5831H4.18876V17.5798ZM14.2728 15.7632C14.3993 16.1092 14.5689 16.4985 14.7819 16.9243C15.0447 16.9842 15.3641 17.1007 15.7167 17.2604C15.414 16.7613 15.1511 16.2856 14.9349 15.8464C14.6987 15.7898 14.4858 15.7632 14.3061 15.7632C14.2928 15.7632 14.2828 15.7632 14.2695 15.7632H14.2728ZM13.5609 16.0394C13.3978 16.2323 13.3313 16.5218 13.3646 16.901C13.4777 16.8412 13.6108 16.8046 13.7571 16.7879C13.6673 16.5184 13.6008 16.2689 13.5609 16.0394ZM13.9534 16.7779C14.1397 16.7779 14.3493 16.8046 14.5756 16.8578C14.3859 16.4685 14.2296 16.1059 14.1131 15.7765C13.9501 15.7965 13.8104 15.8464 13.7006 15.9229C13.7372 16.1791 13.8104 16.4685 13.9202 16.7813H13.9534V16.7779ZM16.9876 12.5793C17.2871 13.105 17.6364 13.6739 18.0356 14.2761C18.365 14.4491 18.7177 14.6553 19.0637 14.8683C19.932 15.4072 20.8636 16.0593 21.8384 16.8112C21.0732 15.863 20.3778 14.9348 19.7623 14.0498C18.721 13.3878 17.7828 12.8887 16.9843 12.5793H16.9876ZM15.4007 14.672C15.6169 15.1145 15.8864 15.6002 16.1991 16.1225C16.5684 16.2822 16.9843 16.4952 17.4235 16.7447C17.1307 16.3155 16.8612 15.9096 16.6283 15.5303C16.5086 15.3374 16.3954 15.1477 16.2856 14.9614C15.9729 14.8383 15.6702 14.7385 15.4007 14.672ZM16.7681 13.8402C17.0941 14.4025 17.4701 14.9947 17.8826 15.6002C18.0855 15.7133 18.3085 15.8431 18.538 15.9861C18.8374 16.1724 19.1602 16.382 19.4995 16.6149C18.9206 15.853 18.3883 15.1045 17.9159 14.3925C17.5066 14.1763 17.1141 13.9866 16.7647 13.8402H16.7681ZM32.2285 10.2737C33.1601 11.3716 34.1781 12.4762 35.2594 13.5541C36.3307 14.6254 37.4286 15.6401 38.5331 16.575C37.5816 15.4804 36.5603 14.3892 35.4923 13.3212C34.421 12.2499 33.3231 11.2252 32.2285 10.2704V10.2737ZM32.4581 4.92392C33.7356 6.83361 35.5821 9.03274 37.6848 11.1321C39.7774 13.2247 41.9699 15.0679 43.8863 16.3421C42.4823 14.3892 40.6591 12.2732 38.5997 10.2171C36.5303 8.14777 34.411 6.32125 32.4581 4.92392ZM15.0414 15.7C15.3142 15.7665 15.6169 15.8697 15.9363 16.0028C15.6502 15.517 15.404 15.0546 15.2011 14.632C15.0081 14.5955 14.8351 14.5755 14.6887 14.5755C14.6488 14.5755 14.6089 14.5755 14.5689 14.5821C14.6887 14.9282 14.8451 15.3041 15.038 15.7H15.0414ZM13.8769 14.8882C13.7239 15.0779 13.6573 15.364 13.684 15.7366C13.7904 15.68 13.9168 15.6401 14.0599 15.6168C13.9767 15.3573 13.9135 15.1145 13.8802 14.8882H13.8769ZM14.3161 15.5969C14.4758 15.5969 14.6521 15.6168 14.8451 15.6534C14.6654 15.2775 14.519 14.9215 14.4092 14.5955C14.2595 14.6221 14.1264 14.6786 14.0167 14.7618C14.0466 15.0113 14.1165 15.2941 14.2163 15.6002C14.2495 15.6002 14.2795 15.6002 14.3128 15.6002L14.3161 15.5969ZM15.6768 13.4842C15.8831 13.9167 16.1293 14.3792 16.4121 14.8649C16.7614 15.0013 17.154 15.191 17.5665 15.4172C17.3702 15.1244 17.1839 14.835 17.0109 14.5522C16.8346 14.2694 16.6749 13.9999 16.5252 13.7338C16.2324 13.6306 15.943 13.5408 15.6768 13.4842ZM15.3175 14.4923C15.5737 14.5489 15.8598 14.6354 16.1692 14.7551C15.9064 14.296 15.6768 13.8535 15.4872 13.4443C15.3042 13.4144 15.1645 13.3977 15.0414 13.3977C14.9848 13.3977 14.9316 13.4011 14.8783 13.4077C14.9881 13.7404 15.1378 14.1031 15.3175 14.489V14.4923ZM14.1963 13.7437C14.0499 13.94 13.9834 14.2195 14.0033 14.5755C14.1065 14.5156 14.2262 14.4724 14.366 14.4491C14.2861 14.1929 14.2296 13.9567 14.1963 13.7471V13.7437ZM14.682 14.4191C14.8185 14.4191 14.9648 14.4324 15.1245 14.459C14.9582 14.0931 14.8218 13.7504 14.7186 13.4377C14.5689 13.4676 14.4425 13.5242 14.336 13.6073C14.3627 13.8502 14.4259 14.1263 14.5223 14.4258C14.5723 14.4225 14.6255 14.4191 14.6787 14.4191H14.682ZM20.9334 9.02942C21.2295 9.62495 21.6055 10.287 22.0546 10.9923C23.4619 11.9272 24.9657 13.0784 26.5294 14.4091C25.548 13.2347 24.6796 12.0969 23.941 11.0223C22.8797 10.2471 21.865 9.57504 20.9334 9.03274V9.02942ZM15.9463 12.2666C16.1359 12.6824 16.3721 13.1382 16.645 13.6173C16.9644 13.7338 17.337 13.9034 17.7429 14.113C17.6264 13.9334 17.5133 13.7537 17.4035 13.5774C17.1706 13.2014 16.9544 12.8355 16.7614 12.4828C16.4753 12.3897 16.1958 12.3131 15.9496 12.2666H15.9463ZM34.9799 10.7861C35.4657 11.3117 35.9681 11.8341 36.4771 12.3431C36.9861 12.8521 37.4885 13.3312 38.0208 13.8236C37.5351 13.3046 37.0393 12.7922 36.5336 12.2865C36.0246 11.7775 35.5056 11.2751 34.9799 10.7861ZM19.2866 9.53512C19.5295 10.0641 19.8422 10.6463 20.2148 11.2718C20.3446 11.345 20.4909 11.4315 20.6407 11.5247C21.6221 12.1335 22.6801 12.8754 23.788 13.7304C23.0893 12.8188 22.4638 11.9305 21.9315 11.0888C20.98 10.4567 20.0884 9.93103 19.2866 9.53512ZM16.2291 11.0722C16.4087 11.4814 16.6317 11.9206 16.8878 12.383C17.6364 12.6425 18.538 13.1016 19.5527 13.7271C19.2999 13.3545 19.067 12.9952 18.8574 12.6558C18.6811 12.373 18.5214 12.1002 18.3717 11.8341C17.5299 11.4215 16.8047 11.1587 16.2324 11.0689L16.2291 11.0722ZM17.7129 10.2005C17.9192 10.6696 18.1854 11.1853 18.4981 11.7376C19.0005 11.9804 19.5494 12.2899 20.1183 12.6425C20.5708 12.922 21.0466 13.238 21.5423 13.5841C21.0832 12.9419 20.6673 12.3231 20.308 11.7409C20.2281 11.6145 20.1549 11.4914 20.0817 11.3683C19.2067 10.8559 18.4049 10.4567 17.7096 10.2005H17.7129ZM15.597 13.2946C15.8432 13.3412 16.1193 13.4177 16.4121 13.5242C16.1626 13.0717 15.943 12.6392 15.7633 12.24C15.6336 12.2233 15.5238 12.2133 15.4273 12.2133C15.3474 12.2133 15.2643 12.22 15.1811 12.2333C15.2842 12.5593 15.424 12.9153 15.597 13.2946ZM14.519 12.5959C14.376 12.7956 14.3128 13.0684 14.3261 13.4144C14.4259 13.3512 14.5423 13.3079 14.6754 13.278C14.6022 13.0284 14.549 12.8022 14.519 12.5959ZM15.0547 13.238C15.1645 13.238 15.2842 13.248 15.4073 13.2647C15.251 12.9087 15.1212 12.5726 15.0247 12.2666C14.8817 12.3032 14.7586 12.3664 14.6588 12.4462C14.682 12.6858 14.7419 12.9553 14.8318 13.2514C14.9016 13.2447 14.9748 13.238 15.0547 13.238ZM15.8731 12.0969C16.1126 12.1335 16.3755 12.2 16.6583 12.2932C16.4187 11.8507 16.2158 11.4348 16.0494 11.0522C15.9596 11.0422 15.8731 11.0323 15.7899 11.0323C15.6901 11.0323 15.5903 11.0422 15.4838 11.0622C15.5803 11.3783 15.7101 11.7243 15.8731 12.0969ZM14.8351 11.4481C14.6987 11.6477 14.6355 11.9172 14.6454 12.2533C14.7453 12.1867 14.855 12.1401 14.9781 12.1069C14.9116 11.8707 14.8617 11.6477 14.8351 11.4481ZM14.9748 11.2884C14.9981 11.5313 15.048 11.7975 15.1312 12.0803C15.2277 12.0669 15.3275 12.057 15.4339 12.057C15.5138 12.057 15.6003 12.0603 15.6868 12.0703C15.5437 11.7343 15.424 11.4082 15.3308 11.0988C15.1911 11.142 15.0713 11.2053 14.9748 11.2884ZM16.1526 10.9025C16.7148 10.9757 17.4135 11.2086 18.2286 11.5978C17.9358 11.0689 17.6896 10.5665 17.4933 10.1074C16.9843 9.94766 16.5252 9.85451 16.1526 9.85451C16.0295 9.85451 15.9097 9.86781 15.7866 9.89443C15.8731 10.1972 15.9995 10.5365 16.1526 10.9025ZM17.2072 8.7566C17.2904 9.12257 17.4335 9.54843 17.6331 10.0175C18.2818 10.2305 19.057 10.5997 19.9187 11.0955C19.5694 10.4933 19.2799 9.9277 19.0504 9.41202C18.3584 9.09263 17.7329 8.86639 17.2072 8.7566ZM15.1511 10.3003C15.0181 10.5033 14.9549 10.7694 14.9615 11.0955C15.058 11.0289 15.1645 10.979 15.2842 10.9424C15.221 10.7162 15.1778 10.4999 15.1511 10.297V10.3003ZM15.2909 10.1306C15.3108 10.3635 15.3574 10.6264 15.4373 10.9092C15.5404 10.8892 15.6568 10.8792 15.7799 10.8792C15.8432 10.8792 15.9097 10.8792 15.9762 10.8859C15.8332 10.5432 15.7201 10.2238 15.6336 9.93103C15.5005 9.9776 15.384 10.0441 15.2909 10.1273V10.1306ZM18.7077 7.92153C18.7975 8.33075 18.9572 8.80318 19.1868 9.32219C19.779 9.595 20.4477 9.96762 21.163 10.4101C21.3493 10.5266 21.5356 10.6463 21.7286 10.7694C21.3127 10.094 20.9634 9.4586 20.6872 8.87638C19.9719 8.48046 19.3032 8.1511 18.711 7.92153H18.7077ZM20.2348 7.22287C20.3446 7.66868 20.5375 8.19767 20.817 8.78988C21.0865 8.93294 21.3793 9.10593 21.682 9.29557C22.3108 9.68483 22.9829 10.1373 23.6782 10.633C23.5152 10.3868 23.3555 10.1406 23.2091 9.90108C22.8498 9.31886 22.537 8.76326 22.2809 8.24425C21.5423 7.82173 20.8503 7.47239 20.2348 7.22287ZM21.7685 6.52087C21.8916 6.9933 22.1045 7.53893 22.404 8.14112C22.5903 8.24425 22.7965 8.36735 23.0095 8.4971C23.768 8.9662 24.5765 9.52181 25.4215 10.144C25.1421 9.73806 24.8859 9.34881 24.6563 8.97951C24.3602 8.50043 24.0974 8.0413 23.8745 7.61212C23.096 7.153 22.384 6.78038 21.7652 6.52087H21.7685ZM15.4672 9.14919C15.3408 9.34881 15.2776 9.61164 15.2776 9.93103C15.3674 9.86781 15.4739 9.81459 15.587 9.77799C15.5304 9.55841 15.4905 9.34881 15.4639 9.14919H15.4672ZM16.1426 9.69481C16.5019 9.69481 16.9311 9.77466 17.4202 9.93103C17.2372 9.48188 17.1074 9.07267 17.0342 8.72001C16.8446 8.68674 16.6683 8.6701 16.5152 8.6701C16.1126 8.6701 15.7999 8.77324 15.5936 8.98284C15.6203 9.18246 15.6668 9.44196 15.7434 9.73141C15.8664 9.7048 15.9995 9.69148 16.1459 9.69148L16.1426 9.69481ZM23.3022 5.81888C23.442 6.30795 23.6782 6.87686 24.0042 7.50899L24.0508 7.52895C24.144 7.58551 24.2405 7.64207 24.3369 7.70195C25.2319 8.25756 26.2 8.92961 27.2081 9.69481C26.8022 9.12923 26.4329 8.58028 26.1102 8.05794C25.8873 7.69863 25.6777 7.33599 25.4847 6.97667C24.6929 6.49426 23.9543 6.10168 23.3022 5.81556V5.81888ZM24.8393 5.12687C24.9957 5.63257 25.2552 6.22145 25.6112 6.88684L25.6644 6.91013C26.7191 7.56554 27.8602 8.374 29.0546 9.31221C28.4857 8.55366 27.9866 7.82505 27.5641 7.14302C27.3978 6.87686 27.248 6.62068 27.1083 6.37116C26.2899 5.85548 25.5213 5.43295 24.8393 5.12687ZM17.1706 8.58693C17.6797 8.68674 18.2818 8.89634 18.9605 9.20907C18.7509 8.7067 18.6079 8.25091 18.528 7.855C18.0123 7.66536 17.5566 7.54891 17.174 7.50899C17.0908 7.79511 17.0874 8.15775 17.1706 8.58693ZM29.4971 3.08744C29.7233 3.67298 30.0726 4.35168 30.5351 5.10691C32.0855 6.14825 33.8088 7.52229 35.5422 9.09928C34.1615 7.55224 32.9804 6.03181 32.1088 4.67108C31.6862 4.38163 31.2737 4.10549 30.8878 3.86927C30.412 3.57317 29.9429 3.31034 29.4938 3.08744H29.4971ZM26.3997 4.44151C26.5793 4.97716 26.8621 5.59597 27.2447 6.28133C28.4125 7.01659 29.6767 7.9415 31.0009 9.02276C30.2157 8.02134 29.547 7.07981 29.0147 6.22145C28.9215 6.07173 28.8317 5.92202 28.7485 5.77896C27.8968 5.22668 27.1017 4.77088 26.3997 4.44151ZM27.9334 3.75283C28.133 4.30844 28.4491 4.9572 28.8749 5.68248C30.1891 6.53751 31.6064 7.61545 33.0902 8.8797C32.0289 7.60214 31.1506 6.4011 30.4686 5.3032L30.412 5.20672C29.5137 4.60454 28.6786 4.11214 27.9367 3.75283H27.9334ZM16.8779 7.49235C16.4587 7.49235 16.1359 7.60214 15.9197 7.8184C15.7068 8.03133 15.6003 8.35072 15.597 8.76991C15.8232 8.60357 16.1293 8.51706 16.5086 8.51706C16.6616 8.51706 16.8279 8.53037 17.0043 8.55699C16.9311 8.14112 16.9344 7.78513 17.0109 7.49568C16.9644 7.49568 16.9211 7.48903 16.8779 7.48903V7.49235ZM18.6711 7.74187C19.2433 7.95813 19.8821 8.26088 20.5774 8.64681C20.3279 8.08788 20.1549 7.58884 20.0584 7.15633C19.5328 6.95338 19.067 6.83029 18.6744 6.78371C18.6046 7.03989 18.6046 7.3626 18.6744 7.74187H18.6711ZM20.1948 7.03323C20.7737 7.26279 21.4358 7.58551 22.1578 7.99473C21.8916 7.42249 21.6986 6.90348 21.5922 6.45101C21.0565 6.23808 20.5808 6.10167 20.1782 6.05177C20.115 6.3146 20.1217 6.6473 20.1982 7.03656L20.1948 7.03323ZM17.2272 7.35927C17.5965 7.40252 18.0257 7.50899 18.5014 7.67867C18.4482 7.32601 18.4515 7.01992 18.5114 6.76707H18.4881C18.4382 6.76042 18.3916 6.75709 18.345 6.75709C17.9392 6.75709 17.6264 6.86356 17.4202 7.06983C17.3403 7.14968 17.2738 7.24616 17.2239 7.35927H17.2272ZM21.7186 6.32791C22.3274 6.57411 23.0095 6.91679 23.7447 7.34929C23.4486 6.74711 23.239 6.20814 23.1193 5.74236C22.5703 5.51613 22.0846 5.37307 21.6754 5.31318C21.6155 5.586 21.6288 5.92534 21.7186 6.32791ZM18.7243 6.62401C19.1003 6.67059 19.5361 6.78703 20.0218 6.96669C19.9586 6.60405 19.9553 6.29131 20.0119 6.03181H19.9986C19.9353 6.02515 19.8755 6.0185 19.8189 6.0185C19.4263 6.0185 19.1236 6.12164 18.9239 6.32126C18.8441 6.40111 18.7776 6.50424 18.7277 6.62401H18.7243ZM23.2523 5.62592C23.8745 5.88875 24.5798 6.25472 25.345 6.71384C25.0223 6.08837 24.7894 5.52278 24.653 5.04037C24.0907 4.80083 23.595 4.64446 23.1758 4.58125C23.1226 4.85738 23.1492 5.21004 23.2523 5.62592ZM20.2215 5.88875C20.6041 5.94198 21.0466 6.06508 21.5456 6.25471C21.4724 5.87877 21.4624 5.55605 21.5157 5.28989C21.4391 5.28324 21.3626 5.27659 21.2894 5.27659C20.9101 5.27659 20.6174 5.37639 20.4211 5.56936C20.3379 5.65253 20.2714 5.75567 20.2215 5.88542V5.88875ZM24.7827 4.92725C25.4315 5.21005 26.1601 5.5993 26.9519 6.0917C26.5993 5.43295 26.3431 4.84408 26.1867 4.33172C25.6211 4.09218 25.1055 3.92251 24.6763 3.85264C24.6297 4.13543 24.6663 4.49807 24.7827 4.92725ZM21.7186 5.16014C22.1079 5.2167 22.5637 5.34978 23.0727 5.55272C22.9895 5.16347 22.9695 4.83077 23.0161 4.56128C22.9263 4.5513 22.8398 4.54465 22.7566 4.54465C22.3873 4.54465 22.1079 4.64113 21.9182 4.82744C21.8317 4.91394 21.7652 5.02374 21.7153 5.16014H21.7186ZM26.1901 3.12403C26.1535 3.42346 26.2034 3.80606 26.3364 4.25853C26.922 4.50805 27.594 4.87402 28.316 5.31983C28.4025 5.37307 28.489 5.42962 28.5788 5.48618C28.1896 4.79085 27.9035 4.17203 27.7271 3.64304C27.1516 3.39019 26.6292 3.2072 26.1901 3.12736V3.12403ZM27.6872 2.40873C27.6573 2.71481 27.7171 3.10074 27.8669 3.55987C28.3992 3.79275 29.0014 4.12545 29.6435 4.52469C29.8331 4.64113 30.0261 4.76756 30.219 4.89398C29.7932 4.17203 29.4804 3.5266 29.2808 2.96766C28.6853 2.69485 28.143 2.49856 27.6872 2.40873ZM23.2157 4.42821C23.615 4.49142 24.0808 4.63448 24.6031 4.85073C24.5066 4.4515 24.48 4.10882 24.5232 3.82935C24.4101 3.81604 24.3136 3.80939 24.2271 3.80939C23.8712 3.80939 23.6017 3.90254 23.4187 4.0822C23.3289 4.17203 23.2623 4.28847 23.2157 4.43153V4.42821ZM29.1943 1.67014C29.171 1.98953 29.2442 2.39209 29.4106 2.87118C29.8797 3.08411 30.4087 3.38021 30.9709 3.72954C31.2537 3.90587 31.5598 4.10549 31.8792 4.32174C31.4101 3.55986 31.0574 2.87118 30.8312 2.28231C30.2091 1.98288 29.6534 1.76995 29.1943 1.67014ZM24.7129 3.69627C25.1254 3.76614 25.6012 3.91918 26.1335 4.14541C26.0237 3.73619 25.9904 3.38353 26.027 3.09409C25.9039 3.07745 25.7941 3.06747 25.6977 3.06747C25.355 3.06747 25.0955 3.1573 24.9192 3.3303C24.826 3.42346 24.7595 3.54323 24.7129 3.69294V3.69627ZM26.2133 2.96766C26.6292 3.04418 27.1216 3.21053 27.6706 3.4534C27.5475 3.03087 27.5009 2.66824 27.5275 2.37546C27.3745 2.35217 27.2547 2.34219 27.1516 2.34219C26.8255 2.34219 26.5793 2.42536 26.4163 2.58506C26.3198 2.68154 26.2499 2.8113 26.21 2.96766H26.2133ZM27.7105 2.23573C28.1397 2.32223 28.6454 2.49856 29.211 2.76139C29.0712 2.3189 29.0113 1.94295 29.0346 1.63354C28.8816 1.60693 28.7518 1.59362 28.6354 1.59362C28.3193 1.59362 28.0798 1.67679 27.9168 1.83649C27.817 1.9363 27.7471 2.06938 27.7072 2.23573H27.7105ZM29.2143 1.50712C29.6501 1.60028 30.1691 1.79324 30.7613 2.07603C30.6016 1.61358 30.5318 1.22433 30.5451 0.908264C30.3687 0.874994 30.229 0.858361 30.1092 0.858361C29.8065 0.858361 29.5769 0.938207 29.4206 1.09125C29.3174 1.19438 29.2509 1.33412 29.2143 1.50712Z" fill="#5993C9"></path></svg> 