<?xml version="1.0" encoding="UTF-8"?> <svg xmlns="http://www.w3.org/2000/svg" width="56" height="46" viewBox="0 0 56 46" fill="none"><path d="M29.3093 33.8329C29.3093 40.337 26.8779 45.6289 23.887 45.6289C20.8962 45.6289 18.4648 40.337 18.4648 33.8329C18.4648 27.3288 20.8962 22.0369 23.887 22.0369C26.8779 22.0369 29.3093 27.3288 29.3093 33.8329ZM18.6469 33.8329C18.6469 40.2237 20.9979 45.4247 23.887 45.4247C26.7762 45.4247 29.1271 40.2256 29.1271 33.8329C29.1271 27.4402 26.7762 22.241 23.887 22.241C20.9979 22.241 18.6469 27.4402 18.6469 33.8329Z" fill="#5993C9"></path><path d="M30.1082 32.8324C30.1082 39.4998 27.3766 44.9236 24.0199 44.9236C20.6632 44.9236 17.9316 39.4998 17.9316 32.8324C17.9316 26.165 20.5336 21.5246 23.9838 21.5246C27.434 21.5246 30.1082 26.3859 30.1082 32.8324ZM18.1137 32.8324C18.1137 39.3866 20.7633 44.7194 24.0199 44.7194C27.2765 44.7194 29.9261 39.3866 29.9261 32.8324C29.9261 26.2783 27.3717 21.7288 23.9838 21.7288C20.596 21.7288 18.1137 26.5029 18.1137 32.8324Z" fill="#5993C9"></path><path d="M30.9052 31.8298C30.9052 38.6587 27.875 44.2161 24.1509 44.2161C20.4267 44.2161 17.3965 38.6605 17.3965 31.8298C17.3965 25.3591 20.0822 21.0101 24.077 21.0101C28.0719 21.0101 30.9036 25.4594 30.9036 31.8298H30.9052ZM17.5786 31.8298C17.5786 38.5473 20.5268 44.01 24.1509 44.01C27.775 44.01 30.7231 38.5454 30.7231 31.8298C30.7231 25.58 27.9899 21.2162 24.0787 21.2162C20.1675 21.2162 17.5786 25.4816 17.5786 31.8298Z" fill="#5993C9"></path><path d="M31.7009 30.8297C31.7009 37.8219 28.3721 43.5093 24.2821 43.5093C20.1921 43.5093 16.8633 37.8201 16.8633 30.8297C16.8633 27.5331 17.595 24.8417 18.978 23.043C20.2577 21.378 22.0558 20.4982 24.1738 20.4982C26.2918 20.4982 28.1441 21.378 29.4779 23.0412C30.9331 24.8565 31.7026 27.5498 31.7026 30.8297H31.7009ZM17.0421 30.8297C17.0421 37.7087 20.2889 43.3051 24.2805 43.3051C28.2721 43.3051 31.5188 37.7087 31.5188 30.8297C31.5188 23.3642 27.7241 20.7043 24.1722 20.7043C19.7081 20.7043 17.0421 24.489 17.0421 30.8297Z" fill="#5993C9"></path><path d="M32.5019 29.8275C32.5019 36.9813 28.8745 42.8022 24.4169 42.8022C19.9594 42.8022 16.332 36.9813 16.332 29.8275C16.332 23.4813 19.1522 19.9861 24.2726 19.9861C29.3929 19.9861 32.5035 23.5741 32.5035 29.8275H32.5019ZM16.5109 29.8275C16.5109 36.8699 20.0562 42.5981 24.4153 42.5981C28.7744 42.5981 32.3197 36.8699 32.3197 29.8275C32.3197 21.4432 27.2765 20.1903 24.2693 20.1903C20.7289 20.1903 16.5092 21.8627 16.5092 29.8275H16.5109Z" fill="#5993C9"></path><path d="M33.2989 28.8249C33.2989 36.142 29.3729 42.0947 24.5479 42.0947C19.7228 42.0947 15.7969 36.142 15.7969 28.8249C15.7969 25.3631 16.6073 22.9315 18.2758 21.3928C19.6769 20.099 21.6702 19.4716 24.3674 19.4716C27.0646 19.4716 29.1744 20.1176 30.6378 21.3909C32.4047 22.9297 33.3005 25.43 33.3005 28.8249H33.2989ZM15.9773 28.8249C15.9773 36.0287 19.8213 41.8906 24.5479 41.8906C29.2745 41.8906 33.1184 36.0287 33.1184 28.8249C33.1184 22.6698 30.2555 19.6758 24.3658 19.6758C18.476 19.6758 15.9773 22.5826 15.9773 28.8249Z" fill="#5993C9"></path><path d="M34.0978 27.8245C34.0978 35.3049 29.8733 41.3894 24.6808 41.3894C19.4882 41.3894 15.2637 35.3049 15.2637 27.8245C15.2637 20.3441 19.6851 18.9593 24.4642 18.9593C29.2433 18.9593 34.0995 20.0118 34.0995 27.8245H34.0978ZM15.4441 27.8245C15.4441 35.1916 19.5883 41.1834 24.6808 41.1834C29.7732 41.1834 33.9174 35.1898 33.9174 27.8245C33.9174 20.4591 29.1383 19.1654 24.4626 19.1654C19.0486 19.1654 15.4441 20.6373 15.4441 27.8245Z" fill="#5993C9"></path><path d="M34.8949 26.8225C34.8949 34.4644 30.3717 40.6826 24.8117 40.6826C19.2517 40.6826 14.7285 34.4663 14.7285 26.8225C14.7285 19.1788 19.1795 18.4474 24.5574 18.4474C29.9353 18.4474 34.8949 19.0878 34.8949 26.8225ZM14.909 26.8225C14.909 34.3512 19.3517 40.4766 24.8117 40.4766C30.2716 40.4766 34.7144 34.3512 34.7144 26.8225C34.7144 19.2939 29.9107 18.6516 24.5574 18.6516C19.2041 18.6516 14.909 19.253 14.909 26.8225Z" fill="#5993C9"></path><path d="M35.6938 25.8217C35.6938 33.627 30.8721 39.9751 24.9446 39.9751C19.0171 39.9751 14.1953 33.6251 14.1953 25.8217C14.1953 18.0184 18.8103 17.9348 24.6542 17.9348C30.498 17.9348 35.6938 17.9348 35.6938 25.8217ZM14.3758 25.8217C14.3758 33.5137 19.1171 39.7709 24.9446 39.7709C30.772 39.7709 35.5134 33.5137 35.5134 25.8217C35.5134 18.1297 30.4816 18.139 24.6542 18.139C18.8267 18.139 14.3758 18.139 14.3758 25.8217Z" fill="#5993C9"></path><path d="M36.4908 24.8247C36.4908 32.7914 31.3705 39.2732 25.0755 39.2732C18.7805 39.2732 13.6602 32.7914 13.6602 24.8247C13.6602 22.2595 14.1605 20.4497 15.1892 19.2933C16.8971 17.374 19.942 17.3944 23.4661 17.4204C23.8861 17.4241 24.3143 17.426 24.749 17.426C25.1838 17.426 25.6103 17.4223 26.0336 17.4204C29.8185 17.3944 33.0866 17.3703 34.9421 19.4566C35.9839 20.6279 36.4908 22.3838 36.4908 24.8247ZM13.8406 24.8247C13.8406 32.6782 18.8806 39.069 25.0755 39.069C31.2704 39.069 36.3104 32.6801 36.3104 24.8247C36.3104 22.4414 35.8215 20.7337 34.8141 19.6014C33.0128 17.5763 29.7791 17.5986 26.0353 17.6246C25.612 17.6283 25.1821 17.6301 24.749 17.6301C24.3159 17.6301 23.8844 17.6264 23.4644 17.6246C19.9798 17.6004 16.9709 17.5782 15.3155 19.4381C14.323 20.5536 13.8406 22.3151 13.8406 24.8247Z" fill="#5993C9"></path><path d="M37.2879 23.854C37.2879 31.9841 31.8689 38.5977 25.2064 38.5977C18.5439 38.5977 13.125 31.9841 13.125 23.854C13.125 21.3649 13.6041 19.6257 14.5884 18.5361C16.2028 16.7486 18.959 16.8173 22.4469 16.9045C23.2197 16.9231 24.017 16.9435 24.8439 16.9435C25.6707 16.9435 26.4664 16.9231 27.2457 16.9045C30.8895 16.8154 34.0362 16.7393 35.8031 18.6976C36.8022 19.8039 37.2879 21.4911 37.2879 23.854ZM13.3055 23.854C13.3055 31.8709 18.644 38.3916 25.2064 38.3916C31.7689 38.3916 37.1074 31.869 37.1074 23.854C37.1074 21.5487 36.6398 19.9115 35.6768 18.8442C33.964 16.9472 30.8534 17.0233 27.2506 17.1105C26.4697 17.1291 25.6642 17.1495 24.8455 17.1495C24.0268 17.1495 23.218 17.1291 22.4453 17.1105C18.9984 17.0252 16.2766 16.9565 14.7164 18.6846C13.7681 19.7333 13.3087 21.4243 13.3087 23.8559L13.3055 23.854Z" fill="#5993C9"></path><path d="M38.0849 22.9153C38.0849 31.2069 32.3657 37.9541 25.3374 37.9541C18.309 37.9541 12.5898 31.2087 12.5898 22.9153C12.5898 20.4856 13.0525 18.8039 14.0041 17.7737C15.5528 16.0957 18.2073 16.2238 21.5689 16.3872C22.6468 16.4391 23.7607 16.493 24.9387 16.493C26.1166 16.493 27.229 16.4391 28.3216 16.389C31.8735 16.222 34.9398 16.079 36.6461 17.9315C37.614 18.9821 38.0849 20.6118 38.0849 22.9153ZM12.7703 22.9153C12.7703 31.0937 18.4074 37.7481 25.3374 37.7481C32.2673 37.7481 37.9044 31.0937 37.9044 22.9153C37.9044 20.6712 37.4516 19.0898 36.5214 18.08C34.8709 16.2869 31.8391 16.4299 28.3298 16.5951C27.2355 16.647 26.1035 16.699 24.9387 16.699C23.7739 16.699 22.6418 16.6452 21.5607 16.5932C18.2417 16.4317 15.62 16.3055 14.1287 17.9222C13.2149 18.9116 12.7703 20.5469 12.7703 22.9172V22.9153Z" fill="#5993C9"></path><path d="M38.8819 22.0015C38.8819 30.4564 32.8641 37.3335 25.4683 37.3335C18.0724 37.3335 12.0547 30.4545 12.0547 22.0015C12.0547 19.62 12.5042 17.9847 13.4295 17.0065C14.929 15.4194 17.513 15.6143 20.7844 15.8612C22.1346 15.9633 23.5307 16.0691 25.0319 16.0691C26.533 16.0691 27.9308 15.967 29.3057 15.8668C32.7985 15.6143 35.814 15.3953 37.4792 17.1624C38.4225 18.1647 38.8819 19.7481 38.8819 22.0033V22.0015ZM12.2368 22.0015C12.2368 30.3431 18.1725 37.1293 25.4699 37.1293C32.7673 37.1293 38.7031 30.3431 38.7031 22.0015C38.7031 19.8056 38.2634 18.2705 37.3578 17.3109C35.75 15.6051 32.7706 15.8204 29.3204 16.071C27.9423 16.1712 26.5183 16.2733 25.0352 16.2733C23.5521 16.2733 22.0657 16.1619 20.7745 16.0654C17.5474 15.8222 14.9979 15.6292 13.5558 17.155C12.6683 18.0942 12.2384 19.6794 12.2384 22.0015H12.2368Z" fill="#5993C9"></path><path d="M39.6828 21.1104C39.6828 29.7267 33.3665 36.7375 25.6031 36.7375C17.8398 36.7375 11.5234 29.7267 11.5234 21.1104C11.5234 18.766 11.9631 17.1734 12.8687 16.2398C14.3322 14.7288 16.8653 14.9942 20.071 15.3284C21.5951 15.488 23.3227 15.6681 25.1323 15.6681C26.9419 15.6681 28.5972 15.501 30.2329 15.3377C33.6897 14.9943 36.6739 14.6991 38.3096 16.392C39.2349 17.3498 39.6845 18.8941 39.6845 21.1104H39.6828ZM11.7055 21.1104C11.7055 29.6135 17.9398 36.5334 25.6048 36.5334C33.2697 36.5334 39.504 29.6154 39.504 21.1104C39.504 18.9535 39.0742 17.4593 38.1882 16.5423C36.6116 14.9089 33.6634 15.2021 30.2493 15.54C28.6104 15.7033 26.9156 15.8704 25.1339 15.8704C23.3522 15.8704 21.5853 15.6903 20.0562 15.5307C16.8948 15.2003 14.3978 14.9404 12.9934 16.3901C12.1272 17.2829 11.7072 18.8273 11.7072 21.1104H11.7055Z" fill="#5993C9"></path><path d="M40.4798 20.2418C40.4798 29.0215 33.8649 36.1641 25.7341 36.1641C17.6032 36.1641 10.9883 29.0215 10.9883 20.2418C10.9883 17.929 11.4198 16.3716 12.309 15.477C13.7461 14.0328 16.2415 14.367 19.4013 14.7883C21.1469 15.0222 23.1238 15.2858 25.2255 15.2858C27.3271 15.2858 29.3155 15.0296 31.107 14.8032C34.5441 14.3688 37.5136 13.9939 39.128 15.6255C40.0369 16.5461 40.4798 18.0552 40.4798 20.2418ZM11.1704 20.2418C11.1704 28.9083 17.7033 35.9599 25.7341 35.9599C33.7648 35.9599 40.2977 28.9083 40.2977 20.2418C40.2977 18.1183 39.8761 16.6575 39.0066 15.7795C37.4529 14.2073 34.5211 14.5786 31.1267 15.0073C29.3303 15.2338 27.2943 15.4918 25.2255 15.4918C23.1567 15.4918 21.1305 15.2264 19.38 14.9925C16.2645 14.5767 13.8052 14.2463 12.4287 15.631C11.5805 16.483 11.1687 17.9921 11.1687 20.2418H11.1704Z" fill="#5993C9"></path><path d="M41.2788 19.388C41.2788 28.3292 34.3653 35.6055 25.8669 35.6055C17.3686 35.6055 10.4551 28.3311 10.4551 19.388C10.4551 17.0697 10.8685 15.5847 11.7544 14.716C13.1703 13.3276 15.641 13.7323 18.7697 14.2427C20.7236 14.562 22.9368 14.9221 25.3206 14.9221C27.7044 14.9221 29.9356 14.5712 31.9487 14.2631C35.5219 13.7156 38.3438 13.2812 39.9433 14.8627C40.8408 15.7499 41.2772 17.2293 41.2772 19.3899L41.2788 19.388ZM10.6372 19.388C10.6372 28.2179 17.4703 35.3994 25.8669 35.3994C34.2636 35.3994 41.0967 28.216 41.0967 19.388C41.0967 17.2905 40.6816 15.8613 39.8252 15.0149C38.288 13.4965 35.5022 13.9235 31.9733 14.4636C29.9537 14.7736 27.6667 15.1244 25.3223 15.1244C22.9778 15.1244 20.7039 14.7625 18.7451 14.4432C15.6624 13.9402 13.2277 13.5429 11.8742 14.8701C11.0408 15.6868 10.6372 17.1643 10.6372 19.388Z" fill="#5993C9"></path><path d="M42.0778 18.5472C42.0778 27.6517 34.8657 35.0579 25.9998 35.0579C17.134 35.0579 9.92188 27.6517 9.92188 18.5472C9.92188 16.2511 10.3287 14.7921 11.2048 13.955C12.6059 12.6167 15.0603 13.0881 18.1692 13.6858C20.3217 14.0997 22.7596 14.5694 25.419 14.5694C28.0785 14.5694 30.541 14.1146 32.7657 13.7155C36.3438 13.0714 39.169 12.5628 40.7587 14.0979C41.6446 14.9536 42.0761 16.4088 42.0761 18.5472H42.0778ZM10.104 18.5472C10.104 27.5385 17.2357 34.8537 25.9998 34.8537C34.7639 34.8537 41.8957 27.5385 41.8957 18.5472C41.8957 16.4738 41.4855 15.0687 40.6406 14.2538C39.1148 12.78 36.3258 13.2812 32.7936 13.9178C30.5607 14.3188 28.0309 14.7754 25.4174 14.7754C22.8039 14.7754 20.2954 14.3058 18.1364 13.89C15.075 13.3016 12.6568 12.8357 11.3197 14.1127C10.4994 14.896 10.1007 16.3476 10.1007 18.549L10.104 18.5472Z" fill="#5993C9"></path><path d="M42.8748 17.7178C42.8748 26.9839 35.3641 34.5237 26.1307 34.5237C16.8974 34.5237 9.38672 26.9839 9.38672 17.7178C9.38672 15.4384 9.7903 14.0018 10.6549 13.1962C12.0445 11.9006 14.4906 12.4407 17.5865 13.1256C19.9293 13.6435 22.5854 14.2301 25.5122 14.2301C28.4391 14.2301 31.1264 13.6639 33.5578 13.1628C37.1474 12.424 39.9824 11.8412 41.5672 13.3372C42.4449 14.167 42.8715 15.5999 42.8715 17.7197L42.8748 17.7178ZM9.56882 17.7178C9.56882 26.8725 16.9991 34.3195 26.1307 34.3195C35.2624 34.3195 42.6927 26.8725 42.6927 17.7178C42.6927 15.663 42.2874 14.2802 41.4524 13.4932C39.9332 12.0583 37.1343 12.6338 33.5922 13.3632C31.1526 13.8644 28.3882 14.4343 25.5139 14.4343C22.6395 14.4343 19.903 13.8459 17.552 13.3261C14.5021 12.6523 12.0937 12.1214 10.7697 13.3539C9.96093 14.1076 9.56719 15.535 9.56719 17.7178H9.56882Z" fill="#5993C9"></path><path d="M43.6698 16.8973C43.6698 26.3267 35.8606 33.9983 26.2597 33.9983C16.6589 33.9983 8.84961 26.3267 8.84961 16.8973C8.84961 14.6346 9.24828 13.2165 10.1063 12.4369C11.4877 11.1803 13.9306 11.7872 17.0231 12.5557C19.5513 13.1831 22.4158 13.8959 25.6068 13.8959C28.7978 13.8959 31.7033 13.2072 34.3348 12.6003C37.9425 11.7687 40.7939 11.1116 42.3754 12.5724C43.2466 13.378 43.6698 14.7905 43.6698 16.8955V16.8973ZM9.03172 16.8973C9.03172 26.2135 16.7606 33.7941 26.2597 33.7941C35.7588 33.7941 43.4877 26.2153 43.4877 16.8973C43.4877 14.8574 43.0858 13.4968 42.2606 12.732C40.7446 11.3325 37.9326 11.9803 34.3709 12.8026C31.7312 13.4114 28.7387 14.1019 25.6068 14.1019C22.4749 14.1019 19.5201 13.3873 16.9837 12.7562C13.9388 11.9988 11.5336 11.4012 10.2195 12.5965C9.42054 13.3242 9.03172 14.7312 9.03172 16.8973Z" fill="#5993C9"></path><path d="M44.4714 16.0858C44.4714 25.6786 36.3635 33.4819 26.3968 33.4819C16.4301 33.4819 8.32227 25.6786 8.32227 16.0858C8.32227 13.8343 8.71766 12.4347 9.56749 11.6793C10.944 10.456 13.3868 11.1298 16.481 11.9818C19.0535 12.6909 22.2559 13.5726 25.7094 13.5726C29.1629 13.5726 32.2784 12.7558 35.1052 12.0375C38.7375 11.1131 41.6069 10.3818 43.1884 11.8129C44.053 12.5962 44.473 13.9921 44.473 16.084L44.4714 16.0858ZM8.5011 16.0858C8.5011 25.5653 16.5286 33.2759 26.3952 33.2759C36.2618 33.2759 44.2893 25.5635 44.2893 16.0858C44.2893 14.0607 43.8906 12.715 43.072 11.9744C41.5577 10.6045 38.726 11.3247 35.1413 12.238C32.3047 12.96 29.0907 13.7786 25.7061 13.7786C22.3216 13.7786 19.0174 12.8932 16.4351 12.1823C13.3885 11.3433 10.9833 10.6806 9.67577 11.8407C8.88499 12.5442 8.49945 13.9327 8.49945 16.0858H8.5011Z" fill="#5993C9"></path><path d="M45.2665 15.2808C45.2665 25.035 36.8583 32.9702 26.5258 32.9702C16.1933 32.9702 7.78516 25.035 7.78516 15.2808C7.78516 13.0404 8.17726 11.6557 9.02053 10.9225C10.3921 9.72899 12.8415 10.4678 15.9423 11.4033C18.6821 12.2293 22.0912 13.2576 25.8007 13.2576C29.5101 13.2576 32.8356 12.3072 35.8543 11.4682C39.5145 10.4511 42.4069 9.64919 43.9901 11.0543C44.8497 11.8172 45.2681 13.2 45.2681 15.2808H45.2665ZM7.96562 15.2808C7.96562 24.9218 16.2917 32.766 26.5258 32.766C36.7599 32.766 45.086 24.9218 45.086 15.2808C45.086 13.2669 44.6906 11.936 43.8785 11.2158C42.3642 9.87193 39.5096 10.6645 35.897 11.6687C32.8684 12.5095 29.4362 13.4636 25.8007 13.4636C22.1651 13.4636 18.646 12.4316 15.8947 11.6019C12.8431 10.6812 10.4315 9.95359 9.13045 11.0859C8.34624 11.7671 7.96562 13.1406 7.96562 15.2827V15.2808Z" fill="#5993C9"></path><path d="M46.0654 14.4806C46.0654 24.3981 37.3587 32.4651 26.6587 32.4651C15.9587 32.4651 7.25195 24.3963 7.25195 14.4806C7.25195 12.2476 7.64242 10.8777 8.47913 10.1649C9.84904 8.99927 12.3067 9.80114 15.4173 10.8183C18.3211 11.7668 21.9337 12.9474 25.8958 12.9474C29.8579 12.9474 33.3885 11.8578 36.5958 10.8944C40.2889 9.78627 43.2058 8.91202 44.794 10.2949C45.6487 11.0392 46.0654 12.4091 46.0654 14.4824V14.4806ZM7.43242 14.4806C7.43242 24.2849 16.0571 32.2609 26.6587 32.2609C37.2603 32.2609 45.885 24.2849 45.885 14.4806C45.885 12.4759 45.4929 11.1598 44.684 10.4564C43.1665 9.13476 40.2872 9.99975 36.6434 11.093C33.4262 12.0583 29.7775 13.1515 25.8974 13.1515C22.0174 13.1515 18.2818 11.9673 15.368 11.0151C12.305 10.0146 9.88677 9.22387 8.58905 10.3283C7.8114 10.9891 7.43406 12.3478 7.43406 14.4806H7.43242Z" fill="#5993C9"></path><path d="M46.8625 13.6859C46.8625 23.765 37.8572 31.9656 26.7896 31.9656C15.7221 31.9656 6.7168 23.765 6.7168 13.6859C6.7168 11.4604 7.10398 10.1017 7.93741 9.40559C9.30732 8.26218 11.7764 9.129 14.9018 10.226C17.9648 11.3007 21.7776 12.639 25.9923 12.639C30.207 12.639 33.9394 11.4047 37.3322 10.3133C41.0596 9.11603 44.0045 8.16936 45.5975 9.5318C46.449 10.2594 46.8625 11.6181 46.8625 13.6841V13.6859ZM6.89726 13.6859C6.89726 23.6518 15.8205 31.7614 26.7896 31.7614C37.7587 31.7614 46.682 23.6536 46.682 13.6859C46.682 11.6887 46.2915 10.3838 45.4876 9.697C43.9668 8.39582 41.0596 9.32948 37.3814 10.5119C33.9771 11.6052 30.1184 12.8451 25.9923 12.8451C21.8662 12.8451 17.9221 11.5012 14.8476 10.4228C11.7715 9.34248 9.34177 8.49047 8.04569 9.57263C7.2746 10.2167 6.89891 11.5625 6.89891 13.6878L6.89726 13.6859Z" fill="#5993C9"></path><path d="M47.6614 12.8969C47.6614 23.1393 38.3575 31.4717 26.9225 31.4717C15.4875 31.4717 6.18359 23.1393 6.18359 12.8969C6.18359 10.6769 6.56914 9.32745 7.39765 8.64994C8.76919 7.52881 11.2514 8.45691 14.3932 9.63372C17.6153 10.8402 21.6233 12.34 26.0891 12.34C30.5548 12.34 34.6629 10.8941 38.0622 9.73394C41.8274 8.44761 44.8018 7.4323 46.4014 8.77617C47.2496 9.48894 47.6631 10.8384 47.6631 12.8987L47.6614 12.8969ZM6.36406 12.8969C6.36406 23.0261 15.5859 31.2656 26.9225 31.2656C38.2591 31.2656 47.4809 23.0261 47.4809 12.8969C47.4809 10.9052 47.0921 9.61145 46.2931 8.93952C44.7674 7.6569 41.8307 8.65922 38.1147 9.92885C34.7039 11.0945 30.458 12.5442 26.0891 12.5442C21.7201 12.5442 17.571 11.037 14.3374 9.82675C11.2449 8.6685 8.802 7.75526 7.50592 8.81514C6.73976 9.44253 6.3657 10.7771 6.3657 12.8969H6.36406Z" fill="#5993C9"></path><path d="M48.4584 12.1102C48.4584 22.5141 38.856 30.9783 27.0534 30.9783C15.2509 30.9783 5.64844 22.5141 5.64844 12.1102C5.64844 9.89393 6.03234 8.55377 6.85756 7.89111C8.23239 6.78854 10.6047 7.72963 13.8892 9.03267C17.2672 10.3728 21.4705 12.0397 26.1823 12.0397C30.8941 12.0397 35.2105 10.4341 38.7821 9.14403C42.5883 7.77046 45.5939 6.6846 47.2001 8.01177C48.0466 8.71155 48.4584 10.0517 48.4584 12.1083V12.1102ZM5.8289 12.1102C5.8289 22.4009 15.3493 30.7741 27.0534 30.7741C38.7575 30.7741 48.278 22.4009 48.278 12.1102C48.278 10.1241 47.8908 8.83777 47.0951 8.17883C45.5628 6.91292 42.5949 7.98391 38.8379 9.34078C35.2532 10.6345 30.7924 12.2457 26.1839 12.2457C21.5754 12.2457 17.2213 10.5714 13.8301 9.22755C10.7179 7.99319 8.26028 7.01871 6.96256 8.05817C6.19968 8.67071 5.8289 9.99602 5.8289 12.1102Z" fill="#5993C9"></path><path d="M49.2554 11.3285C49.2554 21.8957 39.3544 30.4917 27.1844 30.4917C15.0143 30.4917 5.11328 21.8957 5.11328 11.3285C5.11328 9.11594 5.49554 7.78319 6.31913 7.13538C7.6956 6.04951 10.086 7.05002 13.3934 8.43287C16.9256 9.91039 21.3192 11.748 26.2787 11.748C31.2383 11.748 35.7565 9.97905 39.5004 8.55722C43.3476 7.09641 46.386 5.94186 48.002 7.25604C48.8469 7.94282 49.2571 9.27557 49.2571 11.3285H49.2554ZM5.29375 11.3285C5.29375 21.7825 15.1144 30.2875 27.1844 30.2875C39.2543 30.2875 49.075 21.7825 49.075 11.3285C49.075 9.34611 48.6894 8.06719 47.8954 7.42124C46.3549 6.16832 43.3558 7.30802 39.5578 8.75027C35.8025 10.1777 31.1284 11.9522 26.2787 11.9522C21.4291 11.9522 16.8748 10.1071 13.3294 8.62404C10.1959 7.31358 7.72185 6.27783 6.42249 7.30244C5.66453 7.90013 5.29539 9.21617 5.29539 11.3285H5.29375Z" fill="#5993C9"></path><path d="M50.0544 10.549C50.0544 21.2777 39.8548 30.0073 27.3172 30.0073C14.7797 30.0073 4.58008 21.2777 4.58008 10.549C4.58008 8.33642 4.96234 7.01111 5.781 6.3763C7.16239 5.30714 9.56916 6.36331 12.9012 7.82598C16.5844 9.44457 21.1699 11.4567 26.3755 11.4567C31.5812 11.4567 36.3028 9.51882 40.2157 7.96334C44.1072 6.41528 47.1801 5.19391 48.8043 6.49509C49.6475 7.17074 50.0561 8.49605 50.0561 10.549H50.0544ZM4.76055 10.549C4.76055 21.1645 14.8798 29.8031 27.3172 29.8031C39.7547 29.8031 49.8739 21.1663 49.8739 10.549C49.8739 8.56844 49.49 7.29697 48.6976 6.66215C47.1505 5.42223 44.1154 6.62873 40.2748 8.15637C36.3488 9.71741 31.4631 11.6608 26.3755 11.6608C21.288 11.6608 16.5352 9.63947 12.8372 8.01532C9.68072 6.62875 7.18864 5.53545 5.886 6.54336C5.13132 7.12805 4.76383 8.43851 4.76383 10.5471L4.76055 10.549Z" fill="#5993C9"></path><path d="M50.8514 9.77168C50.8514 20.6637 40.3532 29.5251 27.4482 29.5251C14.5432 29.5251 4.04492 20.6637 4.04492 9.77168C4.04492 7.56097 4.42554 6.24122 5.24256 5.61755C6.62888 4.56138 9.05369 5.67509 12.412 7.21571C16.2461 8.97723 21.0186 11.1675 26.4687 11.1675C31.9188 11.1675 36.8406 9.05891 40.9225 7.36608C44.8583 5.73264 47.9672 4.44259 49.6013 5.73449C50.4429 6.399 50.8514 7.7206 50.8514 9.77168ZM4.22539 9.77168C4.22539 20.5505 14.6432 29.3191 27.4482 29.3191C40.2531 29.3191 50.671 20.5505 50.671 9.77168C50.671 7.79299 50.2871 6.52708 49.4979 5.90341C47.941 4.67276 44.8714 5.94794 40.9865 7.56096C36.8915 9.25937 31.7958 11.3754 26.4704 11.3754C21.145 11.3754 16.1953 9.17585 12.3447 7.40876C9.16361 5.94795 6.65185 4.79525 5.34428 5.79016C4.59124 6.36372 4.22539 7.66677 4.22539 9.77354V9.77168Z" fill="#5993C9"></path><path d="M51.6514 8.99745C51.6514 20.051 40.8543 29.0442 27.5815 29.0442C14.3088 29.0442 3.51172 20.051 3.51172 8.99745C3.51172 6.78674 3.89235 5.47073 4.70775 4.86005C6.09901 3.81687 8.5452 4.98625 11.9298 6.60484C15.915 8.51113 20.873 10.8833 26.566 10.8833C32.259 10.8833 37.3811 8.60209 41.6303 6.76818C45.6122 5.04936 48.7573 3.69251 50.4012 4.97513C51.2429 5.63036 51.6514 6.94638 51.6514 8.99745ZM3.69383 8.99745C3.69383 19.9396 14.4105 28.84 27.5832 28.84C40.7559 28.84 51.4725 19.9378 51.4725 8.99745C51.4725 7.01877 51.0886 5.75842 50.3011 5.14402C48.736 3.92451 45.6302 5.26283 41.6976 6.96123C37.4352 8.8007 32.131 11.0894 26.5693 11.0894C21.0075 11.0894 15.8608 8.70789 11.8626 6.79417C8.65513 5.25911 6.12198 4.04702 4.81111 5.0308C4.06133 5.59322 3.69711 6.89069 3.69711 8.99745H3.69383Z" fill="#5993C9"></path><path d="M52.4484 8.22503C52.4484 19.4419 41.3528 28.5669 27.7125 28.5669C14.0722 28.5669 2.97656 19.4419 2.97656 8.22503C2.97656 6.01247 3.35555 4.70199 4.16931 4.10059C5.56713 3.06855 8.03301 4.29364 11.4472 5.99019C15.58 8.04312 20.7234 10.5991 26.6608 10.5991C32.5983 10.5991 37.9173 8.14149 42.3322 6.16651C46.3616 4.36416 49.5445 2.94047 51.1983 4.21381C52.0383 4.85976 52.4468 6.1721 52.4468 8.22503H52.4484ZM3.15867 8.22503C3.15867 19.3287 14.1739 28.3627 27.7141 28.3627C41.2543 28.3627 52.2696 19.3287 52.2696 8.22503C52.2696 6.24635 51.8873 4.9897 51.0998 4.38459C49.5248 3.1725 46.3813 4.57763 42.4011 6.35771C37.9714 8.33825 32.4589 10.8051 26.6625 10.8051C20.8661 10.8051 15.306 8.13036 11.3766 6.17766C8.1413 4.57021 5.58682 3.30058 4.27103 4.27322C3.5229 4.82636 3.16032 6.11825 3.16032 8.22687L3.15867 8.22503Z" fill="#5993C9"></path><path d="M53.2474 7.45456C53.2474 18.8329 41.8515 28.0916 27.8454 28.0916C13.8392 28.0916 2.44336 18.8348 2.44336 7.45456C2.44336 5.24014 2.82235 3.93339 3.63446 3.34127C5.03885 2.31851 7.52606 3.59926 10.9698 5.37191C15.0238 7.45826 20.5774 10.3168 26.756 10.3168C32.9346 10.3168 38.4521 7.68101 43.0328 5.56311C47.1098 3.67723 50.3304 2.18858 51.9972 3.45449C52.8373 4.09302 53.2458 5.40163 53.2458 7.45456H53.2474ZM2.62547 7.45456C2.62547 18.7216 13.9393 27.8874 27.8454 27.8874C41.7514 27.8874 53.0653 18.7216 53.0653 7.45456C53.0653 5.47402 52.683 4.2211 51.8972 3.62341C50.3107 2.41875 47.1295 3.88884 43.1033 5.75244C38.5079 7.87777 32.7903 10.5228 26.7576 10.5228C20.725 10.5228 14.9664 7.65316 10.8959 5.55939C7.50473 3.81458 5.05362 2.5524 3.7329 3.5139C2.98641 4.05776 2.62383 5.34595 2.62383 7.45456H2.62547Z" fill="#5993C9"></path><path d="M54.0444 6.68627C54.0444 18.228 42.35 27.6184 27.9763 27.6184C13.6027 27.6184 1.9082 18.228 1.9082 6.68627C1.9082 4.46999 2.28719 3.1651 3.09931 2.58226C4.51026 1.56879 7.02043 2.90522 10.4953 4.75212C14.6888 6.98325 20.4327 10.0385 26.8525 10.0385C33.2723 10.0385 38.9867 7.22084 43.7314 4.95816C47.8576 2.98875 51.1175 1.43514 52.7943 2.69363C53.6343 3.32473 54.0428 4.63148 54.0428 6.68627H54.0444ZM2.09031 6.68627C2.09031 18.1148 13.7028 27.4124 27.9763 27.4124C42.2499 27.4124 53.8623 18.1148 53.8623 6.68627C53.8623 4.70387 53.4801 3.45467 52.6942 2.8644C51.0979 1.66531 47.8773 3.20221 43.8019 5.14563C39.0424 7.41574 33.1181 10.2427 26.8525 10.2427C20.5869 10.2427 14.6281 7.17629 10.4182 4.93774C6.99582 3.11683 4.52338 1.80265 3.1961 2.75487C2.45125 3.28945 2.09031 4.57579 2.09031 6.68627Z" fill="#5993C9"></path><path d="M54.8434 5.91815C54.8434 17.6232 42.8504 27.1436 28.1092 27.1436C13.3681 27.1436 1.375 17.6214 1.375 5.91815C1.375 3.69816 1.75235 2.39699 2.56446 1.82157C3.98198 0.815521 6.51677 2.20579 10.0228 4.12879C14.3541 6.5047 20.2866 9.75857 26.9476 9.75857C33.6086 9.75857 39.5182 6.759 44.427 4.34783C48.6024 2.29675 51.9018 0.676301 53.5916 1.93108C54.4333 2.55475 54.8418 3.85964 54.8418 5.91815H54.8434ZM1.55711 5.91815C1.55711 17.51 13.4682 26.9394 28.1092 26.9394C42.7503 26.9394 54.6613 17.51 54.6613 5.91815C54.6613 3.93389 54.2791 2.68653 53.4932 2.10183C51.8854 0.908309 48.6254 2.50836 44.5009 4.5353C39.5757 6.95391 33.4479 9.96277 26.9493 9.96277C20.4507 9.96277 14.2934 6.69774 9.9457 4.31255C6.49216 2.41739 3.9951 1.04939 2.6629 1.99418C1.91969 2.52134 1.55875 3.80396 1.55875 5.91815H1.55711Z" fill="#5993C9"></path><path d="M55.6405 5.1533C55.6405 17.0199 43.3488 26.6738 28.2402 26.6738C13.1315 26.6738 0.839844 17.0199 0.839844 5.1533C0.839844 2.92959 1.21719 1.63026 2.02931 1.06227C3.45502 0.063644 6.01278 1.50776 9.55164 3.50501C14.0207 6.02755 20.142 9.4819 27.0425 9.4819C33.943 9.4819 40.0495 6.2967 45.1207 3.73703C49.347 1.60428 52.6857 -0.0792672 54.387 1.16994C55.2287 1.78805 55.6372 3.09108 55.6372 5.1533H55.6405ZM1.02195 5.1533C1.02195 16.9066 13.2316 26.4697 28.2402 26.4697C43.2487 26.4697 55.4584 16.9066 55.4584 5.1533C55.4584 3.16533 55.0761 1.91983 54.2902 1.34255C52.6709 0.152743 49.3716 1.81774 45.1962 3.92451C40.1086 6.4916 33.7757 9.68609 27.0441 9.68609C20.3126 9.68609 13.9568 6.21874 9.47289 3.68691C5.98653 1.71936 3.46651 0.297533 2.1261 1.2349C1.38289 1.75463 1.02195 3.03539 1.02195 5.15144V5.1533Z" fill="#5993C9"></path></svg> 