<?xml version="1.0" encoding="UTF-8"?> <svg xmlns="http://www.w3.org/2000/svg" width="1050" height="205" viewBox="0 0 1050 205" fill="none"><path d="M129.783 111.379L133.911 101.908C147.995 102.232 159.571 104.418 168.636 108.465C177.864 112.35 184.745 117.855 189.278 124.978C193.811 131.939 196.077 140.034 196.077 149.261C196.077 159.137 193.811 167.96 189.278 175.731C184.745 183.34 177.945 189.41 168.879 193.943C159.975 198.314 148.805 200.5 135.368 200.5H0.836186L14.9207 107.008L0.836186 18.3723H130.511C147.348 18.3723 160.461 22.3387 169.851 30.2713C179.24 38.0421 183.935 48.8888 183.935 62.8115C183.935 70.4204 182.154 77.7055 178.593 84.6668C175.031 91.6281 169.284 97.5372 161.351 102.394C153.581 107.089 143.058 110.084 129.783 111.379ZM50.6177 188.844L31.1908 165.289H121.769C129.054 165.289 134.72 163.508 138.768 159.946C142.815 156.385 144.838 151.447 144.838 145.133C144.838 138.819 142.653 133.801 138.282 130.077C133.911 126.192 127.435 124.249 118.855 124.249H44.0612V89.7664H112.055C117.884 89.7664 122.74 88.0665 126.626 84.6668C130.673 81.1052 132.697 76.3294 132.697 70.3394C132.697 65.4827 130.997 61.5163 127.597 58.4404C124.197 55.2026 119.341 53.5837 113.027 53.5837H31.4336L50.6177 30.0285L63.0024 107.008L50.6177 188.844ZM299.254 204.385C281.446 204.385 265.905 201.39 252.63 195.4C239.354 189.249 228.993 180.668 221.546 169.66C214.099 158.489 210.376 145.7 210.376 131.291C210.376 116.559 214.099 103.689 221.546 92.6804C228.993 81.6718 239.354 73.0916 252.63 66.9397C265.905 60.7878 281.446 57.7119 299.254 57.7119C316.9 57.7119 332.361 60.7878 345.636 66.9397C359.073 73.0916 369.515 81.6718 376.962 92.6804C384.409 103.689 388.133 116.559 388.133 131.291C388.133 145.7 384.409 158.489 376.962 169.66C369.515 180.668 359.073 189.249 345.636 195.4C332.361 201.39 316.9 204.385 299.254 204.385ZM299.254 167.717C307.349 167.717 314.229 166.26 319.895 163.346C325.723 160.432 330.175 156.223 333.251 150.718C336.327 145.214 337.865 138.738 337.865 131.291C337.865 123.521 336.327 116.964 333.251 111.622C330.175 106.117 325.723 101.908 319.895 98.9942C314.229 96.0801 307.349 94.6231 299.254 94.6231C291.16 94.6231 284.198 96.0801 278.37 98.9942C272.542 101.908 268.09 106.117 265.014 111.622C261.938 116.964 260.4 123.44 260.4 131.049C260.4 138.658 261.938 145.214 265.014 150.718C268.09 156.223 272.542 160.432 278.37 163.346C284.198 166.26 291.16 167.717 299.254 167.717ZM401.509 61.8401H451.291L460.276 117.207V200.5H410.737V109.679L401.509 61.8401ZM511.272 57.7119C524.547 57.7119 535.879 60.3831 545.269 65.7255C554.659 71.0679 561.782 78.5959 566.639 88.3094C571.657 98.0228 574.166 109.517 574.166 122.792V200.5H524.628V130.077C524.628 119.716 521.957 111.784 516.614 106.279C511.434 100.775 503.906 98.0228 494.03 98.0228C487.231 98.0228 481.241 99.4799 476.06 102.394C471.042 105.308 467.156 109.436 464.404 114.779C461.652 120.121 460.276 126.435 460.276 133.72L444.977 125.706C446.92 110.974 451.048 98.5894 457.362 88.5522C463.676 78.353 471.446 70.6632 480.674 65.4827C489.902 60.3022 500.101 57.7119 511.272 57.7119ZM725.955 200.5L719.398 148.533L727.897 131.534L719.641 110.165L731.297 13.5156H782.779L768.451 127.406L777.193 200.5H725.955ZM736.64 131.291C734.373 145.862 729.84 158.651 723.041 169.66C716.403 180.668 707.904 189.249 697.543 195.4C687.344 201.39 675.688 204.385 662.574 204.385C648.975 204.385 636.995 201.39 626.634 195.4C616.435 189.249 608.422 180.668 602.594 169.66C596.766 158.489 593.851 145.7 593.851 131.291C593.851 116.559 596.766 103.689 602.594 92.6804C608.422 81.6718 616.435 73.0916 626.634 66.9397C636.995 60.7878 648.975 57.7119 662.574 57.7119C675.688 57.7119 687.344 60.7878 697.543 66.9397C707.904 72.9297 716.484 81.429 723.284 92.4376C730.083 103.284 734.535 116.236 736.64 131.291ZM644.119 131.291C644.119 138.091 645.495 144.162 648.247 149.504C651.161 154.847 655.127 159.056 660.146 162.132C665.165 165.046 670.912 166.503 677.387 166.503C684.187 166.503 690.581 165.046 696.571 162.132C702.561 159.056 707.823 154.847 712.356 149.504C716.889 144.162 720.289 138.091 722.555 131.291C720.289 124.33 716.889 118.178 712.356 112.836C707.823 107.493 702.561 103.284 696.571 100.208C690.581 97.1324 684.187 95.5945 677.387 95.5945C670.912 95.5945 665.165 97.1324 660.146 100.208C655.127 103.284 651.161 107.493 648.247 112.836C645.495 118.178 644.119 124.33 644.119 131.291ZM800.779 59.6546L825.791 64.5113L850.56 59.6546V200.5H800.779V59.6546ZM825.548 48.2413C816.968 48.2413 810.007 46.1367 804.664 41.9275C799.322 37.5564 796.651 31.6474 796.651 24.2004C796.651 16.9153 799.322 11.0872 804.664 6.71616C810.007 2.34509 816.968 0.159559 825.548 0.159559C834.452 0.159559 841.494 2.34509 846.675 6.71616C852.017 11.0872 854.689 16.9153 854.689 24.2004C854.689 31.6474 852.017 37.5564 846.675 41.9275C841.494 46.1367 834.452 48.2413 825.548 48.2413ZM960.416 204.385C942.608 204.385 927.066 201.39 913.791 195.4C900.516 189.249 890.155 180.668 882.708 169.66C875.261 158.489 871.537 145.7 871.537 131.291C871.537 116.559 875.261 103.689 882.708 92.6804C890.155 81.6718 900.516 73.0916 913.791 66.9397C927.066 60.7878 942.608 57.7119 960.416 57.7119C978.062 57.7119 993.522 60.7878 1006.8 66.9397C1020.23 73.0916 1030.68 81.6718 1038.12 92.6804C1045.57 103.689 1049.29 116.559 1049.29 131.291C1049.29 145.7 1045.57 158.489 1038.12 169.66C1030.68 180.668 1020.23 189.249 1006.8 195.4C993.522 201.39 978.062 204.385 960.416 204.385ZM960.416 167.717C968.51 167.717 975.391 166.26 981.057 163.346C986.885 160.432 991.337 156.223 994.413 150.718C997.489 145.214 999.027 138.738 999.027 131.291C999.027 123.521 997.489 116.964 994.413 111.622C991.337 106.117 986.885 101.908 981.057 98.9942C975.391 96.0801 968.51 94.6231 960.416 94.6231C952.321 94.6231 945.36 96.0801 939.532 98.9942C933.704 101.908 929.252 106.117 926.176 111.622C923.1 116.964 921.562 123.44 921.562 131.049C921.562 138.658 923.1 145.214 926.176 150.718C929.252 156.223 933.704 160.432 939.532 163.346C945.36 166.26 952.321 167.717 960.416 167.717Z" fill="#252525"></path></svg> 