<?xml version="1.0" encoding="UTF-8"?> <svg xmlns="http://www.w3.org/2000/svg" width="167" height="162" viewBox="0 0 167 162" fill="none"><path d="M164.333 100.055C165.686 81.3087 133.791 63.7299 93.0917 60.7911C52.3928 57.8524 18.3025 70.6666 16.9489 89.4125C15.5953 108.158 47.491 125.737 88.1899 128.676C128.889 131.615 162.979 118.801 164.333 100.055Z" stroke="#5A27E7" stroke-width="0.4" stroke-miterlimit="10"></path><path d="M161.619 96.1382C162.151 77.8106 130.318 62.0181 90.5199 60.8647C50.7215 59.7113 18.028 73.6338 17.4969 91.9615C16.9657 110.289 48.7981 126.082 88.5964 127.235C128.395 128.388 161.088 114.466 161.619 96.1382Z" stroke="#5A27E7" stroke-width="0.4" stroke-miterlimit="10"></path><path d="M89.0909 125.822C127.982 125.191 159.274 110.159 158.983 92.2468C158.693 74.3349 126.929 60.3262 88.038 60.9575C49.1467 61.5888 17.8549 76.6211 18.1456 94.5331C18.4364 112.445 50.1997 126.454 89.0909 125.822Z" stroke="#5A27E7" stroke-width="0.4" stroke-miterlimit="10"></path><path d="M89.5101 124.384C127.498 121.968 157.392 105.825 156.279 88.329C155.166 70.8328 123.468 58.6085 85.4794 61.0251C47.491 63.4418 17.5976 79.5843 18.7106 97.0805C19.8237 114.577 51.5217 126.801 89.5101 124.384Z" stroke="#5A27E7" stroke-width="0.4" stroke-miterlimit="10"></path><path d="M89.8904 123.002C126.98 118.802 155.48 101.553 153.546 84.4753C151.613 67.3974 119.978 56.9575 82.8878 61.1571C45.7978 65.3567 17.298 82.6056 19.2317 99.6835C21.1655 116.761 52.8004 127.201 89.8904 123.002Z" stroke="#5A27E7" stroke-width="0.4" stroke-miterlimit="10"></path><path d="M90.2954 121.605C126.48 115.621 153.58 97.2599 150.824 80.5945C148.068 63.9291 116.5 55.27 80.3152 61.2539C44.1305 67.2377 17.031 85.5986 19.787 102.264C22.5429 118.929 54.1106 127.589 90.2954 121.605Z" stroke="#5A27E7" stroke-width="0.4" stroke-miterlimit="10"></path><path d="M90.7241 120.152C126.008 112.382 151.711 92.9128 148.133 76.6673C144.555 60.4219 113.052 53.5516 77.768 61.3222C42.4841 69.0928 16.7812 88.5617 20.3589 104.807C23.9367 121.053 55.4402 127.923 90.7241 120.152Z" stroke="#5A27E7" stroke-width="0.4" stroke-miterlimit="10"></path><path d="M91.1194 118.77C125.498 109.217 149.8 88.6379 145.401 72.8055C141.001 56.973 109.565 51.8827 75.1868 61.4361C40.8086 70.9894 16.5061 91.5687 20.9057 107.401C25.3054 123.234 56.7411 128.324 91.1194 118.77Z" stroke="#5A27E7" stroke-width="0.4" stroke-miterlimit="10"></path><path d="M91.5992 117.236C125.071 105.893 147.972 84.2033 142.749 68.7904C137.526 53.3775 106.157 50.0781 72.6851 61.4208C39.2128 72.7636 16.3122 94.4533 21.5351 109.866C26.7581 125.279 58.1268 128.579 91.5992 117.236Z" stroke="#5A27E7" stroke-width="0.4" stroke-miterlimit="10"></path><path d="M91.9843 115.856C124.556 102.729 146.061 79.9296 140.017 64.9318C133.973 49.9341 102.668 48.4174 70.0961 61.5444C37.524 74.6713 16.019 97.4708 22.0633 112.469C28.1075 127.466 59.4122 128.983 91.9843 115.856Z" stroke="#5A27E7" stroke-width="0.4" stroke-miterlimit="10"></path><path d="M92.3869 114.5C124.056 99.5911 144.162 75.6812 137.296 61.096C130.43 46.5107 99.1905 46.7732 67.5215 61.6823C35.8525 76.5913 15.746 100.501 22.6124 115.086C29.4788 129.672 60.7179 129.409 92.3869 114.5Z" stroke="#5A27E7" stroke-width="0.4" stroke-miterlimit="10"></path><path d="M92.8273 113C123.591 96.3033 142.297 71.2822 134.607 57.1137C126.918 42.9452 95.7447 44.9947 64.9806 61.6913C34.2166 78.3878 15.511 103.409 23.2007 117.577C30.8904 131.746 62.0633 129.696 92.8273 113Z" stroke="#5A27E7" stroke-width="0.4" stroke-miterlimit="10"></path><path d="M93.2277 111.634C123.09 93.1547 140.401 67.0275 131.892 53.2773C123.383 39.5272 92.2769 43.3611 62.4145 61.8406C32.552 80.32 15.2415 106.447 23.7504 120.197C32.2592 133.947 63.3652 130.114 93.2277 111.634Z" stroke="#5A27E7" stroke-width="0.4" stroke-miterlimit="10"></path><path d="M93.6732 110.096C122.632 89.827 138.542 62.5874 129.21 49.255C119.878 35.9227 88.8376 41.5463 59.8792 61.8156C30.9207 82.085 15.0104 109.325 24.3423 122.657C33.6743 135.989 64.7147 130.366 93.6732 110.096Z" stroke="#5A27E7" stroke-width="0.4" stroke-miterlimit="10"></path><path d="M94.0906 108.685C122.147 86.6305 136.658 58.2794 126.503 45.3605C116.348 32.4417 85.3715 39.8474 57.3155 61.9015C29.2595 83.9556 14.748 112.307 24.9032 125.226C35.0583 138.144 66.0346 130.739 94.0906 108.685Z" stroke="#5A27E7" stroke-width="0.4" stroke-miterlimit="10"></path><path d="M94.4933 107.285C121.648 83.4457 134.765 53.9859 123.791 41.485C112.816 28.9841 81.9059 38.1759 54.7508 62.0155C27.5956 85.8551 14.4787 115.315 25.4533 127.816C36.4279 140.317 67.3381 131.125 94.4933 107.285Z" stroke="#5A27E7" stroke-width="0.4" stroke-miterlimit="10"></path><path d="M94.9109 105.811C121.159 80.187 132.875 49.6194 121.08 37.5361C109.284 25.4528 78.4431 36.4294 52.1948 62.0531C25.9464 87.6767 14.2303 118.244 26.026 130.327C37.8217 142.411 68.6625 131.434 94.9109 105.811Z" stroke="#5A27E7" stroke-width="0.4" stroke-miterlimit="10"></path><path d="M95.3203 104.381C120.666 76.9709 130.984 45.2916 118.365 33.6229C105.746 21.9541 74.9697 34.7145 49.6236 62.1241C24.2775 89.5338 13.9601 121.213 26.5788 132.882C39.1976 144.551 69.9742 131.79 95.3203 104.381Z" stroke="#5A27E7" stroke-width="0.4" stroke-miterlimit="10"></path><path d="M95.7423 102.986C120.187 73.7924 129.109 41.0052 115.672 29.7537C102.234 18.5022 71.525 33.0472 47.0806 62.2409C22.6363 91.4345 13.7136 124.222 27.1511 135.473C40.5886 146.725 71.298 132.18 95.7423 102.986Z" stroke="#5A27E7" stroke-width="0.4" stroke-miterlimit="10"></path><path d="M96.1462 101.54C119.686 70.5617 127.209 36.665 112.95 25.8299C98.6904 14.9948 68.0484 31.3242 44.5088 62.3027C20.9693 93.2813 13.4461 127.178 27.7054 138.013C41.9647 148.848 72.6066 132.519 96.1462 101.54Z" stroke="#5A27E7" stroke-width="0.4" stroke-miterlimit="10"></path><path d="M96.5648 100.093C119.199 67.331 125.323 32.3259 110.242 21.9068C95.1617 11.4878 64.5872 29.6002 41.9525 62.3621C19.3178 95.1241 13.1941 130.129 28.2749 140.548C43.3556 150.967 73.9301 132.855 96.5648 100.093Z" stroke="#5A27E7" stroke-width="0.4" stroke-miterlimit="10"></path><path d="M97.0074 98.7883C118.745 64.2426 123.475 28.1258 107.572 18.119C91.6696 8.11217 61.1559 28.0048 39.4182 62.5504C17.6805 97.0961 12.9504 133.213 28.8532 143.22C44.756 153.227 75.2697 133.334 97.0074 98.7883Z" stroke="#5A27E7" stroke-width="0.4" stroke-miterlimit="10"></path></svg> 