<?xml version="1.0" encoding="UTF-8"?> <svg xmlns="http://www.w3.org/2000/svg" width="26" height="26" viewBox="0 0 26 26" fill="none"><g clip-path="url(#clip0_2019_3368)"><path d="M12.875 25.9375C5.96324 25.9375 0.375 20.3493 0.375 13.4375C0.375 6.52574 5.96324 0.9375 12.875 0.9375C19.7868 0.9375 25.375 6.52574 25.375 13.4375C25.375 20.3493 19.7868 25.9375 12.875 25.9375ZM12.875 2.40809C6.77206 2.40809 1.84559 7.33456 1.84559 13.4375C1.84559 19.5404 6.77206 24.4669 12.875 24.4669C18.9779 24.4669 23.9044 19.5404 23.9044 13.4375C23.9044 7.33456 18.9779 2.40809 12.875 2.40809Z" fill="#27A7E7"></path><path d="M6.25781 12.7021H19.4931V14.1727H6.25781V12.7021Z" fill="#27A7E7"></path><path d="M12.1406 6.82031H13.6112V20.0556H12.1406V6.82031Z" fill="#27A7E7"></path></g><defs><clipPath id="clip0_2019_3368"><rect width="25" height="25" fill="white" transform="translate(0.375 0.9375)"></rect></clipPath></defs></svg> 