<?xml version="1.0" encoding="UTF-8" standalone="no"?> <svg xmlns="http://www.w3.org/2000/svg" version="1.0" width="1920.000000pt" height="1080.000000pt" viewBox="0 0 1920.000000 1080.000000" preserveAspectRatio="xMidYMid meet"><g transform="translate(0.000000,1080.000000) scale(0.100000,-0.100000)" fill="#000000" stroke="none"><path d="M3754 7951 c-63 -29 -97 -81 -102 -155 -4 -54 0 -68 31 -128 34 -65 35 -71 34 -170 l-2 -103 -811 -3 c-667 -2 -814 -5 -823 -16 -8 -9 -10 -590 -9 -2172 l3 -2159 1135 -3 c1013 -2 1146 -1 1235 14 558 91 1007 520 1100 1048 19 113 19 308 0 420 -47 269 -161 484 -357 672 -100 96 -187 157 -286 200 -40 17 -75 34 -78 37 -3 3 21 25 53 50 189 146 343 383 394 607 48 207 20 466 -71 666 -107 237 -330 447 -587 553 -143 59 -229 74 -453 80 l-205 6 -3 109 c-2 85 1 112 12 125 57 63 74 200 33 262 -47 71 -158 99 -243 60z m650 -864 c134 -47 234 -128 278 -224 18 -40 19 -66 16 -420 l-3 -378 -31 -65 c-56 -117 -160 -195 -302 -226 -104 -22 -977 -20 -1053 2 -133 39 -250 156 -299 299 -18 53 -20 84 -20 371 0 278 2 319 19 373 46 147 146 246 291 287 34 10 163 12 535 11 l490 -2 79 -28z m-164 -2100 c223 -67 384 -219 456 -432 77 -229 23 -458 -150 -630 -123 -122 -247 -184 -407 -204 -41 -5 -309 -12 -596 -16 l-521 -6 -16 23 c-14 20 -16 92 -16 649 0 344 3 629 7 633 4 4 273 5 598 3 514 -3 597 -5 645 -20z"></path><path d="M3385 6686 c-108 -48 -135 -200 -49 -276 91 -79 225 -53 281 54 21 41 13 124 -17 166 -43 60 -145 87 -215 56z"></path><path d="M4149 6672 c-59 -38 -83 -86 -77 -157 7 -78 52 -127 137 -146 99 -23 201 59 201 161 0 95 -62 161 -158 168 -50 3 -63 0 -103 -26z"></path><path d="M6190 6804 c-30 -14 -131 -56 -225 -93 -301 -120 -469 -194 -492 -217 -29 -29 -29 -68 -2 -95 29 -29 129 -74 229 -102 66 -19 88 -30 97 -48 6 -13 34 -72 62 -130 102 -217 167 -225 225 -27 58 197 140 447 177 542 45 114 49 158 17 180 -28 20 -23 21 -88 -10z"></path><path d="M14210 5824 c-126 -27 -224 -112 -256 -222 -21 -71 -14 -171 16 -236 29 -61 107 -130 178 -157 69 -26 232 -37 311 -20 119 25 211 94 254 190 31 68 29 198 -3 265 -75 155 -277 229 -500 180z"></path><path d="M13040 5647 c0 -3 -115 -960 -123 -1021 -1 -15 -12 -7 -43 35 -124 164 -302 291 -489 349 -154 47 -387 50 -560 5 -90 -23 -251 -106 -327 -169 -168 -140 -282 -345 -324 -586 -23 -135 -15 -401 16 -519 92 -346 319 -585 642 -673 72 -20 107 -23 263 -23 212 0 267 11 421 85 149 72 280 183 373 318 13 18 25 32 27 30 1 -2 12 -80 24 -173 11 -94 23 -180 26 -192 l4 -23 350 0 c274 0 350 3 350 13 0 6 -27 232 -59 501 l-59 490 93 745 c52 410 96 761 99 779 l5 32 -355 0 c-195 0 -354 -2 -354 -3z m-567 -1146 c107 -37 179 -83 262 -166 82 -82 143 -174 170 -256 16 -48 16 -48 -18 -121 -138 -297 -457 -462 -730 -378 -123 38 -228 140 -278 270 -27 68 -37 229 -20 311 37 175 166 312 336 356 68 17 205 9 278 -16z"></path><path d="M6907 5039 c-357 -40 -681 -215 -846 -457 -102 -151 -149 -296 -158 -492 -12 -281 66 -502 244 -690 164 -173 360 -277 623 -332 124 -25 425 -35 570 -18 284 33 526 136 701 298 95 89 154 169 208 283 138 289 114 668 -58 929 -158 240 -432 405 -776 465 -110 20 -389 27 -508 14z m365 -513 c98 -21 175 -62 241 -127 97 -97 144 -239 133 -397 -22 -304 -232 -476 -561 -459 -319 17 -495 195 -495 502 0 249 122 415 352 475 89 23 235 26 330 6z"></path><path d="M9867 5035 c-220 -42 -417 -173 -548 -366 -22 -33 -42 -59 -44 -57 -2 2 -15 75 -29 163 -14 88 -29 172 -32 188 l-6 27 -339 0 c-238 0 -339 -3 -339 -11 0 -6 27 -151 60 -321 l60 -311 0 -629 0 -628 339 0 340 0 4 513 c4 548 4 553 57 657 67 132 177 207 337 230 204 28 392 -65 452 -226 34 -90 41 -206 41 -701 l0 -473 335 0 336 0 -4 643 c-3 628 -4 644 -26 720 -85 299 -276 491 -560 563 -124 32 -320 40 -434 19z"></path><path d="M15977 5039 c-357 -40 -681 -215 -846 -457 -102 -151 -149 -296 -158 -492 -12 -281 66 -502 244 -690 164 -173 360 -277 623 -332 124 -25 425 -35 570 -18 284 33 526 136 701 298 95 89 154 169 208 283 138 289 114 668 -58 929 -158 240 -432 405 -776 465 -110 20 -389 27 -508 14z m365 -513 c98 -21 175 -62 241 -127 97 -97 144 -239 133 -397 -22 -304 -232 -476 -561 -459 -319 17 -495 195 -495 502 0 249 122 415 352 475 89 23 235 26 330 6z"></path><path d="M14000 4055 l0 -965 340 0 340 0 0 966 0 966 -27 -5 c-16 -3 -94 -18 -174 -33 l-147 -27 -158 31 c-88 18 -162 32 -166 32 -5 0 -8 -434 -8 -965z"></path></g></svg> 