<?xml version="1.0" encoding="UTF-8"?> <svg xmlns="http://www.w3.org/2000/svg" width="54" height="49" viewBox="0 0 54 49" fill="none"><path d="M0.0202888 32.794L2.49869 31.3029L1.51477 30.7112L3.99317 29.2201L3.00925 28.6284L5.48765 27.1373L4.50373 26.5456L6.98213 25.0545L5.9982 24.4628L8.47661 22.9751L7.49269 22.3834L9.97109 20.8923L8.98716 20.3006L11.4656 18.8095L10.4816 18.2178L12.96 16.7301L11.9761 16.1384L14.4545 14.6473L13.4706 14.0555L15.949 12.5644L14.9651 11.9727L17.4435 10.4816L16.4596 9.88994L18.938 8.39884L17.954 7.80713L20.4324 6.31603L19.4485 5.72433L21.9269 4.23661L20.943 3.64491L27.0122 0L33.0814 3.64491L32.0975 4.23661L34.5759 5.72433L33.592 6.31603L36.0704 7.80713L35.0865 8.39884L37.5649 9.88655L36.5809 10.4783L39.0593 11.9694L38.0754 12.5611L40.5538 14.0488L39.5699 14.6405L42.0483 16.1316L41.0644 16.7233L43.5428 18.211L42.5589 18.8027L45.0373 20.2938L44.0533 20.8855L46.5317 22.3732L45.5478 22.9649L48.0262 24.4527L47.0423 25.0444L49.5207 26.5355L48.5368 27.1272L51.0152 28.6149L50.0313 29.2066L52.5096 30.6977L51.5257 31.2894L54.0041 32.7771L27.0021 49L0 32.7771L0.0202888 32.794ZM27.0224 48.8242L53.7032 32.794L51.3837 31.401L27.0224 46.0381L2.66099 31.401L0.341499 32.794L27.0224 48.8242ZM27.0224 45.8454L51.2248 31.3063L48.9053 29.9133L27.0224 43.0593L5.13939 29.9133L2.8199 31.3063L27.0224 45.8454ZM27.0224 42.8665L48.743 29.8152L46.4235 28.4222L27.019 40.0805L7.61441 28.4222L5.29492 29.8152L27.0156 42.8665H27.0224ZM27.0224 39.8877L46.2646 28.3275L43.9451 26.9344L27.0224 37.1016L10.0962 26.9344L7.7767 28.3275L27.019 39.8877H27.0224ZM27.0224 36.9089L43.7862 26.8364L41.4667 25.4433L27.0224 34.1228L12.578 25.4433L10.2585 26.8364L27.0224 36.9089ZM27.0224 33.9301L41.3078 25.3487L38.9883 23.9556L27.0224 31.144L15.0564 23.9556L12.7369 25.3487L27.0224 33.9301ZM51.3837 31.2082L52.2053 30.7146L49.8859 29.3216L49.0642 29.8152L51.3837 31.2082ZM2.6576 31.2082L4.97709 29.8152L4.15546 29.3216L1.83598 30.7146L2.6576 31.2082ZM27.019 30.9513L38.8227 23.8576L36.5032 22.4645L27.0156 28.1652L17.528 22.4645L15.2085 23.8576L27.0122 30.9513H27.019ZM48.9019 29.7205L49.7236 29.2269L47.4041 27.8338L46.5824 28.3275L48.9019 29.7205ZM5.13601 29.7205L7.45549 28.3275L6.63387 27.8338L4.31438 29.2269L5.13601 29.7205ZM49.8859 29.1288L50.7075 28.6352L48.388 27.2421L47.563 27.7358L49.8825 29.1288H49.8859ZM4.15208 29.1288L6.47157 27.7358L5.64656 27.2421L3.32708 28.6352L4.1487 29.1288H4.15208ZM46.4235 28.2294L47.2452 27.7358L44.9257 26.3427L44.1041 26.8364L46.4235 28.2294ZM7.61441 28.2294L9.93389 26.8364L9.11227 26.3427L6.79278 27.7358L7.61441 28.2294ZM27.019 27.9725L36.3443 22.3699L34.0248 20.9768L27.019 25.1864L20.0098 20.9768L17.6903 22.3699L27.0156 27.9725H27.019ZM6.63049 27.6411L8.94997 26.2481L8.12835 25.7544L5.80886 27.1475L6.63387 27.6411H6.63049ZM47.4075 27.6411L48.2291 27.1475L45.9096 25.7544L45.0846 26.2481L47.4041 27.6411H47.4075ZM48.3914 27.0494L49.213 26.5558L46.8935 25.1627L46.0719 25.6564L48.3914 27.0494ZM5.64656 27.0494L7.96605 25.6564L7.14443 25.1627L4.82494 26.5558L5.64656 27.0494ZM43.9418 26.7417L44.7634 26.2481L42.4439 24.855L41.6223 25.3487L43.9418 26.7417ZM10.0928 26.7417L12.4123 25.3487L11.5873 24.855L9.2678 26.2481L10.0894 26.7417H10.0928ZM44.9257 26.15L45.7473 25.6564L43.4278 24.2633L42.6028 24.757L44.9223 26.15H44.9257ZM9.10889 26.15L11.4284 24.757L10.6067 24.2633L8.28726 25.6564L9.11227 26.15H9.10889ZM45.9096 25.5583L46.7312 25.0647L44.4117 23.6716L43.5901 24.1653L45.9096 25.5583ZM8.12496 25.5583L10.4445 24.1653L9.62282 23.6716L7.30334 25.0647L8.12496 25.5583ZM41.4634 25.2506L42.285 24.757L39.9655 23.3639L39.1439 23.8576L41.4634 25.2506ZM12.5746 25.2506L14.8941 23.8576L14.0725 23.3639L11.753 24.757L12.5746 25.2506ZM27.019 24.9937L33.8659 20.8788L31.5464 19.4857L27.019 22.2042L22.4916 19.4857L20.1721 20.8788L27.019 24.9937ZM46.8969 24.9666L47.7185 24.4729L45.399 23.0799L44.574 23.5736L46.8935 24.9666H46.8969ZM7.14443 24.9666L9.46391 23.5736L8.64229 23.0799L6.3228 24.4729L7.1478 24.9666H7.14443ZM42.4507 24.6589L43.2723 24.1653L40.9528 22.7722L40.1312 23.2659L42.4507 24.6589ZM11.5907 24.6589L13.9102 23.2659L13.0885 22.7722L10.769 24.1653L11.5907 24.6589ZM43.4346 24.0672L44.2562 23.5736L41.9367 22.1805L41.1117 22.6742L43.4312 24.0672H43.4346ZM10.6067 24.0672L12.9262 22.6742L12.1046 22.1805L9.78512 23.5736L10.6067 24.0672ZM38.985 23.7595L39.8066 23.2659L37.4871 21.8728L36.6655 22.3665L38.985 23.7595ZM15.053 23.7595L17.3725 22.3665L16.5509 21.8728L14.2314 23.2659L15.0564 23.7595H15.053ZM44.4151 23.4755L45.2401 22.9818L42.9206 21.5888L42.099 22.0825L44.4185 23.4755H44.4151ZM9.61945 23.4755L11.9389 22.0825L11.1173 21.5888L8.79782 22.9818L9.62282 23.4755H9.61945ZM39.9655 23.1678L40.7905 22.6742L38.471 21.2811L37.6494 21.7748L39.9689 23.1678H39.9655ZM14.0657 23.1678L16.3852 21.7748L15.5635 21.2811L13.2441 22.6742L14.0657 23.1678ZM8.63552 22.8838L10.955 21.4908L10.1334 20.9971L7.8139 22.3901L8.63552 22.8838ZM45.399 22.8838L46.2207 22.3901L43.9012 20.9971L43.0796 21.4908L45.399 22.8838ZM40.9528 22.5761L41.7778 22.0825L39.4583 20.6894L38.6333 21.1831L40.9528 22.5761ZM13.0852 22.5761L15.4046 21.1831L14.583 20.6894L12.2635 22.0825L13.0852 22.5761ZM17.5314 22.2684L19.8509 20.8754L19.0293 20.3817L16.7098 21.7748L17.5348 22.2684H17.5314ZM36.5032 22.2684L37.3248 21.7748L35.0053 20.3817L34.1803 20.8754L36.4998 22.2684H36.5032ZM27.0156 22.0115L31.3841 19.3877L29.0646 17.9946L27.0156 19.2254L24.9666 17.9946L22.6471 19.3877L27.0156 22.0115ZM12.0978 21.9844L14.4173 20.5914L13.5957 20.0977L11.2762 21.4908L12.0978 21.9844ZM41.9333 21.9844L42.755 21.4908L40.4355 20.0977L39.6138 20.5914L41.9333 21.9844ZM16.5441 21.6767L18.8636 20.2837L18.0386 19.79L15.7191 21.1831L16.5407 21.6767H16.5441ZM37.4871 21.6767L38.3087 21.1831L35.9892 19.79L35.1642 20.2837L37.4837 21.6767H37.4871ZM42.9173 21.3927L43.7389 20.899L41.4194 19.506L40.5978 19.9997L42.9173 21.3927ZM11.1139 21.3927L13.4334 19.9997L12.6118 19.506L10.2923 20.899L11.1139 21.3927ZM38.471 21.085L39.296 20.5914L36.9765 19.1983L36.1549 19.692L38.4744 21.085H38.471ZM15.5602 21.085L17.8797 19.692L17.058 19.1983L14.7385 20.5914L15.5602 21.085ZM43.9012 20.801L44.7228 20.3073L42.4033 18.9143L41.5817 19.4079L43.9012 20.801ZM10.13 20.801L12.4495 19.4079L11.6279 18.9143L9.30838 20.3073L10.13 20.801ZM20.0098 20.7773L22.3293 19.3843L21.5077 18.8906L19.1882 20.2837L20.0132 20.7773H20.0098ZM34.0248 20.7773L34.8498 20.2837L32.5303 18.8906L31.7087 19.3843L34.0282 20.7773H34.0248ZM14.5796 20.4933L16.8991 19.1003L16.0741 18.6066L13.7546 19.9997L14.5762 20.4933H14.5796ZM39.4583 20.4933L40.2799 19.9997L37.9605 18.6066L37.1354 19.1003L39.4549 20.4933H39.4583ZM19.0293 20.1856L21.3487 18.7926L20.5237 18.2989L18.2042 19.692L19.0259 20.1856H19.0293ZM35.0121 20.1856L35.8337 19.692L33.5142 18.2989L32.6892 18.7926L35.0087 20.1856H35.0121ZM13.5991 19.9016L15.9186 18.5086L15.0969 18.0149L12.7775 19.4079L13.5991 19.9016ZM40.4456 19.9016L41.2672 19.4079L38.9478 18.0149L38.1261 18.5086L40.4456 19.9016ZM18.0487 19.5939L20.3682 18.2009L19.5466 17.7072L17.2271 19.1003L18.0521 19.5939H18.0487ZM35.9994 19.5939L36.821 19.1003L34.5015 17.7072L33.6799 18.2009L35.9994 19.5939ZM41.4295 19.3099L42.2512 18.8162L39.9317 17.4232L39.1101 17.9168L41.4295 19.3099ZM12.6152 19.3099L14.9347 17.9168L14.113 17.4232L11.7935 18.8162L12.6152 19.3099ZM22.495 19.2862L24.8144 17.8932L23.9928 17.3995L21.6733 18.7926L22.4983 19.2862H22.495ZM31.5497 19.2862L32.3714 18.7926L30.0519 17.3995L29.2303 17.8932L31.5497 19.2862ZM27.0224 19.0293L28.9091 17.8966L27.0224 16.7605L25.1357 17.8966L27.0224 19.0293ZM36.9833 19.0022L37.8049 18.5086L35.4854 17.1155L34.6604 17.6092L36.9799 19.0022H36.9833ZM17.0648 19.0022L19.3843 17.6092L18.5593 17.1155L16.2398 18.5086L17.0648 19.0022ZM42.4168 18.7182L43.2385 18.2245L40.919 16.8315L40.094 17.3251L42.4135 18.7182H42.4168ZM11.6346 18.7182L13.9541 17.3251L13.1325 16.8315L10.813 18.2245L11.638 18.7182H11.6346ZM21.5144 18.6945L23.8339 17.3015L23.0089 16.8078L20.6894 18.2009L21.5144 18.6945ZM32.5371 18.6945L33.3587 18.2009L31.0392 16.8078L30.2142 17.3015L32.5337 18.6945H32.5371ZM16.0809 18.4105L18.4004 17.0175L17.5787 16.5238L15.2592 17.9168L16.0809 18.4105ZM37.9672 18.4105L38.7888 17.9168L36.4694 16.5238L35.6477 17.0175L37.9672 18.4105ZM20.5271 18.1028L22.8466 16.7098L22.0216 16.2161L19.7021 17.6092L20.5271 18.1028ZM33.521 18.1028L34.346 17.6092L32.0265 16.2161L31.2049 16.7098L33.5244 18.1028H33.521ZM38.9511 17.8188L39.7728 17.3251L37.4533 15.9321L36.6283 16.4257L38.9478 17.8188H38.9511ZM15.0969 17.8188L17.4164 16.4257L16.5948 15.9321L14.2753 17.3251L15.0969 17.8188ZM24.9767 17.7951L27.0257 16.5644L29.0747 17.7951L29.8964 17.3015L27.5769 15.9084L27.0224 16.2398L26.4678 15.9084L24.1484 17.3015L24.97 17.7951H24.9767ZM19.5466 17.5111L21.8661 16.1181L21.0411 15.6244L18.7216 17.0175L19.5466 17.5111ZM34.5083 17.5111L35.3299 17.0175L33.0104 15.6244L32.1854 16.1181L34.5049 17.5111H34.5083ZM14.1164 17.2271L16.4359 15.834L15.6143 15.3404L13.2948 16.7334L14.1198 17.2271H14.1164ZM39.9384 17.2271L40.7635 16.7334L38.444 15.3404L37.6223 15.834L39.9418 17.2271H39.9384ZM23.9928 17.2034L26.3123 15.8104L25.4873 15.3167L23.1678 16.7098L23.9928 17.2034ZM30.0586 17.2034L30.8803 16.7098L28.5608 15.3167L27.7392 15.8104L30.0586 17.2034ZM18.5627 16.9194L20.8821 15.5264L20.0605 15.0327L17.741 16.4257L18.566 16.9194H18.5627ZM35.4922 16.9194L36.3138 16.4257L33.9943 15.0327L33.1727 15.5264L35.4922 16.9194ZM13.1325 16.6354L15.452 15.2423L14.6303 14.7487L12.3109 16.1417L13.1325 16.6354ZM40.9257 16.6354L41.7474 16.1417L39.4279 14.7487L38.6063 15.2423L40.9257 16.6354ZM23.0123 16.6117L25.3318 15.2187L24.5068 14.725L22.1873 16.1181L23.0089 16.6117H23.0123ZM31.046 16.6117L31.8676 16.1181L29.5481 14.725L28.7265 15.2187L31.046 16.6117ZM17.5821 16.3277L19.9016 14.9347L19.0766 14.441L16.7571 15.834L17.5787 16.3277H17.5821ZM36.4795 16.3277L37.3011 15.834L34.9816 14.441L34.16 14.9347L36.4795 16.3277ZM27.0325 16.0471L27.4247 15.8104L27.0325 15.5737L26.6403 15.8104L27.0325 16.0471ZM22.0317 16.02L24.3512 14.627L23.5262 14.1333L21.2067 15.5264L22.0317 16.02ZM32.0333 16.02L32.8583 15.5264L30.5388 14.1333L29.7138 14.627L32.0333 16.02ZM37.4634 15.736L38.2851 15.2423L35.9656 13.8493L35.1439 14.343L37.4634 15.736ZM16.5982 15.736L18.9177 14.343L18.0927 13.8493L15.7732 15.2423L16.5982 15.736ZM26.478 15.7123L27.0325 15.381L27.587 15.7123L28.4086 15.2187L27.0325 14.3903L25.6564 15.2187L26.4814 15.7123H26.478ZM33.0172 15.4283L33.8388 14.9347L31.5193 13.5416L30.6977 14.0353L33.0172 15.4283ZM21.0478 15.4283L23.3673 14.0353L22.5423 13.5416L20.2228 14.9347L21.0444 15.4283H21.0478ZM15.6176 15.1443L17.9371 13.7512L17.1121 13.2576L14.7926 14.6506L15.6143 15.1443H15.6176ZM38.4507 15.1443L39.2724 14.6506L36.9529 13.2576L36.1312 13.7512L38.4507 15.1443ZM25.4974 15.1206L27.0359 14.1976L28.5743 15.1206L29.3959 14.627L27.0765 13.2339L27.0359 13.261L27.0156 13.2474L27.0088 13.2272L24.6758 14.627L25.4974 15.1206ZM20.0673 14.8366L22.3868 13.4436L21.5651 12.9499L19.2456 14.343L20.0707 14.8366H20.0673ZM34.0045 14.8366L34.8261 14.343L32.5066 12.9499L31.6816 13.4436L34.0011 14.8366H34.0045ZM39.4346 14.5526L40.2597 14.0589L37.9402 12.6659L37.1185 13.1595L39.438 14.5526H39.4346ZM14.6337 14.5526L16.9532 13.1595L16.1316 12.6659L13.8121 14.0589L14.6371 14.5526H14.6337ZM29.5549 14.5289L30.3799 14.0353L28.0604 12.6422L27.2388 13.1359L29.5582 14.5289H29.5549ZM24.5101 14.5289L26.8296 13.1359L26.0046 12.6422L23.6851 14.0353L24.5101 14.5289ZM19.08 14.2449L21.3995 12.8519L20.5745 12.3582L18.255 13.7512L19.0766 14.2449H19.08ZM34.985 14.2449L35.8066 13.7512L33.4872 12.3582L32.6655 12.8519L34.985 14.2449ZM23.5262 13.9372L25.8457 12.5442L25.0207 12.0505L22.7012 13.4436L23.5228 13.9372H23.5262ZM30.5388 13.9372L31.3604 13.4436L29.0409 12.0505L28.2159 12.5442L30.5354 13.9372H30.5388ZM18.0961 13.6532L20.4155 12.2601L19.5939 11.7665L17.2744 13.1595L18.0961 13.6532ZM35.9689 13.6532L36.7906 13.1595L34.4711 11.7665L33.6495 12.2601L35.9689 13.6532ZM22.5423 13.3455L24.8618 11.9525L24.0402 11.4588L21.7207 12.8519L22.5423 13.3455ZM31.5227 13.3455L32.3443 12.8519L30.0248 11.4588L29.2032 11.9525L31.5227 13.3455ZM17.1121 13.0615L19.4316 11.6684L18.6066 11.1748L16.2871 12.5678L17.1087 13.0615H17.1121ZM36.9562 13.0615L37.7779 12.5678L35.4584 11.1748L34.6334 11.6684L36.9529 13.0615H36.9562ZM26.9919 13.0378L27.0325 13.0108L27.0765 13.0344L27.9015 12.5408L27.0359 12.0201L26.1703 12.5408L26.9953 13.0344L26.9919 13.0378ZM32.5066 12.7538L33.3282 12.2601L31.0088 10.8671L30.1838 11.3608L32.5032 12.7538H32.5066ZM21.5584 12.7538L23.8779 11.3608L23.0529 10.8671L20.7334 12.2601L21.555 12.7538H21.5584ZM16.1282 12.4698L18.4477 11.0767L17.6261 10.5831L15.3066 11.9761L16.1282 12.4698ZM37.9402 12.4698L38.7618 11.9761L36.4423 10.5831L35.6207 11.0767L37.9402 12.4698ZM26.008 12.4461L27.0359 11.8307L28.0638 12.4461L28.8888 11.9525L27.0393 10.84L25.1898 11.9525L26.0148 12.4461H26.008ZM20.5778 12.1621L22.8973 10.769L22.0757 10.2754L19.7562 11.6684L20.5778 12.1621ZM33.4939 12.1621L34.3155 11.6684L31.9961 10.2754L31.1744 10.769L33.4939 12.1621ZM25.0241 11.8544L27.0359 10.6473L29.0477 11.8544L29.8693 11.3608L27.5498 9.96771L27.0359 10.2754L26.5219 9.96771L24.2025 11.3608L25.0241 11.8544ZM19.5939 11.5704L21.9134 10.1773L21.0884 9.68368L18.7689 11.0767L19.5905 11.5704H19.5939ZM34.4778 11.5704L35.2995 11.0767L32.98 9.68368L32.155 10.1773L34.4745 11.5704H34.4778ZM24.0402 11.2627L26.3596 9.86965L25.5346 9.376L23.2151 10.769L24.0402 11.2627ZM30.0282 11.2627L30.8532 10.769L28.5337 9.376L27.7087 9.86965L30.0282 11.2627ZM18.6066 10.9787L20.9261 9.58563L20.1045 9.09198L17.785 10.485L18.6066 10.9787ZM35.4584 10.9787L36.28 10.485L33.9605 9.09198L33.1389 9.58563L35.4584 10.9787ZM23.0529 10.671L25.3723 9.27795L24.5473 8.7843L22.2278 10.1773L23.0495 10.671H23.0529ZM31.0088 10.671L31.8304 10.1773L29.5109 8.7843L28.6893 9.27795L31.0088 10.671ZM17.6193 10.387L19.9388 8.99393L19.1138 8.50027L16.7943 9.89332L17.6193 10.387ZM36.4389 10.387L37.2606 9.89332L34.9411 8.50027L34.1161 8.99393L36.4355 10.387H36.4389ZM27.0291 10.0827L27.3841 9.86965L27.0291 9.65664L26.6741 9.86965L27.0291 10.0827ZM31.9927 10.0827L32.8177 9.58901L30.4982 8.19597L29.6732 8.68962L31.9927 10.0827ZM22.0689 10.0827L24.3884 8.68962L23.5634 8.19597L21.2439 9.58901L22.0689 10.0827ZM26.5152 9.77498L27.0291 9.46391L27.5431 9.77498L28.3647 9.28133L27.0257 8.47661L25.6868 9.28133L26.5118 9.77498H26.5152ZM21.085 9.49096L23.4045 8.09792L22.5829 7.60426L20.2634 8.9973L21.085 9.49096ZM32.98 9.49096L33.8016 8.9973L31.4821 7.60426L30.6605 8.09792L32.98 9.49096ZM28.5337 9.18327L29.3554 8.68962L27.0325 7.2932L24.7096 8.68962L25.5346 9.18327L27.0325 8.28388L28.5337 9.18327ZM20.1045 8.89926L22.424 7.50621L21.5989 7.01255L19.2795 8.4056L20.1045 8.89926ZM33.9673 8.89926L34.7923 8.4056L32.4728 7.01255L31.6478 7.50621L33.9673 8.89926ZM24.5541 8.59157L26.8736 7.19853L26.052 6.70487L23.7325 8.09792L24.5575 8.59157H24.5541ZM29.521 8.59157L30.3427 8.09792L28.0232 6.70487L27.1982 7.19853L29.5177 8.59157H29.521ZM34.9512 8.30755L35.7728 7.81389L33.4533 6.42085L32.6317 6.91451L34.9512 8.30755ZM19.1205 8.30755L21.44 6.91451L20.6184 6.42085L18.2989 7.81389L19.1205 8.30755ZM23.5668 7.99986L25.8863 6.60682L25.0647 6.11316L22.7452 7.50621L23.5668 7.99986ZM30.5016 7.99986L31.3232 7.50621L29.0037 6.11316L28.1821 6.60682L30.5016 7.99986ZM22.5829 7.40816L24.9024 6.01511L24.0773 5.52145L21.7579 6.91451L22.5829 7.40816ZM31.4855 7.40816L32.3105 6.91451L29.991 5.52145L29.166 6.01511L31.4855 7.40816ZM27.0359 7.10385L27.8609 6.60682L27.0325 6.10979L26.2041 6.60682L27.0291 7.10047H27.0359V7.10385ZM21.5989 6.81984L23.9184 5.42678L23.0968 4.93313L20.7773 6.32618L21.5989 6.81984ZM32.4694 6.81984L33.2911 6.32618L30.9716 4.93313L30.1499 5.42678L32.4694 6.81984ZM26.0452 6.51215L27.0325 5.91706L28.0198 6.51215L28.8414 6.01849L27.0291 4.92975L25.2168 6.01849L26.0384 6.51215H26.0452ZM20.615 6.22813L22.9345 4.83508L22.1095 4.34143L19.79 5.73447L20.615 6.22813ZM33.4533 6.22813L34.2784 5.73447L31.9589 4.34143L31.1339 4.83508L33.4533 6.22813ZM25.0613 5.92044L27.0325 4.73703L29.0037 5.92044L29.8287 5.42678L27.0325 3.74634L24.2363 5.42678L25.0613 5.92044ZM24.0773 5.32874L27.0325 3.55362L29.9876 5.32874L30.8093 4.83508L27.0291 2.56293L23.249 4.83508L24.0706 5.32874H24.0773ZM30.975 4.73703L31.8 4.24337L27.0359 1.3829L22.2718 4.24337L23.0968 4.73703L27.0359 2.37021L30.975 4.73703ZM22.1095 4.14532L27.0325 1.1868L31.9555 4.14532L32.7771 3.65167L27.0291 0.199488L21.2811 3.65167L22.1027 4.14532H22.1095Z" fill="#5993C9"></path></svg> 