<?xml version="1.0" encoding="UTF-8"?> <svg xmlns="http://www.w3.org/2000/svg" width="50" height="55" viewBox="0 0 50 55" fill="none"><path d="M4.15318 14.0476C2.81938 14.0476 1.73438 12.8108 1.73438 11.2904C1.73438 9.76998 2.81938 8.5332 4.15318 8.5332C5.48699 8.5332 6.57196 9.76998 6.57196 11.2904C6.57196 12.8108 5.48699 14.0476 4.15318 14.0476ZM4.15318 8.69401C2.89762 8.69401 1.87546 9.85916 1.87546 11.2904C1.87546 12.7216 2.89762 13.8867 4.15318 13.8867C5.40875 13.8867 6.43091 12.7216 6.43091 11.2904C6.43091 9.85916 5.40875 8.69401 4.15318 8.69401Z" fill="#5993C9"></path><path d="M5.49005 15.577C3.67403 15.577 2.19531 13.8929 2.19531 11.8213C2.19531 9.74979 3.67275 8.06567 5.49005 8.06567C7.30735 8.06567 8.78478 9.74979 8.78478 11.8213C8.78478 13.8929 7.30735 15.577 5.49005 15.577ZM5.49005 8.22794C3.75098 8.22794 2.33765 9.84043 2.33765 11.8213C2.33765 13.8022 3.75226 15.4147 5.49005 15.4147C7.22784 15.4147 8.64244 13.8022 8.64244 11.8213C8.64244 9.84043 7.22784 8.22794 5.49005 8.22794Z" fill="#5993C9"></path><path d="M6.82566 17.1072C4.52614 17.1072 2.65625 14.9757 2.65625 12.3545C2.65625 9.73328 4.52614 7.60181 6.82566 7.60181C9.12518 7.60181 10.9951 9.73328 10.9951 12.3545C10.9951 14.9757 9.12518 17.1072 6.82566 17.1072ZM6.82566 7.76408C4.60437 7.76408 2.79734 9.82392 2.79734 12.356C2.79734 14.888 4.60437 16.9479 6.82566 16.9479C9.04695 16.9479 10.854 14.888 10.854 12.356C10.854 9.82392 9.04695 7.76408 6.82566 7.76408Z" fill="#5993C9"></path><path d="M8.15932 18.6364C5.37757 18.6364 3.11523 16.0576 3.11523 12.8867C3.11523 9.71578 5.37757 7.13696 8.15932 7.13696C10.9411 7.13696 13.2034 9.71578 13.2034 12.8867C13.2034 16.0576 10.9411 18.6364 8.15932 18.6364ZM8.15932 7.29777C5.45581 7.29777 3.25632 9.80496 3.25632 12.8867C3.25632 15.9684 5.45581 18.4756 8.15932 18.4756C10.8628 18.4756 13.0623 15.9684 13.0623 12.8867C13.0623 9.80496 10.8628 7.29777 8.15932 7.29777Z" fill="#5993C9"></path><path d="M9.49685 20.1673C6.23289 20.1673 3.57812 17.1412 3.57812 13.4206C3.57812 9.7 6.23289 6.67383 9.49685 6.67383C12.7608 6.67383 15.4156 9.7 15.4156 13.4206C15.4156 17.1412 12.7608 20.1673 9.49685 20.1673ZM9.49685 6.83464C6.31112 6.83464 3.71918 9.78918 3.71918 13.4206C3.71918 17.052 6.31112 20.0065 9.49685 20.0065C12.6826 20.0065 15.2745 17.052 15.2745 13.4206C15.2745 9.78918 12.6826 6.83464 9.49685 6.83464Z" fill="#5993C9"></path><path d="M10.8318 21.6963C7.08561 21.6963 4.03711 18.2228 4.03711 13.951C4.03711 9.67932 7.08433 6.20581 10.8318 6.20581C14.5793 6.20581 17.6265 9.67932 17.6265 13.951C17.6265 18.2228 14.5793 21.6963 10.8318 21.6963ZM10.8318 6.36808C7.16384 6.36808 4.17948 9.76996 4.17948 13.951C4.17948 18.1321 7.16384 21.534 10.8318 21.534C14.4997 21.534 17.4841 18.1321 17.4841 13.951C17.4841 9.76996 14.4997 6.36808 10.8318 6.36808Z" fill="#5993C9"></path><path d="M12.1674 23.2255C7.939 23.2255 4.49805 19.3032 4.49805 14.4832C4.49805 9.6633 7.939 5.74097 12.1674 5.74097C16.3958 5.74097 19.8368 9.6633 19.8368 14.4832C19.8368 19.3032 16.3958 23.2255 12.1674 23.2255ZM12.1674 5.90324C8.01723 5.90324 4.64042 9.75248 4.64042 14.4832C4.64042 19.214 8.01723 23.0632 12.1674 23.0632C16.3176 23.0632 19.6944 19.214 19.6944 14.4832C19.6944 9.75248 16.3176 5.90324 12.1674 5.90324Z" fill="#5993C9"></path><path d="M13.501 24.7562C8.79041 24.7562 4.95703 20.3865 4.95703 15.0169C4.95703 9.64726 8.79041 5.27759 13.501 5.27759C18.2117 5.27759 22.0451 9.64726 22.0451 15.0169C22.0451 20.3865 18.2117 24.7562 13.501 24.7562ZM13.501 5.43841C8.86736 5.43841 5.09809 9.73497 5.09809 15.0169C5.09809 20.2988 8.86736 24.5954 13.501 24.5954C18.1347 24.5954 21.904 20.2988 21.904 15.0169C21.904 9.73497 18.1347 5.43841 13.501 5.43841Z" fill="#5993C9"></path><path d="M14.8386 26.2854C9.64447 26.2854 5.41992 21.4684 5.41992 15.5491C5.41992 9.62976 9.64575 4.81274 14.8386 4.81274C20.0314 4.81274 24.2573 9.62976 24.2573 15.5491C24.2573 21.4684 20.0314 26.2854 14.8386 26.2854ZM14.8386 4.97355C9.7227 4.97355 5.56101 9.71747 5.56101 15.5491C5.56101 21.3807 9.7227 26.1246 14.8386 26.1246C19.9545 26.1246 24.1162 21.3807 24.1162 15.5491C24.1162 9.71747 19.9545 4.97355 14.8386 4.97355Z" fill="#5993C9"></path><path d="M16.1723 27.8163C10.4959 27.8163 5.87891 22.552 5.87891 16.083C5.87891 9.61398 10.4972 4.34961 16.1723 4.34961C21.8473 4.34961 26.4656 9.61398 26.4656 16.083C26.4656 22.552 21.8473 27.8163 16.1723 27.8163ZM16.1723 4.50897C10.5741 4.50897 6.01996 9.70023 6.01996 16.0815C6.01996 22.4628 10.5741 27.654 16.1723 27.654C21.7704 27.654 26.3245 22.4628 26.3245 16.0815C26.3245 9.70023 21.7704 4.50897 16.1723 4.50897Z" fill="#5993C9"></path><path d="M17.5072 29.3453C11.3486 29.3453 6.33789 23.6336 6.33789 16.6134C6.33789 9.5933 11.3486 3.88159 17.5072 3.88159C23.6657 3.88159 28.6765 9.5933 28.6765 16.6134C28.6765 23.6336 23.6657 29.3453 17.5072 29.3453ZM17.5072 4.04386C11.4268 4.04386 6.48023 9.68248 6.48023 16.6134C6.48023 23.5444 11.4268 29.183 17.5072 29.183C23.5875 29.183 28.5341 23.5444 28.5341 16.6134C28.5341 9.68248 23.5875 4.04386 17.5072 4.04386Z" fill="#5993C9"></path><path d="M18.8447 30.876C12.2039 30.876 6.80078 24.7169 6.80078 17.1471C6.80078 9.57728 12.2039 3.41821 18.8447 3.41821C25.4855 3.41821 30.8887 9.57728 30.8887 17.1471C30.8887 24.7169 25.4855 30.876 18.8447 30.876ZM18.8447 3.57902C12.2822 3.57902 6.94187 9.66499 6.94187 17.1471C6.94187 24.6292 12.2809 30.7151 18.8447 30.7151C25.4086 30.7151 30.7476 24.6292 30.7476 17.1471C30.7476 9.66499 25.4086 3.57902 18.8447 3.57902Z" fill="#5993C9"></path><path d="M20.1803 32.4047C13.0573 32.4047 7.26172 25.7983 7.26172 17.6788C7.26172 9.55928 13.0573 2.95288 20.1803 2.95288C27.3033 2.95288 33.099 9.55928 33.099 17.6788C33.099 25.7983 27.3033 32.4047 20.1803 32.4047ZM20.1803 3.11369C13.1343 3.11369 7.40277 9.647 7.40277 17.6788C7.40277 25.7106 13.1343 32.2439 20.1803 32.2439C27.2264 32.2439 32.9579 25.7106 32.9579 17.6788C32.9579 9.647 27.2264 3.11369 20.1803 3.11369Z" fill="#5993C9"></path><path d="M21.516 33.9339C13.9094 33.9339 7.72266 26.8801 7.72266 18.211C7.72266 9.5418 13.9107 2.48804 21.516 2.48804C29.1212 2.48804 35.3092 9.5418 35.3092 18.211C35.3092 26.8801 29.1212 33.9339 21.516 33.9339ZM21.516 2.64884C13.9877 2.64884 7.86374 9.62951 7.86374 18.211C7.86374 26.7924 13.9877 33.7731 21.516 33.7731C29.0442 33.7731 35.1682 26.7924 35.1682 18.211C35.1682 9.62951 29.0442 2.64884 21.516 2.64884Z" fill="#5993C9"></path><path d="M22.8528 35.4648C14.7641 35.4648 8.18359 27.9637 8.18359 18.7434C8.18359 9.52307 14.7641 2.02197 22.8528 2.02197C30.9416 2.02197 37.5221 9.52307 37.5221 18.7434C37.5221 27.9637 30.9416 35.4648 22.8528 35.4648ZM22.8528 2.18424C14.8424 2.18424 8.32597 9.61225 8.32597 18.7434C8.32597 27.8745 14.8424 35.3025 22.8528 35.3025C30.8633 35.3025 37.3797 27.8745 37.3797 18.7434C37.3797 9.61225 30.8633 2.18424 22.8528 2.18424Z" fill="#5993C9"></path><path d="M24.1845 36.994C15.6136 36.994 8.64062 29.0456 8.64062 19.2756C8.64062 9.50557 15.6136 1.55713 24.1845 1.55713C32.7555 1.55713 39.7284 9.50557 39.7284 19.2756C39.7284 29.0456 32.7555 36.994 24.1845 36.994ZM24.1845 1.7194C15.6918 1.7194 8.78168 9.59475 8.78168 19.277C8.78168 28.9593 15.6905 36.8347 24.1845 36.8347C32.6785 36.8347 39.5873 28.9593 39.5873 19.277C39.5873 9.59475 32.6785 1.7194 24.1845 1.7194Z" fill="#5993C9"></path><path d="M25.5221 38.5245C16.4689 38.5245 9.10352 30.1287 9.10352 19.809C9.10352 9.4893 16.4689 1.09351 25.5221 1.09351C34.5753 1.09351 41.9407 9.4893 41.9407 19.809C41.9407 30.1287 34.5753 38.5245 25.5221 38.5245ZM25.5221 1.25433C16.5471 1.25433 9.2446 9.57702 9.2446 19.809C9.2446 30.0409 16.5471 38.3637 25.5221 38.3637C34.497 38.3637 41.7996 30.0395 41.7996 19.809C41.7996 9.57848 34.497 1.25433 25.5221 1.25433Z" fill="#5993C9"></path><path d="M26.8557 40.0537C17.3204 40.0537 9.5625 31.2105 9.5625 20.3412C9.5625 9.4718 17.3204 0.628662 26.8557 0.628662C36.3911 0.628662 44.1489 9.4718 44.1489 20.3412C44.1489 31.2105 36.3911 40.0537 26.8557 40.0537ZM26.8557 0.78947C17.3986 0.78947 9.70359 9.56098 9.70359 20.3412C9.70359 31.1213 17.3986 39.8928 26.8557 39.8928C36.3129 39.8928 44.0079 31.1213 44.0079 20.3412C44.0079 9.56098 36.3129 0.78947 26.8557 0.78947Z" fill="#5993C9"></path><path d="M26.7517 40.8943C17.6434 40.8943 10.2344 32.1448 10.2344 21.3909C10.2344 10.637 17.6447 1.88745 26.7517 1.88745C35.8587 1.88745 43.269 10.637 43.269 21.3909C43.269 32.1448 35.8587 40.8943 26.7517 40.8943ZM26.7517 2.04972C17.7216 2.04972 10.3755 10.7262 10.3755 21.3909C10.3755 32.0556 17.7216 40.7321 26.7517 40.7321C35.7818 40.7321 43.1279 32.0556 43.1279 21.3909C43.1279 10.7262 35.7818 2.04972 26.7517 2.04972Z" fill="#5993C9"></path><path d="M26.6477 41.7333C17.9677 41.7333 10.9062 33.0788 10.9062 22.4404C10.9062 11.802 17.9677 3.14746 26.6477 3.14746C35.3276 3.14746 42.3891 11.802 42.3891 22.4404C42.3891 33.0788 35.3276 41.7333 26.6477 41.7333ZM26.6477 3.30827C18.0459 3.30827 11.0486 11.8912 11.0486 22.4404C11.0486 32.9896 18.0459 41.5725 26.6477 41.5725C35.2494 41.5725 42.2467 32.9896 42.2467 22.4404C42.2467 11.8912 35.2494 3.30827 26.6477 3.30827Z" fill="#5993C9"></path><path d="M26.5404 42.574C18.2888 42.574 11.5762 34.013 11.5762 23.4916C11.5762 12.9702 18.2888 4.40918 26.5404 4.40918C34.792 4.40918 41.5046 12.9702 41.5046 23.4916C41.5046 34.013 34.792 42.574 26.5404 42.574ZM26.5404 4.56852C18.367 4.56852 11.7173 13.0564 11.7173 23.4901C11.7173 33.9238 18.367 42.4117 26.5404 42.4117C34.7137 42.4117 41.3635 33.9238 41.3635 23.4901C41.3635 13.0564 34.7137 4.56852 26.5404 4.56852Z" fill="#5993C9"></path><path d="M26.4364 43.4132C18.6131 43.4132 12.248 34.9473 12.248 24.5399C12.248 14.1325 18.6131 5.6665 26.4364 5.6665C34.2596 5.6665 40.6247 14.1325 40.6247 24.5399C40.6247 34.9473 34.2596 43.4132 26.4364 43.4132ZM26.4364 5.82877C18.6913 5.82877 12.3891 14.2231 12.3891 24.5413C12.3891 34.8595 18.6901 43.2524 26.4364 43.2524C34.1827 43.2524 40.4836 34.8581 40.4836 24.5413C40.4836 14.2246 34.1827 5.82877 26.4364 5.82877Z" fill="#5993C9"></path><path d="M26.3304 44.2537C18.9355 44.2537 12.918 35.8813 12.918 25.5908C12.918 15.3004 18.9342 6.92798 26.3304 6.92798C33.7265 6.92798 39.7428 15.3004 39.7428 25.5908C39.7428 35.8813 33.7265 44.2537 26.3304 44.2537ZM26.3304 7.08879C19.0124 7.08879 13.0591 15.3881 13.0591 25.5908C13.0591 35.7935 19.0124 44.0928 26.3304 44.0928C33.6483 44.0928 39.6017 35.7935 39.6017 25.5908C39.6017 15.3881 33.6483 7.08879 26.3304 7.08879Z" fill="#5993C9"></path><path d="M26.2244 45.0929C19.2565 45.0929 13.5879 36.8155 13.5879 26.6391C13.5879 16.4627 19.2565 8.1853 26.2244 8.1853C33.1922 8.1853 38.8608 16.4627 38.8608 26.6391C38.8608 36.8155 33.1922 45.0929 26.2244 45.0929ZM26.2244 8.34757C19.3348 8.34757 13.7303 16.5533 13.7303 26.6391C13.7303 36.7249 19.3348 44.9306 26.2244 44.9306C33.114 44.9306 38.7185 36.7249 38.7185 26.6391C38.7185 16.5533 33.114 8.34757 26.2244 8.34757Z" fill="#5993C9"></path><path d="M26.1191 45.9336C19.5796 45.9336 14.2598 37.7498 14.2598 27.6903C14.2598 17.6308 19.5796 9.44702 26.1191 9.44702C32.6585 9.44702 37.9783 17.6308 37.9783 27.6903C37.9783 37.7498 32.6585 45.9336 26.1191 45.9336ZM26.1191 9.60783C19.6578 9.60783 14.4009 17.72 14.4009 27.6903C14.4009 37.6606 19.6578 45.7728 26.1191 45.7728C32.5803 45.7728 37.8373 37.6606 37.8373 27.6903C37.8373 17.72 32.5803 9.60783 26.1191 9.60783Z" fill="#5993C9"></path><path d="M26.015 46.7726C19.9039 46.7726 14.9316 38.6823 14.9316 28.7398C14.9316 18.7973 19.9039 10.707 26.015 10.707C32.1261 10.707 37.0984 18.7973 37.0984 28.7398C37.0984 38.6823 32.1261 46.7726 26.015 46.7726ZM26.015 10.8679C19.9821 10.8679 15.0727 18.885 15.0727 28.7398C15.0727 38.5946 19.9808 46.6117 26.015 46.6117C32.0492 46.6117 36.9573 38.5946 36.9573 28.7398C36.9573 18.885 32.0492 10.8679 26.015 10.8679Z" fill="#5993C9"></path><path d="M25.911 47.6132C20.2282 47.6132 15.6035 39.618 15.6035 29.7895C15.6035 19.9611 20.2269 11.9658 25.911 11.9658C31.595 11.9658 36.2184 19.9611 36.2184 29.7895C36.2184 39.618 31.595 47.6132 25.911 47.6132ZM25.911 12.1281C20.3051 12.1281 15.7459 20.0517 15.7459 29.7895C15.7459 39.5274 20.3064 47.451 25.911 47.451C31.5155 47.451 36.0761 39.5274 36.0761 29.7895C36.0761 20.0517 31.5155 12.1281 25.911 12.1281Z" fill="#5993C9"></path><path d="M25.8056 48.4527C20.5499 48.4527 16.2754 40.551 16.2754 30.8395C16.2754 21.128 20.5512 13.2263 25.8056 13.2263C31.06 13.2263 35.3359 21.128 35.3359 30.8395C35.3359 40.551 31.06 48.4527 25.8056 48.4527ZM25.8056 13.3871C20.6282 13.3871 16.4164 21.2157 16.4164 30.8395C16.4164 40.4633 20.6282 48.2919 25.8056 48.2919C30.9831 48.2919 35.1948 40.4633 35.1948 30.8395C35.1948 21.2157 30.9831 13.3871 25.8056 13.3871Z" fill="#5993C9"></path><path d="M25.7016 49.2929C20.8743 49.2929 16.9473 41.4863 16.9473 31.8902C16.9473 22.2942 20.8743 14.4875 25.7016 14.4875C30.5289 14.4875 34.456 22.2942 34.456 31.8902C34.456 41.4863 30.5289 49.2929 25.7016 49.2929ZM25.7016 14.6469C20.9525 14.6469 17.0883 22.3819 17.0883 31.8888C17.0883 41.3956 20.9525 49.1306 25.7016 49.1306C30.4507 49.1306 34.3149 41.3956 34.3149 31.8888C34.3149 22.3819 30.4507 14.6469 25.7016 14.6469Z" fill="#5993C9"></path><path d="M25.5956 50.1321C21.1966 50.1321 17.6172 42.419 17.6172 32.9385C17.6172 23.4579 21.1966 15.7449 25.5956 15.7449C29.9946 15.7449 33.574 23.4579 33.574 32.9385C33.574 42.419 29.9946 50.1321 25.5956 50.1321ZM25.5956 15.9071C21.2749 15.9071 17.7582 23.5471 17.7582 32.9385C17.7582 42.3298 21.2736 49.9698 25.5956 49.9698C29.9176 49.9698 33.433 42.3298 33.433 32.9385C33.433 23.5471 29.9176 15.9071 25.5956 15.9071Z" fill="#5993C9"></path><path d="M25.4896 50.973C21.519 50.973 18.2871 43.355 18.2871 33.9899C18.2871 24.6249 21.5177 17.0068 25.4896 17.0068C29.4615 17.0068 32.6922 24.6249 32.6922 33.9899C32.6922 43.355 29.4615 50.973 25.4896 50.973ZM25.4896 17.1676C21.5959 17.1676 18.4294 24.7141 18.4294 33.9899C18.4294 43.2658 21.5972 50.8122 25.4896 50.8122C29.382 50.8122 32.5498 43.2658 32.5498 33.9899C32.5498 24.7141 29.382 17.1676 25.4896 17.1676Z" fill="#5993C9"></path><path d="M25.3843 51.8122C21.8408 51.8122 18.959 44.2878 18.959 35.0382C18.959 25.7886 21.8421 18.2642 25.3843 18.2642C28.9266 18.2642 31.8096 25.7886 31.8096 35.0382C31.8096 44.2878 28.9266 51.8122 25.3843 51.8122ZM25.3843 18.4264C21.919 18.4264 19.1001 25.8793 19.1001 35.0382C19.1001 44.1971 21.919 51.65 25.3843 51.65C28.8496 51.65 31.6686 44.1971 31.6686 35.0382C31.6686 25.8793 28.8496 18.4264 25.3843 18.4264Z" fill="#5993C9"></path><path d="M25.2783 52.6524C22.1631 52.6524 19.6289 45.2215 19.6289 36.0889C19.6289 26.9563 22.1631 19.5254 25.2783 19.5254C28.3935 19.5254 30.9277 26.9563 30.9277 36.0889C30.9277 45.2215 28.3935 52.6524 25.2783 52.6524ZM25.2783 19.6877C22.2414 19.6877 19.77 27.0455 19.77 36.0904C19.77 45.1353 22.2414 52.4931 25.2783 52.4931C28.3153 52.4931 30.7867 45.1353 30.7867 36.0904C30.7867 27.0455 28.3153 19.6877 25.2783 19.6877Z" fill="#5993C9"></path><path d="M25.1723 53.4914C22.4855 53.4914 20.2988 46.1555 20.2988 37.1384C20.2988 28.1213 22.4855 20.7854 25.1723 20.7854C27.8592 20.7854 30.0458 28.1213 30.0458 37.1384C30.0458 46.1555 27.8592 53.4914 25.1723 53.4914ZM25.1723 20.9462C22.5637 20.9462 20.4412 28.2105 20.4412 37.1384C20.4412 46.0663 22.5637 53.3306 25.1723 53.3306C27.7809 53.3306 29.9035 46.0663 29.9035 37.1384C29.9035 28.2105 27.7809 20.9462 25.1723 20.9462Z" fill="#5993C9"></path><path d="M25.0683 54.3319C23.9589 54.3319 22.9227 52.6404 22.1532 49.5689C21.3914 46.5282 20.9707 42.4859 20.9707 38.1894C20.9707 33.8928 21.3901 29.8506 22.1532 26.8098C22.9227 23.7383 23.9576 22.0469 25.0683 22.0469C26.1789 22.0469 27.2139 23.7383 27.9834 26.8098C28.7452 29.8506 29.1659 33.8928 29.1659 38.1894C29.1659 42.4859 28.7465 46.5282 27.9834 49.5689C27.2139 52.6404 26.1789 54.3319 25.0683 54.3319ZM25.0683 22.2062C22.8868 22.2062 21.1131 29.3755 21.1131 38.1879C21.1131 47.0003 22.888 54.1696 25.0683 54.1696C27.2485 54.1696 29.0235 47.0003 29.0235 38.1879C29.0235 29.3755 27.2485 22.2062 25.0683 22.2062Z" fill="#5993C9"></path><path d="M25.0877 54.0164C22.1649 54.0164 19.7871 46.9597 19.7871 38.2847C19.7871 29.6097 22.1649 22.5544 25.0877 22.5544C28.0105 22.5544 30.3882 29.6111 30.3882 38.2847C30.3882 46.9582 28.0105 54.0164 25.0877 54.0164ZM25.0877 22.7153C22.2431 22.7153 19.9282 29.7003 19.9282 38.2847C19.9282 46.8691 22.2431 53.8541 25.0877 53.8541C27.9323 53.8541 30.2472 46.8691 30.2472 38.2847C30.2472 29.7003 27.9323 22.7153 25.0877 22.7153Z" fill="#5993C9"></path><path d="M25.1084 53.7024C21.5212 53.7024 18.6035 46.8299 18.6035 38.3844C18.6035 29.9389 21.5212 23.0664 25.1084 23.0664C28.6955 23.0664 31.6132 29.9389 31.6132 38.3844C31.6132 46.8299 28.6955 53.7024 25.1084 53.7024ZM25.1084 23.2272C21.5994 23.2272 18.7446 30.0266 18.7446 38.3844C18.7446 46.7422 21.5994 53.5415 25.1084 53.5415C28.6173 53.5415 31.4721 46.7422 31.4721 38.3844C31.4721 30.0266 28.6173 23.2272 25.1084 23.2272Z" fill="#5993C9"></path><path d="M25.1271 53.3859C20.8769 53.3859 17.418 46.6991 17.418 38.4802C17.418 30.2613 20.8756 23.5745 25.1271 23.5745C29.3786 23.5745 32.8362 30.2613 32.8362 38.4802C32.8362 46.6991 29.3786 53.3859 25.1271 53.3859ZM25.1271 23.7353C20.9551 23.7353 17.5603 30.3504 17.5603 38.4802C17.5603 46.6099 20.9551 53.2251 25.1271 53.2251C29.2991 53.2251 32.6938 46.6099 32.6938 38.4802C32.6938 30.3504 29.2991 23.7353 25.1271 23.7353Z" fill="#5993C9"></path><path d="M25.1465 53.0721C20.2319 53.0721 16.2344 46.571 16.2344 38.5787C16.2344 30.5864 20.2319 24.0852 25.1465 24.0852C30.061 24.0852 34.0586 30.5864 34.0586 38.5787C34.0586 46.571 30.061 53.0721 25.1465 53.0721ZM25.1465 24.246C20.3102 24.246 16.3754 30.6755 16.3754 38.5787C16.3754 46.4818 20.3102 52.9113 25.1465 52.9113C29.9828 52.9113 33.9175 46.4818 33.9175 38.5787C33.9175 30.6755 29.9828 24.246 25.1465 24.246Z" fill="#5993C9"></path><path d="M25.1671 52.7578C19.5895 52.7578 15.0508 46.4409 15.0508 38.6767C15.0508 30.9124 19.5895 24.5955 25.1671 24.5955C30.7447 24.5955 35.2835 30.9124 35.2835 38.6767C35.2835 46.4409 30.7447 52.7578 25.1671 52.7578ZM25.1671 24.7563C19.6665 24.7563 15.1918 31.0001 15.1918 38.6767C15.1918 46.3532 19.6665 52.597 25.1671 52.597C30.6678 52.597 35.1424 46.3532 35.1424 38.6767C35.1424 31.0001 30.6678 24.7563 25.1671 24.7563Z" fill="#5993C9"></path><path d="M25.1859 52.4419C18.9439 52.4419 13.8652 46.3106 13.8652 38.7729C13.8652 31.2353 18.9439 25.104 25.1859 25.104C31.4278 25.104 36.5065 31.2353 36.5065 38.7729C36.5065 46.3106 31.4278 52.4419 25.1859 52.4419ZM25.1859 25.2663C19.0222 25.2663 14.0076 31.3259 14.0076 38.7744C14.0076 46.2229 19.0222 52.2825 25.1859 52.2825C31.3496 52.2825 36.3641 46.2229 36.3641 38.7744C36.3641 31.3259 31.3496 25.2663 25.1859 25.2663Z" fill="#5993C9"></path><path d="M25.2052 52.1276C18.299 52.1276 12.6816 46.1805 12.6816 38.8709C12.6816 31.5613 18.3003 25.6143 25.2052 25.6143C32.1102 25.6143 37.7288 31.5613 37.7288 38.8709C37.7288 46.1805 32.1102 52.1276 25.2052 52.1276ZM25.2052 25.7765C18.3772 25.7765 12.8227 31.6505 12.8227 38.8709C12.8227 46.0913 18.3772 51.9653 25.2052 51.9653C32.0333 51.9653 37.5878 46.0913 37.5878 38.8709C37.5878 31.6505 32.0333 25.7765 25.2052 25.7765Z" fill="#5993C9"></path><path d="M25.2259 51.8121C17.6566 51.8121 11.498 46.0507 11.498 38.9677C11.498 31.8847 17.6566 26.1233 25.2259 26.1233C32.7952 26.1233 38.9538 31.8847 38.9538 38.9677C38.9538 46.0507 32.7952 51.8121 25.2259 51.8121ZM25.2259 26.2856C17.7348 26.2856 11.6391 31.9753 11.6391 38.9677C11.6391 45.9601 17.7335 51.6498 25.2259 51.6498C32.7183 51.6498 38.8127 45.9601 38.8127 38.9677C38.8127 31.9753 32.7183 26.2856 25.2259 26.2856Z" fill="#5993C9"></path><path d="M25.2446 51.4973C17.011 51.4973 10.3125 45.9201 10.3125 39.0652C10.3125 32.2103 17.011 26.6331 25.2446 26.6331C33.4783 26.6331 40.1768 32.2103 40.1768 39.0652C40.1768 45.9201 33.4783 51.4973 25.2446 51.4973ZM25.2446 26.7953C17.0892 26.7953 10.4548 32.2994 10.4548 39.0652C10.4548 45.831 17.0892 51.3351 25.2446 51.3351C33.4001 51.3351 40.0357 45.831 40.0357 39.0652C40.0357 32.2994 33.4013 26.7953 25.2446 26.7953Z" fill="#5993C9"></path><path d="M25.266 51.1819C16.3693 51.1819 9.13086 45.7903 9.13086 39.1634C9.13086 32.5366 16.3693 27.145 25.266 27.145C34.1627 27.145 41.4024 32.5366 41.4024 39.1634C41.4024 45.7903 34.164 51.1819 25.266 51.1819ZM25.266 27.3058C16.4462 27.3058 9.27195 32.6257 9.27195 39.1634C9.27195 45.7011 16.4475 51.0211 25.266 51.0211C34.0845 51.0211 41.2601 45.7011 41.2601 39.1634C41.2601 32.6257 34.0845 27.3058 25.266 27.3058Z" fill="#5993C9"></path><path d="M25.2847 50.8674C15.7237 50.8674 7.94531 45.66 7.94531 39.2612C7.94531 32.8624 15.7237 27.655 25.2847 27.655C34.8458 27.655 42.6241 32.8624 42.6241 39.2612C42.6241 45.66 34.8458 50.8674 25.2847 50.8674ZM25.2847 27.8158C15.8019 27.8158 8.0864 32.9501 8.0864 39.2612C8.0864 45.5723 15.8019 50.7065 25.2847 50.7065C34.7675 50.7065 42.483 45.5723 42.483 39.2612C42.483 32.9501 34.7675 27.8158 25.2847 27.8158Z" fill="#5993C9"></path><path d="M25.3054 50.5516C15.08 50.5516 6.76172 45.5299 6.76172 39.3577C6.76172 33.1855 15.08 28.1638 25.3054 28.1638C35.5308 28.1638 43.8491 33.1855 43.8491 39.3577C43.8491 45.5299 35.5308 50.5516 25.3054 50.5516ZM25.3054 28.3246C15.1583 28.3246 6.90281 33.2732 6.90281 39.3577C6.90281 45.4422 15.1583 50.3908 25.3054 50.3908C35.4525 50.3908 43.708 45.4422 43.708 39.3577C43.708 33.2732 35.4525 28.3246 25.3054 28.3246Z" fill="#5993C9"></path><path d="M25.3241 50.2371C14.4357 50.2371 5.57617 45.4011 5.57617 39.4555C5.57617 33.5099 14.4344 28.6738 25.3241 28.6738C36.2138 28.6738 45.072 33.5099 45.072 39.4555C45.072 45.4011 36.2138 50.2371 25.3241 50.2371ZM25.3241 28.8346C14.5139 28.8346 5.71854 33.599 5.71854 39.4555C5.71854 45.3119 14.5139 50.0763 25.3241 50.0763C36.1343 50.0763 44.9297 45.3119 44.9297 39.4555C44.9297 33.599 36.1343 28.8346 25.3241 28.8346Z" fill="#5993C9"></path><path d="M25.3435 49.9233C13.7908 49.9233 4.39258 45.2715 4.39258 39.554C4.39258 33.8364 13.7908 29.1846 25.3435 29.1846C36.8963 29.1846 46.2944 33.8364 46.2944 39.554C46.2944 45.2715 36.8963 49.9233 25.3435 49.9233ZM25.3435 29.3468C13.869 29.3468 4.53367 33.9256 4.53367 39.5554C4.53367 45.1853 13.869 49.764 25.3435 49.764C36.818 49.764 46.1534 45.1853 46.1534 39.5554C46.1534 33.9256 36.818 29.3468 25.3435 29.3468Z" fill="#5993C9"></path><path d="M25.3642 49.6071C13.1484 49.6071 3.20898 45.141 3.20898 39.65C3.20898 34.159 13.1484 29.6929 25.3642 29.6929C37.58 29.6929 47.5194 34.159 47.5194 39.65C47.5194 45.141 37.58 49.6071 25.3642 49.6071ZM25.3642 29.8551C13.2253 29.8551 3.35007 34.2497 3.35007 39.65C3.35007 45.0503 13.2253 49.4448 25.3642 49.4448C37.503 49.4448 47.3783 45.0503 47.3783 39.65C47.3783 34.2497 37.503 29.8551 25.3642 29.8551Z" fill="#5993C9"></path><path d="M25.3829 49.2929C12.5028 49.2929 2.02344 45.0109 2.02344 39.748C2.02344 34.4851 12.5028 30.2031 25.3829 30.2031C38.2631 30.2031 48.7424 34.4851 48.7424 39.748C48.7424 45.0109 38.2631 49.2929 25.3829 49.2929ZM25.3829 30.3654C12.581 30.3654 2.16581 34.5743 2.16581 39.748C2.16581 44.9217 12.581 49.1306 25.3829 49.1306C38.1848 49.1306 48.6 44.9217 48.6 39.748C48.6 34.5743 38.1848 30.3654 25.3829 30.3654Z" fill="#5993C9"></path><path d="M25.4041 48.9771C18.8542 48.9771 12.6968 48.0342 8.06304 46.3223C3.40491 44.6016 0.839844 42.3006 0.839844 39.846C0.839844 37.3914 3.40491 35.0904 8.06304 33.3697C12.6955 31.6578 18.8542 30.7148 25.4041 30.7148C31.9539 30.7148 38.1113 31.6578 42.7451 33.3697C47.4032 35.0904 49.9683 37.3914 49.9683 39.846C49.9683 42.3006 47.4032 44.6016 42.7451 46.3223C38.1126 48.0342 31.9539 48.9771 25.4041 48.9771ZM25.4041 30.8742C11.9375 30.8742 0.982218 34.8989 0.982218 39.8445C0.982218 44.7902 11.9375 48.8149 25.4041 48.8149C38.8706 48.8149 49.8259 44.7902 49.8259 39.8445C49.8259 34.8989 38.8706 30.8742 25.4041 30.8742Z" fill="#5993C9"></path></svg> 