<?xml version="1.0" encoding="UTF-8"?> <svg xmlns="http://www.w3.org/2000/svg" width="74" height="74" viewBox="0 0 74 74" fill="none"><path d="M36.9769 33.9914C36.6125 33.7698 36.3219 33.6615 36.1151 33.6615C36.0019 33.6615 35.9083 33.696 35.8443 33.76C35.6572 33.9471 35.7311 34.3312 36.0757 34.8974C36.381 35.4046 36.8636 36.0005 37.4348 36.5717C38.2768 37.4137 39.3897 38.2606 39.9707 38.2606C40.0889 38.2606 40.1776 38.2262 40.2465 38.1622C40.6946 37.7141 39.5423 36.2368 38.656 35.3505C38.0848 34.7793 37.489 34.2967 36.9818 33.9914H36.9769ZM40.0692 37.9898C40.0446 38.0144 40.0003 38.0194 39.9658 38.0194C39.8082 38.0194 39.5473 37.916 39.2272 37.7239C38.7348 37.4285 38.1587 36.9557 37.6022 36.3993C37.0458 35.8429 36.5731 35.2618 36.2776 34.7743C35.992 34.2967 35.9379 34.0062 36.0117 33.9323C36.0314 33.9126 36.0659 33.9028 36.1151 33.9028C36.2727 33.9028 36.5386 34.0062 36.8538 34.1982C37.3462 34.4937 37.9223 34.9664 38.4787 35.5228C39.0352 36.0793 39.5079 36.6554 39.8033 37.1478C40.0889 37.6254 40.1431 37.9159 40.0692 37.9898Z" fill="#5A27E7"></path><path d="M71.4808 26.4919C69.0729 22.4935 65.2518 17.8008 60.7265 13.2755C56.2012 8.7502 51.5085 4.92906 47.5101 2.52116C44.7723 0.871571 42.5318 0 41.0398 0C40.3455 0 39.8088 0.187115 39.4395 0.551501C38.8141 1.17687 38.7205 2.2848 39.1489 3.81128C39.1243 3.83098 39.0997 3.85069 39.08 3.87038C38.4793 4.47113 38.4103 5.54458 38.8781 7.06122C38.8239 7.10061 38.7698 7.14494 38.7205 7.19418C38.1444 7.7703 38.1099 8.82407 38.6122 10.3309C38.5088 10.3899 38.43 10.449 38.3611 10.518C37.8145 11.0646 37.8145 12.1035 38.3709 13.6005C38.2232 13.6596 38.1001 13.7384 38.0016 13.8368C37.4797 14.3588 37.5289 15.4175 38.1395 16.8997C37.9277 16.9538 37.7652 17.0375 37.6471 17.1606C37.1399 17.6678 37.2334 18.7265 37.9228 20.2185C37.652 20.2431 37.4353 20.3318 37.2876 20.4795C36.7952 20.9719 36.9577 22.0454 37.7554 23.5817C37.6963 23.5817 37.6421 23.5719 37.588 23.5719C37.2974 23.5719 37.0759 23.6507 36.9232 23.7984C36.4456 24.276 36.7115 25.4184 37.6766 27.0188L37.6865 27.0335C37.4649 26.9695 37.2728 26.9351 37.1054 26.9351C36.874 26.9351 36.6918 26.9991 36.5687 27.1222C36.0763 27.6146 36.5687 28.9638 37.8883 30.7562C37.3516 30.4509 36.9281 30.2933 36.6179 30.2933C36.4456 30.2933 36.3077 30.3426 36.2092 30.441C35.574 31.0763 37.13 33.3167 38.9126 35.0993C39.8777 36.0644 40.8822 36.8818 41.739 37.3989C42.3447 37.7632 42.8223 37.9504 43.1621 37.9504C43.3344 37.9504 43.4723 37.9011 43.5708 37.8026C43.9007 37.4727 43.6102 36.7439 43.2458 36.1137C43.6397 36.4042 44.014 36.6553 44.3636 36.867C45.1958 37.3693 45.8852 37.6352 46.3529 37.6352C46.5844 37.6352 46.7666 37.5712 46.8897 37.4481C47.1063 37.2314 47.1359 36.8572 46.9783 36.3352C48.0518 36.9852 48.9332 37.325 49.5389 37.325C49.8294 37.325 50.0559 37.2462 50.2135 37.0886C50.3907 36.9114 50.4646 36.6356 50.4351 36.2663C51.3854 36.7587 52.1536 37.0099 52.7248 37.0099C53.0744 37.0099 53.3452 36.9163 53.5323 36.7292C53.6801 36.5814 53.7687 36.3697 53.7982 36.0989C54.66 36.4928 55.374 36.6947 55.9156 36.6947C56.3194 36.6947 56.6346 36.5864 56.8512 36.3697C56.9694 36.2515 57.0531 36.094 57.1073 35.8871C57.905 36.2171 58.5796 36.3796 59.1015 36.3796C59.5644 36.3796 59.9239 36.2565 60.1701 36.0103C60.2636 35.9167 60.3424 35.7936 60.4015 35.6557C61.1451 35.9315 61.7754 36.0693 62.2875 36.0693C62.7996 36.0693 63.2132 35.9315 63.489 35.6508C63.5579 35.5818 63.617 35.4981 63.6761 35.3997C64.3753 35.636 64.981 35.7542 65.4734 35.7542C66.0495 35.7542 66.5025 35.5966 66.8078 35.2913C66.8571 35.2421 66.9014 35.1928 66.9408 35.1338C67.6006 35.3356 68.1767 35.439 68.6642 35.439C69.2994 35.439 69.7919 35.2667 70.1316 34.9319C70.1513 34.9122 70.1661 34.8925 70.1956 34.8531C70.8358 35.0303 71.3922 35.1239 71.8502 35.1239C72.5445 35.1239 73.0812 34.9368 73.4505 34.5724C74.6126 33.4054 73.9134 30.5395 71.4808 26.5017V26.4919ZM39.2277 4.06735C39.4739 4.85521 39.8531 5.75633 40.3603 6.74608C40.2569 6.73623 40.1535 6.73131 40.0599 6.73131C39.6807 6.73131 39.3508 6.80025 39.0849 6.9332C38.6762 5.57906 38.7156 4.61885 39.2277 4.06735ZM44.856 20.0511C43.9253 19.342 43.0489 18.7364 42.2462 18.2538C41.675 17.9091 41.1383 17.6235 40.6656 17.4216C39.7546 16.0429 39.08 14.8069 38.6614 13.7482C38.7944 13.7137 38.9372 13.699 39.0849 13.699C39.4394 13.699 39.8826 13.7876 40.38 13.9402C41.5125 15.8065 43.0538 17.914 44.856 20.056V20.0511ZM38.9027 10.449C39.0997 10.3702 39.3262 10.3259 39.5773 10.3259C39.8038 10.3259 40.0845 10.3653 40.3947 10.4146C40.5474 10.6854 40.705 10.9611 40.8773 11.2467C41.6553 12.5369 42.6008 13.9205 43.6939 15.3584C42.4973 14.6099 41.4387 14.0781 40.572 13.7974C39.8137 12.5467 39.2523 11.424 38.9027 10.449ZM45.6783 20.9965C46.8158 22.2965 48.0075 23.5719 49.2188 24.7832C50.4301 25.9946 51.7104 27.1862 53.0055 28.3187C54.0297 29.5744 54.8816 30.771 55.5463 31.874C55.7876 32.2778 56.0092 32.6766 56.2012 33.0656C53.5816 31.2929 50.7207 28.885 47.9188 26.0832C45.1564 23.3207 42.6746 20.381 40.9167 17.7811C42.2807 18.4557 43.9253 19.5636 45.6833 20.9965H45.6783ZM46.9832 22.0996C47.8351 22.848 48.687 23.6457 49.5192 24.4779C50.3513 25.3101 51.1294 26.1423 51.8778 26.9991C51.0358 26.226 50.1987 25.4283 49.3862 24.6158C48.5688 23.7984 47.7613 22.9564 46.9832 22.1045V22.0996ZM49.6915 24.3056C48.4112 23.0253 47.1113 21.8484 45.831 20.8094C43.7727 18.4508 42.0148 16.1266 40.7394 14.0683C41.6947 14.4327 42.8223 15.0433 44.0928 15.8804C45.9984 18.3375 48.2143 20.839 50.6862 23.306C53.1532 25.773 55.6546 27.9938 58.1019 29.8895C58.944 31.1649 59.5546 32.2974 59.9239 33.2527C57.8705 31.9774 55.5414 30.2244 53.1926 28.171C52.1487 26.8809 50.9718 25.5809 49.6915 24.3056ZM44.7526 16.3285C46.9783 17.8746 49.3813 19.9231 51.7252 22.267C54.0691 24.6109 56.1175 27.0138 57.6637 29.2445C55.4084 27.4521 53.1187 25.3987 50.8585 23.1385C48.5984 20.8784 46.545 18.5886 44.7526 16.3334V16.3285ZM51.8975 22.0946C49.3567 19.5538 46.6533 17.2936 44.2947 15.7474C43.0292 14.1126 41.9458 12.5566 41.0792 11.1187C40.9561 10.9119 40.8379 10.71 40.7247 10.513C41.4928 10.7297 42.4136 11.1286 43.4428 11.6998C45.7621 14.9448 48.7756 18.4508 52.1585 21.8386C55.5414 25.2215 59.0425 28.235 62.2678 30.5297C62.8439 31.5736 63.2477 32.4895 63.4643 33.2675C63.2723 33.1542 63.0704 33.041 62.8685 32.9179C61.4307 32.0512 59.8746 30.9679 58.2546 29.7172C56.6887 27.3438 54.4285 24.6404 51.8926 22.0996L51.8975 22.0946ZM43.95 11.9903C46.9045 13.7236 50.5237 16.6485 53.9312 20.0609C57.255 23.3847 60.0618 26.8317 61.8295 29.7664C61.8837 29.8551 61.9329 29.9437 61.9871 30.0323C58.875 27.7672 55.5414 24.8768 52.3259 21.6613C49.1203 18.4557 46.2298 15.1171 43.945 11.9903H43.95ZM62.0363 29.6433C60.2637 26.6938 57.4421 23.2321 54.1035 19.8886C50.5089 16.294 46.6927 13.2558 43.6447 11.5668C42.4924 9.95661 41.5322 8.43506 40.7887 7.05137C41.9557 7.26804 43.5019 7.94264 45.2795 9.0161C48.5639 10.9956 52.4195 14.1323 56.1421 17.8549C59.8648 21.5776 63.0064 25.4381 64.981 28.7176C66.0495 30.4952 66.7291 32.0414 66.9457 33.2035C66.4681 32.9474 65.9855 32.6717 65.5029 32.3812C64.5378 31.8001 63.5136 31.1206 62.4697 30.3869C62.3367 30.1456 62.1939 29.8994 62.0413 29.6483L62.0363 29.6433ZM41.4042 8.61725C41.9114 9.4642 42.5023 10.3653 43.1572 11.3009C42.1625 10.779 41.286 10.4244 40.5819 10.2718C39.9269 9.10475 39.4444 8.0559 39.1489 7.16464C39.3853 7.03661 39.6807 6.97259 40.0353 6.97259C40.1781 6.97259 40.3258 6.98243 40.4883 7.00213C40.769 7.53394 41.0743 8.08052 41.3993 8.61725H41.4042ZM38.8879 7.35667C38.8879 7.35667 38.9323 7.31728 38.952 7.30251C39.2326 8.14946 39.6758 9.11459 40.2569 10.1782C39.991 10.129 39.7448 10.1043 39.5232 10.1043C39.2523 10.1043 39.016 10.1437 38.8141 10.2176C38.3611 8.84868 38.3808 7.85893 38.883 7.35667H38.8879ZM38.5285 10.6755C38.5728 10.6312 38.627 10.5869 38.6861 10.5475C39.016 11.4536 39.5281 12.5024 40.2125 13.6596C39.7743 13.5315 39.3853 13.4675 39.0504 13.4675C38.8781 13.4675 38.7156 13.4872 38.5728 13.5217C38.0607 12.1429 38.0459 11.163 38.5285 10.6755ZM38.169 13.9944C38.2478 13.9156 38.3414 13.8565 38.4546 13.8073C38.8486 14.8069 39.4641 15.9641 40.2864 17.2443C39.6069 16.9686 39.0307 16.8258 38.5728 16.8258C38.494 16.8258 38.4202 16.8258 38.3512 16.8356C37.7702 15.4421 37.7062 14.4573 38.169 13.9944ZM37.8096 17.3133C37.913 17.2099 38.0508 17.136 38.2232 17.0966C38.7107 18.2193 39.5084 19.5735 40.5326 21.0212C39.5576 20.4992 38.7599 20.2185 38.1641 20.1988C37.4846 18.761 37.3615 17.7663 37.8096 17.3182V17.3133ZM46.2692 27.718C48.3423 29.7911 50.5089 31.6672 52.5229 33.1296C53.1433 34.1883 53.4979 35.0747 53.557 35.7C52.0108 34.9319 50.1396 33.6319 48.1404 31.938C47.3181 30.8695 46.353 29.7812 45.2795 28.7078C44.206 27.6343 43.1129 26.6642 42.064 25.8616C40.3603 23.8476 39.0554 21.9715 38.2872 20.4204C38.9175 20.4795 39.8038 20.834 40.8478 21.4397C42.325 23.4685 44.2011 25.64 46.2742 27.7081L46.2692 27.718ZM41.3796 21.7795C43.1966 22.9268 45.2942 24.6552 47.3131 26.6741C49.332 28.693 51.0604 30.7857 52.2028 32.5978C50.3218 31.1797 48.3325 29.4414 46.4416 27.5457C44.5507 25.6499 42.7928 23.6556 41.3796 21.7795ZM44.7969 29.1903C45.8211 30.2145 46.8848 31.1944 47.9533 32.0956C49.0957 33.5777 49.8589 34.8826 50.1101 35.7985C48.1749 34.6955 45.7719 32.7702 43.4969 30.4952C41.3599 28.3581 39.5527 26.1373 38.4152 24.2514C38.3414 24.1283 38.2724 24.0101 38.2084 23.8919C38.7058 24.0347 39.3262 24.3253 40.0156 24.7438C40.6016 25.0934 41.2318 25.5317 41.8867 26.0339C42.7977 27.1123 43.7776 28.171 44.7969 29.1903ZM42.9799 26.9203C43.6939 27.526 44.403 28.1809 45.1022 28.8801C45.8014 29.5793 46.4613 30.2933 47.0669 31.0073C46.348 30.3623 45.6439 29.6975 44.9643 29.018C44.2897 28.3434 43.62 27.6392 42.9799 26.9203ZM37.4501 20.6322C37.5781 20.5041 37.7702 20.4303 38.0164 20.4204C38.2281 20.8636 38.4645 21.2969 38.7353 21.7499C39.3902 22.8382 40.2322 24.02 41.2515 25.2756C40.8576 24.995 40.4834 24.7487 40.1338 24.5419C39.3114 24.0446 38.6073 23.7344 38.041 23.6162C37.2482 22.1389 37.0316 21.0556 37.4452 20.642L37.4501 20.6322ZM43.3935 37.6155C43.3443 37.6648 43.2655 37.6894 43.1572 37.6894C42.8716 37.6894 42.4087 37.5072 41.8572 37.1723C41.0152 36.6652 40.0304 35.8625 39.0751 34.9072C38.0952 33.9273 37.2778 32.9228 36.7804 32.0759C36.3471 31.3422 36.1895 30.771 36.3717 30.5888C36.421 30.5395 36.4997 30.5149 36.6081 30.5149C36.8937 30.5149 37.3565 30.6971 37.908 31.0319C38.0361 31.1107 38.1739 31.1994 38.297 31.2781C38.9076 32.0512 39.6069 32.8342 40.38 33.6073C41.1481 34.3705 41.9261 35.0697 42.6943 35.6705C43.4822 36.8375 43.5659 37.4481 43.3985 37.6155H43.3935ZM39.1046 31.8789C39.6266 32.2925 40.1682 32.78 40.6902 33.297C41.2269 33.8338 41.7095 34.3705 42.1231 34.8974C41.5962 34.4493 41.0693 33.9569 40.5523 33.4398C40.0402 32.9277 39.5576 32.4058 39.1095 31.8789H39.1046ZM46.7124 37.2561C46.6336 37.3348 46.5105 37.3742 46.3431 37.3742C45.9246 37.3742 45.2795 37.1182 44.4818 36.6405C43.9894 36.3402 43.4428 35.961 42.8716 35.5178C42.3545 34.7546 41.6356 33.9076 40.8576 33.1296C40.0599 32.3319 39.2326 31.6327 38.4891 31.1304C37.0119 29.2494 36.3077 27.6983 36.7262 27.2748C36.81 27.196 36.9331 27.1517 37.0956 27.1517C37.3024 27.1517 37.5732 27.2207 37.8736 27.329C38.8141 28.8112 40.2273 30.5149 41.8424 32.135C43.4772 33.7698 45.1859 35.183 46.6336 36.089C46.8601 36.6602 46.8848 37.0739 46.7075 37.2561H46.7124ZM38.2921 27.5259C39.5626 28.1513 41.3008 29.5005 42.8962 31.096C44.2454 32.4452 45.3829 33.8436 46.0969 35.0304C46.2348 35.2618 46.3579 35.4883 46.4662 35.7099C45.0776 34.7792 43.5068 33.4595 42.0197 31.9724C40.5326 30.4854 39.2179 28.9146 38.2921 27.5309V27.5259ZM50.0313 36.8966C49.918 37.0098 49.7457 37.0689 49.5192 37.0689C48.9233 37.0689 47.9878 36.675 46.8404 35.961C46.7075 35.636 46.5253 35.2766 46.2988 34.9023C45.5749 33.6959 44.4227 32.2827 43.0587 30.9187C41.222 29.0869 39.341 27.6737 38.0508 27.1665C38.0508 27.1665 37.9031 26.94 37.8686 26.876C36.9971 25.4234 36.7016 24.3302 37.0808 23.951C37.1891 23.8427 37.3565 23.7885 37.5781 23.7885C37.6668 23.7885 37.7702 23.8033 37.8785 23.8181C37.977 24.0003 38.0804 24.1825 38.1936 24.3696C39.341 26.2703 41.158 28.5059 43.3098 30.6626C45.698 33.0508 48.1946 35.0353 50.1642 36.1087C50.2233 36.4731 50.1741 36.739 50.0214 36.8917L50.0313 36.8966ZM53.3501 36.5371C53.2073 36.6799 52.9858 36.7538 52.7002 36.7538C52.1487 36.7538 51.346 36.478 50.376 35.9512C50.2135 35.1535 49.6324 34.0258 48.7215 32.7406C49.9673 33.7501 51.1491 34.5921 52.2324 35.2421C52.6805 35.5129 53.1286 35.7542 53.557 35.961C53.5422 36.2121 53.4733 36.4042 53.3501 36.5273V36.5371ZM56.669 36.1777C56.4967 36.35 56.2357 36.4386 55.891 36.4386C55.3592 36.4386 54.6551 36.2318 53.7884 35.8231C53.7687 35.2322 53.4979 34.4444 52.9858 33.4842C53.6358 33.947 54.266 34.3607 54.8569 34.7152C55.566 35.1436 56.2456 35.4981 56.866 35.769C56.8217 35.9512 56.7577 36.0841 56.6641 36.1777H56.669ZM54.985 34.5084C54.2907 34.0898 53.5225 33.5728 52.7149 32.9917C51.5873 31.0615 49.726 28.757 47.4757 26.5017C45.3238 24.3499 43.0882 22.5329 41.1875 21.3855L41.0792 21.3215L41.0103 21.2871C39.858 19.7113 38.9667 18.2489 38.4398 17.0474C38.4842 17.0474 38.5334 17.0425 38.5827 17.0425C39.0751 17.0425 39.7251 17.2246 40.4883 17.5546C42.261 20.253 44.8363 23.3404 47.7366 26.2358C50.6862 29.1805 53.6801 31.6869 56.3834 33.4595C56.7626 34.3065 56.9448 35.0107 56.9202 35.508C56.3046 35.2372 55.6596 34.8974 54.9899 34.4985L54.985 34.5084ZM59.9879 35.8182C59.7959 36.0102 59.5004 36.1087 59.1065 36.1087C58.5944 36.1087 57.9395 35.9462 57.1516 35.6163C57.2008 35.1338 57.0629 34.4936 56.7478 33.7107C56.9989 33.8732 57.2451 34.0307 57.4914 34.1785C58.4811 34.7743 59.3822 35.2372 60.175 35.5474C60.1258 35.6508 60.0667 35.7394 59.9928 35.8133L59.9879 35.8182ZM60.2489 35.3159C59.4561 35.0057 58.5697 34.5527 57.6095 33.9766C57.2698 33.7698 56.9202 33.5482 56.5902 33.3414C56.3687 32.8489 56.0781 32.3122 55.7384 31.7459C55.2558 30.9433 54.6501 30.0668 53.9411 29.1362C56.1077 30.963 58.166 32.4698 60.0371 33.5876C60.2784 34.3114 60.3523 34.8925 60.2489 35.3209V35.3159ZM63.3068 35.4587C63.0803 35.6853 62.7405 35.7985 62.2875 35.7985C61.795 35.7985 61.1845 35.6656 60.4705 35.3997C60.5689 34.9811 60.5197 34.4345 60.3277 33.7698C61.4799 34.4493 62.5238 34.9614 63.4397 35.2913C63.4003 35.3553 63.356 35.4095 63.3117 35.4538L63.3068 35.4587ZM63.5382 35.0894C62.5681 34.7398 61.4405 34.1785 60.2144 33.4546C59.9091 32.5584 59.3724 31.4997 58.6239 30.3032C60.0618 31.3914 61.4405 32.3418 62.7356 33.1198C63.0162 33.2872 63.2871 33.4448 63.5284 33.558C63.6761 34.208 63.681 34.7201 63.5382 35.0944V35.0894ZM66.6256 35.0993C66.3647 35.3652 65.9707 35.4981 65.4537 35.4981C64.9859 35.4981 64.4196 35.3898 63.7696 35.1731C63.9124 34.8038 63.9272 34.3262 63.8189 33.7402C64.8776 34.3213 65.8378 34.7546 66.6798 35.0353C66.6601 35.0599 66.6453 35.0796 66.6207 35.0993H66.6256ZM66.8177 34.8334C65.9313 34.5428 64.8923 34.0652 63.7598 33.4497C63.5825 32.716 63.2329 31.8395 62.7109 30.8448C63.6318 31.4899 64.5279 32.0759 65.3651 32.5831C65.8919 32.9031 66.4188 33.1986 66.9753 33.4891C67.0442 34.0554 66.99 34.5035 66.8177 34.8334ZM68.6445 35.183C68.1915 35.183 67.6597 35.0894 67.0491 34.9072C67.2165 34.5724 67.2805 34.144 67.2411 33.627C68.226 34.1342 69.132 34.5133 69.9248 34.7595C69.6343 35.0402 69.201 35.183 68.6445 35.183ZM70.0873 34.5626C69.2502 34.3114 68.2802 33.8978 67.2067 33.3414C67.0245 32.1251 66.34 30.5248 65.173 28.5847C63.1886 25.2855 60.0371 21.4102 56.2997 17.6777C52.5623 13.9402 48.687 10.7888 45.3927 8.80437C43.4526 7.63242 41.8474 6.95289 40.6311 6.77069C40.0747 5.70216 39.666 4.73703 39.4148 3.895C39.7054 3.68818 40.0845 3.58477 40.5425 3.58477C43.9253 3.58477 51.2377 8.54339 58.3383 15.6391C62.4549 19.7557 65.9264 24.0249 68.1176 27.654C70.1513 31.027 70.8505 33.4792 70.0922 34.5626H70.0873ZM73.2683 34.3804C72.9482 34.7004 72.4657 34.8629 71.8403 34.8629C71.407 34.8629 70.9047 34.7841 70.3384 34.6315C71.0771 33.43 70.368 30.9187 68.3245 27.5309C66.1234 23.8821 62.642 19.5981 58.5107 15.4667C54.3793 11.3354 50.0953 7.84909 46.4465 5.65292C43.945 4.14613 41.9015 3.35334 40.5375 3.35334C40.055 3.35334 39.6561 3.45182 39.341 3.64386C38.9618 2.24541 39.0455 1.25566 39.597 0.709078C39.922 0.384084 40.4046 0.221592 41.0349 0.221592C44.7427 0.221592 52.7642 5.65291 60.5443 13.4331C65.0598 17.9485 68.8661 22.6264 71.2642 26.6051C73.6376 30.5445 74.3467 33.302 73.2683 34.3804Z" fill="#5A27E7"></path><path d="M32.2694 36.6062C31.6638 36.2418 31.1861 36.0547 30.8464 36.0547C30.674 36.0547 30.5361 36.1039 30.4376 36.2024C30.1668 36.4732 30.2702 37.0395 30.7528 37.8815C29.4282 36.9066 28.335 36.3748 27.6555 36.3748C27.4241 36.3748 27.2419 36.4388 27.1188 36.5619C26.9021 36.7785 26.8726 37.1528 27.0301 37.6796C25.9518 37.0297 25.0703 36.6899 24.4696 36.6899C24.1791 36.6899 23.9575 36.7687 23.7999 36.9213C23.6226 37.1035 23.5438 37.3793 23.5783 37.7486C22.628 37.2513 21.8549 37.0001 21.2837 37.0001C20.939 37.0001 20.6681 37.0937 20.481 37.2808C20.3333 37.4285 20.2447 37.6403 20.2201 37.916C19.3583 37.5221 18.6443 37.3202 18.0928 37.3202C17.689 37.3202 17.3739 37.4285 17.1622 37.6452C17.044 37.7634 16.9603 37.9209 16.9061 38.1277C16.1133 37.8028 15.4436 37.6353 14.9069 37.6353C14.444 37.6353 14.0846 37.7584 13.8384 38.0046C13.7399 38.1031 13.6611 38.2262 13.5971 38.374C12.8535 38.0982 12.2134 37.9603 11.6964 37.9603C11.1793 37.9603 10.7903 38.0982 10.5195 38.3641C10.4506 38.433 10.3915 38.5168 10.3324 38.6152C9.63808 38.3838 9.0324 38.2656 8.52522 38.2656C7.94909 38.2656 7.501 38.4183 7.19571 38.7236C7.14647 38.7728 7.10214 38.8221 7.06275 38.8762C6.40783 38.6743 5.83171 38.5758 5.3393 38.5758C4.70408 38.5758 4.21168 38.7482 3.87191 39.083C3.85221 39.1027 3.83744 39.1224 3.80789 39.1569C3.18253 38.9796 2.62117 38.891 2.14353 38.891C1.44923 38.891 0.912502 39.0781 0.548115 39.4376C-0.613982 40.6046 0.0852463 43.4704 2.51777 47.5082C4.92568 51.5017 8.74189 56.1994 13.2721 60.7246C17.7974 65.2499 22.495 69.0711 26.4885 71.479C29.2263 73.1286 31.4668 74.0001 32.9637 74.0001C33.658 74.0001 34.1948 73.813 34.5641 73.4486C35.1894 72.8233 35.283 71.7104 34.8595 70.179C34.8842 70.1642 34.9039 70.1445 34.9235 70.1248C35.5243 69.5241 35.5932 68.4506 35.1254 66.9291C35.1796 66.8897 35.2338 66.8503 35.283 66.801C35.8591 66.2249 35.8936 65.1711 35.3913 63.6644C35.4947 63.6053 35.5735 63.5462 35.6425 63.4772C36.189 62.9307 36.1891 61.8917 35.6326 60.3947C35.7754 60.3356 35.9035 60.2519 36.0019 60.1534C36.5239 59.6315 36.4746 58.5777 35.869 57.1005C36.0709 57.0463 36.2334 56.9577 36.3614 56.8346C36.8686 56.3274 36.775 55.2736 36.0906 53.7816C36.3565 53.7521 36.5682 53.6634 36.7209 53.5108C37.2182 53.0134 37.0606 51.9449 36.2629 50.4184C36.3122 50.4184 36.3614 50.4233 36.4057 50.4233C36.6962 50.4233 36.9178 50.3445 37.0754 50.1919C37.553 49.7143 37.2871 48.5719 36.322 46.9715L36.3072 46.9518C36.5387 47.0257 36.7307 47.0601 36.8932 47.0601C37.1246 47.0601 37.3068 46.9961 37.4299 46.873C37.8091 46.4939 37.6023 45.5977 36.8538 44.3469C36.6421 43.9973 36.3909 43.6231 36.1004 43.2292C36.6371 43.5394 37.0705 43.697 37.3856 43.697C37.558 43.697 37.6958 43.6477 37.7943 43.5492C38.4295 42.914 36.8735 40.6735 35.091 38.891C34.1209 37.9209 33.1164 37.1085 32.2645 36.5914L32.2694 36.6062ZM20.6484 37.4531C20.7863 37.3153 20.9981 37.2463 21.2787 37.2463C21.8302 37.2463 22.6427 37.527 23.6226 38.049C23.7901 38.8565 24.3613 39.9546 25.2722 41.2447C24.0215 40.2353 22.8446 39.3933 21.7613 38.7433C21.3231 38.4823 20.8947 38.2459 20.4515 38.0293C20.4613 37.7683 20.5303 37.5762 20.6484 37.4531ZM27.7343 46.2723C25.6662 44.2091 23.5045 42.333 21.4954 40.8705C20.8799 39.8167 20.5253 38.9304 20.4613 38.2952C22.0075 39.0633 23.8738 40.3633 25.8631 42.0424C26.6854 43.111 27.6555 44.1992 28.7339 45.2825C29.7926 46.3363 30.9054 47.326 31.9494 48.1287C33.6285 50.1082 34.9629 52.0335 35.7262 53.5649C35.0959 53.5058 34.2095 53.1513 33.1656 52.5456C31.6884 50.5169 29.8123 48.3454 27.7392 46.2772L27.7343 46.2723ZM32.6338 52.2207C30.8168 51.0733 28.7191 49.3449 26.6904 47.3162C24.6813 45.3071 22.9579 43.2193 21.8155 41.4072C23.6916 42.8205 25.6711 44.5587 27.5619 46.4446C29.4676 48.3503 31.2157 50.3446 32.6338 52.2207ZM26.9267 42.978C27.6457 43.6231 28.3547 44.2928 29.0343 44.9723C29.7138 45.6518 30.3786 46.356 31.0236 47.07C30.3145 46.4692 29.6005 45.8094 28.9013 45.1053C28.1972 44.4011 27.5373 43.6871 26.9317 42.9731L26.9267 42.978ZM29.2066 44.8049C28.1873 43.7856 27.1188 42.8008 26.0502 41.8996C24.9078 40.4224 24.1495 39.1175 23.8935 38.2065C24.0116 38.2755 24.1347 38.3444 24.2628 38.4232C26.1487 39.5607 28.3695 41.3678 30.5066 43.5049C32.7766 45.7749 34.7019 48.173 35.805 50.1082C35.3027 49.9654 34.6773 49.6749 33.9879 49.2563C33.402 48.9018 32.7717 48.4685 32.1168 47.9662C31.2058 46.8878 30.2259 45.8291 29.2066 44.8049ZM17.3247 37.8175C17.497 37.6403 17.7629 37.5516 18.1027 37.5516C18.6246 37.5516 19.3337 37.7584 20.2053 38.1721C20.225 38.763 20.5007 39.5558 21.0178 40.5209C20.3579 40.0531 19.7227 39.6345 19.1269 39.2751C18.408 38.8418 17.7334 38.4872 17.1129 38.2164C17.1572 38.0391 17.2262 37.9062 17.3197 37.8126L17.3247 37.8175ZM19.0087 39.4868C19.7079 39.9054 20.481 40.4273 21.2984 41.0182L21.4018 41.2004C22.5492 43.1061 24.3662 45.3367 26.518 47.4935C28.7782 49.7537 31.0876 51.6199 32.9982 52.7278C34.1406 54.2937 35.022 55.7414 35.5489 56.933C35.5095 56.933 35.4652 56.933 35.4258 56.933C34.9235 56.933 34.2686 56.7509 33.4906 56.4111C31.713 53.7127 29.1475 50.64 26.2571 47.7495C23.3617 44.8541 20.2791 42.2837 17.6004 40.5307C17.2114 39.669 17.0292 38.9747 17.0686 38.4675C17.6693 38.7334 18.3193 39.0732 19.0038 39.4868H19.0087ZM24.7847 49.2218C23.5783 48.0154 22.303 46.8189 20.9981 45.6814C19.5651 43.9235 18.4621 42.2788 17.7826 40.9148C20.3826 42.6727 23.3223 45.1545 26.0896 47.9169C28.8472 50.6745 31.324 53.6093 33.0819 56.2043C32.688 56.0122 32.2891 55.7907 31.8804 55.5444C30.7823 54.8797 29.5858 54.0278 28.3301 53.0134C27.1877 51.7036 25.9911 50.4283 24.7847 49.2218ZM26.9858 51.871C26.1339 51.1275 25.2968 50.3396 24.4844 49.5271C23.6719 48.7147 22.884 47.8726 22.1405 47.0207C22.9923 47.8037 23.8245 48.5965 24.6173 49.3893C25.4101 50.1771 26.2029 51.0093 26.9858 51.8661V51.871ZM24.312 49.6946C25.5874 50.9699 26.8824 52.1419 28.1578 53.1759C30.221 55.5346 31.9789 57.8637 33.2493 59.9269C32.299 59.5625 31.1713 58.952 29.9108 58.1247C28.0002 55.6626 25.7843 53.1612 23.3124 50.6892C20.8405 48.2173 18.3538 46.0113 15.9065 44.1155C15.6948 43.7954 15.4978 43.4803 15.3107 43.175C14.7789 42.2886 14.3702 41.4811 14.0944 40.7622C16.1478 42.0326 18.472 43.7905 20.8159 45.834C21.8598 47.1192 23.0317 48.4143 24.3071 49.6896L24.312 49.6946ZM29.2559 57.6717C27.0301 56.1255 24.6272 54.077 22.2783 51.7332C19.9394 49.3942 17.9008 46.9961 16.3595 44.7753C18.6197 46.5727 20.8996 48.6211 23.1499 50.8665C25.4101 53.1267 27.4684 55.4164 29.2608 57.6766L29.2559 57.6717ZM22.106 51.9006C24.637 54.4316 27.3453 56.6918 29.704 58.2429C30.9744 59.8826 32.0577 61.4386 32.9243 62.8765C33.0475 63.0833 33.1705 63.2901 33.2838 63.4871C32.5156 63.2704 31.5948 62.8666 30.5657 62.3004C28.2464 59.0504 25.2328 55.5444 21.845 52.1566C18.4572 48.7688 14.9512 45.7552 11.721 43.4557C11.1399 42.4068 10.7312 41.486 10.5195 40.7129C12.1149 41.6288 13.8679 42.8254 15.7243 44.2583C17.305 46.6564 19.5159 49.3006 22.1109 51.8957L22.106 51.9006ZM30.0536 62.0049C27.0991 60.2667 23.4798 57.3418 20.0723 53.9342C16.6648 50.5267 13.7399 46.9026 12.0017 43.9481C15.1285 46.228 18.4671 49.1184 21.6727 52.329C24.8783 55.5346 27.7688 58.8732 30.0536 62V62.0049ZM19.9 54.1066C23.4897 57.6963 27.3108 60.7345 30.3589 62.4284C31.521 64.0484 32.4861 65.5749 33.2296 66.9635C29.9058 66.3628 23.7605 62.0394 17.8663 56.1452C11.9721 50.251 7.64872 44.1057 7.04797 40.7819C8.43658 41.5254 9.95815 42.4856 11.5634 43.628C13.2672 46.6958 16.3103 50.512 19.9049 54.1115L19.9 54.1066ZM32.5994 65.3779C32.0922 64.5359 31.5013 63.6299 30.8414 62.6894C31.8361 63.2113 32.7126 63.5659 33.4168 63.7234C34.0717 64.8954 34.5542 65.9393 34.8497 66.8355C34.6084 66.9685 34.3031 67.0374 33.9387 67.0374C33.8058 67.0374 33.6679 67.0275 33.5202 67.0128C33.2296 66.4613 32.9293 65.9245 32.5994 65.3829V65.3779ZM33.1312 62.7485C32.3531 61.4583 31.4077 60.0747 30.3145 58.6319C31.5062 59.3803 32.5649 59.9122 33.4611 60.247C34.2046 61.478 34.7512 62.5909 35.0959 63.561C34.9088 63.6348 34.6872 63.6693 34.436 63.6693C34.1849 63.6693 33.8944 63.6348 33.6186 63.5905C33.466 63.3147 33.3035 63.039 33.1312 62.7534V62.7485ZM29.1475 53.949C30.0782 54.6581 30.9547 55.2638 31.7573 55.7463C32.3285 56.091 32.8702 56.3815 33.338 56.5834C34.2489 57.9671 34.9235 59.2031 35.3421 60.2568C35.2141 60.2864 35.0713 60.3061 34.9137 60.3061C34.5493 60.3061 34.1061 60.2224 33.6334 60.0747C32.5009 58.2035 30.9596 56.0959 29.1475 53.949ZM14.0058 38.1721C14.2028 37.9751 14.5031 37.8766 14.8971 37.8766C15.3993 37.8766 16.0542 38.0391 16.8421 38.369C16.7929 38.8516 16.9258 39.4967 17.2508 40.2895C15.9754 39.472 14.8183 38.8565 13.8187 38.4626C13.8679 38.3444 13.927 38.2509 14.0009 38.177L14.0058 38.1721ZM13.7645 38.6694C14.8134 39.088 16.0444 39.7576 17.4034 40.644C17.625 41.1364 17.9156 41.6731 18.2553 42.2443C18.7428 43.0519 19.3436 43.9284 20.0526 44.8541C17.9205 43.0568 15.8228 41.5205 13.9812 40.4224C13.735 39.6887 13.6611 39.0978 13.7596 38.6694H13.7645ZM10.6869 38.5315C10.9184 38.2952 11.2729 38.177 11.7308 38.177C12.2134 38.177 12.8191 38.3099 13.5281 38.5758C13.4198 38.9944 13.4641 39.541 13.6562 40.2107C12.5039 39.5311 11.4649 39.019 10.5638 38.694C10.6032 38.63 10.6475 38.5758 10.6918 38.5315H10.6869ZM10.4456 38.9156C11.4206 39.2603 12.5335 39.8118 13.7596 40.5357C14.0304 41.3284 14.4834 42.2591 15.1137 43.303C15.1876 43.4261 15.2664 43.5492 15.3501 43.6773C13.9172 42.594 12.5433 41.6534 11.2581 40.8754C10.9725 40.7031 10.6918 40.5406 10.4506 40.4273C10.3078 39.7921 10.3078 39.2849 10.4506 38.9156H10.4456ZM7.36804 38.891C7.62409 38.6349 8.01311 38.5069 8.52522 38.5069C8.98809 38.5069 9.55929 38.6202 10.2241 38.8368C10.0911 39.2012 10.0812 39.6838 10.1896 40.2599C9.12104 39.6739 8.15591 39.2357 7.31388 38.955C7.33358 38.9304 7.34834 38.9107 7.36804 38.891ZM7.17601 39.152C8.0722 39.4474 9.11611 39.9251 10.2487 40.5406C10.4309 41.2841 10.7854 42.1655 11.3074 43.1602C10.3718 42.5053 9.47065 41.9144 8.62862 41.4072C8.09189 41.0822 7.54038 40.772 6.99873 40.4864C6.93472 39.93 6.99381 39.4819 7.17601 39.152ZM5.35407 38.8024C5.79724 38.8024 6.33398 38.8959 6.94457 39.0781C6.77715 39.413 6.71313 39.8413 6.75252 40.3584C5.76277 39.8512 4.86166 39.472 4.06887 39.2258C4.36432 38.9452 4.79272 38.8024 5.35407 38.8024ZM3.9113 39.4179C4.75333 39.669 5.72338 40.0777 6.78699 40.6341C6.96426 41.8504 7.64872 43.4557 8.82067 45.3958C10.81 48.695 13.9615 52.5703 17.694 56.3028C21.4314 60.0402 25.3067 63.1916 28.6009 65.1761C30.546 66.348 32.1463 67.0325 33.3626 67.2097C33.919 68.2832 34.3277 69.2483 34.5789 70.0854C34.2982 70.2824 33.9141 70.3858 33.4463 70.3858C32.1365 70.3858 30.1373 69.6029 27.6703 68.1158C24.0412 65.9295 19.772 62.4579 15.6554 58.3364C11.5388 54.2198 8.06727 49.9506 5.87603 46.3215C3.84235 42.9436 3.14313 40.4963 3.90637 39.413L3.9113 39.4179ZM34.4016 73.2763C34.0766 73.6013 33.594 73.7638 32.9637 73.7638C29.2559 73.7638 21.2344 68.3324 13.4543 60.5523C8.93885 56.0369 5.13248 51.3638 2.73442 47.3802C0.360984 43.4409 -0.348081 40.6834 0.730306 39.605C1.0553 39.28 1.53786 39.1175 2.16815 39.1175C2.59655 39.1175 3.09881 39.1963 3.66509 39.3489C2.92155 40.5455 3.63061 43.0617 5.67413 46.4545C7.8703 50.1033 11.3566 54.3873 15.488 58.5186C19.6193 62.65 23.9033 66.1313 27.5521 68.3324C30.0536 69.8392 32.0971 70.6369 33.466 70.6369C33.9387 70.6369 34.3376 70.5384 34.6576 70.3366C35.0368 71.7399 34.9531 72.7297 34.4016 73.2763ZM34.7857 69.9328C34.5395 69.14 34.1603 68.2389 33.6531 67.2491C33.7614 67.259 33.8649 67.2639 33.9633 67.2639C34.3376 67.2639 34.6675 67.195 34.9334 67.0571C35.347 68.426 35.2978 69.3961 34.7906 69.9279L34.7857 69.9328ZM35.1254 66.6336C35.1254 66.6336 35.086 66.673 35.0614 66.6878C34.7807 65.8408 34.3376 64.8757 33.7516 63.8022C34.0421 63.8613 34.2785 63.8859 34.4804 63.8859C34.7364 63.8859 34.9728 63.8465 35.1845 63.7678C35.6425 65.1465 35.6228 66.1363 35.1304 66.6287L35.1254 66.6336ZM35.4849 63.3147C35.4406 63.3591 35.3913 63.3984 35.3273 63.4428C34.9974 62.5318 34.4853 61.483 33.7959 60.3258C34.2539 60.4587 34.6478 60.5277 34.9679 60.5277C35.1353 60.5277 35.2879 60.508 35.4406 60.4686C35.9527 61.8474 35.9675 62.8322 35.4849 63.3147ZM35.8444 59.9959C35.7656 60.0746 35.672 60.1387 35.5588 60.1879C35.1648 59.1883 34.5493 58.0361 33.7319 56.7558C34.4114 57.0315 34.9876 57.1743 35.4406 57.1743C35.5194 57.1743 35.5981 57.1743 35.6671 57.1596C36.2481 58.5531 36.3072 59.533 35.8444 59.9959ZM36.2038 56.677C36.1103 56.7755 35.9724 56.8395 35.7853 56.8838C35.2978 55.7709 34.5099 54.4316 33.5005 52.9937C34.4705 53.5157 35.2633 53.7865 35.8591 53.8062C36.5337 55.2391 36.6568 56.2338 36.2087 56.677H36.2038ZM36.5633 53.3581C36.4353 53.4862 36.2432 53.5551 35.9921 53.5649C35.7754 53.1168 35.5391 52.6835 35.2732 52.2403C34.6182 51.157 33.7762 49.9703 32.7569 48.7147C33.1508 48.9953 33.5251 49.2415 33.8698 49.4484C34.702 49.9506 35.411 50.2658 35.9773 50.379C36.7799 51.8661 36.9868 52.9199 36.5584 53.3483L36.5633 53.3581ZM36.9227 50.0392C36.8193 50.1427 36.6519 50.1968 36.4303 50.1968C36.3368 50.1968 36.2383 50.187 36.13 50.1722C35.0516 48.2026 33.0671 45.7109 30.6888 43.3276C28.5369 41.1758 26.3014 39.3588 24.3957 38.2115C24.2037 38.0933 24.0166 37.9899 23.8344 37.8914C23.7753 37.5221 23.8245 37.2513 23.9772 37.0986C24.0904 36.9853 24.2677 36.9263 24.4942 36.9263C25.09 36.9263 26.0207 37.3153 27.1631 38.0293C27.69 39.3489 29.1032 41.2349 30.9448 43.0765C32.3088 44.4405 33.722 45.5878 34.9285 46.3166C35.3027 46.5431 35.6523 46.7204 35.9527 46.8287C35.9527 46.8287 36.1004 47.0601 36.1349 47.1192C37.0065 48.5719 37.3019 49.665 36.9227 50.0442V50.0392ZM27.5521 38.2903C28.9407 39.2209 30.5115 40.5406 31.9937 42.0277C33.4808 43.5148 34.7955 45.0856 35.7213 46.4692C35.5095 46.3658 35.283 46.2427 35.0516 46.1049C33.8648 45.3909 32.4664 44.2534 31.1172 42.9042C29.5218 41.3087 28.1775 39.5656 27.5521 38.2952V38.2903ZM36.6716 44.4897C37.3413 45.6026 37.5727 46.4348 37.2871 46.7204C37.2083 46.7992 37.0852 46.8386 36.9227 46.8386C36.711 46.8386 36.4353 46.7745 36.1398 46.6662C35.1993 45.184 33.7861 43.4754 32.1709 41.8553C30.5361 40.2205 28.8275 38.8073 27.3798 37.9012C27.1483 37.3251 27.1237 36.9213 27.3059 36.7342C27.3847 36.6554 27.5078 36.6111 27.6752 36.6111C28.3597 36.6111 29.6596 37.3153 31.1467 38.4774C31.6638 39.2357 32.3581 40.0629 33.1558 40.8607C33.9387 41.6436 34.7857 42.3576 35.5341 42.8648C35.9921 43.4458 36.3762 43.9924 36.6716 44.4848V44.4897ZM31.91 39.1126C32.4368 39.5656 32.9637 40.0482 33.4709 40.5554C33.988 41.0724 34.4754 41.5993 34.9285 42.1311C34.4016 41.7174 33.8648 41.2349 33.3281 40.6981C32.8062 40.1762 32.3236 39.6345 31.91 39.1126ZM37.6466 43.4015C37.5974 43.4508 37.5186 43.4754 37.4152 43.4754C37.0606 43.4754 36.4353 43.1947 35.7163 42.7121C35.1057 41.9341 34.4065 41.1512 33.6383 40.3879C32.8702 39.6198 32.0872 38.9205 31.324 38.3198C31.2304 38.1819 31.1418 38.049 31.063 37.9209C30.6001 37.1479 30.4327 36.5717 30.6248 36.3846C30.674 36.3354 30.7528 36.3107 30.8611 36.3107C31.1467 36.3107 31.6096 36.4929 32.1611 36.8278C32.9982 37.335 33.9879 38.1376 34.9432 39.0929C37.2034 41.3531 37.9765 43.0814 37.6466 43.4114V43.4015Z" fill="#5A27E7"></path><path d="M34.0339 35.7445C33.9158 35.7445 33.8271 35.779 33.7582 35.8479C33.3101 36.296 34.4623 37.7733 35.3487 38.6596C36.1907 39.5016 37.2986 40.3486 37.8846 40.3486C38.0028 40.3486 38.0914 40.3141 38.1604 40.2501C38.6085 39.802 37.4562 38.3248 36.5699 37.4384C35.7278 36.5964 34.6199 35.7494 34.0339 35.7494V35.7445ZM37.988 40.0778C37.9634 40.1024 37.9191 40.1073 37.8846 40.1073C37.727 40.1073 37.4661 40.0039 37.146 39.8119C36.6536 39.5164 36.0775 39.0437 35.521 38.4873C34.2801 37.2464 33.7533 36.1975 33.9305 36.0203C33.9551 35.9956 33.9995 35.9907 34.0339 35.9907C34.3983 35.9907 35.3487 36.557 36.4025 37.6108C36.9589 38.1672 37.4316 38.7482 37.7271 39.2357C38.0176 39.7134 38.0668 40.0039 37.9929 40.0778H37.988Z" fill="#5A27E7"></path></svg> 