<?xml version="1.0" encoding="UTF-8"?> <svg xmlns="http://www.w3.org/2000/svg" width="68" height="52" viewBox="0 0 68 52" fill="none"><path d="M33.6721 37.9693L12.9444 52L0 43.2379L2.1574 41.7775L0 40.3172L2.1574 38.8568L0 37.3964L2.1574 35.9361L0 34.4757L2.1574 33.0154L0 31.555L2.1574 30.0947L0 28.6343L2.1574 27.1739L0 25.7136L2.1574 24.2532L0 22.7929L33.6721 0L67.3443 22.7929L65.1869 24.2532L67.3443 25.7136L65.1869 27.1739L67.3443 28.6343L65.1869 30.0947L67.3443 31.555L65.1869 33.0154L67.3443 34.4757L65.1869 35.9361L67.3443 37.3964L65.1869 38.8568L67.3443 40.3172L65.1869 41.7775L67.3443 43.2379L54.3999 52L33.6721 37.9693ZM54.3999 51.7216L66.933 43.2379L64.9783 41.9147L54.3999 49.0753L33.6721 35.0445L12.9444 49.0753L2.36599 41.9147L0.4112 43.2379L12.9444 51.7216L33.6721 37.6909L54.3999 51.7216ZM54.3999 48.7969L64.7756 41.7735L62.8209 40.4503L54.3999 46.1505L33.6721 32.1198L12.9444 46.1505L4.52339 40.4503L2.56862 41.7735L12.9444 48.7969L33.6721 34.7662L54.3999 48.7969ZM54.3999 45.8722L62.6123 40.3131L60.6575 38.9899L54.3939 43.2298L33.6662 29.1991L12.9384 43.2298L6.67482 38.9899L4.72005 40.3131L12.9325 45.8722L33.6602 31.8414L54.3879 45.8722H54.3999ZM54.3999 42.9474L60.4549 38.8487L58.5001 37.5255L54.3999 40.301L33.6721 26.2703L12.9444 40.301L8.84415 37.5255L6.88938 38.8487L12.9444 42.9474L33.6721 28.9167L54.3999 42.9474ZM2.36599 41.6323L4.32076 40.3091L2.36599 38.9859L0.4112 40.3091L2.36599 41.6323ZM64.9783 41.6323L66.933 40.3091L64.9783 38.9859L63.0235 40.3091L64.9783 41.6323ZM62.8209 40.1719L64.7756 38.8487L62.8209 37.5255L60.8661 38.8487L62.8209 40.1719ZM4.52339 40.1719L6.47816 38.8487L4.52339 37.5255L2.56862 38.8487L4.52339 40.1719ZM54.3999 40.0267L58.2975 37.3884L56.3427 36.0652L54.3999 37.3803L33.6721 23.3496L12.9444 37.3803L11.0015 36.0652L9.04677 37.3884L12.9444 40.0267L33.6721 25.996L54.3999 40.0267ZM6.68675 38.7116L8.64152 37.3884L6.68675 36.0652L4.73196 37.3884L6.68675 38.7116ZM64.9842 38.7116L66.939 37.3884L64.9842 36.0652L63.0294 37.3884L64.9842 38.7116ZM60.6635 38.7116L62.6182 37.3884L60.6635 36.0652L58.7087 37.3884L60.6635 38.7116ZM2.36599 38.7116L4.32076 37.3884L2.36599 36.0652L0.4112 37.3884L2.36599 38.7116ZM62.8209 37.2512L64.7756 35.928L62.8209 34.6048L60.8661 35.928L62.8209 37.2512ZM4.52339 37.2512L6.47816 35.928L4.52339 34.6048L2.56862 35.928L4.52339 37.2512ZM8.84415 37.2512L10.7989 35.928L8.84415 34.6048L6.88938 35.928L8.84415 37.2512ZM58.5001 37.2512L60.4549 35.928L58.5001 34.6048L56.5453 35.928L58.5001 37.2512ZM12.9444 37.106L33.6721 23.0753L54.3999 37.106L56.1341 35.932L33.6721 20.7274L11.2101 35.932L12.9444 37.106ZM11.0015 35.7908L33.6721 20.445L56.3427 35.7908L58.2975 34.4677L56.3427 33.1445L54.3999 34.4596L33.6721 20.4289L12.9444 34.4596L11.0015 33.1445L9.04677 34.4677L11.0015 35.7908ZM64.9783 35.7908L66.933 34.4677L64.9783 33.1445L63.0235 34.4677L64.9783 35.7908ZM6.68078 35.7908L8.63556 34.4677L6.68078 33.1445L4.72601 34.4677L6.68078 35.7908ZM60.6575 35.7908L62.6123 34.4677L60.6575 33.1445L58.7027 34.4677L60.6575 35.7908ZM2.36002 35.7908L4.3148 34.4677L2.36002 33.1445L0.405253 34.4677L2.36002 35.7908ZM8.83818 34.3305L10.793 33.0073L8.83818 31.6841L6.88341 33.0073L8.83818 34.3305ZM62.8149 34.3305L64.7697 33.0073L62.8149 31.6841L60.8601 33.0073L62.8149 34.3305ZM4.51742 34.3305L6.47219 33.0073L4.51742 31.6841L2.56265 33.0073L4.51742 34.3305ZM58.4942 34.3305L60.4489 33.0073L58.4942 31.6841L56.5394 33.0073L58.4942 34.3305ZM54.3939 34.1853L56.1282 33.0113L33.6662 17.8067L11.2042 33.0113L12.9384 34.1853L33.6662 20.1545L54.3939 34.1853ZM10.9956 32.8701L33.6662 17.5243L56.3368 32.8701L58.2915 31.5469L56.3368 30.2237L54.3939 31.5389L33.6662 17.5081L12.9384 31.5389L10.9956 30.2237L9.04081 31.5469L10.9956 32.8701ZM64.9723 32.8701L66.9271 31.5469L64.9723 30.2237L63.0175 31.5469L64.9723 32.8701ZM6.67482 32.8701L8.62959 31.5469L6.67482 30.2237L4.72005 31.5469L6.67482 32.8701ZM2.35406 32.8701L4.30883 31.5469L2.35406 30.2237L0.399288 31.5469L2.35406 32.8701ZM60.6516 32.8701L62.6063 31.5469L60.6516 30.2237L58.6968 31.5469L60.6516 32.8701ZM62.8089 31.4098L64.7637 30.0866L62.8089 28.7634L60.8542 30.0866L62.8089 31.4098ZM4.51146 31.4098L6.46623 30.0866L4.51146 28.7634L2.55668 30.0866L4.51146 31.4098ZM58.4882 31.4098L60.443 30.0866L58.4882 28.7634L56.5334 30.0866L58.4882 31.4098ZM8.83222 31.4098L10.787 30.0866L8.83222 28.7634L6.87745 30.0866L8.83222 31.4098ZM54.3879 31.2645L56.1222 30.0906L33.6602 14.886L11.1982 30.0906L12.9325 31.2645L33.6602 17.2338L54.3879 31.2645ZM10.9896 29.9494L33.6602 14.6036L56.3308 29.9494L58.2856 28.6262L33.6602 11.9572L9.04081 28.6262L10.9956 29.9494H10.9896ZM6.66885 29.9494L8.62364 28.6262L6.66885 27.303L4.71408 28.6262L6.66885 29.9494ZM64.9663 29.9494L66.9211 28.6262L64.9663 27.303L63.0116 28.6262L64.9663 29.9494ZM2.35406 29.9494L4.30883 28.6262L2.35406 27.303L0.399288 28.6262L2.35406 29.9494ZM60.6516 29.9494L62.6063 28.6262L60.6516 27.303L58.6968 28.6262L60.6516 29.9494ZM58.4942 28.4891L60.4489 27.1659L33.6662 9.03646L6.88341 27.1659L8.83818 28.4891L33.6662 11.6829L58.4942 28.4891ZM62.8149 28.4891L64.7697 27.1659L62.8149 25.8427L60.8601 27.1659L62.8149 28.4891ZM4.51742 28.4891L6.47219 27.1659L4.51742 25.8427L2.56265 27.1659L4.51742 28.4891ZM64.9723 27.0287L66.9271 25.7055L64.9723 24.3823L63.0175 25.7055L64.9723 27.0287ZM60.6516 27.0287L62.6063 25.7055L33.6662 6.11575L4.72601 25.7055L6.68078 27.0287L33.6721 8.75811L60.6635 27.0287H60.6516ZM2.35406 27.0287L4.30883 25.7055L2.35406 24.3823L0.399288 25.7055L2.35406 27.0287ZM62.8089 25.5683L64.7637 24.2452L33.6602 3.191L2.56265 24.2452L4.51742 25.5683L33.6662 5.83739L62.8149 25.5683H62.8089ZM2.35406 24.108L33.6602 2.91668L64.9663 24.108L66.9211 22.7848L33.6602 0.270287L0.399288 22.7848L2.35406 24.108Z" fill="#5993C9"></path></svg> 