<?xml version="1.0" encoding="UTF-8"?> <svg xmlns="http://www.w3.org/2000/svg" width="85" height="29" viewBox="0 0 85 29" fill="none"><path d="M42.5022 -3.48938e-07C53.8341 -3.48938e-07 64.4918 1.21791 72.5061 3.43267C80.5648 5.65611 85 8.63369 85 11.8106C85 14.9876 80.5604 17.9652 72.5061 20.1886C67.7428 21.5019 62.1057 22.4641 55.7545 23.0362C55.6392 23.2182 55.4263 23.4176 55.1513 23.6083C55.1868 23.7166 55.2001 23.825 55.2001 23.929C55.2001 24.4101 54.8763 24.8695 54.2377 25.3073C54.282 25.4286 54.3042 25.5457 54.3042 25.6627C54.3042 27.5004 49.0086 29 42.4978 29C35.987 29 30.6914 27.5047 30.6914 25.6627C30.6914 25.55 30.7135 25.4286 30.7579 25.3073C30.1192 24.8739 29.7955 24.4101 29.7955 23.929C29.7955 23.825 29.8132 23.7166 29.8442 23.6083C29.5737 23.4132 29.3564 23.2139 29.2056 23.0145C22.8899 22.4597 17.2528 21.5019 12.4939 20.1886C4.43517 17.9652 -2.74177e-06 14.9876 -2.74177e-06 11.8106C-2.74177e-06 8.63369 4.43961 5.65611 12.4939 3.43267C20.5082 1.21791 31.1659 -3.48938e-07 42.4978 -3.48938e-07H42.5022ZM55.9275 22.8021C73.1936 21.2115 84.7827 16.7949 84.7827 11.8063C84.7827 5.41339 65.8135 0.212377 42.4978 0.212377C19.1821 0.212377 0.217323 5.41339 0.217323 11.8063C0.217323 16.7949 11.8109 21.2071 29.0725 22.8021C28.9572 22.5984 28.8996 22.3947 28.8996 22.1953C28.8996 22.1087 28.9129 22.0133 28.9395 21.9136C28.904 21.8876 28.8729 21.8616 28.8419 21.8356C23.7459 21.3112 19.1688 20.4963 15.2659 19.4171C7.94782 17.3974 3.92069 14.6929 3.92069 11.8063C3.92069 8.91974 7.95226 6.21522 15.2659 4.19549C22.5395 2.18876 32.2126 1.07921 42.4978 1.07921C52.7829 1.07921 62.456 2.18443 69.7297 4.19549C77.0477 6.21522 81.0749 8.91974 81.0749 11.8063C81.0749 14.6929 77.0433 17.3974 69.7297 19.4171C65.8268 20.4963 61.2497 21.3112 56.1271 21.8486C56.1182 21.8659 56.0871 21.8876 56.0561 21.9136C56.0827 22.0176 56.096 22.1087 56.096 22.1953C56.096 22.3947 56.0384 22.5984 55.923 22.8021H55.9275ZM56.4286 21.6016C71.0514 20.0326 80.862 16.1015 80.862 11.8063C80.862 6.00717 63.6535 1.29159 42.5022 1.29159C21.3509 1.29159 4.14245 6.00717 4.14245 11.8063C4.14245 16.1015 13.953 20.0282 28.5758 21.6016C28.2387 21.2722 28.0524 20.9298 28.0214 20.5787C24.3136 20.1063 20.9562 19.4605 18.0467 18.6543C11.4693 16.8383 7.85025 14.4068 7.85025 11.8063C7.85025 9.2058 11.4738 6.77432 18.0467 4.96264C24.5797 3.15962 33.2682 2.16709 42.5067 2.16709C51.7451 2.16709 60.4292 3.15962 66.9666 4.96264C73.544 6.77866 77.1631 9.21013 77.1631 11.8063C77.1631 14.4025 73.5395 16.8383 66.9666 18.6543C64.0571 19.4561 60.6997 20.1063 56.9919 20.5787C56.9609 20.9298 56.7702 21.2722 56.4375 21.6016H56.4286ZM56.9875 20.3576C69.1132 18.806 76.9413 15.4557 76.9413 11.8063C76.9413 6.60529 61.4936 2.37513 42.5022 2.37513C23.5108 2.37513 8.06314 6.60529 8.06314 11.8063C8.06314 15.4514 15.8912 18.806 28.017 20.3576C28.017 20.31 28.0303 20.2666 28.0391 20.219C27.6355 19.9069 27.3606 19.5775 27.2231 19.2438C24.8813 18.871 22.7258 18.4159 20.8187 17.8872C14.982 16.2748 11.7709 14.1164 11.7709 11.8063C11.7709 9.49619 14.9864 7.33777 20.8187 5.72545C26.611 4.12614 34.3149 3.2463 42.5022 3.2463C50.6895 3.2463 58.3934 4.12614 64.1858 5.72545C70.0224 7.33777 73.2335 9.49619 73.2335 11.8063C73.2335 14.1164 70.018 16.2748 64.1858 17.8872C62.2786 18.4159 60.1231 18.871 57.7814 19.2438C57.6439 19.5775 57.3689 19.9069 56.9653 20.219C56.9742 20.2666 56.983 20.31 56.9875 20.3576ZM57.8568 19.0141C67.215 17.5144 73.0206 14.7535 73.0206 11.8063C73.0206 7.20341 59.3292 3.45868 42.5022 3.45868C25.6752 3.45868 11.9838 7.20341 11.9838 11.8063C11.9838 14.7535 17.7939 17.5101 27.1477 19.0141C27.1255 18.9144 27.1122 18.819 27.1122 18.7323C27.1122 18.663 27.1211 18.5893 27.1299 18.52C26.8372 18.2859 26.6154 18.0432 26.4602 17.7961C25.4667 17.6054 24.4866 17.3714 23.5862 17.1243C18.4902 15.7157 15.6872 13.8304 15.6872 11.8106C15.6872 9.79091 18.4947 7.90121 23.5862 6.49694C28.6379 5.10133 35.3572 4.33418 42.4978 4.33418C49.6384 4.33418 56.3577 5.10133 61.4093 6.49694C66.5053 7.90554 69.3084 9.79091 69.3084 11.8106C69.3084 13.8304 66.5009 15.7201 61.4093 17.1243C60.509 17.3714 59.5288 17.6054 58.4999 17.8222C58.3801 18.0475 58.1584 18.2902 57.8656 18.5243C57.8789 18.5936 57.8834 18.6673 57.8834 18.7367C57.8834 18.8233 57.8701 18.9187 57.8479 19.0184L57.8568 19.0141ZM58.664 17.5708C65.2014 16.1968 69.0999 14.0427 69.0999 11.8106C69.0999 7.80586 57.1693 4.54656 42.5022 4.54656C27.8351 4.54656 15.9045 7.80586 15.9045 11.8106C15.9045 14.0471 19.803 16.1968 26.3405 17.5708C26.2562 17.3801 26.2163 17.1894 26.2163 17.003C26.2163 16.9423 26.2207 16.886 26.2296 16.8253C25.9457 16.5912 25.7284 16.3485 25.5776 16.1058C21.7368 14.9486 19.6079 13.4143 19.6079 11.8106C19.6079 8.28262 29.8753 5.41339 42.4978 5.41339C55.1203 5.41339 65.3877 8.28262 65.3877 11.8106C65.3877 13.4186 63.2588 14.9529 59.3869 16.1318C59.2672 16.3529 59.0498 16.5956 58.766 16.8296C58.7749 16.8903 58.7793 16.9466 58.7793 17.0073C58.7793 17.1937 58.7349 17.3844 58.6551 17.5751L58.664 17.5708ZM59.551 15.8718C63.1834 14.7405 65.1792 13.2973 65.1792 11.8063C65.1792 8.39531 55.0094 5.62143 42.5067 5.62143C30.0039 5.62143 19.8341 8.39531 19.8341 11.8063C19.8341 13.2973 21.8299 14.7362 25.4623 15.8718C25.3736 15.6724 25.3292 15.4687 25.3292 15.2693C25.3292 15.2216 25.3337 15.174 25.3425 15.1306C24.7482 14.6322 24.4333 14.0904 24.4333 13.54C24.4333 13.5096 24.4333 13.4793 24.4422 13.4533C23.8523 12.9245 23.5419 12.3741 23.5419 11.8106C23.5419 8.88074 32.053 6.49694 42.5111 6.49694C52.9692 6.49694 61.4803 8.88074 61.4803 11.8106C61.4803 12.3654 61.1743 12.9159 60.5755 13.4403C60.58 13.4923 60.5844 13.5183 60.5844 13.5443C60.5844 14.0861 60.2784 14.6235 59.6752 15.135C59.6841 15.1956 59.6885 15.2346 59.6885 15.2737C59.6885 15.473 59.6441 15.6724 59.5554 15.8761L59.551 15.8718ZM60.54 13.1976C61.019 12.7425 61.2585 12.2787 61.2585 11.8106C61.2585 8.99776 52.845 6.70931 42.5067 6.70931C32.1683 6.70931 23.7548 8.99776 23.7548 11.8106C23.7548 12.2787 23.9987 12.7468 24.4733 13.1976C25.0986 10.5407 32.9577 8.47332 42.5067 8.47332C52.0556 8.47332 59.9147 10.5407 60.54 13.1976ZM60.3493 13.3666C60.0078 10.7834 52.029 8.6857 42.5111 8.6857C32.9932 8.6857 25.0099 10.7834 24.6728 13.3666C24.9789 13.6223 25.3692 13.878 25.826 14.1208C27.6976 11.958 34.5411 10.454 42.5111 10.454C50.4811 10.454 57.329 11.9623 59.1962 14.1208C59.653 13.878 60.0433 13.6267 60.3493 13.3666ZM59.0099 14.2161C57.2004 12.153 50.2904 10.6621 42.5067 10.6621C34.7229 10.6621 27.8129 12.153 26.0034 14.2161C26.5356 14.4848 27.1654 14.7405 27.875 14.9833C30.5894 13.4316 36.3285 12.4261 42.5067 12.4261C48.6848 12.4261 54.4195 13.4273 57.1338 14.9833C57.8435 14.7405 58.4733 14.4848 59.0055 14.2161H59.0099ZM56.8899 15.0699C54.1711 13.592 48.5518 12.6428 42.5111 12.6428C36.4704 12.6428 30.851 13.592 28.1323 15.0699C29.0016 15.3517 29.9906 15.6117 31.0817 15.8414C33.9734 14.9313 38.1513 14.4068 42.5111 14.4068C46.8709 14.4068 51.0355 14.9269 53.9538 15.8371C55.036 15.6074 56.025 15.3473 56.8899 15.0699ZM59.6397 14.9052C60.101 14.4848 60.3449 14.0471 60.3671 13.6093C60.0744 13.839 59.724 14.0644 59.3248 14.2768C59.48 14.4848 59.5865 14.6929 59.6397 14.9052ZM25.6974 14.2768C25.3026 14.0644 24.9523 13.8434 24.6595 13.6137C24.6906 14.0688 24.9345 14.4935 25.3825 14.9052C25.4401 14.6972 25.5466 14.4848 25.6974 14.2768ZM27.6621 15.1176C26.988 14.8836 26.3893 14.6322 25.8792 14.3721C25.7107 14.5975 25.6087 14.8272 25.5687 15.0613C25.8925 15.3257 26.2961 15.5814 26.7707 15.8198C26.9969 15.5814 27.294 15.3473 27.6621 15.1176ZM59.449 15.0613C59.4091 14.8272 59.3071 14.5975 59.1385 14.3721C58.6285 14.6322 58.0297 14.8836 57.3556 15.1176C57.7237 15.3473 58.0209 15.5814 58.2471 15.8198C58.7216 15.5814 59.1252 15.3257 59.449 15.0613ZM53.5502 15.9238C50.6807 15.0959 46.6757 14.6235 42.5111 14.6235C38.3465 14.6235 34.3371 15.0959 31.472 15.9238C33.1706 16.2618 35.0511 16.5176 37.0647 16.6866C38.7944 16.4872 40.6306 16.3875 42.5155 16.3875C44.4005 16.3875 46.2322 16.4872 47.9708 16.6866C49.9843 16.5176 51.8604 16.2618 53.5591 15.9238H53.5502ZM30.6869 15.9628C29.6624 15.7331 28.7266 15.4774 27.9016 15.2C27.5113 15.4297 27.1965 15.6681 26.9614 15.9108C27.5291 16.1838 28.1944 16.4439 28.9483 16.6823C29.4362 16.4265 30.0172 16.1838 30.6869 15.9628ZM58.0564 15.9108C57.8213 15.6681 57.5064 15.4297 57.1161 15.2C56.2956 15.4774 55.3598 15.7331 54.3308 15.9628C54.9961 16.1882 55.5815 16.4265 56.0694 16.6823C56.8189 16.4439 57.4887 16.1838 58.0564 15.9108ZM58.5265 16.1708C58.7882 16.0971 59.0498 16.0235 59.2982 15.9498C59.4002 15.7461 59.4667 15.5207 59.4712 15.2953C59.1651 15.5294 58.797 15.7547 58.3801 15.9715C58.4333 16.0365 58.4821 16.1058 58.5265 16.1708ZM26.6421 15.9715C26.2207 15.7547 25.857 15.5294 25.551 15.2953C25.5554 15.5207 25.6264 15.7504 25.755 15.9758C25.9768 16.0278 26.234 16.1015 26.4957 16.1708C26.54 16.1015 26.5888 16.0365 26.6421 15.9715ZM55.8077 16.7646C55.2844 16.5089 54.659 16.2662 53.9405 16.0408C52.4281 16.3659 50.7383 16.6259 48.9243 16.808C50.0731 16.9683 51.1419 17.1677 52.0999 17.4061C53.2442 17.2587 54.3486 17.0853 55.3908 16.886C55.5283 16.847 55.6658 16.808 55.8033 16.7646H55.8077ZM36.0978 16.808C34.2883 16.6259 32.5941 16.3702 31.055 16.0451C30.3632 16.2662 29.7378 16.5089 29.2189 16.7689C29.3564 16.8123 29.4939 16.8513 29.6358 16.8903C30.6736 17.0853 31.778 17.263 32.9223 17.4061C33.8847 17.1677 34.9491 16.9683 36.0978 16.808ZM58.318 16.2272C58.2825 16.1708 58.2382 16.1188 58.1938 16.0625C57.8656 16.2228 57.5108 16.3745 57.125 16.5219C57.5374 16.4265 57.9366 16.3269 58.318 16.2272ZM27.9016 16.5219C27.5158 16.3745 27.161 16.2185 26.8328 16.0625C26.7884 16.1188 26.7441 16.1708 26.7086 16.2272C27.09 16.3269 27.4892 16.4265 27.8972 16.5219H27.9016ZM58.7349 16.6042C58.8769 16.4786 59.001 16.3442 59.1075 16.2142C58.9523 16.2575 58.797 16.3052 58.6374 16.3485C58.6773 16.4309 58.7083 16.5132 58.7349 16.6042ZM25.9236 16.2142C26.0256 16.3485 26.1498 16.4786 26.2961 16.6042C26.3227 16.5132 26.3538 16.4309 26.3937 16.3485C26.234 16.3052 26.0788 16.2575 25.9236 16.2142ZM28.5891 16.8816C27.9016 16.7343 27.2319 16.5739 26.6021 16.4049C26.54 16.5219 26.5001 16.6389 26.4735 16.7516C26.8062 17.016 27.2319 17.2717 27.7375 17.5144C27.9637 17.2977 28.2476 17.081 28.5891 16.8816ZM58.5531 16.7516C58.5265 16.6389 58.4866 16.5219 58.4245 16.4049C57.7902 16.5739 57.125 16.7343 56.4375 16.8816C56.7746 17.0853 57.0629 17.2977 57.2891 17.5144C57.7947 17.2717 58.2205 17.016 58.5531 16.7516ZM46.7511 16.7733C45.3806 16.6563 43.9614 16.5999 42.5155 16.5999C41.0697 16.5999 39.646 16.6606 38.2799 16.7733C39.6726 16.86 41.0918 16.9076 42.5155 16.9076C43.9392 16.9076 45.3629 16.8643 46.7511 16.7733ZM51.5278 17.4754C50.4456 17.2327 49.2481 17.0377 47.9663 16.8946C46.2056 17.042 44.365 17.12 42.5111 17.12C40.6572 17.12 38.8166 17.0463 37.047 16.8946C35.7741 17.0377 34.581 17.2327 33.4988 17.4754C36.3595 17.8178 39.3887 17.9912 42.5155 17.9912C45.6423 17.9912 48.6715 17.8178 51.5322 17.4754H51.5278ZM57.0939 17.6098C56.8456 17.3801 56.5262 17.1504 56.1359 16.938C55.9142 16.9987 55.6525 17.0507 55.3864 17.0983C54.6723 17.302 53.8829 17.4884 53.0402 17.6574C53.6611 17.8395 54.2244 18.0432 54.7122 18.2556C55.1291 18.1949 55.5372 18.1342 55.9408 18.0692C56.3532 17.9218 56.7435 17.7658 57.0939 17.6054V17.6098ZM31.9909 17.6574C31.1526 17.4884 30.3587 17.302 29.6402 17.094C29.3786 17.0463 29.1124 16.9943 28.8552 16.938C28.5004 17.146 28.1811 17.3757 27.9327 17.6054C28.2831 17.7658 28.6734 17.9218 29.0947 18.0692C29.4894 18.1299 29.8975 18.1949 30.3144 18.2512C30.8067 18.0389 31.3655 17.8352 31.9864 17.6531L31.9909 17.6574ZM58.4156 17.6228C58.5265 17.4191 58.5841 17.2067 58.5841 16.9987C58.5841 16.9943 58.5841 16.99 58.5841 16.9813C58.2692 17.211 57.8878 17.4407 57.4354 17.6574C57.4753 17.7008 57.5108 17.7441 57.5419 17.7875C57.8346 17.7311 58.1273 17.6748 58.4156 17.6184V17.6228ZM27.5956 17.6618C27.1477 17.4407 26.7618 17.2154 26.4469 16.9857C26.4469 16.99 26.4469 16.9943 26.4469 17.003C26.4469 17.211 26.5046 17.4191 26.6154 17.6271C26.8993 17.6878 27.192 17.7441 27.4892 17.7961C27.5247 17.7528 27.5601 17.7095 27.5956 17.6661V17.6618ZM52.1088 17.6098C49.0973 18.0042 45.8641 18.2036 42.5155 18.2036C39.167 18.2036 35.9337 18.0042 32.9045 17.6141H32.8823C35.4237 18.0649 38.3465 18.3293 41.3579 18.3813C41.7394 18.3726 42.1252 18.3683 42.52 18.3683C42.9147 18.3683 43.3005 18.3726 43.682 18.3813C46.689 18.3293 49.6074 18.0649 52.1443 17.6228L52.1088 17.6141V17.6098ZM54.3352 18.3076C53.8208 18.1039 53.2398 17.9088 52.6011 17.7355C50.6408 18.1125 48.4631 18.3683 46.1346 18.4983C47.168 18.5763 48.1659 18.6933 49.1151 18.8407C50.898 18.715 52.6543 18.5373 54.3352 18.3076ZM38.8964 18.4983C36.5724 18.3683 34.3903 18.1082 32.4078 17.7355C31.7913 17.9088 31.2103 18.0995 30.6958 18.3076C32.3767 18.5373 34.1331 18.7193 35.916 18.8407C36.8651 18.6933 37.863 18.5763 38.8964 18.4983ZM57.2447 17.7528C57.1294 17.8048 57.0097 17.8568 56.8899 17.9132C57.0318 17.8872 57.1738 17.8612 57.3157 17.8352C57.2935 17.8091 57.2713 17.7788 57.2447 17.7528ZM28.1411 17.9132C28.017 17.8612 27.8972 17.8091 27.7863 17.7528C27.7597 17.7788 27.7375 17.8091 27.7154 17.8352C27.8573 17.8612 27.9992 17.8872 28.1411 17.9132ZM57.8257 18.3076C57.9943 18.1645 58.1318 18.0215 58.2471 17.8742C58.0564 17.9132 57.8656 17.9478 57.6749 17.9868C57.7415 18.0952 57.7902 18.2036 57.8302 18.3119L57.8257 18.3076ZM26.784 17.8742C26.8949 18.0215 27.0368 18.1645 27.2053 18.3076C27.2408 18.1992 27.294 18.0909 27.3606 17.9825C27.1698 17.9478 26.9747 17.9088 26.7884 17.8698L26.784 17.8742ZM29.7866 18.5069C29.5604 18.4376 29.3475 18.3683 29.1346 18.2946C28.6113 18.2122 28.0879 18.1212 27.5779 18.0259C27.4847 18.1689 27.4182 18.3119 27.3827 18.4506C27.7331 18.715 28.1766 18.975 28.7044 19.2134C28.9794 18.9707 29.3431 18.7323 29.7822 18.5069H29.7866ZM57.6483 18.4506C57.6128 18.3076 57.5463 18.1645 57.4532 18.0259C56.9431 18.1212 56.4198 18.2122 55.8876 18.2946C55.6835 18.3639 55.4707 18.4376 55.2445 18.5069C55.688 18.7323 56.0472 18.9707 56.3222 19.2134C56.85 18.975 57.2935 18.715 57.6439 18.4506H57.6483ZM51.1375 19.2264C52.4237 19.0184 53.6079 18.7627 54.6546 18.4679C53.1821 18.6847 51.6076 18.858 49.9843 18.988C50.3835 19.0617 50.7694 19.1397 51.1375 19.2264ZM35.0467 18.988C33.4545 18.8624 31.9066 18.6933 30.4341 18.4853C31.4675 18.7713 32.6295 19.0184 33.8936 19.2264C34.2572 19.1441 34.6475 19.0617 35.0467 18.988ZM56.0916 19.2741C55.8033 19.0357 55.4219 18.8017 54.9562 18.5763C53.9893 18.8754 52.8628 19.1354 51.6475 19.3478C52.0378 19.4475 52.4059 19.5515 52.7519 19.6642C53.874 19.5558 55.0005 19.4215 56.096 19.2741H56.0916ZM33.3879 19.3521C32.1683 19.1397 31.0417 18.8797 30.0394 18.5806C29.6092 18.8017 29.2322 19.0357 28.9395 19.2741C30.035 19.4258 31.1571 19.5558 32.2836 19.6642C32.6295 19.5558 32.9976 19.4475 33.3879 19.3478V19.3521ZM42.5155 18.6023C42.1252 18.6023 41.7349 18.598 41.3491 18.5893C39.8189 18.624 38.3376 18.7323 36.9449 18.9057C38.7855 19.0141 40.6572 19.0704 42.5155 19.0704C44.3739 19.0704 46.2455 19.0141 48.0861 18.9057C46.6935 18.7323 45.2121 18.624 43.6775 18.5893C43.2961 18.598 42.9058 18.6023 42.5155 18.6023ZM57.635 19.0487C57.6705 18.936 57.6838 18.832 57.6838 18.7323C57.6838 18.7107 57.6838 18.6933 57.6838 18.6716C57.4487 18.8407 57.1738 19.0054 56.8677 19.1657C57.125 19.1267 57.3822 19.0877 57.6394 19.0487H57.635ZM28.1633 19.1657C27.8529 19.0054 27.5779 18.8407 27.3472 18.6716C27.3472 18.6933 27.3472 18.7107 27.3472 18.7323C27.3472 18.832 27.365 18.936 27.396 19.0487C27.6488 19.0877 27.9061 19.1267 28.1678 19.1657H28.1633ZM50.5787 19.3131C50.1218 19.2178 49.634 19.1311 49.1328 19.0531C46.9862 19.2048 44.7553 19.2828 42.5155 19.2828C40.2758 19.2828 38.0449 19.2048 35.8849 19.0531C35.3926 19.1311 34.9092 19.2178 34.4524 19.3131C36.9228 19.6772 39.7036 19.8722 42.5155 19.8722C45.3274 19.8722 48.1083 19.6772 50.5787 19.3131ZM56.9165 20.0066C57.2092 19.7682 57.4177 19.5255 57.5419 19.2784C57.2092 19.3304 56.8766 19.3781 56.5395 19.4301C56.7125 19.6208 56.8411 19.8159 56.9165 20.0109V20.0066ZM28.4871 19.4258C28.15 19.3781 27.8174 19.3261 27.4847 19.2784C27.6089 19.5255 27.8218 19.7682 28.1101 20.0066C28.1855 19.8115 28.3141 19.6165 28.4871 19.4258ZM52.2285 19.7119C51.8826 19.6122 51.5145 19.5168 51.1286 19.4301C48.534 19.8592 45.5492 20.0846 42.5155 20.0846C39.4819 20.0846 36.497 19.8592 33.8802 19.4345C33.5121 19.5211 33.1484 19.6165 32.8025 19.7162C35.9382 20.0066 39.2069 20.1539 42.5155 20.1539C45.8242 20.1539 49.0929 20.0066 52.2285 19.7162V19.7119ZM30.8865 20.1973C30.1192 19.9762 29.4185 19.7335 28.8109 19.4691L28.7355 19.4605C28.5093 19.6858 28.3629 19.9156 28.2919 20.1453C28.4294 20.245 28.5847 20.3446 28.7576 20.4443C29.1967 20.492 29.6624 20.544 30.137 20.596C30.3587 20.4573 30.6115 20.3273 30.8865 20.1973ZM56.7391 20.1453C56.6681 19.9156 56.5173 19.6815 56.2956 19.4605L56.2069 19.4735C55.6126 19.7335 54.9163 19.9806 54.149 20.1973C54.424 20.3273 54.6768 20.4573 54.8985 20.596C55.3686 20.544 55.8343 20.492 56.2956 20.44C56.4508 20.3446 56.6061 20.245 56.7391 20.1453ZM53.8562 20.0716C54.4195 19.9199 54.9473 19.7509 55.4219 19.5775C54.7034 19.6685 53.9716 19.7552 53.2398 19.8289C53.4526 19.9069 53.6611 19.9849 53.8562 20.0716ZM31.7869 19.8289C31.0551 19.7552 30.3277 19.6685 29.6047 19.5775C30.0793 19.7509 30.6071 19.9156 31.1704 20.0716C31.3655 19.9892 31.574 19.9069 31.7869 19.8289ZM53.5414 20.1539C53.2974 20.0586 53.0357 19.9632 52.7563 19.8766C49.8779 20.1626 46.8487 20.323 43.7529 20.3576C45.7931 20.414 47.749 20.609 49.4743 20.9254C50.9512 20.7304 52.3217 20.4703 53.5369 20.1583L53.5414 20.1539ZM41.2692 20.3533C38.1735 20.3186 35.1443 20.1583 32.2437 19.8766C31.982 19.9632 31.7248 20.0586 31.4808 20.1539C32.7005 20.466 34.071 20.726 35.5612 20.9211C37.2732 20.6047 39.2291 20.4097 41.2648 20.3533H41.2692ZM54.5659 20.6307C54.3441 20.5093 54.1002 20.388 53.8296 20.271C52.8672 20.544 51.7717 20.7737 50.5742 20.9644C51.9314 20.8734 53.2708 20.7607 54.5659 20.6307ZM34.448 20.9644C33.2505 20.7737 32.1461 20.5397 31.1571 20.271C30.9176 20.3836 30.6736 20.505 30.4563 20.6264C31.7514 20.7607 33.0908 20.8734 34.448 20.9601V20.9644ZM56.779 20.349C56.779 20.349 56.748 20.3706 56.7347 20.3793H56.7835C56.7835 20.3793 56.7835 20.3576 56.7835 20.349H56.779ZM28.2432 20.349C28.2432 20.349 28.2432 20.3663 28.2432 20.375H28.2919C28.2919 20.375 28.2609 20.362 28.2476 20.349H28.2432ZM48.7602 21.0034C46.862 20.7044 44.7109 20.544 42.5111 20.544C40.3112 20.544 38.1602 20.7 36.2619 21.0034C36.6434 21.0468 37.0337 21.0901 37.4328 21.1248C39.1137 21.1941 40.8257 21.2288 42.5111 21.2288C44.1965 21.2288 45.904 21.1941 47.5894 21.1248C47.9841 21.0901 48.3744 21.0468 48.7558 21.0034H48.7602ZM29.5205 21.0468C29.2233 20.9168 28.9528 20.7824 28.7177 20.648L28.252 20.596C28.3008 20.9514 28.5314 21.3025 28.9395 21.6406H29.0548C29.1568 21.4412 29.312 21.2418 29.5249 21.0468H29.5205ZM55.9718 21.6406L56.1137 21.6276C56.4952 21.3025 56.7214 20.9514 56.7702 20.596L56.2823 20.6567C56.065 20.7824 55.7944 20.9168 55.4973 21.0468C55.7101 21.2418 55.8654 21.4412 55.9674 21.6449L55.9718 21.6406ZM55.3332 20.9038C55.4751 20.8431 55.6126 20.7781 55.7456 20.713C55.5549 20.7347 55.3598 20.7564 55.1691 20.7781C55.2267 20.8214 55.2799 20.8604 55.3332 20.9038ZM29.2677 20.713C29.4007 20.7781 29.5382 20.8387 29.6801 20.9038C29.7334 20.8604 29.7866 20.8214 29.8442 20.7781C29.6491 20.7564 29.4584 20.7347 29.2677 20.713ZM55.1247 20.9904C55.0404 20.9254 54.9517 20.8604 54.8542 20.7997C53.5192 20.9514 52.1044 21.0728 50.6762 21.1681C51.4258 21.3458 52.0955 21.5452 52.6765 21.7619C53.6034 21.5322 54.424 21.2765 55.1247 20.9904ZM34.3371 21.1681C32.909 21.0728 31.4941 20.9514 30.1237 20.8084C30.0527 20.8647 29.9729 20.9254 29.8886 20.9904C30.5849 21.2722 31.4099 21.5322 32.3368 21.7619C32.9178 21.5452 33.5875 21.3458 34.3371 21.1681ZM32.0175 21.8876C31.1526 21.6622 30.3809 21.4065 29.7156 21.1291C29.5205 21.3025 29.3697 21.4802 29.2721 21.6622C30.1636 21.7533 31.0728 21.8356 31.9776 21.9049L32.0175 21.8876ZM55.7412 21.6622C55.6436 21.4802 55.4928 21.3025 55.2977 21.1291C54.6324 21.4065 53.8607 21.6622 52.9958 21.8876L53.0357 21.9049C53.9361 21.8356 54.8453 21.7533 55.7412 21.6622ZM52.3305 21.8443C51.6431 21.6059 50.8403 21.3935 49.9444 21.2115C49.155 21.2592 48.3478 21.3025 47.5273 21.3372C45.904 21.4845 44.2142 21.5582 42.5111 21.5582C40.808 21.5582 39.1137 21.4845 37.4905 21.3372C36.6744 21.3025 35.8672 21.2635 35.0644 21.2115C34.1818 21.3892 33.3835 21.6016 32.6916 21.8399C32.94 21.8963 33.1928 21.9526 33.45 22.0046C36.4039 22.1997 39.4553 22.3037 42.5111 22.3037C45.5669 22.3037 48.6227 22.204 51.581 22.0046C51.8338 21.9526 52.0866 21.8963 52.335 21.8399L52.3305 21.8443ZM54.3397 22.6028C54.9074 22.3774 55.3819 22.1303 55.7634 21.8746C55.0138 21.9483 54.2377 22.022 53.4482 22.087C53.7942 22.2517 54.0958 22.425 54.3441 22.6028H54.3397ZM31.574 22.087C30.7934 22.022 30.0172 21.9526 29.2588 21.8746C29.6181 22.1217 30.1015 22.3687 30.6781 22.6028C30.9264 22.425 31.2236 22.2517 31.574 22.087ZM55.6791 22.8151C55.821 22.6028 55.892 22.3904 55.892 22.1867C55.892 22.139 55.892 22.0913 55.8787 22.0393C55.5106 22.2864 55.0537 22.5247 54.5215 22.7458C54.5836 22.7978 54.6457 22.8498 54.6989 22.9061C55.0271 22.8801 55.3553 22.8498 55.6791 22.8195V22.8151ZM30.5007 22.7414C29.9684 22.5204 29.5116 22.2864 29.1435 22.035C29.1346 22.087 29.1302 22.139 29.1302 22.1823C29.1302 22.3904 29.2011 22.6027 29.3431 22.8108C29.6668 22.8411 29.995 22.8671 30.3232 22.8975C30.3765 22.8455 30.4386 22.7891 30.5007 22.7371V22.7414ZM54.1224 22.6894C53.8296 22.4901 53.4615 22.295 53.0313 22.113C52.5479 22.1563 52.0334 22.1953 51.5189 22.23C50.5121 22.4337 49.4211 22.6027 48.2679 22.7328C49.0707 22.8585 49.8158 23.0102 50.4855 23.1835C51.3859 23.1359 52.2729 23.0838 53.1511 23.0188C53.4793 22.9191 53.8075 22.8065 54.1179 22.6894H54.1224ZM36.7542 22.7328C35.6055 22.6027 34.51 22.4337 33.4988 22.2257C32.9888 22.191 32.4787 22.1563 31.9687 22.113C31.5607 22.2907 31.197 22.4857 30.9043 22.6851C31.2147 22.8021 31.5429 22.9148 31.8844 23.0188C32.7493 23.0795 33.6408 23.1359 34.5411 23.1835C35.2152 23.0102 35.9603 22.8585 36.7587 22.7328H36.7542ZM47.4075 22.6114C48.2014 22.5377 48.9776 22.4424 49.7182 22.334C48.5385 22.3947 47.341 22.4424 46.1391 22.4727C46.5693 22.5117 46.9906 22.5594 47.4031 22.6114H47.4075ZM38.8787 22.4727C37.6768 22.4424 36.4793 22.3947 35.2995 22.334C36.0402 22.4424 36.8163 22.5377 37.6102 22.6114C38.0227 22.5594 38.444 22.5117 38.8743 22.4727H38.8787ZM46.3298 22.6981C45.1012 22.5811 43.8195 22.5204 42.5111 22.5204C41.2027 22.5204 39.9209 22.5811 38.6924 22.6981C39.9387 22.7848 41.2205 22.8325 42.5111 22.8325C43.8017 22.8325 45.0835 22.7891 46.3298 22.6981ZM49.7715 23.2182C49.0441 23.0578 48.2546 22.9235 47.4119 22.8195C45.8375 22.9712 44.1831 23.0448 42.5155 23.0448C40.8479 23.0448 39.1936 22.9668 37.6058 22.8195C36.7764 22.9278 35.9825 23.0622 35.2596 23.2182C37.6457 23.3309 40.0895 23.3916 42.52 23.3916C44.9504 23.3916 47.3898 23.3352 49.7803 23.2182H49.7715ZM54.3131 22.8238C54.1978 22.8671 54.078 22.9148 53.9583 22.9582C54.1179 22.9452 54.2732 22.9321 54.4328 22.9191C54.3973 22.8888 54.3574 22.8541 54.3175 22.8238H54.3131ZM31.0728 22.9582C30.953 22.9148 30.8333 22.8715 30.718 22.8238C30.6781 22.8541 30.6381 22.8888 30.6027 22.9191C30.7579 22.9321 30.9176 22.9452 31.0772 22.9582H31.0728ZM55.0892 23.4089C55.2489 23.2919 55.3864 23.1705 55.5017 23.0448C55.5017 23.0448 55.0493 23.0882 54.8941 23.1012C54.9739 23.2009 55.0404 23.3049 55.0937 23.4089H55.0892ZM29.5293 23.0448C29.6447 23.1662 29.7822 23.2876 29.9418 23.4089C29.995 23.3049 30.0616 23.2009 30.1414 23.1012C29.9862 23.0882 29.5338 23.0448 29.5338 23.0448H29.5293ZM54.9163 23.5303C54.8542 23.3916 54.7655 23.2529 54.6413 23.1185C54.1357 23.1619 53.6256 23.2009 53.1111 23.2355C52.712 23.3569 52.2685 23.4739 51.8116 23.5823C52.4281 23.8033 52.9382 24.0417 53.3373 24.2974C53.976 24.059 54.5082 23.799 54.9207 23.5259L54.9163 23.5303ZM33.2238 23.5823C32.7626 23.4739 32.3235 23.3569 31.911 23.2312C31.4099 23.1965 30.8998 23.1575 30.3898 23.1185C30.2656 23.2529 30.1769 23.3916 30.1148 23.5303C30.5273 23.8033 31.0595 24.0634 31.6981 24.3017C32.0973 24.046 32.6074 23.8033 33.2238 23.5866V23.5823ZM51.4435 23.4566C51.6741 23.4046 51.9003 23.3526 52.1132 23.3006C51.7895 23.3222 51.4657 23.3396 51.1375 23.3612C51.2395 23.3916 51.3415 23.4262 51.4435 23.4566ZM32.9178 23.3006C33.1307 23.3526 33.3569 23.4046 33.5875 23.4566C33.6895 23.4262 33.7871 23.3916 33.8936 23.3612C33.5654 23.3439 33.2416 23.3222 32.9178 23.3006ZM51.0444 23.5389C50.8714 23.4869 50.6895 23.4392 50.5033 23.3916C47.8776 23.5303 45.1855 23.6039 42.5155 23.6039C39.8455 23.6039 37.1534 23.5346 34.51 23.3959C34.3371 23.4436 34.1597 23.4913 33.9823 23.5433C36.466 24.0504 39.4109 24.3191 42.5111 24.3191C45.6113 24.3191 48.5562 24.0504 51.0399 23.5433L51.0444 23.5389ZM53.0978 24.3798C52.6676 24.1197 52.1044 23.877 51.4258 23.656C48.8756 24.2237 45.7842 24.5228 42.5111 24.5228C39.2379 24.5228 36.1466 24.2237 33.5698 23.656C32.9178 23.877 32.359 24.1197 31.9288 24.3798C34.4923 25.2813 38.342 25.797 42.5111 25.797C46.6801 25.797 50.5299 25.2813 53.0934 24.3798H53.0978ZM54.1711 25.1036C54.7211 24.7178 55.0005 24.3148 55.0005 23.9073C55.0005 23.8467 54.9917 23.786 54.9783 23.7166C54.5881 23.968 54.1046 24.2064 53.528 24.4274C53.8252 24.6441 54.0425 24.8695 54.1711 25.1036ZM31.503 24.4274C30.9309 24.2064 30.443 23.968 30.0527 23.7166C30.035 23.786 30.0305 23.8467 30.0305 23.9073C30.0305 24.3148 30.3099 24.7178 30.8599 25.1036C30.9885 24.8739 31.2058 24.6441 31.503 24.4274ZM53.9937 25.2206C53.8696 24.9779 53.6389 24.7395 53.3063 24.5098C50.7073 25.459 46.7777 26.0051 42.5155 26.0051C38.2533 26.0051 34.3238 25.459 31.7248 24.5098C31.3921 24.7395 31.1615 24.9779 31.0373 25.2206C33.0243 26.4688 37.5171 27.275 42.5155 27.275C47.514 27.275 52.0112 26.4688 53.9937 25.2206ZM42.5155 27.4874C37.5393 27.4874 33.0198 26.6682 30.9619 25.3983C30.9397 25.4763 30.9264 25.5543 30.9264 25.6323C30.9264 27.353 36.1244 28.7573 42.5155 28.7573C48.9066 28.7573 54.1046 27.3573 54.1046 25.6323C54.1046 25.5543 54.0913 25.4763 54.0691 25.3983C52.0112 26.6682 47.4918 27.4874 42.5155 27.4874Z" fill="#5993C9"></path></svg> 